M48
; DRILL file {KiCad 5.1.7-a382d34a8~87~ubuntu20.04.1} date Mon Nov  2 17:40:17 2020
; FORMAT={-:-/ absolute / inch / decimal}
; #@! TF.CreationDate,2020-11-02T17:40:17+01:00
; #@! TF.GenerationSoftware,Kicad,Pcbnew,5.1.7-a382d34a8~87~ubuntu20.04.1
FMAT,2
INCH
T1C0.0346
T2C0.0354
T3C0.0472
T4C0.0512
T5C0.0669
T6C0.1260
%
G90
G05
T1
X2.065Y-3.02
X2.065Y-3.12
X2.065Y-3.22
X2.065Y-3.32
X2.055Y-3.67
X2.055Y-3.77
X2.055Y-3.87
X2.055Y-3.97
X2.055Y-5.62
X2.055Y-5.72
X2.055Y-5.82
X2.055Y-5.92
X2.055Y-4.97
X2.055Y-5.07
X2.055Y-5.17
X2.055Y-5.27
X2.065Y-2.37
X2.065Y-2.47
X2.065Y-2.57
X2.065Y-2.67
X2.06Y-1.72
X2.06Y-1.82
X2.06Y-1.92
X2.06Y-2.02
X2.055Y-4.32
X2.055Y-4.42
X2.055Y-4.52
X2.055Y-4.62
T2
X2.65Y-1.02
X2.65Y-1.12
T3
X3.2566Y-1.82
X3.2566Y-1.9578
X5.5598Y-1.82
X3.255Y-4.42
X3.255Y-4.5578
X5.5581Y-4.42
X3.255Y-5.695
X3.255Y-5.8328
X5.5581Y-5.695
X3.255Y-3.77
X3.255Y-3.9078
X5.5581Y-3.77
X3.255Y-5.07
X3.255Y-5.2078
X5.5581Y-5.07
X3.255Y-2.47
X3.255Y-2.6078
X5.5581Y-2.47
X3.255Y-3.12
X3.255Y-3.2578
X5.5581Y-3.12
T4
X6.35Y-2.272
X6.35Y-2.4689
X6.35Y-2.6657
X6.35Y-2.8626
X6.35Y-3.0594
X6.35Y-3.2563
X6.35Y-3.4531
X6.35Y-3.65
X1.97Y-1.065
X1.97Y-1.2619
T5
X3.42Y-2.0543
X3.4672Y-1.7235
X5.3491Y-1.7235
X5.3964Y-2.0543
X3.4184Y-4.6543
X3.4656Y-4.3235
X5.3475Y-4.3235
X5.3948Y-4.6543
X3.4184Y-5.9293
X3.4656Y-5.5985
X5.3475Y-5.5985
X5.3948Y-5.9293
X3.4184Y-4.0043
X3.4656Y-3.6735
X5.3475Y-3.6735
X5.3948Y-4.0043
X3.4184Y-5.3043
X3.4656Y-4.9735
X5.3475Y-4.9735
X5.3948Y-5.3043
X3.4184Y-2.7043
X3.4656Y-2.3735
X5.3475Y-2.3735
X5.3948Y-2.7043
X3.4184Y-3.3543
X3.4656Y-3.0235
X5.3475Y-3.0235
X5.3948Y-3.3543
T6
X6.325Y-6.225
X6.325Y-1.15
X2.05Y-6.225
X3.1Y-1.15
T0
M30
