%TF.GenerationSoftware,KiCad,Pcbnew,5.1.7-a382d34a8~87~ubuntu20.04.1*%
%TF.CreationDate,2020-11-02T17:40:13+01:00*%
%TF.ProjectId,7CellBatterySimulator_7CBS,3743656c-6c42-4617-9474-65727953696d,V1.0*%
%TF.SameCoordinates,Original*%
%TF.FileFunction,Legend,Top*%
%TF.FilePolarity,Positive*%
%FSLAX46Y46*%
G04 Gerber Fmt 4.6, Leading zero omitted, Abs format (unit mm)*
G04 Created by KiCad (PCBNEW 5.1.7-a382d34a8~87~ubuntu20.04.1) date 2020-11-02 17:40:13*
%MOMM*%
%LPD*%
G01*
G04 APERTURE LIST*
%ADD10C,0.300000*%
%ADD11C,0.100000*%
%ADD12C,0.010000*%
%ADD13C,0.120000*%
%ADD14C,0.150000*%
G04 APERTURE END LIST*
D10*
X159444857Y-96920857D02*
X159659142Y-96992285D01*
X159730571Y-97063714D01*
X159802000Y-97206571D01*
X159802000Y-97420857D01*
X159730571Y-97563714D01*
X159659142Y-97635142D01*
X159516285Y-97706571D01*
X158944857Y-97706571D01*
X158944857Y-96206571D01*
X159444857Y-96206571D01*
X159587714Y-96278000D01*
X159659142Y-96349428D01*
X159730571Y-96492285D01*
X159730571Y-96635142D01*
X159659142Y-96778000D01*
X159587714Y-96849428D01*
X159444857Y-96920857D01*
X158944857Y-96920857D01*
X160373428Y-97278000D02*
X161087714Y-97278000D01*
X160230571Y-97706571D02*
X160730571Y-96206571D01*
X161230571Y-97706571D01*
X161516285Y-96206571D02*
X162373428Y-96206571D01*
X161944857Y-97706571D02*
X161944857Y-96206571D01*
X162659142Y-96206571D02*
X163516285Y-96206571D01*
X163087714Y-97706571D02*
X163087714Y-96206571D01*
X164016285Y-97135142D02*
X165159142Y-97135142D01*
X159444857Y-53232857D02*
X159659142Y-53304285D01*
X159730571Y-53375714D01*
X159802000Y-53518571D01*
X159802000Y-53732857D01*
X159730571Y-53875714D01*
X159659142Y-53947142D01*
X159516285Y-54018571D01*
X158944857Y-54018571D01*
X158944857Y-52518571D01*
X159444857Y-52518571D01*
X159587714Y-52590000D01*
X159659142Y-52661428D01*
X159730571Y-52804285D01*
X159730571Y-52947142D01*
X159659142Y-53090000D01*
X159587714Y-53161428D01*
X159444857Y-53232857D01*
X158944857Y-53232857D01*
X160373428Y-53590000D02*
X161087714Y-53590000D01*
X160230571Y-54018571D02*
X160730571Y-52518571D01*
X161230571Y-54018571D01*
X161516285Y-52518571D02*
X162373428Y-52518571D01*
X161944857Y-54018571D02*
X161944857Y-52518571D01*
X162659142Y-52518571D02*
X163516285Y-52518571D01*
X163087714Y-54018571D02*
X163087714Y-52518571D01*
X164016285Y-53447142D02*
X165159142Y-53447142D01*
X164587714Y-54018571D02*
X164587714Y-52875714D01*
X149423571Y-72072857D02*
X149280714Y-71930000D01*
X149137857Y-71501428D01*
X149137857Y-71215714D01*
X149280714Y-70787142D01*
X149566428Y-70501428D01*
X149852142Y-70358571D01*
X150423571Y-70215714D01*
X150852142Y-70215714D01*
X151423571Y-70358571D01*
X151709285Y-70501428D01*
X151995000Y-70787142D01*
X152137857Y-71215714D01*
X152137857Y-71501428D01*
X151995000Y-71930000D01*
X151852142Y-72072857D01*
X150709285Y-73358571D02*
X150709285Y-74358571D01*
X149137857Y-74787142D02*
X149137857Y-73358571D01*
X152137857Y-73358571D01*
X152137857Y-74787142D01*
X149137857Y-77501428D02*
X149137857Y-76072857D01*
X152137857Y-76072857D01*
X149137857Y-79930000D02*
X149137857Y-78501428D01*
X152137857Y-78501428D01*
X91880000Y-28837142D02*
X93880000Y-28837142D01*
X92594285Y-31837142D01*
X99022857Y-31551428D02*
X98880000Y-31694285D01*
X98451428Y-31837142D01*
X98165714Y-31837142D01*
X97737142Y-31694285D01*
X97451428Y-31408571D01*
X97308571Y-31122857D01*
X97165714Y-30551428D01*
X97165714Y-30122857D01*
X97308571Y-29551428D01*
X97451428Y-29265714D01*
X97737142Y-28980000D01*
X98165714Y-28837142D01*
X98451428Y-28837142D01*
X98880000Y-28980000D01*
X99022857Y-29122857D01*
X101451428Y-31694285D02*
X101165714Y-31837142D01*
X100594285Y-31837142D01*
X100308571Y-31694285D01*
X100165714Y-31408571D01*
X100165714Y-30265714D01*
X100308571Y-29980000D01*
X100594285Y-29837142D01*
X101165714Y-29837142D01*
X101451428Y-29980000D01*
X101594285Y-30265714D01*
X101594285Y-30551428D01*
X100165714Y-30837142D01*
X103308571Y-31837142D02*
X103022857Y-31694285D01*
X102880000Y-31408571D01*
X102880000Y-28837142D01*
X104880000Y-31837142D02*
X104594285Y-31694285D01*
X104451428Y-31408571D01*
X104451428Y-28837142D01*
X109308571Y-30265714D02*
X109737142Y-30408571D01*
X109880000Y-30551428D01*
X110022857Y-30837142D01*
X110022857Y-31265714D01*
X109880000Y-31551428D01*
X109737142Y-31694285D01*
X109451428Y-31837142D01*
X108308571Y-31837142D01*
X108308571Y-28837142D01*
X109308571Y-28837142D01*
X109594285Y-28980000D01*
X109737142Y-29122857D01*
X109880000Y-29408571D01*
X109880000Y-29694285D01*
X109737142Y-29980000D01*
X109594285Y-30122857D01*
X109308571Y-30265714D01*
X108308571Y-30265714D01*
X112594285Y-31837142D02*
X112594285Y-30265714D01*
X112451428Y-29980000D01*
X112165714Y-29837142D01*
X111594285Y-29837142D01*
X111308571Y-29980000D01*
X112594285Y-31694285D02*
X112308571Y-31837142D01*
X111594285Y-31837142D01*
X111308571Y-31694285D01*
X111165714Y-31408571D01*
X111165714Y-31122857D01*
X111308571Y-30837142D01*
X111594285Y-30694285D01*
X112308571Y-30694285D01*
X112594285Y-30551428D01*
X113594285Y-29837142D02*
X114737142Y-29837142D01*
X114022857Y-28837142D02*
X114022857Y-31408571D01*
X114165714Y-31694285D01*
X114451428Y-31837142D01*
X114737142Y-31837142D01*
X115308571Y-29837142D02*
X116451428Y-29837142D01*
X115737142Y-28837142D02*
X115737142Y-31408571D01*
X115879999Y-31694285D01*
X116165714Y-31837142D01*
X116451428Y-31837142D01*
X118594285Y-31694285D02*
X118308571Y-31837142D01*
X117737142Y-31837142D01*
X117451428Y-31694285D01*
X117308571Y-31408571D01*
X117308571Y-30265714D01*
X117451428Y-29980000D01*
X117737142Y-29837142D01*
X118308571Y-29837142D01*
X118594285Y-29980000D01*
X118737142Y-30265714D01*
X118737142Y-30551428D01*
X117308571Y-30837142D01*
X120022857Y-31837142D02*
X120022857Y-29837142D01*
X120022857Y-30408571D02*
X120165714Y-30122857D01*
X120308571Y-29980000D01*
X120594285Y-29837142D01*
X120879999Y-29837142D01*
X121594285Y-29837142D02*
X122308571Y-31837142D01*
X123022857Y-29837142D02*
X122308571Y-31837142D01*
X122022857Y-32551428D01*
X121879999Y-32694285D01*
X121594285Y-32837142D01*
X126308571Y-31694285D02*
X126737142Y-31837142D01*
X127451428Y-31837142D01*
X127737142Y-31694285D01*
X127879999Y-31551428D01*
X128022857Y-31265714D01*
X128022857Y-30980000D01*
X127879999Y-30694285D01*
X127737142Y-30551428D01*
X127451428Y-30408571D01*
X126879999Y-30265714D01*
X126594285Y-30122857D01*
X126451428Y-29980000D01*
X126308571Y-29694285D01*
X126308571Y-29408571D01*
X126451428Y-29122857D01*
X126594285Y-28980000D01*
X126879999Y-28837142D01*
X127594285Y-28837142D01*
X128022857Y-28980000D01*
X129308571Y-31837142D02*
X129308571Y-29837142D01*
X129308571Y-28837142D02*
X129165714Y-28980000D01*
X129308571Y-29122857D01*
X129451428Y-28980000D01*
X129308571Y-28837142D01*
X129308571Y-29122857D01*
X130737142Y-31837142D02*
X130737142Y-29837142D01*
X130737142Y-30122857D02*
X130879999Y-29980000D01*
X131165714Y-29837142D01*
X131594285Y-29837142D01*
X131879999Y-29980000D01*
X132022857Y-30265714D01*
X132022857Y-31837142D01*
X132022857Y-30265714D02*
X132165714Y-29980000D01*
X132451428Y-29837142D01*
X132879999Y-29837142D01*
X133165714Y-29980000D01*
X133308571Y-30265714D01*
X133308571Y-31837142D01*
X136022857Y-29837142D02*
X136022857Y-31837142D01*
X134737142Y-29837142D02*
X134737142Y-31408571D01*
X134880000Y-31694285D01*
X135165714Y-31837142D01*
X135594285Y-31837142D01*
X135880000Y-31694285D01*
X136022857Y-31551428D01*
X137880000Y-31837142D02*
X137594285Y-31694285D01*
X137451428Y-31408571D01*
X137451428Y-28837142D01*
X140308571Y-31837142D02*
X140308571Y-30265714D01*
X140165714Y-29980000D01*
X139880000Y-29837142D01*
X139308571Y-29837142D01*
X139022857Y-29980000D01*
X140308571Y-31694285D02*
X140022857Y-31837142D01*
X139308571Y-31837142D01*
X139022857Y-31694285D01*
X138880000Y-31408571D01*
X138880000Y-31122857D01*
X139022857Y-30837142D01*
X139308571Y-30694285D01*
X140022857Y-30694285D01*
X140308571Y-30551428D01*
X141308571Y-29837142D02*
X142451428Y-29837142D01*
X141737142Y-28837142D02*
X141737142Y-31408571D01*
X141880000Y-31694285D01*
X142165714Y-31837142D01*
X142451428Y-31837142D01*
X143880000Y-31837142D02*
X143594285Y-31694285D01*
X143451428Y-31551428D01*
X143308571Y-31265714D01*
X143308571Y-30408571D01*
X143451428Y-30122857D01*
X143594285Y-29980000D01*
X143880000Y-29837142D01*
X144308571Y-29837142D01*
X144594285Y-29980000D01*
X144737142Y-30122857D01*
X144880000Y-30408571D01*
X144880000Y-31265714D01*
X144737142Y-31551428D01*
X144594285Y-31694285D01*
X144308571Y-31837142D01*
X143880000Y-31837142D01*
X146165714Y-31837142D02*
X146165714Y-29837142D01*
X146165714Y-30408571D02*
X146308571Y-30122857D01*
X146451428Y-29980000D01*
X146737142Y-29837142D01*
X147022857Y-29837142D01*
X56999428Y-25507142D02*
X58142285Y-25507142D01*
X57570857Y-26078571D02*
X57570857Y-24935714D01*
X59570857Y-24578571D02*
X58856571Y-24578571D01*
X58785142Y-25292857D01*
X58856571Y-25221428D01*
X58999428Y-25150000D01*
X59356571Y-25150000D01*
X59499428Y-25221428D01*
X59570857Y-25292857D01*
X59642285Y-25435714D01*
X59642285Y-25792857D01*
X59570857Y-25935714D01*
X59499428Y-26007142D01*
X59356571Y-26078571D01*
X58999428Y-26078571D01*
X58856571Y-26007142D01*
X58785142Y-25935714D01*
X60070857Y-24578571D02*
X60570857Y-26078571D01*
X61070857Y-24578571D01*
X58213714Y-32706571D02*
X58356571Y-32706571D01*
X58499428Y-32778000D01*
X58570857Y-32849428D01*
X58642285Y-32992285D01*
X58713714Y-33278000D01*
X58713714Y-33635142D01*
X58642285Y-33920857D01*
X58570857Y-34063714D01*
X58499428Y-34135142D01*
X58356571Y-34206571D01*
X58213714Y-34206571D01*
X58070857Y-34135142D01*
X57999428Y-34063714D01*
X57928000Y-33920857D01*
X57856571Y-33635142D01*
X57856571Y-33278000D01*
X57928000Y-32992285D01*
X57999428Y-32849428D01*
X58070857Y-32778000D01*
X58213714Y-32706571D01*
X59142285Y-32706571D02*
X59642285Y-34206571D01*
X60142285Y-32706571D01*
D11*
G36*
X146050000Y-39624000D02*
G01*
X78105000Y-39624000D01*
X78105000Y-34544000D01*
X146050000Y-34544000D01*
X146050000Y-39624000D01*
G37*
X146050000Y-39624000D02*
X78105000Y-39624000D01*
X78105000Y-34544000D01*
X146050000Y-34544000D01*
X146050000Y-39624000D01*
G36*
X146050000Y-158750000D02*
G01*
X78105000Y-158750000D01*
X78105000Y-153670000D01*
X146050000Y-153670000D01*
X146050000Y-158750000D01*
G37*
X146050000Y-158750000D02*
X78105000Y-158750000D01*
X78105000Y-153670000D01*
X146050000Y-153670000D01*
X146050000Y-158750000D01*
D12*
%TO.C,L102*%
G36*
X156316355Y-140208013D02*
G01*
X156407070Y-140208080D01*
X156483439Y-140208242D01*
X156546753Y-140208540D01*
X156598308Y-140209014D01*
X156639395Y-140209707D01*
X156671309Y-140210658D01*
X156695342Y-140211910D01*
X156712787Y-140213503D01*
X156724939Y-140215478D01*
X156733089Y-140217876D01*
X156738532Y-140220738D01*
X156742560Y-140224106D01*
X156743399Y-140224934D01*
X156755802Y-140239749D01*
X156760333Y-140249389D01*
X156761840Y-140258845D01*
X156766181Y-140283485D01*
X156773090Y-140321847D01*
X156782298Y-140372466D01*
X156793538Y-140433882D01*
X156806543Y-140504630D01*
X156821043Y-140583248D01*
X156836772Y-140668273D01*
X156853462Y-140758243D01*
X156853697Y-140759505D01*
X156875798Y-140877685D01*
X156895195Y-140979677D01*
X156911993Y-141065991D01*
X156926299Y-141137135D01*
X156938217Y-141193622D01*
X156947853Y-141235960D01*
X156955313Y-141264660D01*
X156960703Y-141280232D01*
X156962015Y-141282536D01*
X156973258Y-141290482D01*
X156998330Y-141303729D01*
X157035268Y-141321465D01*
X157082112Y-141342872D01*
X157136900Y-141367138D01*
X157197671Y-141393445D01*
X157262463Y-141420980D01*
X157329314Y-141448928D01*
X157396265Y-141476473D01*
X157461352Y-141502801D01*
X157522615Y-141527096D01*
X157578093Y-141548543D01*
X157625823Y-141566328D01*
X157663845Y-141579635D01*
X157690196Y-141587650D01*
X157701245Y-141589701D01*
X157709280Y-141588932D01*
X157719657Y-141585825D01*
X157733514Y-141579658D01*
X157751989Y-141569710D01*
X157776221Y-141555259D01*
X157807346Y-141535582D01*
X157846504Y-141509957D01*
X157894832Y-141477663D01*
X157953469Y-141437978D01*
X158023553Y-141390180D01*
X158106221Y-141333546D01*
X158120345Y-141323855D01*
X158214376Y-141259299D01*
X158295423Y-141203646D01*
X158364494Y-141156260D01*
X158422597Y-141116506D01*
X158470739Y-141083750D01*
X158509930Y-141057356D01*
X158541177Y-141036691D01*
X158565487Y-141021119D01*
X158583870Y-141010006D01*
X158597333Y-141002716D01*
X158606885Y-140998615D01*
X158613533Y-140997069D01*
X158618285Y-140997442D01*
X158622150Y-140999099D01*
X158626136Y-141001406D01*
X158629676Y-141003125D01*
X158639867Y-141010792D01*
X158660849Y-141029408D01*
X158691497Y-141057888D01*
X158730688Y-141095151D01*
X158777298Y-141140110D01*
X158830203Y-141191684D01*
X158888279Y-141248788D01*
X158950402Y-141310339D01*
X159010835Y-141370634D01*
X159088271Y-141448285D01*
X159154382Y-141514901D01*
X159209939Y-141571301D01*
X159255710Y-141618302D01*
X159292467Y-141656719D01*
X159320978Y-141687372D01*
X159342014Y-141711077D01*
X159356346Y-141728650D01*
X159364741Y-141740911D01*
X159367972Y-141748675D01*
X159368066Y-141749808D01*
X159363295Y-141761983D01*
X159348950Y-141787391D01*
X159324981Y-141826105D01*
X159291341Y-141878200D01*
X159247982Y-141943750D01*
X159194854Y-142022830D01*
X159131909Y-142115514D01*
X159075966Y-142197300D01*
X159007488Y-142297452D01*
X158948629Y-142384201D01*
X158899151Y-142457910D01*
X158858816Y-142518944D01*
X158827386Y-142567670D01*
X158804624Y-142604450D01*
X158790291Y-142629651D01*
X158784150Y-142643637D01*
X158783866Y-142645527D01*
X158787209Y-142659511D01*
X158796689Y-142686827D01*
X158811486Y-142725581D01*
X158830778Y-142773879D01*
X158853744Y-142829828D01*
X158879561Y-142891532D01*
X158907409Y-142957099D01*
X158936467Y-143024634D01*
X158965912Y-143092243D01*
X158994924Y-143158032D01*
X159022681Y-143220108D01*
X159048362Y-143276577D01*
X159071145Y-143325544D01*
X159090208Y-143365115D01*
X159104731Y-143393397D01*
X159113892Y-143408496D01*
X159115509Y-143410200D01*
X159128185Y-143415216D01*
X159155972Y-143422655D01*
X159199108Y-143432566D01*
X159257831Y-143444997D01*
X159332377Y-143459998D01*
X159422985Y-143477619D01*
X159529890Y-143497908D01*
X159617833Y-143514334D01*
X159706460Y-143530816D01*
X159790482Y-143546480D01*
X159868356Y-143561037D01*
X159938539Y-143574197D01*
X159999488Y-143585669D01*
X160049661Y-143595163D01*
X160087514Y-143602389D01*
X160111505Y-143607056D01*
X160119706Y-143608759D01*
X160138596Y-143618912D01*
X160147223Y-143628951D01*
X160148978Y-143640720D01*
X160150552Y-143668591D01*
X160151931Y-143711733D01*
X160153102Y-143769315D01*
X160154053Y-143840506D01*
X160154771Y-143924475D01*
X160155242Y-144020392D01*
X160155455Y-144127425D01*
X160155466Y-144160065D01*
X160155448Y-144266444D01*
X160155367Y-144357175D01*
X160155185Y-144433547D01*
X160154864Y-144496844D01*
X160154364Y-144548352D01*
X160153646Y-144589359D01*
X160152673Y-144621151D01*
X160151405Y-144645013D01*
X160149804Y-144662233D01*
X160147832Y-144674096D01*
X160145448Y-144681889D01*
X160142615Y-144686898D01*
X160139521Y-144690206D01*
X160130154Y-144694633D01*
X160109598Y-144700748D01*
X160077124Y-144708704D01*
X160032003Y-144718654D01*
X159973507Y-144730749D01*
X159900908Y-144745143D01*
X159813476Y-144761987D01*
X159710484Y-144781435D01*
X159646338Y-144793408D01*
X159558365Y-144809802D01*
X159475125Y-144825374D01*
X159398152Y-144839831D01*
X159328980Y-144852883D01*
X159269144Y-144864239D01*
X159220179Y-144873608D01*
X159183619Y-144880699D01*
X159160999Y-144885221D01*
X159154057Y-144886766D01*
X159138247Y-144897043D01*
X159126056Y-144911129D01*
X159119509Y-144924168D01*
X159107742Y-144950776D01*
X159091497Y-144989087D01*
X159071517Y-145037233D01*
X159048545Y-145093347D01*
X159023321Y-145155560D01*
X158996590Y-145222006D01*
X158969093Y-145290817D01*
X158941572Y-145360125D01*
X158914770Y-145428063D01*
X158889429Y-145492763D01*
X158866292Y-145552359D01*
X158846101Y-145604981D01*
X158829598Y-145648764D01*
X158817525Y-145681839D01*
X158810626Y-145702339D01*
X158809266Y-145708073D01*
X158813871Y-145723338D01*
X158826098Y-145747677D01*
X158843569Y-145776500D01*
X158848860Y-145784432D01*
X158862329Y-145804162D01*
X158884106Y-145836001D01*
X158912919Y-145878095D01*
X158947500Y-145928591D01*
X158986577Y-145985632D01*
X159028882Y-146047366D01*
X159073142Y-146111936D01*
X159088726Y-146134667D01*
X159133367Y-146199788D01*
X159176489Y-146262715D01*
X159216823Y-146321594D01*
X159253100Y-146374571D01*
X159284048Y-146419791D01*
X159308399Y-146455399D01*
X159324882Y-146479541D01*
X159328532Y-146484901D01*
X159346981Y-146514136D01*
X159360834Y-146540098D01*
X159367713Y-146558202D01*
X159368066Y-146561138D01*
X159363214Y-146570198D01*
X159348450Y-146588581D01*
X159323461Y-146616613D01*
X159287936Y-146654622D01*
X159241563Y-146702936D01*
X159184029Y-146761881D01*
X159115023Y-146831785D01*
X159034233Y-146912975D01*
X159001847Y-146945387D01*
X158924276Y-147022832D01*
X158857716Y-147089013D01*
X158801306Y-147144741D01*
X158754185Y-147190826D01*
X158715491Y-147228079D01*
X158684363Y-147257310D01*
X158659940Y-147279329D01*
X158641360Y-147294948D01*
X158627763Y-147304976D01*
X158618286Y-147310225D01*
X158612752Y-147311533D01*
X158602074Y-147307959D01*
X158581441Y-147297008D01*
X158550326Y-147278338D01*
X158508203Y-147251608D01*
X158454543Y-147216476D01*
X158388820Y-147172601D01*
X158310508Y-147119641D01*
X158219078Y-147057254D01*
X158194774Y-147040600D01*
X158101833Y-146977054D01*
X158022016Y-146922895D01*
X157954650Y-146877689D01*
X157899065Y-146841003D01*
X157854590Y-146812401D01*
X157820554Y-146791450D01*
X157796286Y-146777716D01*
X157781115Y-146770764D01*
X157776124Y-146769667D01*
X157761362Y-146773688D01*
X157733737Y-146785161D01*
X157695125Y-146803195D01*
X157647401Y-146826903D01*
X157592440Y-146855395D01*
X157569560Y-146867553D01*
X157502157Y-146903068D01*
X157448879Y-146929942D01*
X157409385Y-146948334D01*
X157383332Y-146958403D01*
X157370410Y-146960318D01*
X157367924Y-146959827D01*
X157365771Y-146959567D01*
X157363601Y-146958719D01*
X157361061Y-146956464D01*
X157357800Y-146951985D01*
X157353466Y-146944462D01*
X157347708Y-146933078D01*
X157340174Y-146917013D01*
X157330512Y-146895449D01*
X157318371Y-146867568D01*
X157303398Y-146832551D01*
X157285244Y-146789579D01*
X157263554Y-146737834D01*
X157237980Y-146676498D01*
X157208167Y-146604752D01*
X157173765Y-146521777D01*
X157134423Y-146426755D01*
X157089788Y-146318867D01*
X157039509Y-146197295D01*
X156983234Y-146061221D01*
X156959449Y-146003713D01*
X156899539Y-145858601D01*
X156846201Y-145728836D01*
X156799349Y-145614200D01*
X156758894Y-145514470D01*
X156724749Y-145429428D01*
X156696825Y-145358852D01*
X156675036Y-145302522D01*
X156659293Y-145260218D01*
X156649509Y-145231719D01*
X156645597Y-145216805D01*
X156645585Y-145214804D01*
X156655901Y-145199613D01*
X156678713Y-145180250D01*
X156703192Y-145163990D01*
X156753851Y-145131133D01*
X156809865Y-145091247D01*
X156867348Y-145047402D01*
X156922412Y-145002669D01*
X156971172Y-144960117D01*
X157009741Y-144922817D01*
X157013438Y-144918905D01*
X157100247Y-144813725D01*
X157173545Y-144699072D01*
X157232505Y-144576603D01*
X157276295Y-144447974D01*
X157298473Y-144349647D01*
X157305838Y-144292066D01*
X157310061Y-144223697D01*
X157311141Y-144150392D01*
X157309079Y-144078000D01*
X157303874Y-144012373D01*
X157298473Y-143974220D01*
X157266787Y-143842352D01*
X157220465Y-143717538D01*
X157160514Y-143600697D01*
X157087941Y-143492750D01*
X157003755Y-143394617D01*
X156908964Y-143307218D01*
X156804574Y-143231472D01*
X156691594Y-143168300D01*
X156571032Y-143118622D01*
X156443896Y-143083357D01*
X156311193Y-143063427D01*
X156299736Y-143062473D01*
X156164235Y-143059918D01*
X156032872Y-143073082D01*
X155906548Y-143101070D01*
X155786163Y-143142986D01*
X155672616Y-143197935D01*
X155566808Y-143265020D01*
X155469639Y-143343347D01*
X155382010Y-143432019D01*
X155304820Y-143530141D01*
X155238969Y-143636818D01*
X155185358Y-143751154D01*
X155144887Y-143872252D01*
X155118456Y-143999218D01*
X155106964Y-144131157D01*
X155109620Y-144246600D01*
X155127324Y-144375978D01*
X155160710Y-144502994D01*
X155208784Y-144625536D01*
X155270550Y-144741490D01*
X155345014Y-144848745D01*
X155431180Y-144945187D01*
X155444831Y-144958380D01*
X155479719Y-144989241D01*
X155524888Y-145025955D01*
X155576242Y-145065432D01*
X155629683Y-145104582D01*
X155681115Y-145140312D01*
X155716906Y-145163636D01*
X155745562Y-145183715D01*
X155766008Y-145202235D01*
X155774513Y-145215199D01*
X155772196Y-145226456D01*
X155763370Y-145252843D01*
X155748017Y-145294406D01*
X155726116Y-145351195D01*
X155697649Y-145423257D01*
X155662596Y-145510642D01*
X155620938Y-145613397D01*
X155572656Y-145731570D01*
X155517731Y-145865209D01*
X155460550Y-146003713D01*
X155401831Y-146145692D01*
X155349245Y-146272847D01*
X155302440Y-146385997D01*
X155261066Y-146485960D01*
X155224771Y-146573556D01*
X155193203Y-146649603D01*
X155166010Y-146714919D01*
X155142842Y-146770322D01*
X155123345Y-146816633D01*
X155107170Y-146854669D01*
X155093963Y-146885249D01*
X155083374Y-146909191D01*
X155075052Y-146927315D01*
X155068643Y-146940438D01*
X155063798Y-146949379D01*
X155060163Y-146954958D01*
X155057389Y-146957992D01*
X155055122Y-146959301D01*
X155053012Y-146959702D01*
X155050707Y-146960015D01*
X155049721Y-146960277D01*
X155036451Y-146958178D01*
X155009650Y-146947634D01*
X154969088Y-146928538D01*
X154914537Y-146900782D01*
X154851807Y-146867511D01*
X154788991Y-146834297D01*
X154735748Y-146807325D01*
X154693309Y-146787176D01*
X154662906Y-146774435D01*
X154645770Y-146769685D01*
X154645143Y-146769667D01*
X154635848Y-146772160D01*
X154619606Y-146780002D01*
X154595575Y-146793738D01*
X154562912Y-146813911D01*
X154520773Y-146841066D01*
X154468318Y-146875748D01*
X154404702Y-146918501D01*
X154329084Y-146969868D01*
X154240621Y-147030395D01*
X154225751Y-147040600D01*
X154132676Y-147104310D01*
X154052733Y-147158612D01*
X153985266Y-147203929D01*
X153929621Y-147240685D01*
X153885143Y-147269305D01*
X153851178Y-147290213D01*
X153827072Y-147303833D01*
X153812169Y-147310589D01*
X153807669Y-147311533D01*
X153801127Y-147309929D01*
X153791546Y-147304564D01*
X153778048Y-147294615D01*
X153759755Y-147279255D01*
X153735789Y-147257660D01*
X153705272Y-147229005D01*
X153667326Y-147192463D01*
X153621074Y-147147210D01*
X153565636Y-147092420D01*
X153500136Y-147027269D01*
X153423695Y-146950930D01*
X153418080Y-146945314D01*
X153332654Y-146859627D01*
X153259152Y-146785369D01*
X153197285Y-146722236D01*
X153146765Y-146669927D01*
X153107304Y-146628138D01*
X153078614Y-146596568D01*
X153060406Y-146574914D01*
X153052392Y-146562873D01*
X153051933Y-146561065D01*
X153056531Y-146545891D01*
X153068740Y-146521621D01*
X153086184Y-146492832D01*
X153091468Y-146484901D01*
X153104673Y-146465536D01*
X153126235Y-146433985D01*
X153154933Y-146392027D01*
X153189549Y-146341443D01*
X153228866Y-146284013D01*
X153271663Y-146221518D01*
X153316724Y-146155738D01*
X153342764Y-146117734D01*
X153388025Y-146051679D01*
X153431261Y-145988573D01*
X153471332Y-145930080D01*
X153507096Y-145877867D01*
X153537412Y-145833601D01*
X153561138Y-145798948D01*
X153577134Y-145775574D01*
X153582629Y-145767533D01*
X153598028Y-145741973D01*
X153608235Y-145719269D01*
X153610733Y-145708107D01*
X153607654Y-145696925D01*
X153598912Y-145671936D01*
X153585250Y-145635007D01*
X153567410Y-145588005D01*
X153546134Y-145532798D01*
X153522164Y-145471253D01*
X153496243Y-145405239D01*
X153469114Y-145336623D01*
X153441518Y-145267271D01*
X153414197Y-145199053D01*
X153387895Y-145133835D01*
X153363354Y-145073485D01*
X153341315Y-145019870D01*
X153322522Y-144974858D01*
X153307716Y-144940317D01*
X153297639Y-144918114D01*
X153293943Y-144911129D01*
X153278971Y-144894562D01*
X153265942Y-144886585D01*
X153255042Y-144884195D01*
X153229026Y-144879012D01*
X153189428Y-144871328D01*
X153137782Y-144861436D01*
X153075622Y-144849625D01*
X153004482Y-144836189D01*
X152925895Y-144821419D01*
X152841396Y-144805607D01*
X152773314Y-144792913D01*
X152659688Y-144771614D01*
X152562163Y-144753009D01*
X152480143Y-144736975D01*
X152413031Y-144723386D01*
X152360233Y-144712118D01*
X152321152Y-144703047D01*
X152295191Y-144696048D01*
X152281755Y-144690997D01*
X152280130Y-144689891D01*
X152276918Y-144686312D01*
X152274178Y-144680986D01*
X152271875Y-144672631D01*
X152269969Y-144659966D01*
X152268424Y-144641709D01*
X152267202Y-144616580D01*
X152266265Y-144583295D01*
X152265576Y-144540574D01*
X152265097Y-144487136D01*
X152264791Y-144421698D01*
X152264620Y-144342979D01*
X152264547Y-144249697D01*
X152264533Y-144158006D01*
X152264605Y-144046260D01*
X152264835Y-143950376D01*
X152265246Y-143869286D01*
X152265857Y-143801920D01*
X152266693Y-143747207D01*
X152267772Y-143704079D01*
X152269119Y-143671465D01*
X152270753Y-143648296D01*
X152272697Y-143633503D01*
X152274972Y-143626014D01*
X152275285Y-143625532D01*
X152280996Y-143621709D01*
X152293804Y-143616968D01*
X152314769Y-143611085D01*
X152344946Y-143603838D01*
X152385394Y-143595005D01*
X152437169Y-143584361D01*
X152501331Y-143571683D01*
X152578936Y-143556750D01*
X152671041Y-143539338D01*
X152778704Y-143519223D01*
X152785402Y-143517978D01*
X152904025Y-143495767D01*
X153006384Y-143476266D01*
X153092916Y-143459383D01*
X153164056Y-143445029D01*
X153220243Y-143433112D01*
X153261911Y-143423543D01*
X153289498Y-143416230D01*
X153303440Y-143411084D01*
X153304490Y-143410415D01*
X153311838Y-143399716D01*
X153324801Y-143375250D01*
X153342558Y-143338911D01*
X153364286Y-143292594D01*
X153389165Y-143238195D01*
X153416373Y-143177607D01*
X153445089Y-143112725D01*
X153474490Y-143045445D01*
X153503755Y-142977662D01*
X153532064Y-142911269D01*
X153558594Y-142848162D01*
X153582523Y-142790236D01*
X153603031Y-142739385D01*
X153619296Y-142697505D01*
X153630496Y-142666490D01*
X153635809Y-142648235D01*
X153636133Y-142645484D01*
X153632183Y-142634490D01*
X153620171Y-142612470D01*
X153599851Y-142579049D01*
X153570978Y-142533849D01*
X153533306Y-142476493D01*
X153486589Y-142406605D01*
X153430584Y-142323809D01*
X153365043Y-142227727D01*
X153344033Y-142197055D01*
X153273268Y-142093471D01*
X153212262Y-142003399D01*
X153161036Y-141926871D01*
X153119612Y-141863921D01*
X153088012Y-141814582D01*
X153066258Y-141778888D01*
X153054371Y-141756872D01*
X153051933Y-141749606D01*
X153054265Y-141742626D01*
X153061769Y-141731148D01*
X153075203Y-141714367D01*
X153095327Y-141691476D01*
X153122900Y-141661670D01*
X153158683Y-141624144D01*
X153203434Y-141578091D01*
X153257913Y-141522706D01*
X153322880Y-141457183D01*
X153399093Y-141380717D01*
X153409164Y-141370634D01*
X153474014Y-141305939D01*
X153535835Y-141244693D01*
X153593508Y-141187978D01*
X153645910Y-141136875D01*
X153691922Y-141092467D01*
X153730423Y-141055835D01*
X153760293Y-141028062D01*
X153780411Y-141010229D01*
X153789396Y-141003509D01*
X153812870Y-140998257D01*
X153830264Y-141003545D01*
X153840312Y-141009960D01*
X153863035Y-141025111D01*
X153897160Y-141048131D01*
X153941415Y-141078154D01*
X153994526Y-141114313D01*
X154055221Y-141155742D01*
X154122227Y-141201574D01*
X154194271Y-141250942D01*
X154267848Y-141301447D01*
X154360031Y-141364646D01*
X154439273Y-141418670D01*
X154506475Y-141464104D01*
X154562536Y-141501529D01*
X154608356Y-141531529D01*
X154644834Y-141554684D01*
X154672871Y-141571579D01*
X154693367Y-141582796D01*
X154707221Y-141588917D01*
X154714388Y-141590548D01*
X154728963Y-141587519D01*
X154757020Y-141578568D01*
X154796574Y-141564509D01*
X154845640Y-141546155D01*
X154902233Y-141524318D01*
X154964368Y-141499812D01*
X155030060Y-141473450D01*
X155097323Y-141446046D01*
X155164173Y-141418412D01*
X155228625Y-141391361D01*
X155288694Y-141365708D01*
X155342394Y-141342264D01*
X155387740Y-141321844D01*
X155422749Y-141305261D01*
X155445433Y-141293326D01*
X155453184Y-141287896D01*
X155456673Y-141284031D01*
X155459844Y-141279941D01*
X155462929Y-141274507D01*
X155466161Y-141266609D01*
X155469774Y-141255130D01*
X155474000Y-141238950D01*
X155479072Y-141216949D01*
X155485224Y-141188010D01*
X155492689Y-141151013D01*
X155501700Y-141104840D01*
X155512490Y-141048370D01*
X155525292Y-140980486D01*
X155540339Y-140900069D01*
X155557864Y-140805999D01*
X155578100Y-140697157D01*
X155593434Y-140614646D01*
X155611386Y-140518822D01*
X155626748Y-140438603D01*
X155639758Y-140372894D01*
X155650652Y-140320605D01*
X155659668Y-140280643D01*
X155667043Y-140251916D01*
X155673014Y-140233331D01*
X155677819Y-140223796D01*
X155678471Y-140223062D01*
X155682403Y-140219952D01*
X155688352Y-140217301D01*
X155697601Y-140215071D01*
X155711432Y-140213228D01*
X155731128Y-140211734D01*
X155757972Y-140210553D01*
X155793245Y-140209649D01*
X155838231Y-140208985D01*
X155894212Y-140208526D01*
X155962472Y-140208234D01*
X156044291Y-140208074D01*
X156140954Y-140208009D01*
X156210000Y-140208000D01*
X156316355Y-140208013D01*
G37*
X156316355Y-140208013D02*
X156407070Y-140208080D01*
X156483439Y-140208242D01*
X156546753Y-140208540D01*
X156598308Y-140209014D01*
X156639395Y-140209707D01*
X156671309Y-140210658D01*
X156695342Y-140211910D01*
X156712787Y-140213503D01*
X156724939Y-140215478D01*
X156733089Y-140217876D01*
X156738532Y-140220738D01*
X156742560Y-140224106D01*
X156743399Y-140224934D01*
X156755802Y-140239749D01*
X156760333Y-140249389D01*
X156761840Y-140258845D01*
X156766181Y-140283485D01*
X156773090Y-140321847D01*
X156782298Y-140372466D01*
X156793538Y-140433882D01*
X156806543Y-140504630D01*
X156821043Y-140583248D01*
X156836772Y-140668273D01*
X156853462Y-140758243D01*
X156853697Y-140759505D01*
X156875798Y-140877685D01*
X156895195Y-140979677D01*
X156911993Y-141065991D01*
X156926299Y-141137135D01*
X156938217Y-141193622D01*
X156947853Y-141235960D01*
X156955313Y-141264660D01*
X156960703Y-141280232D01*
X156962015Y-141282536D01*
X156973258Y-141290482D01*
X156998330Y-141303729D01*
X157035268Y-141321465D01*
X157082112Y-141342872D01*
X157136900Y-141367138D01*
X157197671Y-141393445D01*
X157262463Y-141420980D01*
X157329314Y-141448928D01*
X157396265Y-141476473D01*
X157461352Y-141502801D01*
X157522615Y-141527096D01*
X157578093Y-141548543D01*
X157625823Y-141566328D01*
X157663845Y-141579635D01*
X157690196Y-141587650D01*
X157701245Y-141589701D01*
X157709280Y-141588932D01*
X157719657Y-141585825D01*
X157733514Y-141579658D01*
X157751989Y-141569710D01*
X157776221Y-141555259D01*
X157807346Y-141535582D01*
X157846504Y-141509957D01*
X157894832Y-141477663D01*
X157953469Y-141437978D01*
X158023553Y-141390180D01*
X158106221Y-141333546D01*
X158120345Y-141323855D01*
X158214376Y-141259299D01*
X158295423Y-141203646D01*
X158364494Y-141156260D01*
X158422597Y-141116506D01*
X158470739Y-141083750D01*
X158509930Y-141057356D01*
X158541177Y-141036691D01*
X158565487Y-141021119D01*
X158583870Y-141010006D01*
X158597333Y-141002716D01*
X158606885Y-140998615D01*
X158613533Y-140997069D01*
X158618285Y-140997442D01*
X158622150Y-140999099D01*
X158626136Y-141001406D01*
X158629676Y-141003125D01*
X158639867Y-141010792D01*
X158660849Y-141029408D01*
X158691497Y-141057888D01*
X158730688Y-141095151D01*
X158777298Y-141140110D01*
X158830203Y-141191684D01*
X158888279Y-141248788D01*
X158950402Y-141310339D01*
X159010835Y-141370634D01*
X159088271Y-141448285D01*
X159154382Y-141514901D01*
X159209939Y-141571301D01*
X159255710Y-141618302D01*
X159292467Y-141656719D01*
X159320978Y-141687372D01*
X159342014Y-141711077D01*
X159356346Y-141728650D01*
X159364741Y-141740911D01*
X159367972Y-141748675D01*
X159368066Y-141749808D01*
X159363295Y-141761983D01*
X159348950Y-141787391D01*
X159324981Y-141826105D01*
X159291341Y-141878200D01*
X159247982Y-141943750D01*
X159194854Y-142022830D01*
X159131909Y-142115514D01*
X159075966Y-142197300D01*
X159007488Y-142297452D01*
X158948629Y-142384201D01*
X158899151Y-142457910D01*
X158858816Y-142518944D01*
X158827386Y-142567670D01*
X158804624Y-142604450D01*
X158790291Y-142629651D01*
X158784150Y-142643637D01*
X158783866Y-142645527D01*
X158787209Y-142659511D01*
X158796689Y-142686827D01*
X158811486Y-142725581D01*
X158830778Y-142773879D01*
X158853744Y-142829828D01*
X158879561Y-142891532D01*
X158907409Y-142957099D01*
X158936467Y-143024634D01*
X158965912Y-143092243D01*
X158994924Y-143158032D01*
X159022681Y-143220108D01*
X159048362Y-143276577D01*
X159071145Y-143325544D01*
X159090208Y-143365115D01*
X159104731Y-143393397D01*
X159113892Y-143408496D01*
X159115509Y-143410200D01*
X159128185Y-143415216D01*
X159155972Y-143422655D01*
X159199108Y-143432566D01*
X159257831Y-143444997D01*
X159332377Y-143459998D01*
X159422985Y-143477619D01*
X159529890Y-143497908D01*
X159617833Y-143514334D01*
X159706460Y-143530816D01*
X159790482Y-143546480D01*
X159868356Y-143561037D01*
X159938539Y-143574197D01*
X159999488Y-143585669D01*
X160049661Y-143595163D01*
X160087514Y-143602389D01*
X160111505Y-143607056D01*
X160119706Y-143608759D01*
X160138596Y-143618912D01*
X160147223Y-143628951D01*
X160148978Y-143640720D01*
X160150552Y-143668591D01*
X160151931Y-143711733D01*
X160153102Y-143769315D01*
X160154053Y-143840506D01*
X160154771Y-143924475D01*
X160155242Y-144020392D01*
X160155455Y-144127425D01*
X160155466Y-144160065D01*
X160155448Y-144266444D01*
X160155367Y-144357175D01*
X160155185Y-144433547D01*
X160154864Y-144496844D01*
X160154364Y-144548352D01*
X160153646Y-144589359D01*
X160152673Y-144621151D01*
X160151405Y-144645013D01*
X160149804Y-144662233D01*
X160147832Y-144674096D01*
X160145448Y-144681889D01*
X160142615Y-144686898D01*
X160139521Y-144690206D01*
X160130154Y-144694633D01*
X160109598Y-144700748D01*
X160077124Y-144708704D01*
X160032003Y-144718654D01*
X159973507Y-144730749D01*
X159900908Y-144745143D01*
X159813476Y-144761987D01*
X159710484Y-144781435D01*
X159646338Y-144793408D01*
X159558365Y-144809802D01*
X159475125Y-144825374D01*
X159398152Y-144839831D01*
X159328980Y-144852883D01*
X159269144Y-144864239D01*
X159220179Y-144873608D01*
X159183619Y-144880699D01*
X159160999Y-144885221D01*
X159154057Y-144886766D01*
X159138247Y-144897043D01*
X159126056Y-144911129D01*
X159119509Y-144924168D01*
X159107742Y-144950776D01*
X159091497Y-144989087D01*
X159071517Y-145037233D01*
X159048545Y-145093347D01*
X159023321Y-145155560D01*
X158996590Y-145222006D01*
X158969093Y-145290817D01*
X158941572Y-145360125D01*
X158914770Y-145428063D01*
X158889429Y-145492763D01*
X158866292Y-145552359D01*
X158846101Y-145604981D01*
X158829598Y-145648764D01*
X158817525Y-145681839D01*
X158810626Y-145702339D01*
X158809266Y-145708073D01*
X158813871Y-145723338D01*
X158826098Y-145747677D01*
X158843569Y-145776500D01*
X158848860Y-145784432D01*
X158862329Y-145804162D01*
X158884106Y-145836001D01*
X158912919Y-145878095D01*
X158947500Y-145928591D01*
X158986577Y-145985632D01*
X159028882Y-146047366D01*
X159073142Y-146111936D01*
X159088726Y-146134667D01*
X159133367Y-146199788D01*
X159176489Y-146262715D01*
X159216823Y-146321594D01*
X159253100Y-146374571D01*
X159284048Y-146419791D01*
X159308399Y-146455399D01*
X159324882Y-146479541D01*
X159328532Y-146484901D01*
X159346981Y-146514136D01*
X159360834Y-146540098D01*
X159367713Y-146558202D01*
X159368066Y-146561138D01*
X159363214Y-146570198D01*
X159348450Y-146588581D01*
X159323461Y-146616613D01*
X159287936Y-146654622D01*
X159241563Y-146702936D01*
X159184029Y-146761881D01*
X159115023Y-146831785D01*
X159034233Y-146912975D01*
X159001847Y-146945387D01*
X158924276Y-147022832D01*
X158857716Y-147089013D01*
X158801306Y-147144741D01*
X158754185Y-147190826D01*
X158715491Y-147228079D01*
X158684363Y-147257310D01*
X158659940Y-147279329D01*
X158641360Y-147294948D01*
X158627763Y-147304976D01*
X158618286Y-147310225D01*
X158612752Y-147311533D01*
X158602074Y-147307959D01*
X158581441Y-147297008D01*
X158550326Y-147278338D01*
X158508203Y-147251608D01*
X158454543Y-147216476D01*
X158388820Y-147172601D01*
X158310508Y-147119641D01*
X158219078Y-147057254D01*
X158194774Y-147040600D01*
X158101833Y-146977054D01*
X158022016Y-146922895D01*
X157954650Y-146877689D01*
X157899065Y-146841003D01*
X157854590Y-146812401D01*
X157820554Y-146791450D01*
X157796286Y-146777716D01*
X157781115Y-146770764D01*
X157776124Y-146769667D01*
X157761362Y-146773688D01*
X157733737Y-146785161D01*
X157695125Y-146803195D01*
X157647401Y-146826903D01*
X157592440Y-146855395D01*
X157569560Y-146867553D01*
X157502157Y-146903068D01*
X157448879Y-146929942D01*
X157409385Y-146948334D01*
X157383332Y-146958403D01*
X157370410Y-146960318D01*
X157367924Y-146959827D01*
X157365771Y-146959567D01*
X157363601Y-146958719D01*
X157361061Y-146956464D01*
X157357800Y-146951985D01*
X157353466Y-146944462D01*
X157347708Y-146933078D01*
X157340174Y-146917013D01*
X157330512Y-146895449D01*
X157318371Y-146867568D01*
X157303398Y-146832551D01*
X157285244Y-146789579D01*
X157263554Y-146737834D01*
X157237980Y-146676498D01*
X157208167Y-146604752D01*
X157173765Y-146521777D01*
X157134423Y-146426755D01*
X157089788Y-146318867D01*
X157039509Y-146197295D01*
X156983234Y-146061221D01*
X156959449Y-146003713D01*
X156899539Y-145858601D01*
X156846201Y-145728836D01*
X156799349Y-145614200D01*
X156758894Y-145514470D01*
X156724749Y-145429428D01*
X156696825Y-145358852D01*
X156675036Y-145302522D01*
X156659293Y-145260218D01*
X156649509Y-145231719D01*
X156645597Y-145216805D01*
X156645585Y-145214804D01*
X156655901Y-145199613D01*
X156678713Y-145180250D01*
X156703192Y-145163990D01*
X156753851Y-145131133D01*
X156809865Y-145091247D01*
X156867348Y-145047402D01*
X156922412Y-145002669D01*
X156971172Y-144960117D01*
X157009741Y-144922817D01*
X157013438Y-144918905D01*
X157100247Y-144813725D01*
X157173545Y-144699072D01*
X157232505Y-144576603D01*
X157276295Y-144447974D01*
X157298473Y-144349647D01*
X157305838Y-144292066D01*
X157310061Y-144223697D01*
X157311141Y-144150392D01*
X157309079Y-144078000D01*
X157303874Y-144012373D01*
X157298473Y-143974220D01*
X157266787Y-143842352D01*
X157220465Y-143717538D01*
X157160514Y-143600697D01*
X157087941Y-143492750D01*
X157003755Y-143394617D01*
X156908964Y-143307218D01*
X156804574Y-143231472D01*
X156691594Y-143168300D01*
X156571032Y-143118622D01*
X156443896Y-143083357D01*
X156311193Y-143063427D01*
X156299736Y-143062473D01*
X156164235Y-143059918D01*
X156032872Y-143073082D01*
X155906548Y-143101070D01*
X155786163Y-143142986D01*
X155672616Y-143197935D01*
X155566808Y-143265020D01*
X155469639Y-143343347D01*
X155382010Y-143432019D01*
X155304820Y-143530141D01*
X155238969Y-143636818D01*
X155185358Y-143751154D01*
X155144887Y-143872252D01*
X155118456Y-143999218D01*
X155106964Y-144131157D01*
X155109620Y-144246600D01*
X155127324Y-144375978D01*
X155160710Y-144502994D01*
X155208784Y-144625536D01*
X155270550Y-144741490D01*
X155345014Y-144848745D01*
X155431180Y-144945187D01*
X155444831Y-144958380D01*
X155479719Y-144989241D01*
X155524888Y-145025955D01*
X155576242Y-145065432D01*
X155629683Y-145104582D01*
X155681115Y-145140312D01*
X155716906Y-145163636D01*
X155745562Y-145183715D01*
X155766008Y-145202235D01*
X155774513Y-145215199D01*
X155772196Y-145226456D01*
X155763370Y-145252843D01*
X155748017Y-145294406D01*
X155726116Y-145351195D01*
X155697649Y-145423257D01*
X155662596Y-145510642D01*
X155620938Y-145613397D01*
X155572656Y-145731570D01*
X155517731Y-145865209D01*
X155460550Y-146003713D01*
X155401831Y-146145692D01*
X155349245Y-146272847D01*
X155302440Y-146385997D01*
X155261066Y-146485960D01*
X155224771Y-146573556D01*
X155193203Y-146649603D01*
X155166010Y-146714919D01*
X155142842Y-146770322D01*
X155123345Y-146816633D01*
X155107170Y-146854669D01*
X155093963Y-146885249D01*
X155083374Y-146909191D01*
X155075052Y-146927315D01*
X155068643Y-146940438D01*
X155063798Y-146949379D01*
X155060163Y-146954958D01*
X155057389Y-146957992D01*
X155055122Y-146959301D01*
X155053012Y-146959702D01*
X155050707Y-146960015D01*
X155049721Y-146960277D01*
X155036451Y-146958178D01*
X155009650Y-146947634D01*
X154969088Y-146928538D01*
X154914537Y-146900782D01*
X154851807Y-146867511D01*
X154788991Y-146834297D01*
X154735748Y-146807325D01*
X154693309Y-146787176D01*
X154662906Y-146774435D01*
X154645770Y-146769685D01*
X154645143Y-146769667D01*
X154635848Y-146772160D01*
X154619606Y-146780002D01*
X154595575Y-146793738D01*
X154562912Y-146813911D01*
X154520773Y-146841066D01*
X154468318Y-146875748D01*
X154404702Y-146918501D01*
X154329084Y-146969868D01*
X154240621Y-147030395D01*
X154225751Y-147040600D01*
X154132676Y-147104310D01*
X154052733Y-147158612D01*
X153985266Y-147203929D01*
X153929621Y-147240685D01*
X153885143Y-147269305D01*
X153851178Y-147290213D01*
X153827072Y-147303833D01*
X153812169Y-147310589D01*
X153807669Y-147311533D01*
X153801127Y-147309929D01*
X153791546Y-147304564D01*
X153778048Y-147294615D01*
X153759755Y-147279255D01*
X153735789Y-147257660D01*
X153705272Y-147229005D01*
X153667326Y-147192463D01*
X153621074Y-147147210D01*
X153565636Y-147092420D01*
X153500136Y-147027269D01*
X153423695Y-146950930D01*
X153418080Y-146945314D01*
X153332654Y-146859627D01*
X153259152Y-146785369D01*
X153197285Y-146722236D01*
X153146765Y-146669927D01*
X153107304Y-146628138D01*
X153078614Y-146596568D01*
X153060406Y-146574914D01*
X153052392Y-146562873D01*
X153051933Y-146561065D01*
X153056531Y-146545891D01*
X153068740Y-146521621D01*
X153086184Y-146492832D01*
X153091468Y-146484901D01*
X153104673Y-146465536D01*
X153126235Y-146433985D01*
X153154933Y-146392027D01*
X153189549Y-146341443D01*
X153228866Y-146284013D01*
X153271663Y-146221518D01*
X153316724Y-146155738D01*
X153342764Y-146117734D01*
X153388025Y-146051679D01*
X153431261Y-145988573D01*
X153471332Y-145930080D01*
X153507096Y-145877867D01*
X153537412Y-145833601D01*
X153561138Y-145798948D01*
X153577134Y-145775574D01*
X153582629Y-145767533D01*
X153598028Y-145741973D01*
X153608235Y-145719269D01*
X153610733Y-145708107D01*
X153607654Y-145696925D01*
X153598912Y-145671936D01*
X153585250Y-145635007D01*
X153567410Y-145588005D01*
X153546134Y-145532798D01*
X153522164Y-145471253D01*
X153496243Y-145405239D01*
X153469114Y-145336623D01*
X153441518Y-145267271D01*
X153414197Y-145199053D01*
X153387895Y-145133835D01*
X153363354Y-145073485D01*
X153341315Y-145019870D01*
X153322522Y-144974858D01*
X153307716Y-144940317D01*
X153297639Y-144918114D01*
X153293943Y-144911129D01*
X153278971Y-144894562D01*
X153265942Y-144886585D01*
X153255042Y-144884195D01*
X153229026Y-144879012D01*
X153189428Y-144871328D01*
X153137782Y-144861436D01*
X153075622Y-144849625D01*
X153004482Y-144836189D01*
X152925895Y-144821419D01*
X152841396Y-144805607D01*
X152773314Y-144792913D01*
X152659688Y-144771614D01*
X152562163Y-144753009D01*
X152480143Y-144736975D01*
X152413031Y-144723386D01*
X152360233Y-144712118D01*
X152321152Y-144703047D01*
X152295191Y-144696048D01*
X152281755Y-144690997D01*
X152280130Y-144689891D01*
X152276918Y-144686312D01*
X152274178Y-144680986D01*
X152271875Y-144672631D01*
X152269969Y-144659966D01*
X152268424Y-144641709D01*
X152267202Y-144616580D01*
X152266265Y-144583295D01*
X152265576Y-144540574D01*
X152265097Y-144487136D01*
X152264791Y-144421698D01*
X152264620Y-144342979D01*
X152264547Y-144249697D01*
X152264533Y-144158006D01*
X152264605Y-144046260D01*
X152264835Y-143950376D01*
X152265246Y-143869286D01*
X152265857Y-143801920D01*
X152266693Y-143747207D01*
X152267772Y-143704079D01*
X152269119Y-143671465D01*
X152270753Y-143648296D01*
X152272697Y-143633503D01*
X152274972Y-143626014D01*
X152275285Y-143625532D01*
X152280996Y-143621709D01*
X152293804Y-143616968D01*
X152314769Y-143611085D01*
X152344946Y-143603838D01*
X152385394Y-143595005D01*
X152437169Y-143584361D01*
X152501331Y-143571683D01*
X152578936Y-143556750D01*
X152671041Y-143539338D01*
X152778704Y-143519223D01*
X152785402Y-143517978D01*
X152904025Y-143495767D01*
X153006384Y-143476266D01*
X153092916Y-143459383D01*
X153164056Y-143445029D01*
X153220243Y-143433112D01*
X153261911Y-143423543D01*
X153289498Y-143416230D01*
X153303440Y-143411084D01*
X153304490Y-143410415D01*
X153311838Y-143399716D01*
X153324801Y-143375250D01*
X153342558Y-143338911D01*
X153364286Y-143292594D01*
X153389165Y-143238195D01*
X153416373Y-143177607D01*
X153445089Y-143112725D01*
X153474490Y-143045445D01*
X153503755Y-142977662D01*
X153532064Y-142911269D01*
X153558594Y-142848162D01*
X153582523Y-142790236D01*
X153603031Y-142739385D01*
X153619296Y-142697505D01*
X153630496Y-142666490D01*
X153635809Y-142648235D01*
X153636133Y-142645484D01*
X153632183Y-142634490D01*
X153620171Y-142612470D01*
X153599851Y-142579049D01*
X153570978Y-142533849D01*
X153533306Y-142476493D01*
X153486589Y-142406605D01*
X153430584Y-142323809D01*
X153365043Y-142227727D01*
X153344033Y-142197055D01*
X153273268Y-142093471D01*
X153212262Y-142003399D01*
X153161036Y-141926871D01*
X153119612Y-141863921D01*
X153088012Y-141814582D01*
X153066258Y-141778888D01*
X153054371Y-141756872D01*
X153051933Y-141749606D01*
X153054265Y-141742626D01*
X153061769Y-141731148D01*
X153075203Y-141714367D01*
X153095327Y-141691476D01*
X153122900Y-141661670D01*
X153158683Y-141624144D01*
X153203434Y-141578091D01*
X153257913Y-141522706D01*
X153322880Y-141457183D01*
X153399093Y-141380717D01*
X153409164Y-141370634D01*
X153474014Y-141305939D01*
X153535835Y-141244693D01*
X153593508Y-141187978D01*
X153645910Y-141136875D01*
X153691922Y-141092467D01*
X153730423Y-141055835D01*
X153760293Y-141028062D01*
X153780411Y-141010229D01*
X153789396Y-141003509D01*
X153812870Y-140998257D01*
X153830264Y-141003545D01*
X153840312Y-141009960D01*
X153863035Y-141025111D01*
X153897160Y-141048131D01*
X153941415Y-141078154D01*
X153994526Y-141114313D01*
X154055221Y-141155742D01*
X154122227Y-141201574D01*
X154194271Y-141250942D01*
X154267848Y-141301447D01*
X154360031Y-141364646D01*
X154439273Y-141418670D01*
X154506475Y-141464104D01*
X154562536Y-141501529D01*
X154608356Y-141531529D01*
X154644834Y-141554684D01*
X154672871Y-141571579D01*
X154693367Y-141582796D01*
X154707221Y-141588917D01*
X154714388Y-141590548D01*
X154728963Y-141587519D01*
X154757020Y-141578568D01*
X154796574Y-141564509D01*
X154845640Y-141546155D01*
X154902233Y-141524318D01*
X154964368Y-141499812D01*
X155030060Y-141473450D01*
X155097323Y-141446046D01*
X155164173Y-141418412D01*
X155228625Y-141391361D01*
X155288694Y-141365708D01*
X155342394Y-141342264D01*
X155387740Y-141321844D01*
X155422749Y-141305261D01*
X155445433Y-141293326D01*
X155453184Y-141287896D01*
X155456673Y-141284031D01*
X155459844Y-141279941D01*
X155462929Y-141274507D01*
X155466161Y-141266609D01*
X155469774Y-141255130D01*
X155474000Y-141238950D01*
X155479072Y-141216949D01*
X155485224Y-141188010D01*
X155492689Y-141151013D01*
X155501700Y-141104840D01*
X155512490Y-141048370D01*
X155525292Y-140980486D01*
X155540339Y-140900069D01*
X155557864Y-140805999D01*
X155578100Y-140697157D01*
X155593434Y-140614646D01*
X155611386Y-140518822D01*
X155626748Y-140438603D01*
X155639758Y-140372894D01*
X155650652Y-140320605D01*
X155659668Y-140280643D01*
X155667043Y-140251916D01*
X155673014Y-140233331D01*
X155677819Y-140223796D01*
X155678471Y-140223062D01*
X155682403Y-140219952D01*
X155688352Y-140217301D01*
X155697601Y-140215071D01*
X155711432Y-140213228D01*
X155731128Y-140211734D01*
X155757972Y-140210553D01*
X155793245Y-140209649D01*
X155838231Y-140208985D01*
X155894212Y-140208526D01*
X155962472Y-140208234D01*
X156044291Y-140208074D01*
X156140954Y-140208009D01*
X156210000Y-140208000D01*
X156316355Y-140208013D01*
G36*
X159357812Y-148135848D02*
G01*
X159388415Y-148140058D01*
X159391248Y-148140714D01*
X159415301Y-148148729D01*
X159443894Y-148161194D01*
X159472857Y-148175873D01*
X159498023Y-148190529D01*
X159515223Y-148202928D01*
X159520466Y-148210024D01*
X159515370Y-148217899D01*
X159501716Y-148235563D01*
X159481959Y-148260079D01*
X159458552Y-148288509D01*
X159433949Y-148317917D01*
X159410604Y-148345366D01*
X159390971Y-148367918D01*
X159377502Y-148382636D01*
X159372780Y-148386800D01*
X159364532Y-148383109D01*
X159346327Y-148373685D01*
X159333149Y-148366585D01*
X159281292Y-148345231D01*
X159229473Y-148339165D01*
X159186104Y-148344452D01*
X159132355Y-148363061D01*
X159089097Y-148394746D01*
X159055417Y-148440223D01*
X159049374Y-148451800D01*
X159025166Y-148501100D01*
X159019910Y-149199600D01*
X158817733Y-149199600D01*
X158817733Y-148141267D01*
X159020933Y-148141267D01*
X159020933Y-148196300D01*
X159021691Y-148224329D01*
X159023675Y-148244151D01*
X159026336Y-148251333D01*
X159034955Y-148246030D01*
X159051853Y-148232259D01*
X159069303Y-148216708D01*
X159121752Y-148176941D01*
X159179352Y-148150778D01*
X159245515Y-148136867D01*
X159276948Y-148134338D01*
X159318302Y-148133810D01*
X159357812Y-148135848D01*
G37*
X159357812Y-148135848D02*
X159388415Y-148140058D01*
X159391248Y-148140714D01*
X159415301Y-148148729D01*
X159443894Y-148161194D01*
X159472857Y-148175873D01*
X159498023Y-148190529D01*
X159515223Y-148202928D01*
X159520466Y-148210024D01*
X159515370Y-148217899D01*
X159501716Y-148235563D01*
X159481959Y-148260079D01*
X159458552Y-148288509D01*
X159433949Y-148317917D01*
X159410604Y-148345366D01*
X159390971Y-148367918D01*
X159377502Y-148382636D01*
X159372780Y-148386800D01*
X159364532Y-148383109D01*
X159346327Y-148373685D01*
X159333149Y-148366585D01*
X159281292Y-148345231D01*
X159229473Y-148339165D01*
X159186104Y-148344452D01*
X159132355Y-148363061D01*
X159089097Y-148394746D01*
X159055417Y-148440223D01*
X159049374Y-148451800D01*
X159025166Y-148501100D01*
X159019910Y-149199600D01*
X158817733Y-149199600D01*
X158817733Y-148141267D01*
X159020933Y-148141267D01*
X159020933Y-148196300D01*
X159021691Y-148224329D01*
X159023675Y-148244151D01*
X159026336Y-148251333D01*
X159034955Y-148246030D01*
X159051853Y-148232259D01*
X159069303Y-148216708D01*
X159121752Y-148176941D01*
X159179352Y-148150778D01*
X159245515Y-148136867D01*
X159276948Y-148134338D01*
X159318302Y-148133810D01*
X159357812Y-148135848D01*
G36*
X154761056Y-148137648D02*
G01*
X154794656Y-148139963D01*
X154821513Y-148144686D01*
X154846708Y-148152522D01*
X154857742Y-148156801D01*
X154916076Y-148188932D01*
X154968726Y-148234478D01*
X155013123Y-148290212D01*
X155046699Y-148352906D01*
X155066885Y-148419331D01*
X155066955Y-148419706D01*
X155068882Y-148438601D01*
X155070632Y-148472628D01*
X155072170Y-148519989D01*
X155073458Y-148578881D01*
X155074458Y-148647505D01*
X155075134Y-148724061D01*
X155075448Y-148806749D01*
X155075466Y-148832456D01*
X155075466Y-149199600D01*
X154864499Y-149199600D01*
X154862033Y-148845871D01*
X154859566Y-148492141D01*
X154837937Y-148450132D01*
X154805208Y-148404086D01*
X154761376Y-148368798D01*
X154709926Y-148346958D01*
X154701628Y-148344978D01*
X154644460Y-148339472D01*
X154590888Y-148349220D01*
X154540369Y-148372918D01*
X154510950Y-148393415D01*
X154489594Y-148416882D01*
X154470341Y-148449681D01*
X154444699Y-148499861D01*
X154442230Y-148849731D01*
X154439760Y-149199600D01*
X154228800Y-149199600D01*
X154228800Y-148141267D01*
X154440466Y-148141267D01*
X154440466Y-148196300D01*
X154441119Y-148224329D01*
X154442828Y-148244152D01*
X154445119Y-148251333D01*
X154453283Y-148245892D01*
X154469140Y-148231952D01*
X154481102Y-148220512D01*
X154505654Y-148200489D01*
X154538274Y-148179153D01*
X154567466Y-148163362D01*
X154593266Y-148151605D01*
X154614970Y-148143982D01*
X154637569Y-148139606D01*
X154666055Y-148137589D01*
X154705420Y-148137044D01*
X154715633Y-148137033D01*
X154761056Y-148137648D01*
G37*
X154761056Y-148137648D02*
X154794656Y-148139963D01*
X154821513Y-148144686D01*
X154846708Y-148152522D01*
X154857742Y-148156801D01*
X154916076Y-148188932D01*
X154968726Y-148234478D01*
X155013123Y-148290212D01*
X155046699Y-148352906D01*
X155066885Y-148419331D01*
X155066955Y-148419706D01*
X155068882Y-148438601D01*
X155070632Y-148472628D01*
X155072170Y-148519989D01*
X155073458Y-148578881D01*
X155074458Y-148647505D01*
X155075134Y-148724061D01*
X155075448Y-148806749D01*
X155075466Y-148832456D01*
X155075466Y-149199600D01*
X154864499Y-149199600D01*
X154862033Y-148845871D01*
X154859566Y-148492141D01*
X154837937Y-148450132D01*
X154805208Y-148404086D01*
X154761376Y-148368798D01*
X154709926Y-148346958D01*
X154701628Y-148344978D01*
X154644460Y-148339472D01*
X154590888Y-148349220D01*
X154540369Y-148372918D01*
X154510950Y-148393415D01*
X154489594Y-148416882D01*
X154470341Y-148449681D01*
X154444699Y-148499861D01*
X154442230Y-148849731D01*
X154439760Y-149199600D01*
X154228800Y-149199600D01*
X154228800Y-148141267D01*
X154440466Y-148141267D01*
X154440466Y-148196300D01*
X154441119Y-148224329D01*
X154442828Y-148244152D01*
X154445119Y-148251333D01*
X154453283Y-148245892D01*
X154469140Y-148231952D01*
X154481102Y-148220512D01*
X154505654Y-148200489D01*
X154538274Y-148179153D01*
X154567466Y-148163362D01*
X154593266Y-148151605D01*
X154614970Y-148143982D01*
X154637569Y-148139606D01*
X154666055Y-148137589D01*
X154705420Y-148137044D01*
X154715633Y-148137033D01*
X154761056Y-148137648D01*
G36*
X160938441Y-148139157D02*
G01*
X161013462Y-148158756D01*
X161081632Y-148192713D01*
X161145213Y-148241936D01*
X161159402Y-148255490D01*
X161204523Y-148307224D01*
X161239225Y-148363884D01*
X161264282Y-148427768D01*
X161280470Y-148501179D01*
X161288562Y-148586417D01*
X161289852Y-148642917D01*
X161290000Y-148750867D01*
X160629600Y-148750867D01*
X160629600Y-148779528D01*
X160637498Y-148833420D01*
X160659454Y-148886226D01*
X160692865Y-148933854D01*
X160735123Y-148972212D01*
X160762777Y-148988657D01*
X160787207Y-148998884D01*
X160812457Y-149004950D01*
X160844206Y-149007821D01*
X160879366Y-149008468D01*
X160933732Y-149005858D01*
X160979160Y-148996466D01*
X161021737Y-148978252D01*
X161067548Y-148949178D01*
X161077236Y-148942172D01*
X161116793Y-148913135D01*
X161266195Y-149040619D01*
X161233647Y-149073991D01*
X161173250Y-149124396D01*
X161100047Y-149165446D01*
X161062913Y-149180731D01*
X161008940Y-149195260D01*
X160944770Y-149203976D01*
X160876177Y-149206693D01*
X160808934Y-149203225D01*
X160748815Y-149193388D01*
X160739934Y-149191127D01*
X160661062Y-149161662D01*
X160592543Y-149118903D01*
X160534700Y-149063199D01*
X160487855Y-148994897D01*
X160452331Y-148914347D01*
X160437576Y-148864316D01*
X160429389Y-148817672D01*
X160424315Y-148759280D01*
X160422302Y-148694026D01*
X160423296Y-148626797D01*
X160426594Y-148573067D01*
X160627418Y-148573067D01*
X161080256Y-148573067D01*
X161074361Y-148532850D01*
X161057871Y-148468109D01*
X161029462Y-148414839D01*
X160989842Y-148373732D01*
X160939718Y-148345479D01*
X160879796Y-148330770D01*
X160866348Y-148329489D01*
X160805843Y-148332826D01*
X160751822Y-148351027D01*
X160705825Y-148382760D01*
X160669392Y-148426694D01*
X160644063Y-148481498D01*
X160632968Y-148531226D01*
X160627418Y-148573067D01*
X160426594Y-148573067D01*
X160427245Y-148562480D01*
X160434097Y-148505961D01*
X160441828Y-148468923D01*
X160471551Y-148384197D01*
X160511246Y-148310677D01*
X160559942Y-148250090D01*
X160571071Y-148239309D01*
X160629673Y-148192879D01*
X160691248Y-148160558D01*
X160759097Y-148141107D01*
X160836521Y-148133287D01*
X160854304Y-148133007D01*
X160938441Y-148139157D01*
G37*
X160938441Y-148139157D02*
X161013462Y-148158756D01*
X161081632Y-148192713D01*
X161145213Y-148241936D01*
X161159402Y-148255490D01*
X161204523Y-148307224D01*
X161239225Y-148363884D01*
X161264282Y-148427768D01*
X161280470Y-148501179D01*
X161288562Y-148586417D01*
X161289852Y-148642917D01*
X161290000Y-148750867D01*
X160629600Y-148750867D01*
X160629600Y-148779528D01*
X160637498Y-148833420D01*
X160659454Y-148886226D01*
X160692865Y-148933854D01*
X160735123Y-148972212D01*
X160762777Y-148988657D01*
X160787207Y-148998884D01*
X160812457Y-149004950D01*
X160844206Y-149007821D01*
X160879366Y-149008468D01*
X160933732Y-149005858D01*
X160979160Y-148996466D01*
X161021737Y-148978252D01*
X161067548Y-148949178D01*
X161077236Y-148942172D01*
X161116793Y-148913135D01*
X161266195Y-149040619D01*
X161233647Y-149073991D01*
X161173250Y-149124396D01*
X161100047Y-149165446D01*
X161062913Y-149180731D01*
X161008940Y-149195260D01*
X160944770Y-149203976D01*
X160876177Y-149206693D01*
X160808934Y-149203225D01*
X160748815Y-149193388D01*
X160739934Y-149191127D01*
X160661062Y-149161662D01*
X160592543Y-149118903D01*
X160534700Y-149063199D01*
X160487855Y-148994897D01*
X160452331Y-148914347D01*
X160437576Y-148864316D01*
X160429389Y-148817672D01*
X160424315Y-148759280D01*
X160422302Y-148694026D01*
X160423296Y-148626797D01*
X160426594Y-148573067D01*
X160627418Y-148573067D01*
X161080256Y-148573067D01*
X161074361Y-148532850D01*
X161057871Y-148468109D01*
X161029462Y-148414839D01*
X160989842Y-148373732D01*
X160939718Y-148345479D01*
X160879796Y-148330770D01*
X160866348Y-148329489D01*
X160805843Y-148332826D01*
X160751822Y-148351027D01*
X160705825Y-148382760D01*
X160669392Y-148426694D01*
X160644063Y-148481498D01*
X160632968Y-148531226D01*
X160627418Y-148573067D01*
X160426594Y-148573067D01*
X160427245Y-148562480D01*
X160434097Y-148505961D01*
X160441828Y-148468923D01*
X160471551Y-148384197D01*
X160511246Y-148310677D01*
X160559942Y-148250090D01*
X160571071Y-148239309D01*
X160629673Y-148192879D01*
X160691248Y-148160558D01*
X160759097Y-148141107D01*
X160836521Y-148133287D01*
X160854304Y-148133007D01*
X160938441Y-148139157D01*
G36*
X160031291Y-148134051D02*
G01*
X160067757Y-148138157D01*
X160103011Y-148146493D01*
X160135790Y-148157124D01*
X160195888Y-148183204D01*
X160255938Y-148218375D01*
X160309568Y-148258594D01*
X160337500Y-148285033D01*
X160362900Y-148311989D01*
X160340647Y-148330344D01*
X160323985Y-148344484D01*
X160299243Y-148365944D01*
X160270972Y-148390770D01*
X160262306Y-148398439D01*
X160206217Y-148448178D01*
X160167512Y-148412501D01*
X160122463Y-148376881D01*
X160077005Y-148354623D01*
X160025776Y-148343685D01*
X159981748Y-148341672D01*
X159912152Y-148348702D01*
X159852861Y-148369113D01*
X159803995Y-148402753D01*
X159765676Y-148449475D01*
X159738025Y-148509129D01*
X159721162Y-148581565D01*
X159715209Y-148666634D01*
X159715200Y-148670434D01*
X159720598Y-148756124D01*
X159736788Y-148828791D01*
X159763756Y-148888421D01*
X159801492Y-148935000D01*
X159849984Y-148968514D01*
X159909222Y-148988950D01*
X159979193Y-148996294D01*
X159984334Y-148996317D01*
X160048854Y-148990110D01*
X160105229Y-148970617D01*
X160157541Y-148936267D01*
X160171489Y-148924249D01*
X160206315Y-148892785D01*
X160253721Y-148934009D01*
X160282587Y-148959207D01*
X160311303Y-148984430D01*
X160332013Y-149002759D01*
X160362900Y-149030285D01*
X160312100Y-149076641D01*
X160252480Y-149123265D01*
X160185898Y-149162107D01*
X160118400Y-149189790D01*
X160099990Y-149195126D01*
X160053061Y-149203230D01*
X159996702Y-149206743D01*
X159937782Y-149205671D01*
X159883168Y-149200016D01*
X159857646Y-149195001D01*
X159774725Y-149166843D01*
X159701933Y-149125199D01*
X159639552Y-149070355D01*
X159587861Y-149002601D01*
X159547142Y-148922224D01*
X159523594Y-148852467D01*
X159514376Y-148804891D01*
X159508837Y-148745855D01*
X159506926Y-148680414D01*
X159508592Y-148613626D01*
X159513781Y-148550546D01*
X159522443Y-148496231D01*
X159527459Y-148475997D01*
X159560208Y-148387593D01*
X159604033Y-148311986D01*
X159658918Y-148249194D01*
X159724846Y-148199231D01*
X159801802Y-148162114D01*
X159854562Y-148145683D01*
X159887546Y-148139648D01*
X159929992Y-148135182D01*
X159974450Y-148133012D01*
X159985795Y-148132913D01*
X160031291Y-148134051D01*
G37*
X160031291Y-148134051D02*
X160067757Y-148138157D01*
X160103011Y-148146493D01*
X160135790Y-148157124D01*
X160195888Y-148183204D01*
X160255938Y-148218375D01*
X160309568Y-148258594D01*
X160337500Y-148285033D01*
X160362900Y-148311989D01*
X160340647Y-148330344D01*
X160323985Y-148344484D01*
X160299243Y-148365944D01*
X160270972Y-148390770D01*
X160262306Y-148398439D01*
X160206217Y-148448178D01*
X160167512Y-148412501D01*
X160122463Y-148376881D01*
X160077005Y-148354623D01*
X160025776Y-148343685D01*
X159981748Y-148341672D01*
X159912152Y-148348702D01*
X159852861Y-148369113D01*
X159803995Y-148402753D01*
X159765676Y-148449475D01*
X159738025Y-148509129D01*
X159721162Y-148581565D01*
X159715209Y-148666634D01*
X159715200Y-148670434D01*
X159720598Y-148756124D01*
X159736788Y-148828791D01*
X159763756Y-148888421D01*
X159801492Y-148935000D01*
X159849984Y-148968514D01*
X159909222Y-148988950D01*
X159979193Y-148996294D01*
X159984334Y-148996317D01*
X160048854Y-148990110D01*
X160105229Y-148970617D01*
X160157541Y-148936267D01*
X160171489Y-148924249D01*
X160206315Y-148892785D01*
X160253721Y-148934009D01*
X160282587Y-148959207D01*
X160311303Y-148984430D01*
X160332013Y-149002759D01*
X160362900Y-149030285D01*
X160312100Y-149076641D01*
X160252480Y-149123265D01*
X160185898Y-149162107D01*
X160118400Y-149189790D01*
X160099990Y-149195126D01*
X160053061Y-149203230D01*
X159996702Y-149206743D01*
X159937782Y-149205671D01*
X159883168Y-149200016D01*
X159857646Y-149195001D01*
X159774725Y-149166843D01*
X159701933Y-149125199D01*
X159639552Y-149070355D01*
X159587861Y-149002601D01*
X159547142Y-148922224D01*
X159523594Y-148852467D01*
X159514376Y-148804891D01*
X159508837Y-148745855D01*
X159506926Y-148680414D01*
X159508592Y-148613626D01*
X159513781Y-148550546D01*
X159522443Y-148496231D01*
X159527459Y-148475997D01*
X159560208Y-148387593D01*
X159604033Y-148311986D01*
X159658918Y-148249194D01*
X159724846Y-148199231D01*
X159801802Y-148162114D01*
X159854562Y-148145683D01*
X159887546Y-148139648D01*
X159929992Y-148135182D01*
X159974450Y-148133012D01*
X159985795Y-148132913D01*
X160031291Y-148134051D01*
G36*
X157945666Y-148478588D02*
G01*
X157945788Y-148568508D01*
X157946187Y-148643046D01*
X157946911Y-148703750D01*
X157948010Y-148752169D01*
X157949534Y-148789851D01*
X157951531Y-148818347D01*
X157954051Y-148839205D01*
X157957143Y-148853974D01*
X157957652Y-148855736D01*
X157981560Y-148909153D01*
X158016990Y-148950433D01*
X158063012Y-148978914D01*
X158118696Y-148993932D01*
X158154935Y-148996214D01*
X158216602Y-148989330D01*
X158268165Y-148968927D01*
X158310070Y-148934730D01*
X158342765Y-148886461D01*
X158346960Y-148877867D01*
X158351363Y-148867805D01*
X158354993Y-148857112D01*
X158357939Y-148844091D01*
X158360291Y-148827048D01*
X158362137Y-148804285D01*
X158363567Y-148774108D01*
X158364670Y-148734820D01*
X158365535Y-148684725D01*
X158366250Y-148622129D01*
X158366906Y-148545334D01*
X158367317Y-148490517D01*
X158369867Y-148141267D01*
X158580666Y-148141267D01*
X158580666Y-149199600D01*
X158368999Y-149199600D01*
X158368999Y-149144567D01*
X158368241Y-149116538D01*
X158366257Y-149096716D01*
X158363596Y-149089534D01*
X158354977Y-149094837D01*
X158338080Y-149108607D01*
X158320655Y-149124135D01*
X158272779Y-149161039D01*
X158220693Y-149185962D01*
X158160504Y-149200379D01*
X158106533Y-149205234D01*
X158061118Y-149206103D01*
X158026976Y-149203935D01*
X157998635Y-149198201D01*
X157983656Y-149193379D01*
X157909722Y-149158886D01*
X157847850Y-149113120D01*
X157798754Y-149056887D01*
X157763147Y-148990994D01*
X157742531Y-148920542D01*
X157740585Y-148901690D01*
X157738821Y-148867670D01*
X157737276Y-148820245D01*
X157735986Y-148761180D01*
X157734988Y-148692239D01*
X157734319Y-148615187D01*
X157734014Y-148531787D01*
X157733999Y-148508411D01*
X157733999Y-148141267D01*
X157945666Y-148141267D01*
X157945666Y-148478588D01*
G37*
X157945666Y-148478588D02*
X157945788Y-148568508D01*
X157946187Y-148643046D01*
X157946911Y-148703750D01*
X157948010Y-148752169D01*
X157949534Y-148789851D01*
X157951531Y-148818347D01*
X157954051Y-148839205D01*
X157957143Y-148853974D01*
X157957652Y-148855736D01*
X157981560Y-148909153D01*
X158016990Y-148950433D01*
X158063012Y-148978914D01*
X158118696Y-148993932D01*
X158154935Y-148996214D01*
X158216602Y-148989330D01*
X158268165Y-148968927D01*
X158310070Y-148934730D01*
X158342765Y-148886461D01*
X158346960Y-148877867D01*
X158351363Y-148867805D01*
X158354993Y-148857112D01*
X158357939Y-148844091D01*
X158360291Y-148827048D01*
X158362137Y-148804285D01*
X158363567Y-148774108D01*
X158364670Y-148734820D01*
X158365535Y-148684725D01*
X158366250Y-148622129D01*
X158366906Y-148545334D01*
X158367317Y-148490517D01*
X158369867Y-148141267D01*
X158580666Y-148141267D01*
X158580666Y-149199600D01*
X158368999Y-149199600D01*
X158368999Y-149144567D01*
X158368241Y-149116538D01*
X158366257Y-149096716D01*
X158363596Y-149089534D01*
X158354977Y-149094837D01*
X158338080Y-149108607D01*
X158320655Y-149124135D01*
X158272779Y-149161039D01*
X158220693Y-149185962D01*
X158160504Y-149200379D01*
X158106533Y-149205234D01*
X158061118Y-149206103D01*
X158026976Y-149203935D01*
X157998635Y-149198201D01*
X157983656Y-149193379D01*
X157909722Y-149158886D01*
X157847850Y-149113120D01*
X157798754Y-149056887D01*
X157763147Y-148990994D01*
X157742531Y-148920542D01*
X157740585Y-148901690D01*
X157738821Y-148867670D01*
X157737276Y-148820245D01*
X157735986Y-148761180D01*
X157734988Y-148692239D01*
X157734319Y-148615187D01*
X157734014Y-148531787D01*
X157733999Y-148508411D01*
X157733999Y-148141267D01*
X157945666Y-148141267D01*
X157945666Y-148478588D01*
G36*
X157195834Y-148138262D02*
G01*
X157269577Y-148155311D01*
X157335262Y-148184940D01*
X157395467Y-148228144D01*
X157421585Y-148252405D01*
X157460811Y-148297037D01*
X157491783Y-148345675D01*
X157515175Y-148400572D01*
X157531666Y-148463981D01*
X157541932Y-148538156D01*
X157546649Y-148625349D01*
X157547142Y-148670434D01*
X157544912Y-148762810D01*
X157537742Y-148841160D01*
X157524912Y-148907859D01*
X157505701Y-148965280D01*
X157479389Y-149015797D01*
X157445256Y-149061784D01*
X157420238Y-149088674D01*
X157359838Y-149139347D01*
X157293752Y-149175498D01*
X157220130Y-149197836D01*
X157137123Y-149207075D01*
X157111700Y-149207409D01*
X157070532Y-149205747D01*
X157029481Y-149201745D01*
X156996029Y-149196186D01*
X156989819Y-149194668D01*
X156920536Y-149168881D01*
X156857316Y-149129709D01*
X156805955Y-149084455D01*
X156769225Y-149043588D01*
X156740115Y-149001216D01*
X156717888Y-148954856D01*
X156701806Y-148902025D01*
X156691133Y-148840240D01*
X156685130Y-148767017D01*
X156683880Y-148714339D01*
X156889064Y-148714339D01*
X156895391Y-148790550D01*
X156909729Y-148853533D01*
X156932447Y-148904321D01*
X156963919Y-148943947D01*
X157004514Y-148973446D01*
X157018566Y-148980493D01*
X157053892Y-148990868D01*
X157098445Y-148995760D01*
X157145352Y-148994930D01*
X157187737Y-148988137D01*
X157193331Y-148986574D01*
X157233959Y-148966945D01*
X157272337Y-148935057D01*
X157303508Y-148895362D01*
X157312039Y-148879961D01*
X157318811Y-148865332D01*
X157323835Y-148851016D01*
X157327371Y-148834264D01*
X157329679Y-148812327D01*
X157331017Y-148782456D01*
X157331647Y-148741903D01*
X157331827Y-148687919D01*
X157331833Y-148670434D01*
X157331583Y-148606594D01*
X157330443Y-148556949D01*
X157327828Y-148518764D01*
X157323153Y-148489304D01*
X157315834Y-148465832D01*
X157305286Y-148445613D01*
X157290924Y-148425912D01*
X157275742Y-148408056D01*
X157235566Y-148374009D01*
X157187630Y-148351918D01*
X157135229Y-148341589D01*
X157081661Y-148342832D01*
X157030220Y-148355454D01*
X156984203Y-148379264D01*
X156946906Y-148414069D01*
X156937184Y-148427760D01*
X156920977Y-148455651D01*
X156909285Y-148482760D01*
X156901152Y-148513101D01*
X156895618Y-148550689D01*
X156891725Y-148599541D01*
X156890375Y-148623867D01*
X156889064Y-148714339D01*
X156683880Y-148714339D01*
X156683061Y-148679875D01*
X156683042Y-148670631D01*
X156684759Y-148581305D01*
X156690488Y-148506127D01*
X156700959Y-148442634D01*
X156716903Y-148388360D01*
X156739053Y-148340843D01*
X156768139Y-148297617D01*
X156804893Y-148256219D01*
X156806555Y-148254545D01*
X156867389Y-148202742D01*
X156932729Y-148165875D01*
X157004855Y-148143031D01*
X157086050Y-148133300D01*
X157111457Y-148132800D01*
X157195834Y-148138262D01*
G37*
X157195834Y-148138262D02*
X157269577Y-148155311D01*
X157335262Y-148184940D01*
X157395467Y-148228144D01*
X157421585Y-148252405D01*
X157460811Y-148297037D01*
X157491783Y-148345675D01*
X157515175Y-148400572D01*
X157531666Y-148463981D01*
X157541932Y-148538156D01*
X157546649Y-148625349D01*
X157547142Y-148670434D01*
X157544912Y-148762810D01*
X157537742Y-148841160D01*
X157524912Y-148907859D01*
X157505701Y-148965280D01*
X157479389Y-149015797D01*
X157445256Y-149061784D01*
X157420238Y-149088674D01*
X157359838Y-149139347D01*
X157293752Y-149175498D01*
X157220130Y-149197836D01*
X157137123Y-149207075D01*
X157111700Y-149207409D01*
X157070532Y-149205747D01*
X157029481Y-149201745D01*
X156996029Y-149196186D01*
X156989819Y-149194668D01*
X156920536Y-149168881D01*
X156857316Y-149129709D01*
X156805955Y-149084455D01*
X156769225Y-149043588D01*
X156740115Y-149001216D01*
X156717888Y-148954856D01*
X156701806Y-148902025D01*
X156691133Y-148840240D01*
X156685130Y-148767017D01*
X156683880Y-148714339D01*
X156889064Y-148714339D01*
X156895391Y-148790550D01*
X156909729Y-148853533D01*
X156932447Y-148904321D01*
X156963919Y-148943947D01*
X157004514Y-148973446D01*
X157018566Y-148980493D01*
X157053892Y-148990868D01*
X157098445Y-148995760D01*
X157145352Y-148994930D01*
X157187737Y-148988137D01*
X157193331Y-148986574D01*
X157233959Y-148966945D01*
X157272337Y-148935057D01*
X157303508Y-148895362D01*
X157312039Y-148879961D01*
X157318811Y-148865332D01*
X157323835Y-148851016D01*
X157327371Y-148834264D01*
X157329679Y-148812327D01*
X157331017Y-148782456D01*
X157331647Y-148741903D01*
X157331827Y-148687919D01*
X157331833Y-148670434D01*
X157331583Y-148606594D01*
X157330443Y-148556949D01*
X157327828Y-148518764D01*
X157323153Y-148489304D01*
X157315834Y-148465832D01*
X157305286Y-148445613D01*
X157290924Y-148425912D01*
X157275742Y-148408056D01*
X157235566Y-148374009D01*
X157187630Y-148351918D01*
X157135229Y-148341589D01*
X157081661Y-148342832D01*
X157030220Y-148355454D01*
X156984203Y-148379264D01*
X156946906Y-148414069D01*
X156937184Y-148427760D01*
X156920977Y-148455651D01*
X156909285Y-148482760D01*
X156901152Y-148513101D01*
X156895618Y-148550689D01*
X156891725Y-148599541D01*
X156890375Y-148623867D01*
X156889064Y-148714339D01*
X156683880Y-148714339D01*
X156683061Y-148679875D01*
X156683042Y-148670631D01*
X156684759Y-148581305D01*
X156690488Y-148506127D01*
X156700959Y-148442634D01*
X156716903Y-148388360D01*
X156739053Y-148340843D01*
X156768139Y-148297617D01*
X156804893Y-148256219D01*
X156806555Y-148254545D01*
X156867389Y-148202742D01*
X156932729Y-148165875D01*
X157004855Y-148143031D01*
X157086050Y-148133300D01*
X157111457Y-148132800D01*
X157195834Y-148138262D01*
G36*
X156206561Y-148136639D02*
G01*
X156259307Y-148142951D01*
X156273257Y-148145597D01*
X156328470Y-148161444D01*
X156388877Y-148185565D01*
X156447243Y-148214736D01*
X156493680Y-148243810D01*
X156530934Y-148270563D01*
X156467259Y-148345615D01*
X156442020Y-148375077D01*
X156420973Y-148399105D01*
X156406387Y-148415148D01*
X156400575Y-148420667D01*
X156392267Y-148416928D01*
X156372759Y-148406970D01*
X156345718Y-148392678D01*
X156335395Y-148387132D01*
X156263830Y-148354148D01*
X156195305Y-148334997D01*
X156124992Y-148328515D01*
X156095235Y-148329212D01*
X156043077Y-148334982D01*
X156003546Y-148347051D01*
X155973021Y-148366951D01*
X155952651Y-148389538D01*
X155936854Y-148423515D01*
X155934864Y-148460680D01*
X155946407Y-148495613D01*
X155958840Y-148512347D01*
X155974765Y-148526304D01*
X155994248Y-148537275D01*
X156019870Y-148545898D01*
X156054210Y-148552813D01*
X156099850Y-148558656D01*
X156159370Y-148564067D01*
X156171900Y-148565055D01*
X156233921Y-148570309D01*
X156282246Y-148575648D01*
X156320105Y-148581708D01*
X156350725Y-148589125D01*
X156377336Y-148598534D01*
X156403167Y-148610571D01*
X156403248Y-148610613D01*
X156458015Y-148647760D01*
X156501020Y-148696908D01*
X156531908Y-148757546D01*
X156549181Y-148822221D01*
X156554055Y-148894648D01*
X156543269Y-148962159D01*
X156517654Y-149023696D01*
X156478039Y-149078204D01*
X156425251Y-149124624D01*
X156360120Y-149161900D01*
X156283475Y-149188975D01*
X156256566Y-149195330D01*
X156206577Y-149202609D01*
X156147289Y-149206304D01*
X156085134Y-149206407D01*
X156026541Y-149202911D01*
X155977941Y-149195808D01*
X155977166Y-149195641D01*
X155896085Y-149171432D01*
X155814558Y-149135234D01*
X155738768Y-149090126D01*
X155689300Y-149052206D01*
X155655433Y-149022903D01*
X155798377Y-148878485D01*
X155832738Y-148906404D01*
X155894323Y-148950495D01*
X155955694Y-148981154D01*
X156021243Y-148999897D01*
X156095359Y-149008242D01*
X156129792Y-149009010D01*
X156172735Y-149008644D01*
X156203296Y-149006972D01*
X156226015Y-149003283D01*
X156245434Y-148996862D01*
X156264384Y-148987881D01*
X156304143Y-148962077D01*
X156329240Y-148932032D01*
X156341886Y-148894963D01*
X156342783Y-148889095D01*
X156340918Y-148848725D01*
X156324817Y-148815158D01*
X156295964Y-148791151D01*
X156288059Y-148787429D01*
X156268659Y-148782052D01*
X156236303Y-148776032D01*
X156194922Y-148769985D01*
X156148448Y-148764525D01*
X156129871Y-148762695D01*
X156064201Y-148756145D01*
X156012301Y-148749717D01*
X155971027Y-148742730D01*
X155937235Y-148734502D01*
X155907782Y-148724349D01*
X155879524Y-148711590D01*
X155868573Y-148705984D01*
X155813122Y-148668348D01*
X155771324Y-148620785D01*
X155743125Y-148563197D01*
X155728471Y-148495488D01*
X155726158Y-148449942D01*
X155733680Y-148375985D01*
X155755592Y-148310736D01*
X155791481Y-148254686D01*
X155840930Y-148208327D01*
X155903524Y-148172151D01*
X155978848Y-148146648D01*
X155983354Y-148145565D01*
X156029118Y-148138206D01*
X156085531Y-148134266D01*
X156146657Y-148133744D01*
X156206561Y-148136639D01*
G37*
X156206561Y-148136639D02*
X156259307Y-148142951D01*
X156273257Y-148145597D01*
X156328470Y-148161444D01*
X156388877Y-148185565D01*
X156447243Y-148214736D01*
X156493680Y-148243810D01*
X156530934Y-148270563D01*
X156467259Y-148345615D01*
X156442020Y-148375077D01*
X156420973Y-148399105D01*
X156406387Y-148415148D01*
X156400575Y-148420667D01*
X156392267Y-148416928D01*
X156372759Y-148406970D01*
X156345718Y-148392678D01*
X156335395Y-148387132D01*
X156263830Y-148354148D01*
X156195305Y-148334997D01*
X156124992Y-148328515D01*
X156095235Y-148329212D01*
X156043077Y-148334982D01*
X156003546Y-148347051D01*
X155973021Y-148366951D01*
X155952651Y-148389538D01*
X155936854Y-148423515D01*
X155934864Y-148460680D01*
X155946407Y-148495613D01*
X155958840Y-148512347D01*
X155974765Y-148526304D01*
X155994248Y-148537275D01*
X156019870Y-148545898D01*
X156054210Y-148552813D01*
X156099850Y-148558656D01*
X156159370Y-148564067D01*
X156171900Y-148565055D01*
X156233921Y-148570309D01*
X156282246Y-148575648D01*
X156320105Y-148581708D01*
X156350725Y-148589125D01*
X156377336Y-148598534D01*
X156403167Y-148610571D01*
X156403248Y-148610613D01*
X156458015Y-148647760D01*
X156501020Y-148696908D01*
X156531908Y-148757546D01*
X156549181Y-148822221D01*
X156554055Y-148894648D01*
X156543269Y-148962159D01*
X156517654Y-149023696D01*
X156478039Y-149078204D01*
X156425251Y-149124624D01*
X156360120Y-149161900D01*
X156283475Y-149188975D01*
X156256566Y-149195330D01*
X156206577Y-149202609D01*
X156147289Y-149206304D01*
X156085134Y-149206407D01*
X156026541Y-149202911D01*
X155977941Y-149195808D01*
X155977166Y-149195641D01*
X155896085Y-149171432D01*
X155814558Y-149135234D01*
X155738768Y-149090126D01*
X155689300Y-149052206D01*
X155655433Y-149022903D01*
X155798377Y-148878485D01*
X155832738Y-148906404D01*
X155894323Y-148950495D01*
X155955694Y-148981154D01*
X156021243Y-148999897D01*
X156095359Y-149008242D01*
X156129792Y-149009010D01*
X156172735Y-149008644D01*
X156203296Y-149006972D01*
X156226015Y-149003283D01*
X156245434Y-148996862D01*
X156264384Y-148987881D01*
X156304143Y-148962077D01*
X156329240Y-148932032D01*
X156341886Y-148894963D01*
X156342783Y-148889095D01*
X156340918Y-148848725D01*
X156324817Y-148815158D01*
X156295964Y-148791151D01*
X156288059Y-148787429D01*
X156268659Y-148782052D01*
X156236303Y-148776032D01*
X156194922Y-148769985D01*
X156148448Y-148764525D01*
X156129871Y-148762695D01*
X156064201Y-148756145D01*
X156012301Y-148749717D01*
X155971027Y-148742730D01*
X155937235Y-148734502D01*
X155907782Y-148724349D01*
X155879524Y-148711590D01*
X155868573Y-148705984D01*
X155813122Y-148668348D01*
X155771324Y-148620785D01*
X155743125Y-148563197D01*
X155728471Y-148495488D01*
X155726158Y-148449942D01*
X155733680Y-148375985D01*
X155755592Y-148310736D01*
X155791481Y-148254686D01*
X155840930Y-148208327D01*
X155903524Y-148172151D01*
X155978848Y-148146648D01*
X155983354Y-148145565D01*
X156029118Y-148138206D01*
X156085531Y-148134266D01*
X156146657Y-148133744D01*
X156206561Y-148136639D01*
G36*
X153669063Y-148134362D02*
G01*
X153696301Y-148138088D01*
X153724657Y-148145388D01*
X153749664Y-148153440D01*
X153828149Y-148186648D01*
X153893390Y-148229575D01*
X153946729Y-148283333D01*
X153989504Y-148349033D01*
X153992587Y-148354992D01*
X154011507Y-148395903D01*
X154025200Y-148435643D01*
X154034398Y-148478179D01*
X154039834Y-148527474D01*
X154042238Y-148587496D01*
X154042533Y-148625646D01*
X154042533Y-148750867D01*
X153388248Y-148750867D01*
X153392799Y-148801062D01*
X153405929Y-148861211D01*
X153432461Y-148912930D01*
X153470515Y-148955080D01*
X153518213Y-148986526D01*
X153573674Y-149006129D01*
X153635018Y-149012754D01*
X153700366Y-149005262D01*
X153721379Y-148999826D01*
X153790095Y-148972167D01*
X153846301Y-148933281D01*
X153849147Y-148930705D01*
X153871662Y-148910039D01*
X153949694Y-148976406D01*
X154027727Y-149042773D01*
X153983262Y-149082599D01*
X153927935Y-149124568D01*
X153864115Y-149160651D01*
X153798661Y-149187219D01*
X153770726Y-149195050D01*
X153725682Y-149202338D01*
X153671229Y-149206168D01*
X153613711Y-149206518D01*
X153559474Y-149203369D01*
X153514862Y-149196699D01*
X153511437Y-149195901D01*
X153432385Y-149168583D01*
X153362309Y-149127610D01*
X153302623Y-149074067D01*
X153254743Y-149009039D01*
X153244938Y-148991411D01*
X153222992Y-148945773D01*
X153206764Y-148901927D01*
X153195306Y-148855643D01*
X153187669Y-148802690D01*
X153182907Y-148738839D01*
X153181565Y-148708534D01*
X153182675Y-148595584D01*
X153185460Y-148573067D01*
X153388230Y-148573067D01*
X153838909Y-148573067D01*
X153834016Y-148545550D01*
X153815847Y-148474836D01*
X153788872Y-148418430D01*
X153752780Y-148375994D01*
X153707260Y-148347189D01*
X153652002Y-148331675D01*
X153636340Y-148329807D01*
X153573315Y-148331589D01*
X153517005Y-148347968D01*
X153469089Y-148377583D01*
X153431246Y-148419076D01*
X153405157Y-148471088D01*
X153393017Y-148526689D01*
X153388230Y-148573067D01*
X153185460Y-148573067D01*
X153195110Y-148495056D01*
X153218957Y-148406705D01*
X153254303Y-148330286D01*
X153301235Y-148265553D01*
X153357236Y-148214203D01*
X153407153Y-148180773D01*
X153456036Y-148157757D01*
X153509115Y-148143401D01*
X153571622Y-148135948D01*
X153593950Y-148134756D01*
X153636945Y-148133491D01*
X153669063Y-148134362D01*
G37*
X153669063Y-148134362D02*
X153696301Y-148138088D01*
X153724657Y-148145388D01*
X153749664Y-148153440D01*
X153828149Y-148186648D01*
X153893390Y-148229575D01*
X153946729Y-148283333D01*
X153989504Y-148349033D01*
X153992587Y-148354992D01*
X154011507Y-148395903D01*
X154025200Y-148435643D01*
X154034398Y-148478179D01*
X154039834Y-148527474D01*
X154042238Y-148587496D01*
X154042533Y-148625646D01*
X154042533Y-148750867D01*
X153388248Y-148750867D01*
X153392799Y-148801062D01*
X153405929Y-148861211D01*
X153432461Y-148912930D01*
X153470515Y-148955080D01*
X153518213Y-148986526D01*
X153573674Y-149006129D01*
X153635018Y-149012754D01*
X153700366Y-149005262D01*
X153721379Y-148999826D01*
X153790095Y-148972167D01*
X153846301Y-148933281D01*
X153849147Y-148930705D01*
X153871662Y-148910039D01*
X153949694Y-148976406D01*
X154027727Y-149042773D01*
X153983262Y-149082599D01*
X153927935Y-149124568D01*
X153864115Y-149160651D01*
X153798661Y-149187219D01*
X153770726Y-149195050D01*
X153725682Y-149202338D01*
X153671229Y-149206168D01*
X153613711Y-149206518D01*
X153559474Y-149203369D01*
X153514862Y-149196699D01*
X153511437Y-149195901D01*
X153432385Y-149168583D01*
X153362309Y-149127610D01*
X153302623Y-149074067D01*
X153254743Y-149009039D01*
X153244938Y-148991411D01*
X153222992Y-148945773D01*
X153206764Y-148901927D01*
X153195306Y-148855643D01*
X153187669Y-148802690D01*
X153182907Y-148738839D01*
X153181565Y-148708534D01*
X153182675Y-148595584D01*
X153185460Y-148573067D01*
X153388230Y-148573067D01*
X153838909Y-148573067D01*
X153834016Y-148545550D01*
X153815847Y-148474836D01*
X153788872Y-148418430D01*
X153752780Y-148375994D01*
X153707260Y-148347189D01*
X153652002Y-148331675D01*
X153636340Y-148329807D01*
X153573315Y-148331589D01*
X153517005Y-148347968D01*
X153469089Y-148377583D01*
X153431246Y-148419076D01*
X153405157Y-148471088D01*
X153393017Y-148526689D01*
X153388230Y-148573067D01*
X153185460Y-148573067D01*
X153195110Y-148495056D01*
X153218957Y-148406705D01*
X153254303Y-148330286D01*
X153301235Y-148265553D01*
X153357236Y-148214203D01*
X153407153Y-148180773D01*
X153456036Y-148157757D01*
X153509115Y-148143401D01*
X153571622Y-148135948D01*
X153593950Y-148134756D01*
X153636945Y-148133491D01*
X153669063Y-148134362D01*
G36*
X151648562Y-148138046D02*
G01*
X151720127Y-148154538D01*
X151784022Y-148183614D01*
X151843204Y-148226508D01*
X151883438Y-148265447D01*
X151918531Y-148306543D01*
X151945848Y-148348056D01*
X151966407Y-148393026D01*
X151981229Y-148444493D01*
X151991333Y-148505496D01*
X151997739Y-148579075D01*
X151999425Y-148611167D01*
X152000659Y-148690145D01*
X151997465Y-148767077D01*
X151990213Y-148838232D01*
X151979275Y-148899876D01*
X151966305Y-148944895D01*
X151931093Y-149016110D01*
X151882337Y-149078657D01*
X151821903Y-149130886D01*
X151751658Y-149171146D01*
X151682930Y-149195437D01*
X151636565Y-149203434D01*
X151581061Y-149206890D01*
X151523474Y-149205829D01*
X151470860Y-149200273D01*
X151444217Y-149194685D01*
X151374732Y-149168319D01*
X151309350Y-149128941D01*
X151251619Y-149079366D01*
X151205087Y-149022410D01*
X151185912Y-148989669D01*
X151169045Y-148952811D01*
X151156209Y-148915368D01*
X151146923Y-148874297D01*
X151140706Y-148826558D01*
X151137076Y-148769108D01*
X151135862Y-148713107D01*
X151342772Y-148713107D01*
X151347081Y-148783406D01*
X151357141Y-148840851D01*
X151373527Y-148887161D01*
X151396816Y-148924057D01*
X151427584Y-148953261D01*
X151459050Y-148972806D01*
X151513409Y-148992039D01*
X151572719Y-148997530D01*
X151631937Y-148989205D01*
X151669245Y-148975774D01*
X151714023Y-148945970D01*
X151750577Y-148903379D01*
X151775147Y-148853915D01*
X151779931Y-148831516D01*
X151783329Y-148794761D01*
X151785389Y-148742837D01*
X151786158Y-148674931D01*
X151786166Y-148666200D01*
X151786038Y-148610320D01*
X151785454Y-148568380D01*
X151784112Y-148537389D01*
X151781712Y-148514355D01*
X151777954Y-148496286D01*
X151772536Y-148480191D01*
X151765915Y-148464749D01*
X151734712Y-148414899D01*
X151692341Y-148377215D01*
X151640213Y-148352530D01*
X151579742Y-148341674D01*
X151556382Y-148341307D01*
X151511261Y-148348037D01*
X151465813Y-148364348D01*
X151425851Y-148387578D01*
X151398172Y-148413750D01*
X151379316Y-148440893D01*
X151365553Y-148467804D01*
X151355965Y-148498094D01*
X151349635Y-148535373D01*
X151345644Y-148583254D01*
X151343636Y-148628231D01*
X151342772Y-148713107D01*
X151135862Y-148713107D01*
X151135554Y-148698905D01*
X151135429Y-148670434D01*
X151137058Y-148580799D01*
X151142646Y-148505376D01*
X151152955Y-148441750D01*
X151168743Y-148387503D01*
X151190770Y-148340221D01*
X151219796Y-148297486D01*
X151256580Y-148256883D01*
X151269283Y-148244719D01*
X151327762Y-148197499D01*
X151388311Y-148164163D01*
X151454432Y-148143392D01*
X151529632Y-148133868D01*
X151566371Y-148132901D01*
X151648562Y-148138046D01*
G37*
X151648562Y-148138046D02*
X151720127Y-148154538D01*
X151784022Y-148183614D01*
X151843204Y-148226508D01*
X151883438Y-148265447D01*
X151918531Y-148306543D01*
X151945848Y-148348056D01*
X151966407Y-148393026D01*
X151981229Y-148444493D01*
X151991333Y-148505496D01*
X151997739Y-148579075D01*
X151999425Y-148611167D01*
X152000659Y-148690145D01*
X151997465Y-148767077D01*
X151990213Y-148838232D01*
X151979275Y-148899876D01*
X151966305Y-148944895D01*
X151931093Y-149016110D01*
X151882337Y-149078657D01*
X151821903Y-149130886D01*
X151751658Y-149171146D01*
X151682930Y-149195437D01*
X151636565Y-149203434D01*
X151581061Y-149206890D01*
X151523474Y-149205829D01*
X151470860Y-149200273D01*
X151444217Y-149194685D01*
X151374732Y-149168319D01*
X151309350Y-149128941D01*
X151251619Y-149079366D01*
X151205087Y-149022410D01*
X151185912Y-148989669D01*
X151169045Y-148952811D01*
X151156209Y-148915368D01*
X151146923Y-148874297D01*
X151140706Y-148826558D01*
X151137076Y-148769108D01*
X151135862Y-148713107D01*
X151342772Y-148713107D01*
X151347081Y-148783406D01*
X151357141Y-148840851D01*
X151373527Y-148887161D01*
X151396816Y-148924057D01*
X151427584Y-148953261D01*
X151459050Y-148972806D01*
X151513409Y-148992039D01*
X151572719Y-148997530D01*
X151631937Y-148989205D01*
X151669245Y-148975774D01*
X151714023Y-148945970D01*
X151750577Y-148903379D01*
X151775147Y-148853915D01*
X151779931Y-148831516D01*
X151783329Y-148794761D01*
X151785389Y-148742837D01*
X151786158Y-148674931D01*
X151786166Y-148666200D01*
X151786038Y-148610320D01*
X151785454Y-148568380D01*
X151784112Y-148537389D01*
X151781712Y-148514355D01*
X151777954Y-148496286D01*
X151772536Y-148480191D01*
X151765915Y-148464749D01*
X151734712Y-148414899D01*
X151692341Y-148377215D01*
X151640213Y-148352530D01*
X151579742Y-148341674D01*
X151556382Y-148341307D01*
X151511261Y-148348037D01*
X151465813Y-148364348D01*
X151425851Y-148387578D01*
X151398172Y-148413750D01*
X151379316Y-148440893D01*
X151365553Y-148467804D01*
X151355965Y-148498094D01*
X151349635Y-148535373D01*
X151345644Y-148583254D01*
X151343636Y-148628231D01*
X151342772Y-148713107D01*
X151135862Y-148713107D01*
X151135554Y-148698905D01*
X151135429Y-148670434D01*
X151137058Y-148580799D01*
X151142646Y-148505376D01*
X151152955Y-148441750D01*
X151168743Y-148387503D01*
X151190770Y-148340221D01*
X151219796Y-148297486D01*
X151256580Y-148256883D01*
X151269283Y-148244719D01*
X151327762Y-148197499D01*
X151388311Y-148164163D01*
X151454432Y-148143392D01*
X151529632Y-148133868D01*
X151566371Y-148132901D01*
X151648562Y-148138046D01*
G36*
X159138193Y-149817915D02*
G01*
X159189243Y-149838570D01*
X159220701Y-149854744D01*
X159240976Y-149867227D01*
X159250208Y-149879074D01*
X159248535Y-149893343D01*
X159236098Y-149913089D01*
X159213034Y-149941369D01*
X159194895Y-149962824D01*
X159168108Y-149994538D01*
X159144594Y-150022256D01*
X159126898Y-150042985D01*
X159117588Y-150053708D01*
X159108061Y-150060164D01*
X159095646Y-150056737D01*
X159083039Y-150048653D01*
X159032631Y-150023288D01*
X158978245Y-150013000D01*
X158923200Y-150017586D01*
X158870815Y-150036844D01*
X158831478Y-150064049D01*
X158815532Y-150078272D01*
X158802267Y-150091456D01*
X158791424Y-150105251D01*
X158782744Y-150121308D01*
X158775967Y-150141275D01*
X158770835Y-150166804D01*
X158767088Y-150199544D01*
X158764468Y-150241144D01*
X158762715Y-150293256D01*
X158761571Y-150357528D01*
X158760775Y-150435611D01*
X158760149Y-150518284D01*
X158757598Y-150867534D01*
X158546799Y-150867534D01*
X158546799Y-149817667D01*
X158758466Y-149817667D01*
X158758466Y-149929173D01*
X158798683Y-149893402D01*
X158858563Y-149850670D01*
X158925396Y-149821343D01*
X158996241Y-149805832D01*
X159068154Y-149804552D01*
X159138193Y-149817915D01*
G37*
X159138193Y-149817915D02*
X159189243Y-149838570D01*
X159220701Y-149854744D01*
X159240976Y-149867227D01*
X159250208Y-149879074D01*
X159248535Y-149893343D01*
X159236098Y-149913089D01*
X159213034Y-149941369D01*
X159194895Y-149962824D01*
X159168108Y-149994538D01*
X159144594Y-150022256D01*
X159126898Y-150042985D01*
X159117588Y-150053708D01*
X159108061Y-150060164D01*
X159095646Y-150056737D01*
X159083039Y-150048653D01*
X159032631Y-150023288D01*
X158978245Y-150013000D01*
X158923200Y-150017586D01*
X158870815Y-150036844D01*
X158831478Y-150064049D01*
X158815532Y-150078272D01*
X158802267Y-150091456D01*
X158791424Y-150105251D01*
X158782744Y-150121308D01*
X158775967Y-150141275D01*
X158770835Y-150166804D01*
X158767088Y-150199544D01*
X158764468Y-150241144D01*
X158762715Y-150293256D01*
X158761571Y-150357528D01*
X158760775Y-150435611D01*
X158760149Y-150518284D01*
X158757598Y-150867534D01*
X158546799Y-150867534D01*
X158546799Y-149817667D01*
X158758466Y-149817667D01*
X158758466Y-149929173D01*
X158798683Y-149893402D01*
X158858563Y-149850670D01*
X158925396Y-149821343D01*
X158996241Y-149805832D01*
X159068154Y-149804552D01*
X159138193Y-149817915D01*
G36*
X157373645Y-149818278D02*
G01*
X157408211Y-149819995D01*
X157430305Y-149822646D01*
X157437666Y-149825887D01*
X157435170Y-149835055D01*
X157428041Y-149858656D01*
X157416815Y-149895001D01*
X157402028Y-149942398D01*
X157384216Y-149999156D01*
X157363918Y-150063585D01*
X157341668Y-150133993D01*
X157318004Y-150208691D01*
X157293462Y-150285986D01*
X157268579Y-150364189D01*
X157243891Y-150441607D01*
X157219935Y-150516552D01*
X157197247Y-150587331D01*
X157176365Y-150652253D01*
X157157823Y-150709629D01*
X157142159Y-150757767D01*
X157135922Y-150776787D01*
X157105886Y-150868073D01*
X157011934Y-150865687D01*
X156917982Y-150863300D01*
X156809717Y-150500132D01*
X156787230Y-150424915D01*
X156766136Y-150354775D01*
X156746942Y-150291364D01*
X156730153Y-150236331D01*
X156716274Y-150191327D01*
X156705810Y-150158002D01*
X156699267Y-150138006D01*
X156697225Y-150132737D01*
X156696021Y-150131194D01*
X156694912Y-150130369D01*
X156693427Y-150131739D01*
X156691095Y-150136783D01*
X156687445Y-150146981D01*
X156682006Y-150163810D01*
X156674307Y-150188749D01*
X156663877Y-150223277D01*
X156650245Y-150268873D01*
X156632941Y-150327014D01*
X156611492Y-150399181D01*
X156599370Y-150439967D01*
X156578449Y-150510303D01*
X156558135Y-150578526D01*
X156539163Y-150642172D01*
X156522268Y-150698776D01*
X156508185Y-150745875D01*
X156497649Y-150781005D01*
X156492619Y-150797684D01*
X156471441Y-150867534D01*
X156379320Y-150867534D01*
X156341640Y-150866985D01*
X156310690Y-150865498D01*
X156290093Y-150863314D01*
X156283478Y-150861184D01*
X156280420Y-150852399D01*
X156272726Y-150829045D01*
X156260899Y-150792688D01*
X156245441Y-150744894D01*
X156226853Y-150687230D01*
X156205637Y-150621261D01*
X156182295Y-150548553D01*
X156157330Y-150470673D01*
X156131242Y-150389186D01*
X156104534Y-150305660D01*
X156077708Y-150221659D01*
X156051265Y-150138750D01*
X156025708Y-150058500D01*
X156001538Y-149982473D01*
X155979257Y-149912238D01*
X155970091Y-149883284D01*
X155949331Y-149817667D01*
X156060615Y-149817731D01*
X156171900Y-149817796D01*
X156268515Y-150175448D01*
X156288919Y-150250725D01*
X156308152Y-150321189D01*
X156325730Y-150385105D01*
X156341169Y-150440739D01*
X156353988Y-150486356D01*
X156363701Y-150520221D01*
X156369828Y-150540599D01*
X156371663Y-150545800D01*
X156377714Y-150554255D01*
X156382440Y-150547008D01*
X156382893Y-150545800D01*
X156386931Y-150533883D01*
X156395347Y-150508301D01*
X156407503Y-150471028D01*
X156422764Y-150424040D01*
X156440493Y-150369311D01*
X156460053Y-150308816D01*
X156480809Y-150244531D01*
X156502123Y-150178430D01*
X156523360Y-150112488D01*
X156543882Y-150048681D01*
X156563055Y-149988983D01*
X156580240Y-149935369D01*
X156594802Y-149889815D01*
X156606104Y-149854295D01*
X156613511Y-149830784D01*
X156616384Y-149821257D01*
X156616400Y-149821160D01*
X156624245Y-149819641D01*
X156645296Y-149818458D01*
X156675825Y-149817775D01*
X156694716Y-149817673D01*
X156773033Y-149817680D01*
X156891566Y-150185823D01*
X156915920Y-150261155D01*
X156938792Y-150331309D01*
X156959645Y-150394685D01*
X156977946Y-150449686D01*
X156993159Y-150494710D01*
X157004748Y-150528160D01*
X157012178Y-150548435D01*
X157014824Y-150554117D01*
X157017948Y-150546245D01*
X157025012Y-150523653D01*
X157035552Y-150487969D01*
X157049101Y-150440825D01*
X157065197Y-150383849D01*
X157083372Y-150318672D01*
X157103164Y-150246923D01*
X157119827Y-150185967D01*
X157220105Y-149817667D01*
X157328886Y-149817667D01*
X157373645Y-149818278D01*
G37*
X157373645Y-149818278D02*
X157408211Y-149819995D01*
X157430305Y-149822646D01*
X157437666Y-149825887D01*
X157435170Y-149835055D01*
X157428041Y-149858656D01*
X157416815Y-149895001D01*
X157402028Y-149942398D01*
X157384216Y-149999156D01*
X157363918Y-150063585D01*
X157341668Y-150133993D01*
X157318004Y-150208691D01*
X157293462Y-150285986D01*
X157268579Y-150364189D01*
X157243891Y-150441607D01*
X157219935Y-150516552D01*
X157197247Y-150587331D01*
X157176365Y-150652253D01*
X157157823Y-150709629D01*
X157142159Y-150757767D01*
X157135922Y-150776787D01*
X157105886Y-150868073D01*
X157011934Y-150865687D01*
X156917982Y-150863300D01*
X156809717Y-150500132D01*
X156787230Y-150424915D01*
X156766136Y-150354775D01*
X156746942Y-150291364D01*
X156730153Y-150236331D01*
X156716274Y-150191327D01*
X156705810Y-150158002D01*
X156699267Y-150138006D01*
X156697225Y-150132737D01*
X156696021Y-150131194D01*
X156694912Y-150130369D01*
X156693427Y-150131739D01*
X156691095Y-150136783D01*
X156687445Y-150146981D01*
X156682006Y-150163810D01*
X156674307Y-150188749D01*
X156663877Y-150223277D01*
X156650245Y-150268873D01*
X156632941Y-150327014D01*
X156611492Y-150399181D01*
X156599370Y-150439967D01*
X156578449Y-150510303D01*
X156558135Y-150578526D01*
X156539163Y-150642172D01*
X156522268Y-150698776D01*
X156508185Y-150745875D01*
X156497649Y-150781005D01*
X156492619Y-150797684D01*
X156471441Y-150867534D01*
X156379320Y-150867534D01*
X156341640Y-150866985D01*
X156310690Y-150865498D01*
X156290093Y-150863314D01*
X156283478Y-150861184D01*
X156280420Y-150852399D01*
X156272726Y-150829045D01*
X156260899Y-150792688D01*
X156245441Y-150744894D01*
X156226853Y-150687230D01*
X156205637Y-150621261D01*
X156182295Y-150548553D01*
X156157330Y-150470673D01*
X156131242Y-150389186D01*
X156104534Y-150305660D01*
X156077708Y-150221659D01*
X156051265Y-150138750D01*
X156025708Y-150058500D01*
X156001538Y-149982473D01*
X155979257Y-149912238D01*
X155970091Y-149883284D01*
X155949331Y-149817667D01*
X156060615Y-149817731D01*
X156171900Y-149817796D01*
X156268515Y-150175448D01*
X156288919Y-150250725D01*
X156308152Y-150321189D01*
X156325730Y-150385105D01*
X156341169Y-150440739D01*
X156353988Y-150486356D01*
X156363701Y-150520221D01*
X156369828Y-150540599D01*
X156371663Y-150545800D01*
X156377714Y-150554255D01*
X156382440Y-150547008D01*
X156382893Y-150545800D01*
X156386931Y-150533883D01*
X156395347Y-150508301D01*
X156407503Y-150471028D01*
X156422764Y-150424040D01*
X156440493Y-150369311D01*
X156460053Y-150308816D01*
X156480809Y-150244531D01*
X156502123Y-150178430D01*
X156523360Y-150112488D01*
X156543882Y-150048681D01*
X156563055Y-149988983D01*
X156580240Y-149935369D01*
X156594802Y-149889815D01*
X156606104Y-149854295D01*
X156613511Y-149830784D01*
X156616384Y-149821257D01*
X156616400Y-149821160D01*
X156624245Y-149819641D01*
X156645296Y-149818458D01*
X156675825Y-149817775D01*
X156694716Y-149817673D01*
X156773033Y-149817680D01*
X156891566Y-150185823D01*
X156915920Y-150261155D01*
X156938792Y-150331309D01*
X156959645Y-150394685D01*
X156977946Y-150449686D01*
X156993159Y-150494710D01*
X157004748Y-150528160D01*
X157012178Y-150548435D01*
X157014824Y-150554117D01*
X157017948Y-150546245D01*
X157025012Y-150523653D01*
X157035552Y-150487969D01*
X157049101Y-150440825D01*
X157065197Y-150383849D01*
X157083372Y-150318672D01*
X157103164Y-150246923D01*
X157119827Y-150185967D01*
X157220105Y-149817667D01*
X157328886Y-149817667D01*
X157373645Y-149818278D01*
G36*
X154835994Y-149811915D02*
G01*
X154876348Y-149824278D01*
X154906646Y-149837830D01*
X154934923Y-149853271D01*
X154957471Y-149868235D01*
X154970585Y-149880354D01*
X154972303Y-149885558D01*
X154966159Y-149894652D01*
X154951263Y-149914024D01*
X154929742Y-149940973D01*
X154903724Y-149972801D01*
X154899211Y-149978257D01*
X154828789Y-150063243D01*
X154789144Y-150039938D01*
X154764880Y-150027256D01*
X154742034Y-150020189D01*
X154713922Y-150017241D01*
X154685999Y-150016830D01*
X154629376Y-150021812D01*
X154583641Y-150037333D01*
X154545397Y-150064841D01*
X154527272Y-150084449D01*
X154516106Y-150098417D01*
X154506842Y-150111888D01*
X154499283Y-150126544D01*
X154493236Y-150144070D01*
X154488505Y-150166146D01*
X154484895Y-150194458D01*
X154482210Y-150230687D01*
X154480256Y-150276517D01*
X154478838Y-150333631D01*
X154477760Y-150403711D01*
X154476827Y-150488441D01*
X154476493Y-150522517D01*
X154473150Y-150867534D01*
X154271133Y-150867534D01*
X154271133Y-149817667D01*
X154474333Y-149817667D01*
X154474333Y-149867056D01*
X154475119Y-149894473D01*
X154477152Y-149914438D01*
X154479278Y-149921389D01*
X154487471Y-149918742D01*
X154503477Y-149906747D01*
X154518133Y-149893424D01*
X154569979Y-149854222D01*
X154631613Y-149825713D01*
X154699110Y-149808653D01*
X154768545Y-149803801D01*
X154835994Y-149811915D01*
G37*
X154835994Y-149811915D02*
X154876348Y-149824278D01*
X154906646Y-149837830D01*
X154934923Y-149853271D01*
X154957471Y-149868235D01*
X154970585Y-149880354D01*
X154972303Y-149885558D01*
X154966159Y-149894652D01*
X154951263Y-149914024D01*
X154929742Y-149940973D01*
X154903724Y-149972801D01*
X154899211Y-149978257D01*
X154828789Y-150063243D01*
X154789144Y-150039938D01*
X154764880Y-150027256D01*
X154742034Y-150020189D01*
X154713922Y-150017241D01*
X154685999Y-150016830D01*
X154629376Y-150021812D01*
X154583641Y-150037333D01*
X154545397Y-150064841D01*
X154527272Y-150084449D01*
X154516106Y-150098417D01*
X154506842Y-150111888D01*
X154499283Y-150126544D01*
X154493236Y-150144070D01*
X154488505Y-150166146D01*
X154484895Y-150194458D01*
X154482210Y-150230687D01*
X154480256Y-150276517D01*
X154478838Y-150333631D01*
X154477760Y-150403711D01*
X154476827Y-150488441D01*
X154476493Y-150522517D01*
X154473150Y-150867534D01*
X154271133Y-150867534D01*
X154271133Y-149817667D01*
X154474333Y-149817667D01*
X154474333Y-149867056D01*
X154475119Y-149894473D01*
X154477152Y-149914438D01*
X154479278Y-149921389D01*
X154487471Y-149918742D01*
X154503477Y-149906747D01*
X154518133Y-149893424D01*
X154569979Y-149854222D01*
X154631613Y-149825713D01*
X154699110Y-149808653D01*
X154768545Y-149803801D01*
X154835994Y-149811915D01*
G36*
X152754319Y-148140606D02*
G01*
X152825070Y-148163621D01*
X152888020Y-148201238D01*
X152941966Y-148252851D01*
X152959045Y-148274872D01*
X152976282Y-148300025D01*
X152989984Y-148323584D01*
X153000602Y-148347946D01*
X153008588Y-148375509D01*
X153014393Y-148408668D01*
X153018469Y-148449823D01*
X153021266Y-148501370D01*
X153023237Y-148565706D01*
X153024411Y-148621995D01*
X153025480Y-148716990D01*
X153024567Y-148797057D01*
X153021265Y-148864129D01*
X153015169Y-148920138D01*
X153005876Y-148967018D01*
X152992979Y-149006699D01*
X152976074Y-149041114D01*
X152954756Y-149072196D01*
X152928620Y-149101877D01*
X152922534Y-149108059D01*
X152864134Y-149155486D01*
X152799043Y-149187426D01*
X152726632Y-149204157D01*
X152700177Y-149206433D01*
X152629990Y-149205001D01*
X152566974Y-149191907D01*
X152507091Y-149165789D01*
X152446301Y-149125281D01*
X152435983Y-149117182D01*
X152400000Y-149088400D01*
X152399569Y-149467850D01*
X152399378Y-149547783D01*
X152399006Y-149623598D01*
X152398474Y-149693381D01*
X152397807Y-149755219D01*
X152397028Y-149807198D01*
X152396159Y-149847403D01*
X152395224Y-149873921D01*
X152394547Y-149883284D01*
X152392956Y-149905152D01*
X152394350Y-149917917D01*
X152395748Y-149919267D01*
X152404902Y-149914187D01*
X152422268Y-149901123D01*
X152436496Y-149889347D01*
X152498399Y-149846514D01*
X152564791Y-149818561D01*
X152633624Y-149804861D01*
X152702848Y-149804786D01*
X152770415Y-149817711D01*
X152834276Y-149843009D01*
X152892381Y-149880053D01*
X152942683Y-149928217D01*
X152983132Y-149986874D01*
X153011680Y-150055398D01*
X153014722Y-150066165D01*
X153017674Y-150081071D01*
X153020122Y-150102564D01*
X153022105Y-150132040D01*
X153023662Y-150170899D01*
X153024831Y-150220539D01*
X153025652Y-150282358D01*
X153026164Y-150357755D01*
X153026404Y-150448128D01*
X153026432Y-150488650D01*
X153026533Y-150867534D01*
X152815558Y-150867534D01*
X152813096Y-150509138D01*
X152810633Y-150150742D01*
X152785009Y-150109312D01*
X152752315Y-150069326D01*
X152717947Y-150042257D01*
X152693792Y-150028620D01*
X152672285Y-150020870D01*
X152646836Y-150017407D01*
X152612338Y-150016634D01*
X152549963Y-150022565D01*
X152498863Y-150040632D01*
X152458095Y-150071244D01*
X152441648Y-150090889D01*
X152431107Y-150105943D01*
X152422372Y-150120480D01*
X152415254Y-150136218D01*
X152409564Y-150154873D01*
X152405114Y-150178165D01*
X152401715Y-150207810D01*
X152399177Y-150245528D01*
X152397311Y-150293035D01*
X152395929Y-150352050D01*
X152394842Y-150424290D01*
X152393860Y-150511473D01*
X152393702Y-150526750D01*
X152390194Y-150867534D01*
X152188333Y-150867534D01*
X152188333Y-148625940D01*
X152401130Y-148625940D01*
X152401621Y-148694984D01*
X152403065Y-148749604D01*
X152404844Y-148790483D01*
X152407342Y-148820811D01*
X152410941Y-148843780D01*
X152416026Y-148862583D01*
X152422978Y-148880410D01*
X152424216Y-148883221D01*
X152453525Y-148932577D01*
X152492846Y-148969537D01*
X152514300Y-148982772D01*
X152533095Y-148989999D01*
X152558758Y-148993848D01*
X152595332Y-148994777D01*
X152616545Y-148994362D01*
X152655325Y-148992655D01*
X152682259Y-148989422D01*
X152702427Y-148983520D01*
X152720914Y-148973805D01*
X152727894Y-148969315D01*
X152761155Y-148937415D01*
X152787269Y-148891090D01*
X152806007Y-148831372D01*
X152817139Y-148759292D01*
X152820433Y-148675883D01*
X152815660Y-148582175D01*
X152815277Y-148578004D01*
X152805337Y-148507281D01*
X152789479Y-148451240D01*
X152766631Y-148408338D01*
X152735724Y-148377033D01*
X152695690Y-148355784D01*
X152653254Y-148344395D01*
X152608596Y-148340579D01*
X152562865Y-148344121D01*
X152521984Y-148354130D01*
X152493623Y-148368378D01*
X152463537Y-148394429D01*
X152440142Y-148424310D01*
X152422820Y-148460213D01*
X152410955Y-148504326D01*
X152403931Y-148558839D01*
X152401130Y-148625940D01*
X152188333Y-148625940D01*
X152188333Y-148141267D01*
X152400000Y-148141267D01*
X152400000Y-148244932D01*
X152419050Y-148230998D01*
X152475698Y-148192054D01*
X152525159Y-148164291D01*
X152571437Y-148146183D01*
X152618537Y-148136205D01*
X152670466Y-148132833D01*
X152676970Y-148132800D01*
X152754319Y-148140606D01*
G37*
X152754319Y-148140606D02*
X152825070Y-148163621D01*
X152888020Y-148201238D01*
X152941966Y-148252851D01*
X152959045Y-148274872D01*
X152976282Y-148300025D01*
X152989984Y-148323584D01*
X153000602Y-148347946D01*
X153008588Y-148375509D01*
X153014393Y-148408668D01*
X153018469Y-148449823D01*
X153021266Y-148501370D01*
X153023237Y-148565706D01*
X153024411Y-148621995D01*
X153025480Y-148716990D01*
X153024567Y-148797057D01*
X153021265Y-148864129D01*
X153015169Y-148920138D01*
X153005876Y-148967018D01*
X152992979Y-149006699D01*
X152976074Y-149041114D01*
X152954756Y-149072196D01*
X152928620Y-149101877D01*
X152922534Y-149108059D01*
X152864134Y-149155486D01*
X152799043Y-149187426D01*
X152726632Y-149204157D01*
X152700177Y-149206433D01*
X152629990Y-149205001D01*
X152566974Y-149191907D01*
X152507091Y-149165789D01*
X152446301Y-149125281D01*
X152435983Y-149117182D01*
X152400000Y-149088400D01*
X152399569Y-149467850D01*
X152399378Y-149547783D01*
X152399006Y-149623598D01*
X152398474Y-149693381D01*
X152397807Y-149755219D01*
X152397028Y-149807198D01*
X152396159Y-149847403D01*
X152395224Y-149873921D01*
X152394547Y-149883284D01*
X152392956Y-149905152D01*
X152394350Y-149917917D01*
X152395748Y-149919267D01*
X152404902Y-149914187D01*
X152422268Y-149901123D01*
X152436496Y-149889347D01*
X152498399Y-149846514D01*
X152564791Y-149818561D01*
X152633624Y-149804861D01*
X152702848Y-149804786D01*
X152770415Y-149817711D01*
X152834276Y-149843009D01*
X152892381Y-149880053D01*
X152942683Y-149928217D01*
X152983132Y-149986874D01*
X153011680Y-150055398D01*
X153014722Y-150066165D01*
X153017674Y-150081071D01*
X153020122Y-150102564D01*
X153022105Y-150132040D01*
X153023662Y-150170899D01*
X153024831Y-150220539D01*
X153025652Y-150282358D01*
X153026164Y-150357755D01*
X153026404Y-150448128D01*
X153026432Y-150488650D01*
X153026533Y-150867534D01*
X152815558Y-150867534D01*
X152813096Y-150509138D01*
X152810633Y-150150742D01*
X152785009Y-150109312D01*
X152752315Y-150069326D01*
X152717947Y-150042257D01*
X152693792Y-150028620D01*
X152672285Y-150020870D01*
X152646836Y-150017407D01*
X152612338Y-150016634D01*
X152549963Y-150022565D01*
X152498863Y-150040632D01*
X152458095Y-150071244D01*
X152441648Y-150090889D01*
X152431107Y-150105943D01*
X152422372Y-150120480D01*
X152415254Y-150136218D01*
X152409564Y-150154873D01*
X152405114Y-150178165D01*
X152401715Y-150207810D01*
X152399177Y-150245528D01*
X152397311Y-150293035D01*
X152395929Y-150352050D01*
X152394842Y-150424290D01*
X152393860Y-150511473D01*
X152393702Y-150526750D01*
X152390194Y-150867534D01*
X152188333Y-150867534D01*
X152188333Y-148625940D01*
X152401130Y-148625940D01*
X152401621Y-148694984D01*
X152403065Y-148749604D01*
X152404844Y-148790483D01*
X152407342Y-148820811D01*
X152410941Y-148843780D01*
X152416026Y-148862583D01*
X152422978Y-148880410D01*
X152424216Y-148883221D01*
X152453525Y-148932577D01*
X152492846Y-148969537D01*
X152514300Y-148982772D01*
X152533095Y-148989999D01*
X152558758Y-148993848D01*
X152595332Y-148994777D01*
X152616545Y-148994362D01*
X152655325Y-148992655D01*
X152682259Y-148989422D01*
X152702427Y-148983520D01*
X152720914Y-148973805D01*
X152727894Y-148969315D01*
X152761155Y-148937415D01*
X152787269Y-148891090D01*
X152806007Y-148831372D01*
X152817139Y-148759292D01*
X152820433Y-148675883D01*
X152815660Y-148582175D01*
X152815277Y-148578004D01*
X152805337Y-148507281D01*
X152789479Y-148451240D01*
X152766631Y-148408338D01*
X152735724Y-148377033D01*
X152695690Y-148355784D01*
X152653254Y-148344395D01*
X152608596Y-148340579D01*
X152562865Y-148344121D01*
X152521984Y-148354130D01*
X152493623Y-148368378D01*
X152463537Y-148394429D01*
X152440142Y-148424310D01*
X152422820Y-148460213D01*
X152410955Y-148504326D01*
X152403931Y-148558839D01*
X152401130Y-148625940D01*
X152188333Y-148625940D01*
X152188333Y-148141267D01*
X152400000Y-148141267D01*
X152400000Y-148244932D01*
X152419050Y-148230998D01*
X152475698Y-148192054D01*
X152525159Y-148164291D01*
X152571437Y-148146183D01*
X152618537Y-148136205D01*
X152670466Y-148132833D01*
X152676970Y-148132800D01*
X152754319Y-148140606D01*
G36*
X159805948Y-149815405D02*
G01*
X159883094Y-149841064D01*
X159953560Y-149879835D01*
X160010461Y-149926881D01*
X160055231Y-149978639D01*
X160089461Y-150034476D01*
X160113999Y-150096903D01*
X160129695Y-150168430D01*
X160137395Y-150251568D01*
X160138533Y-150305855D01*
X160138533Y-150418800D01*
X159475801Y-150418800D01*
X159481445Y-150466814D01*
X159496601Y-150531067D01*
X159524840Y-150585776D01*
X159564519Y-150629755D01*
X159613993Y-150661815D01*
X159671616Y-150680768D01*
X159735745Y-150685427D01*
X159777590Y-150680700D01*
X159818227Y-150670176D01*
X159860641Y-150654021D01*
X159899497Y-150634710D01*
X159929457Y-150614715D01*
X159938762Y-150605993D01*
X159953022Y-150592944D01*
X159962652Y-150588134D01*
X159971994Y-150593318D01*
X159990481Y-150607050D01*
X160014891Y-150626598D01*
X160042006Y-150649229D01*
X160068607Y-150672211D01*
X160091473Y-150692811D01*
X160107386Y-150708298D01*
X160113133Y-150715845D01*
X160106443Y-150727288D01*
X160088569Y-150744965D01*
X160062805Y-150766326D01*
X160032446Y-150788823D01*
X160000785Y-150809907D01*
X159971118Y-150827031D01*
X159966192Y-150829521D01*
X159880898Y-150862265D01*
X159789979Y-150880044D01*
X159696499Y-150882430D01*
X159636996Y-150875722D01*
X159552770Y-150854151D01*
X159479385Y-150819607D01*
X159416803Y-150772052D01*
X159364987Y-150711450D01*
X159323901Y-150637763D01*
X159293507Y-150550955D01*
X159286985Y-150524634D01*
X159278318Y-150471515D01*
X159273194Y-150407508D01*
X159271627Y-150338287D01*
X159273628Y-150269525D01*
X159275415Y-150249467D01*
X159475969Y-150249467D01*
X159926866Y-150249467D01*
X159926866Y-150225604D01*
X159924427Y-150203332D01*
X159918239Y-150173919D01*
X159914250Y-150159256D01*
X159889633Y-150102014D01*
X159853899Y-150057415D01*
X159807741Y-150025968D01*
X159751853Y-150008184D01*
X159702954Y-150004119D01*
X159648120Y-150008637D01*
X159603651Y-150023121D01*
X159564983Y-150049541D01*
X159540679Y-150074184D01*
X159515551Y-150107585D01*
X159498139Y-150143893D01*
X159486036Y-150188787D01*
X159481653Y-150213484D01*
X159475969Y-150249467D01*
X159275415Y-150249467D01*
X159279208Y-150206893D01*
X159286239Y-150165098D01*
X159313001Y-150077047D01*
X159351640Y-149999706D01*
X159401318Y-149933915D01*
X159461191Y-149880514D01*
X159530419Y-149840344D01*
X159608160Y-149814246D01*
X159644217Y-149807527D01*
X159725273Y-149803884D01*
X159805948Y-149815405D01*
G37*
X159805948Y-149815405D02*
X159883094Y-149841064D01*
X159953560Y-149879835D01*
X160010461Y-149926881D01*
X160055231Y-149978639D01*
X160089461Y-150034476D01*
X160113999Y-150096903D01*
X160129695Y-150168430D01*
X160137395Y-150251568D01*
X160138533Y-150305855D01*
X160138533Y-150418800D01*
X159475801Y-150418800D01*
X159481445Y-150466814D01*
X159496601Y-150531067D01*
X159524840Y-150585776D01*
X159564519Y-150629755D01*
X159613993Y-150661815D01*
X159671616Y-150680768D01*
X159735745Y-150685427D01*
X159777590Y-150680700D01*
X159818227Y-150670176D01*
X159860641Y-150654021D01*
X159899497Y-150634710D01*
X159929457Y-150614715D01*
X159938762Y-150605993D01*
X159953022Y-150592944D01*
X159962652Y-150588134D01*
X159971994Y-150593318D01*
X159990481Y-150607050D01*
X160014891Y-150626598D01*
X160042006Y-150649229D01*
X160068607Y-150672211D01*
X160091473Y-150692811D01*
X160107386Y-150708298D01*
X160113133Y-150715845D01*
X160106443Y-150727288D01*
X160088569Y-150744965D01*
X160062805Y-150766326D01*
X160032446Y-150788823D01*
X160000785Y-150809907D01*
X159971118Y-150827031D01*
X159966192Y-150829521D01*
X159880898Y-150862265D01*
X159789979Y-150880044D01*
X159696499Y-150882430D01*
X159636996Y-150875722D01*
X159552770Y-150854151D01*
X159479385Y-150819607D01*
X159416803Y-150772052D01*
X159364987Y-150711450D01*
X159323901Y-150637763D01*
X159293507Y-150550955D01*
X159286985Y-150524634D01*
X159278318Y-150471515D01*
X159273194Y-150407508D01*
X159271627Y-150338287D01*
X159273628Y-150269525D01*
X159275415Y-150249467D01*
X159475969Y-150249467D01*
X159926866Y-150249467D01*
X159926866Y-150225604D01*
X159924427Y-150203332D01*
X159918239Y-150173919D01*
X159914250Y-150159256D01*
X159889633Y-150102014D01*
X159853899Y-150057415D01*
X159807741Y-150025968D01*
X159751853Y-150008184D01*
X159702954Y-150004119D01*
X159648120Y-150008637D01*
X159603651Y-150023121D01*
X159564983Y-150049541D01*
X159540679Y-150074184D01*
X159515551Y-150107585D01*
X159498139Y-150143893D01*
X159486036Y-150188787D01*
X159481653Y-150213484D01*
X159475969Y-150249467D01*
X159275415Y-150249467D01*
X159279208Y-150206893D01*
X159286239Y-150165098D01*
X159313001Y-150077047D01*
X159351640Y-149999706D01*
X159401318Y-149933915D01*
X159461191Y-149880514D01*
X159530419Y-149840344D01*
X159608160Y-149814246D01*
X159644217Y-149807527D01*
X159725273Y-149803884D01*
X159805948Y-149815405D01*
G36*
X157940758Y-149805524D02*
G01*
X158020008Y-149815897D01*
X158093581Y-149834341D01*
X158157431Y-149860741D01*
X158158875Y-149861505D01*
X158209742Y-149895048D01*
X158249344Y-149936805D01*
X158281451Y-149990817D01*
X158283477Y-149995080D01*
X158305499Y-150042034D01*
X158307922Y-150454784D01*
X158310344Y-150867534D01*
X158106533Y-150867534D01*
X158106533Y-150825200D01*
X158105771Y-150801044D01*
X158103823Y-150785717D01*
X158102299Y-150782867D01*
X158094486Y-150788361D01*
X158078777Y-150802533D01*
X158064666Y-150816267D01*
X158019815Y-150849483D01*
X157986349Y-150863393D01*
X157941462Y-150873117D01*
X157886593Y-150879095D01*
X157828328Y-150881093D01*
X157773248Y-150878880D01*
X157728935Y-150872454D01*
X157657256Y-150848949D01*
X157594384Y-150813942D01*
X157542295Y-150768986D01*
X157502969Y-150715633D01*
X157487334Y-150682861D01*
X157472352Y-150627971D01*
X157466616Y-150567322D01*
X157468482Y-150534581D01*
X157663622Y-150534581D01*
X157665211Y-150573799D01*
X157680769Y-150611152D01*
X157709808Y-150643697D01*
X157737411Y-150661792D01*
X157775195Y-150675091D01*
X157823957Y-150683180D01*
X157878565Y-150686061D01*
X157933887Y-150683740D01*
X157984792Y-150676219D01*
X158026146Y-150663503D01*
X158030333Y-150661575D01*
X158058427Y-150644299D01*
X158078201Y-150622068D01*
X158090971Y-150591889D01*
X158098056Y-150550771D01*
X158100662Y-150501807D01*
X158102299Y-150423034D01*
X157949899Y-150423034D01*
X157884678Y-150423358D01*
X157833881Y-150424599D01*
X157795007Y-150427155D01*
X157765554Y-150431429D01*
X157743021Y-150437818D01*
X157724907Y-150446725D01*
X157708709Y-150458548D01*
X157704303Y-150462325D01*
X157676489Y-150496442D01*
X157663622Y-150534581D01*
X157468482Y-150534581D01*
X157470064Y-150506842D01*
X157482632Y-150452455D01*
X157489957Y-150434251D01*
X157527695Y-150371983D01*
X157576812Y-150322129D01*
X157636671Y-150285175D01*
X157706634Y-150261607D01*
X157720738Y-150258733D01*
X157745122Y-150255821D01*
X157782791Y-150253284D01*
X157830097Y-150251277D01*
X157883393Y-150249953D01*
X157939031Y-150249467D01*
X158108840Y-150249467D01*
X158104597Y-150168352D01*
X158100668Y-150120870D01*
X158093475Y-150086431D01*
X158081240Y-150061210D01*
X158062179Y-150041383D01*
X158037914Y-150025103D01*
X158021238Y-150017194D01*
X158000409Y-150011751D01*
X157971658Y-150008181D01*
X157931211Y-150005889D01*
X157911575Y-150005217D01*
X157851389Y-150004792D01*
X157804649Y-150008113D01*
X157768142Y-150015896D01*
X157738652Y-150028857D01*
X157712966Y-150047712D01*
X157710365Y-150050057D01*
X157679625Y-150078229D01*
X157600979Y-150018185D01*
X157570148Y-149994249D01*
X157544991Y-149973961D01*
X157528169Y-149959520D01*
X157522333Y-149953202D01*
X157528725Y-149942151D01*
X157545544Y-149924511D01*
X157569252Y-149903271D01*
X157596311Y-149881422D01*
X157623185Y-149861954D01*
X157646335Y-149847855D01*
X157647951Y-149847033D01*
X157709430Y-149823977D01*
X157781422Y-149809449D01*
X157859881Y-149803337D01*
X157940758Y-149805524D01*
G37*
X157940758Y-149805524D02*
X158020008Y-149815897D01*
X158093581Y-149834341D01*
X158157431Y-149860741D01*
X158158875Y-149861505D01*
X158209742Y-149895048D01*
X158249344Y-149936805D01*
X158281451Y-149990817D01*
X158283477Y-149995080D01*
X158305499Y-150042034D01*
X158307922Y-150454784D01*
X158310344Y-150867534D01*
X158106533Y-150867534D01*
X158106533Y-150825200D01*
X158105771Y-150801044D01*
X158103823Y-150785717D01*
X158102299Y-150782867D01*
X158094486Y-150788361D01*
X158078777Y-150802533D01*
X158064666Y-150816267D01*
X158019815Y-150849483D01*
X157986349Y-150863393D01*
X157941462Y-150873117D01*
X157886593Y-150879095D01*
X157828328Y-150881093D01*
X157773248Y-150878880D01*
X157728935Y-150872454D01*
X157657256Y-150848949D01*
X157594384Y-150813942D01*
X157542295Y-150768986D01*
X157502969Y-150715633D01*
X157487334Y-150682861D01*
X157472352Y-150627971D01*
X157466616Y-150567322D01*
X157468482Y-150534581D01*
X157663622Y-150534581D01*
X157665211Y-150573799D01*
X157680769Y-150611152D01*
X157709808Y-150643697D01*
X157737411Y-150661792D01*
X157775195Y-150675091D01*
X157823957Y-150683180D01*
X157878565Y-150686061D01*
X157933887Y-150683740D01*
X157984792Y-150676219D01*
X158026146Y-150663503D01*
X158030333Y-150661575D01*
X158058427Y-150644299D01*
X158078201Y-150622068D01*
X158090971Y-150591889D01*
X158098056Y-150550771D01*
X158100662Y-150501807D01*
X158102299Y-150423034D01*
X157949899Y-150423034D01*
X157884678Y-150423358D01*
X157833881Y-150424599D01*
X157795007Y-150427155D01*
X157765554Y-150431429D01*
X157743021Y-150437818D01*
X157724907Y-150446725D01*
X157708709Y-150458548D01*
X157704303Y-150462325D01*
X157676489Y-150496442D01*
X157663622Y-150534581D01*
X157468482Y-150534581D01*
X157470064Y-150506842D01*
X157482632Y-150452455D01*
X157489957Y-150434251D01*
X157527695Y-150371983D01*
X157576812Y-150322129D01*
X157636671Y-150285175D01*
X157706634Y-150261607D01*
X157720738Y-150258733D01*
X157745122Y-150255821D01*
X157782791Y-150253284D01*
X157830097Y-150251277D01*
X157883393Y-150249953D01*
X157939031Y-150249467D01*
X158108840Y-150249467D01*
X158104597Y-150168352D01*
X158100668Y-150120870D01*
X158093475Y-150086431D01*
X158081240Y-150061210D01*
X158062179Y-150041383D01*
X158037914Y-150025103D01*
X158021238Y-150017194D01*
X158000409Y-150011751D01*
X157971658Y-150008181D01*
X157931211Y-150005889D01*
X157911575Y-150005217D01*
X157851389Y-150004792D01*
X157804649Y-150008113D01*
X157768142Y-150015896D01*
X157738652Y-150028857D01*
X157712966Y-150047712D01*
X157710365Y-150050057D01*
X157679625Y-150078229D01*
X157600979Y-150018185D01*
X157570148Y-149994249D01*
X157544991Y-149973961D01*
X157528169Y-149959520D01*
X157522333Y-149953202D01*
X157528725Y-149942151D01*
X157545544Y-149924511D01*
X157569252Y-149903271D01*
X157596311Y-149881422D01*
X157623185Y-149861954D01*
X157646335Y-149847855D01*
X157647951Y-149847033D01*
X157709430Y-149823977D01*
X157781422Y-149809449D01*
X157859881Y-149803337D01*
X157940758Y-149805524D01*
G36*
X155829000Y-150867534D02*
G01*
X155617333Y-150867534D01*
X155617333Y-150764800D01*
X155581347Y-150794288D01*
X155514941Y-150838677D01*
X155443423Y-150868002D01*
X155368862Y-150881762D01*
X155293330Y-150879457D01*
X155257499Y-150872537D01*
X155187679Y-150847060D01*
X155125498Y-150808095D01*
X155073141Y-150757644D01*
X155032790Y-150697708D01*
X155011536Y-150647162D01*
X155006670Y-150629184D01*
X155002790Y-150607383D01*
X154999735Y-150579466D01*
X154997342Y-150543138D01*
X154995449Y-150496106D01*
X154993893Y-150436076D01*
X154992897Y-150383901D01*
X154992415Y-150340144D01*
X155197402Y-150340144D01*
X155199126Y-150404505D01*
X155204127Y-150465076D01*
X155212380Y-150517848D01*
X155223858Y-150558812D01*
X155226574Y-150565313D01*
X155255243Y-150610308D01*
X155294564Y-150644803D01*
X155326395Y-150660829D01*
X155364327Y-150669164D01*
X155410149Y-150671016D01*
X155456869Y-150666765D01*
X155497498Y-150656792D01*
X155511500Y-150650764D01*
X155545460Y-150627589D01*
X155572166Y-150596207D01*
X155592161Y-150555042D01*
X155605983Y-150502522D01*
X155614173Y-150437071D01*
X155617273Y-150357117D01*
X155617333Y-150342600D01*
X155614681Y-150256927D01*
X155606291Y-150186257D01*
X155591510Y-150129441D01*
X155569685Y-150085331D01*
X155540166Y-150052779D01*
X155502299Y-150030635D01*
X155455431Y-150017752D01*
X155431070Y-150014655D01*
X155370417Y-150016078D01*
X155316686Y-150031202D01*
X155271739Y-150059037D01*
X155237436Y-150098592D01*
X155223783Y-150124979D01*
X155212145Y-150164410D01*
X155203886Y-150216087D01*
X155198980Y-150276002D01*
X155197402Y-150340144D01*
X154992415Y-150340144D01*
X154992003Y-150302885D01*
X154992247Y-150232201D01*
X154993594Y-150173585D01*
X154996008Y-150128777D01*
X154998614Y-150104501D01*
X155018075Y-150027396D01*
X155051117Y-149959942D01*
X155096788Y-149903108D01*
X155154132Y-149857861D01*
X155222195Y-149825166D01*
X155291982Y-149807248D01*
X155363728Y-149803713D01*
X155435394Y-149815989D01*
X155504000Y-149843204D01*
X155566567Y-149884485D01*
X155572370Y-149889347D01*
X155592619Y-149905954D01*
X155607490Y-149916818D01*
X155612329Y-149919267D01*
X155613553Y-149911137D01*
X155614669Y-149888093D01*
X155615639Y-149852156D01*
X155616424Y-149805344D01*
X155616987Y-149749677D01*
X155617291Y-149687176D01*
X155617333Y-149652567D01*
X155617333Y-149385867D01*
X155829000Y-149385867D01*
X155829000Y-150867534D01*
G37*
X155829000Y-150867534D02*
X155617333Y-150867534D01*
X155617333Y-150764800D01*
X155581347Y-150794288D01*
X155514941Y-150838677D01*
X155443423Y-150868002D01*
X155368862Y-150881762D01*
X155293330Y-150879457D01*
X155257499Y-150872537D01*
X155187679Y-150847060D01*
X155125498Y-150808095D01*
X155073141Y-150757644D01*
X155032790Y-150697708D01*
X155011536Y-150647162D01*
X155006670Y-150629184D01*
X155002790Y-150607383D01*
X154999735Y-150579466D01*
X154997342Y-150543138D01*
X154995449Y-150496106D01*
X154993893Y-150436076D01*
X154992897Y-150383901D01*
X154992415Y-150340144D01*
X155197402Y-150340144D01*
X155199126Y-150404505D01*
X155204127Y-150465076D01*
X155212380Y-150517848D01*
X155223858Y-150558812D01*
X155226574Y-150565313D01*
X155255243Y-150610308D01*
X155294564Y-150644803D01*
X155326395Y-150660829D01*
X155364327Y-150669164D01*
X155410149Y-150671016D01*
X155456869Y-150666765D01*
X155497498Y-150656792D01*
X155511500Y-150650764D01*
X155545460Y-150627589D01*
X155572166Y-150596207D01*
X155592161Y-150555042D01*
X155605983Y-150502522D01*
X155614173Y-150437071D01*
X155617273Y-150357117D01*
X155617333Y-150342600D01*
X155614681Y-150256927D01*
X155606291Y-150186257D01*
X155591510Y-150129441D01*
X155569685Y-150085331D01*
X155540166Y-150052779D01*
X155502299Y-150030635D01*
X155455431Y-150017752D01*
X155431070Y-150014655D01*
X155370417Y-150016078D01*
X155316686Y-150031202D01*
X155271739Y-150059037D01*
X155237436Y-150098592D01*
X155223783Y-150124979D01*
X155212145Y-150164410D01*
X155203886Y-150216087D01*
X155198980Y-150276002D01*
X155197402Y-150340144D01*
X154992415Y-150340144D01*
X154992003Y-150302885D01*
X154992247Y-150232201D01*
X154993594Y-150173585D01*
X154996008Y-150128777D01*
X154998614Y-150104501D01*
X155018075Y-150027396D01*
X155051117Y-149959942D01*
X155096788Y-149903108D01*
X155154132Y-149857861D01*
X155222195Y-149825166D01*
X155291982Y-149807248D01*
X155363728Y-149803713D01*
X155435394Y-149815989D01*
X155504000Y-149843204D01*
X155566567Y-149884485D01*
X155572370Y-149889347D01*
X155592619Y-149905954D01*
X155607490Y-149916818D01*
X155612329Y-149919267D01*
X155613553Y-149911137D01*
X155614669Y-149888093D01*
X155615639Y-149852156D01*
X155616424Y-149805344D01*
X155616987Y-149749677D01*
X155617291Y-149687176D01*
X155617333Y-149652567D01*
X155617333Y-149385867D01*
X155829000Y-149385867D01*
X155829000Y-150867534D01*
G36*
X153688147Y-149809112D02*
G01*
X153764596Y-149819576D01*
X153829340Y-149837661D01*
X153884340Y-149863916D01*
X153931556Y-149898890D01*
X153931630Y-149898956D01*
X153975892Y-149949515D01*
X154006801Y-150009870D01*
X154024739Y-150080778D01*
X154025267Y-150084367D01*
X154027091Y-150105591D01*
X154028788Y-150141616D01*
X154030314Y-150190307D01*
X154031626Y-150249534D01*
X154032680Y-150317162D01*
X154033432Y-150391060D01*
X154033839Y-150469093D01*
X154033898Y-150505584D01*
X154034066Y-150867534D01*
X153822400Y-150867534D01*
X153822400Y-150825200D01*
X153821591Y-150801044D01*
X153819524Y-150785717D01*
X153817907Y-150782867D01*
X153810146Y-150788658D01*
X153795671Y-150803314D01*
X153787763Y-150812083D01*
X153752936Y-150841008D01*
X153705776Y-150861918D01*
X153645203Y-150875171D01*
X153581347Y-150880729D01*
X153512040Y-150880717D01*
X153454924Y-150874552D01*
X153443526Y-150872215D01*
X153369752Y-150847787D01*
X153306839Y-150811142D01*
X153255695Y-150763189D01*
X153217225Y-150704840D01*
X153192337Y-150637002D01*
X153187786Y-150615665D01*
X153183133Y-150550240D01*
X153386366Y-150550240D01*
X153387445Y-150582035D01*
X153391786Y-150602934D01*
X153401048Y-150618902D01*
X153407533Y-150626356D01*
X153445347Y-150656823D01*
X153492753Y-150676221D01*
X153516778Y-150681570D01*
X153548702Y-150684645D01*
X153591157Y-150685208D01*
X153637970Y-150683526D01*
X153682968Y-150679868D01*
X153719979Y-150674503D01*
X153729818Y-150672294D01*
X153763059Y-150658457D01*
X153787877Y-150635212D01*
X153805204Y-150600795D01*
X153815974Y-150553441D01*
X153820734Y-150500405D01*
X153824762Y-150416745D01*
X153660598Y-150420372D01*
X153601863Y-150421867D01*
X153557273Y-150423595D01*
X153524038Y-150425846D01*
X153499369Y-150428908D01*
X153480478Y-150433070D01*
X153464574Y-150438621D01*
X153458333Y-150441338D01*
X153422710Y-150460489D01*
X153400824Y-150481365D01*
X153389705Y-150508461D01*
X153386384Y-150546268D01*
X153386366Y-150550240D01*
X153183133Y-150550240D01*
X153182787Y-150545390D01*
X153192785Y-150478026D01*
X153216675Y-150415892D01*
X153253349Y-150361304D01*
X153301702Y-150316579D01*
X153342272Y-150292200D01*
X153372294Y-150278648D01*
X153401915Y-150268223D01*
X153433951Y-150260537D01*
X153471220Y-150255205D01*
X153516538Y-150251841D01*
X153572723Y-150250060D01*
X153642592Y-150249475D01*
X153654222Y-150249467D01*
X153822400Y-150249467D01*
X153822214Y-150179617D01*
X153819578Y-150125019D01*
X153810789Y-150083009D01*
X153794035Y-150051965D01*
X153767503Y-150030267D01*
X153729381Y-150016295D01*
X153677855Y-150008428D01*
X153627442Y-150005496D01*
X153568087Y-150004856D01*
X153522185Y-150007870D01*
X153486510Y-150015260D01*
X153457838Y-150027749D01*
X153432944Y-150046061D01*
X153428570Y-150050074D01*
X153398088Y-150078822D01*
X153320260Y-150019448D01*
X153289317Y-149995472D01*
X153263775Y-149974982D01*
X153246420Y-149960260D01*
X153240073Y-149953757D01*
X153244476Y-149944272D01*
X153259145Y-149927879D01*
X153280644Y-149907620D01*
X153305538Y-149886540D01*
X153330393Y-149867682D01*
X153351773Y-149854091D01*
X153353668Y-149853097D01*
X153399469Y-149832670D01*
X153446134Y-149818620D01*
X153498122Y-149810084D01*
X153559894Y-149806195D01*
X153598033Y-149805723D01*
X153688147Y-149809112D01*
G37*
X153688147Y-149809112D02*
X153764596Y-149819576D01*
X153829340Y-149837661D01*
X153884340Y-149863916D01*
X153931556Y-149898890D01*
X153931630Y-149898956D01*
X153975892Y-149949515D01*
X154006801Y-150009870D01*
X154024739Y-150080778D01*
X154025267Y-150084367D01*
X154027091Y-150105591D01*
X154028788Y-150141616D01*
X154030314Y-150190307D01*
X154031626Y-150249534D01*
X154032680Y-150317162D01*
X154033432Y-150391060D01*
X154033839Y-150469093D01*
X154033898Y-150505584D01*
X154034066Y-150867534D01*
X153822400Y-150867534D01*
X153822400Y-150825200D01*
X153821591Y-150801044D01*
X153819524Y-150785717D01*
X153817907Y-150782867D01*
X153810146Y-150788658D01*
X153795671Y-150803314D01*
X153787763Y-150812083D01*
X153752936Y-150841008D01*
X153705776Y-150861918D01*
X153645203Y-150875171D01*
X153581347Y-150880729D01*
X153512040Y-150880717D01*
X153454924Y-150874552D01*
X153443526Y-150872215D01*
X153369752Y-150847787D01*
X153306839Y-150811142D01*
X153255695Y-150763189D01*
X153217225Y-150704840D01*
X153192337Y-150637002D01*
X153187786Y-150615665D01*
X153183133Y-150550240D01*
X153386366Y-150550240D01*
X153387445Y-150582035D01*
X153391786Y-150602934D01*
X153401048Y-150618902D01*
X153407533Y-150626356D01*
X153445347Y-150656823D01*
X153492753Y-150676221D01*
X153516778Y-150681570D01*
X153548702Y-150684645D01*
X153591157Y-150685208D01*
X153637970Y-150683526D01*
X153682968Y-150679868D01*
X153719979Y-150674503D01*
X153729818Y-150672294D01*
X153763059Y-150658457D01*
X153787877Y-150635212D01*
X153805204Y-150600795D01*
X153815974Y-150553441D01*
X153820734Y-150500405D01*
X153824762Y-150416745D01*
X153660598Y-150420372D01*
X153601863Y-150421867D01*
X153557273Y-150423595D01*
X153524038Y-150425846D01*
X153499369Y-150428908D01*
X153480478Y-150433070D01*
X153464574Y-150438621D01*
X153458333Y-150441338D01*
X153422710Y-150460489D01*
X153400824Y-150481365D01*
X153389705Y-150508461D01*
X153386384Y-150546268D01*
X153386366Y-150550240D01*
X153183133Y-150550240D01*
X153182787Y-150545390D01*
X153192785Y-150478026D01*
X153216675Y-150415892D01*
X153253349Y-150361304D01*
X153301702Y-150316579D01*
X153342272Y-150292200D01*
X153372294Y-150278648D01*
X153401915Y-150268223D01*
X153433951Y-150260537D01*
X153471220Y-150255205D01*
X153516538Y-150251841D01*
X153572723Y-150250060D01*
X153642592Y-150249475D01*
X153654222Y-150249467D01*
X153822400Y-150249467D01*
X153822214Y-150179617D01*
X153819578Y-150125019D01*
X153810789Y-150083009D01*
X153794035Y-150051965D01*
X153767503Y-150030267D01*
X153729381Y-150016295D01*
X153677855Y-150008428D01*
X153627442Y-150005496D01*
X153568087Y-150004856D01*
X153522185Y-150007870D01*
X153486510Y-150015260D01*
X153457838Y-150027749D01*
X153432944Y-150046061D01*
X153428570Y-150050074D01*
X153398088Y-150078822D01*
X153320260Y-150019448D01*
X153289317Y-149995472D01*
X153263775Y-149974982D01*
X153246420Y-149960260D01*
X153240073Y-149953757D01*
X153244476Y-149944272D01*
X153259145Y-149927879D01*
X153280644Y-149907620D01*
X153305538Y-149886540D01*
X153330393Y-149867682D01*
X153351773Y-149854091D01*
X153353668Y-149853097D01*
X153399469Y-149832670D01*
X153446134Y-149818620D01*
X153498122Y-149810084D01*
X153559894Y-149806195D01*
X153598033Y-149805723D01*
X153688147Y-149809112D01*
%TO.C,L101*%
G36*
X159378165Y-38205332D02*
G01*
X159389778Y-38214845D01*
X159413480Y-38281600D01*
X159382603Y-38340608D01*
X159342667Y-38354000D01*
X159288372Y-38323163D01*
X159276887Y-38307978D01*
X159271942Y-38243416D01*
X159316731Y-38200101D01*
X159378165Y-38205332D01*
G37*
X159378165Y-38205332D02*
X159389778Y-38214845D01*
X159413480Y-38281600D01*
X159382603Y-38340608D01*
X159342667Y-38354000D01*
X159288372Y-38323163D01*
X159276887Y-38307978D01*
X159271942Y-38243416D01*
X159316731Y-38200101D01*
X159378165Y-38205332D01*
G36*
X156968765Y-37402498D02*
G01*
X157148058Y-37406431D01*
X157269062Y-37414707D01*
X157344958Y-37428733D01*
X157388928Y-37449917D01*
X157411670Y-37475583D01*
X157439164Y-37573313D01*
X157388720Y-37648148D01*
X157264958Y-37695978D01*
X157147556Y-37710629D01*
X156929667Y-37723424D01*
X156929667Y-38358995D01*
X156926804Y-38595229D01*
X156918880Y-38801624D01*
X156906891Y-38961870D01*
X156891834Y-39059658D01*
X156885844Y-39076450D01*
X156816617Y-39132900D01*
X156710792Y-39160128D01*
X156611028Y-39150724D01*
X156576889Y-39130111D01*
X156567397Y-39080272D01*
X156559266Y-38960592D01*
X156553078Y-38785890D01*
X156549416Y-38570989D01*
X156548667Y-38412557D01*
X156548667Y-37723225D01*
X156309632Y-37710529D01*
X156129862Y-37684145D01*
X156024257Y-37629456D01*
X155995599Y-37548755D01*
X156024330Y-37475583D01*
X156051115Y-37446939D01*
X156098232Y-37426692D01*
X156178863Y-37413433D01*
X156306191Y-37405755D01*
X156493395Y-37402250D01*
X156718000Y-37401500D01*
X156968765Y-37402498D01*
G37*
X156968765Y-37402498D02*
X157148058Y-37406431D01*
X157269062Y-37414707D01*
X157344958Y-37428733D01*
X157388928Y-37449917D01*
X157411670Y-37475583D01*
X157439164Y-37573313D01*
X157388720Y-37648148D01*
X157264958Y-37695978D01*
X157147556Y-37710629D01*
X156929667Y-37723424D01*
X156929667Y-38358995D01*
X156926804Y-38595229D01*
X156918880Y-38801624D01*
X156906891Y-38961870D01*
X156891834Y-39059658D01*
X156885844Y-39076450D01*
X156816617Y-39132900D01*
X156710792Y-39160128D01*
X156611028Y-39150724D01*
X156576889Y-39130111D01*
X156567397Y-39080272D01*
X156559266Y-38960592D01*
X156553078Y-38785890D01*
X156549416Y-38570989D01*
X156548667Y-38412557D01*
X156548667Y-37723225D01*
X156309632Y-37710529D01*
X156129862Y-37684145D01*
X156024257Y-37629456D01*
X155995599Y-37548755D01*
X156024330Y-37475583D01*
X156051115Y-37446939D01*
X156098232Y-37426692D01*
X156178863Y-37413433D01*
X156306191Y-37405755D01*
X156493395Y-37402250D01*
X156718000Y-37401500D01*
X156968765Y-37402498D01*
G36*
X154608814Y-37392393D02*
G01*
X154655061Y-37435107D01*
X154688083Y-37518277D01*
X154709877Y-37651704D01*
X154722438Y-37845192D01*
X154727762Y-38108541D01*
X154728333Y-38269333D01*
X154725878Y-38571255D01*
X154717182Y-38798419D01*
X154700250Y-38960626D01*
X154673087Y-39067679D01*
X154633696Y-39129378D01*
X154580082Y-39155527D01*
X154547348Y-39158333D01*
X154452744Y-39142948D01*
X154392330Y-39087792D01*
X154359527Y-38979360D01*
X154347759Y-38804150D01*
X154347333Y-38747700D01*
X154347333Y-38438667D01*
X153839333Y-38438667D01*
X153839333Y-38747700D01*
X153831839Y-38941922D01*
X153804973Y-39065954D01*
X153752158Y-39133298D01*
X153666815Y-39157458D01*
X153639319Y-39158333D01*
X153544445Y-39122510D01*
X153499619Y-39049744D01*
X153483682Y-38963427D01*
X153471738Y-38811369D01*
X153463787Y-38612402D01*
X153459830Y-38385358D01*
X153459866Y-38149067D01*
X153463895Y-37922363D01*
X153471918Y-37724077D01*
X153483934Y-37573040D01*
X153499619Y-37488922D01*
X153566171Y-37399268D01*
X153639319Y-37380333D01*
X153733922Y-37395718D01*
X153794336Y-37450875D01*
X153827139Y-37559306D01*
X153838907Y-37734517D01*
X153839333Y-37790966D01*
X153839333Y-38100000D01*
X154347333Y-38100000D01*
X154347333Y-37790966D01*
X154354827Y-37596744D01*
X154381693Y-37472712D01*
X154434509Y-37405368D01*
X154519852Y-37381208D01*
X154547348Y-37380333D01*
X154608814Y-37392393D01*
G37*
X154608814Y-37392393D02*
X154655061Y-37435107D01*
X154688083Y-37518277D01*
X154709877Y-37651704D01*
X154722438Y-37845192D01*
X154727762Y-38108541D01*
X154728333Y-38269333D01*
X154725878Y-38571255D01*
X154717182Y-38798419D01*
X154700250Y-38960626D01*
X154673087Y-39067679D01*
X154633696Y-39129378D01*
X154580082Y-39155527D01*
X154547348Y-39158333D01*
X154452744Y-39142948D01*
X154392330Y-39087792D01*
X154359527Y-38979360D01*
X154347759Y-38804150D01*
X154347333Y-38747700D01*
X154347333Y-38438667D01*
X153839333Y-38438667D01*
X153839333Y-38747700D01*
X153831839Y-38941922D01*
X153804973Y-39065954D01*
X153752158Y-39133298D01*
X153666815Y-39157458D01*
X153639319Y-39158333D01*
X153544445Y-39122510D01*
X153499619Y-39049744D01*
X153483682Y-38963427D01*
X153471738Y-38811369D01*
X153463787Y-38612402D01*
X153459830Y-38385358D01*
X153459866Y-38149067D01*
X153463895Y-37922363D01*
X153471918Y-37724077D01*
X153483934Y-37573040D01*
X153499619Y-37488922D01*
X153566171Y-37399268D01*
X153639319Y-37380333D01*
X153733922Y-37395718D01*
X153794336Y-37450875D01*
X153827139Y-37559306D01*
X153838907Y-37734517D01*
X153839333Y-37790966D01*
X153839333Y-38100000D01*
X154347333Y-38100000D01*
X154347333Y-37790966D01*
X154354827Y-37596744D01*
X154381693Y-37472712D01*
X154434509Y-37405368D01*
X154519852Y-37381208D01*
X154547348Y-37380333D01*
X154608814Y-37392393D01*
G36*
X159302970Y-40012083D02*
G01*
X159364441Y-40013984D01*
X159563534Y-40022428D01*
X159694390Y-40035755D01*
X159773421Y-40057041D01*
X159817037Y-40089359D01*
X159824791Y-40100250D01*
X159848715Y-40191661D01*
X159824848Y-40248417D01*
X159776904Y-40290855D01*
X159686243Y-40317247D01*
X159534664Y-40332105D01*
X159475815Y-40334938D01*
X159173333Y-40347376D01*
X159173333Y-40720798D01*
X159454664Y-40733316D01*
X159654345Y-40756535D01*
X159773763Y-40805144D01*
X159813571Y-40879612D01*
X159782531Y-40968083D01*
X159730896Y-41012489D01*
X159632583Y-41039527D01*
X159469415Y-41053998D01*
X159454664Y-41054684D01*
X159173333Y-41067202D01*
X159173333Y-41440772D01*
X159496967Y-41453136D01*
X159674678Y-41464357D01*
X159785831Y-41484241D01*
X159848415Y-41516990D01*
X159867167Y-41539583D01*
X159891041Y-41630951D01*
X159867108Y-41687750D01*
X159801394Y-41726562D01*
X159673711Y-41755726D01*
X159506280Y-41774576D01*
X159321322Y-41782449D01*
X159141058Y-41778679D01*
X158987706Y-41762602D01*
X158883489Y-41733554D01*
X158860244Y-41717863D01*
X158835283Y-41681132D01*
X158817118Y-41620234D01*
X158804746Y-41523036D01*
X158797160Y-41377398D01*
X158793358Y-41171185D01*
X158792333Y-40897537D01*
X158792466Y-40599654D01*
X158797348Y-40376029D01*
X158813705Y-40216276D01*
X158848260Y-40110009D01*
X158907739Y-40046842D01*
X158998867Y-40016389D01*
X159128370Y-40008265D01*
X159302970Y-40012083D01*
G37*
X159302970Y-40012083D02*
X159364441Y-40013984D01*
X159563534Y-40022428D01*
X159694390Y-40035755D01*
X159773421Y-40057041D01*
X159817037Y-40089359D01*
X159824791Y-40100250D01*
X159848715Y-40191661D01*
X159824848Y-40248417D01*
X159776904Y-40290855D01*
X159686243Y-40317247D01*
X159534664Y-40332105D01*
X159475815Y-40334938D01*
X159173333Y-40347376D01*
X159173333Y-40720798D01*
X159454664Y-40733316D01*
X159654345Y-40756535D01*
X159773763Y-40805144D01*
X159813571Y-40879612D01*
X159782531Y-40968083D01*
X159730896Y-41012489D01*
X159632583Y-41039527D01*
X159469415Y-41053998D01*
X159454664Y-41054684D01*
X159173333Y-41067202D01*
X159173333Y-41440772D01*
X159496967Y-41453136D01*
X159674678Y-41464357D01*
X159785831Y-41484241D01*
X159848415Y-41516990D01*
X159867167Y-41539583D01*
X159891041Y-41630951D01*
X159867108Y-41687750D01*
X159801394Y-41726562D01*
X159673711Y-41755726D01*
X159506280Y-41774576D01*
X159321322Y-41782449D01*
X159141058Y-41778679D01*
X158987706Y-41762602D01*
X158883489Y-41733554D01*
X158860244Y-41717863D01*
X158835283Y-41681132D01*
X158817118Y-41620234D01*
X158804746Y-41523036D01*
X158797160Y-41377398D01*
X158793358Y-41171185D01*
X158792333Y-40897537D01*
X158792466Y-40599654D01*
X158797348Y-40376029D01*
X158813705Y-40216276D01*
X158848260Y-40110009D01*
X158907739Y-40046842D01*
X158998867Y-40016389D01*
X159128370Y-40008265D01*
X159302970Y-40012083D01*
G36*
X157627820Y-40051863D02*
G01*
X157662661Y-40091321D01*
X157682851Y-40130572D01*
X157691000Y-40183814D01*
X157685136Y-40263731D01*
X157663286Y-40383003D01*
X157623478Y-40554313D01*
X157563738Y-40790343D01*
X157539190Y-40885071D01*
X157462593Y-41178107D01*
X157402653Y-41399263D01*
X157354908Y-41558651D01*
X157314901Y-41666384D01*
X157278172Y-41732574D01*
X157240262Y-41767331D01*
X157196711Y-41780770D01*
X157143217Y-41783000D01*
X157052181Y-41767815D01*
X156980508Y-41714174D01*
X156920650Y-41609945D01*
X156865055Y-41442995D01*
X156820482Y-41264417D01*
X156782083Y-41111377D01*
X156747300Y-40996438D01*
X156722286Y-40939297D01*
X156718000Y-40936333D01*
X156696685Y-40974461D01*
X156663937Y-41075712D01*
X156625909Y-41220391D01*
X156615518Y-41264417D01*
X156571685Y-41434040D01*
X156525181Y-41581536D01*
X156485037Y-41678736D01*
X156479801Y-41687750D01*
X156387755Y-41765835D01*
X156271610Y-41775870D01*
X156160672Y-41715506D01*
X156158646Y-41713503D01*
X156125712Y-41650337D01*
X156078387Y-41518822D01*
X156021102Y-41333157D01*
X155958294Y-41107540D01*
X155907099Y-40908021D01*
X155837538Y-40619654D01*
X155790672Y-40402275D01*
X155766296Y-40245360D01*
X155764204Y-40138386D01*
X155784190Y-40070829D01*
X155826050Y-40032168D01*
X155889577Y-40011878D01*
X155889604Y-40011873D01*
X155972218Y-40019107D01*
X156043620Y-40081472D01*
X156108444Y-40207006D01*
X156171322Y-40403749D01*
X156213347Y-40573638D01*
X156314447Y-41013996D01*
X156370897Y-40734685D01*
X156413300Y-40547349D01*
X156463780Y-40355603D01*
X156498590Y-40240770D01*
X156543963Y-40116030D01*
X156586379Y-40052243D01*
X156646611Y-40029090D01*
X156718000Y-40026167D01*
X156804605Y-40031575D01*
X156858547Y-40061066D01*
X156899630Y-40134535D01*
X156940229Y-40249417D01*
X156990328Y-40420238D01*
X157039754Y-40620110D01*
X157065508Y-40742661D01*
X157116725Y-41012654D01*
X157230073Y-40546036D01*
X157280312Y-40356130D01*
X157330213Y-40196580D01*
X157373575Y-40085631D01*
X157401127Y-40042857D01*
X157521197Y-40007451D01*
X157627820Y-40051863D01*
G37*
X157627820Y-40051863D02*
X157662661Y-40091321D01*
X157682851Y-40130572D01*
X157691000Y-40183814D01*
X157685136Y-40263731D01*
X157663286Y-40383003D01*
X157623478Y-40554313D01*
X157563738Y-40790343D01*
X157539190Y-40885071D01*
X157462593Y-41178107D01*
X157402653Y-41399263D01*
X157354908Y-41558651D01*
X157314901Y-41666384D01*
X157278172Y-41732574D01*
X157240262Y-41767331D01*
X157196711Y-41780770D01*
X157143217Y-41783000D01*
X157052181Y-41767815D01*
X156980508Y-41714174D01*
X156920650Y-41609945D01*
X156865055Y-41442995D01*
X156820482Y-41264417D01*
X156782083Y-41111377D01*
X156747300Y-40996438D01*
X156722286Y-40939297D01*
X156718000Y-40936333D01*
X156696685Y-40974461D01*
X156663937Y-41075712D01*
X156625909Y-41220391D01*
X156615518Y-41264417D01*
X156571685Y-41434040D01*
X156525181Y-41581536D01*
X156485037Y-41678736D01*
X156479801Y-41687750D01*
X156387755Y-41765835D01*
X156271610Y-41775870D01*
X156160672Y-41715506D01*
X156158646Y-41713503D01*
X156125712Y-41650337D01*
X156078387Y-41518822D01*
X156021102Y-41333157D01*
X155958294Y-41107540D01*
X155907099Y-40908021D01*
X155837538Y-40619654D01*
X155790672Y-40402275D01*
X155766296Y-40245360D01*
X155764204Y-40138386D01*
X155784190Y-40070829D01*
X155826050Y-40032168D01*
X155889577Y-40011878D01*
X155889604Y-40011873D01*
X155972218Y-40019107D01*
X156043620Y-40081472D01*
X156108444Y-40207006D01*
X156171322Y-40403749D01*
X156213347Y-40573638D01*
X156314447Y-41013996D01*
X156370897Y-40734685D01*
X156413300Y-40547349D01*
X156463780Y-40355603D01*
X156498590Y-40240770D01*
X156543963Y-40116030D01*
X156586379Y-40052243D01*
X156646611Y-40029090D01*
X156718000Y-40026167D01*
X156804605Y-40031575D01*
X156858547Y-40061066D01*
X156899630Y-40134535D01*
X156940229Y-40249417D01*
X156990328Y-40420238D01*
X157039754Y-40620110D01*
X157065508Y-40742661D01*
X157116725Y-41012654D01*
X157230073Y-40546036D01*
X157280312Y-40356130D01*
X157330213Y-40196580D01*
X157373575Y-40085631D01*
X157401127Y-40042857D01*
X157521197Y-40007451D01*
X157627820Y-40051863D01*
G36*
X154128832Y-43454665D02*
G01*
X154140445Y-43464178D01*
X154164146Y-43530933D01*
X154133270Y-43589942D01*
X154093333Y-43603333D01*
X154039039Y-43572496D01*
X154027553Y-43557311D01*
X154022608Y-43492750D01*
X154067398Y-43449435D01*
X154128832Y-43454665D01*
G37*
X154128832Y-43454665D02*
X154140445Y-43464178D01*
X154164146Y-43530933D01*
X154133270Y-43589942D01*
X154093333Y-43603333D01*
X154039039Y-43572496D01*
X154027553Y-43557311D01*
X154022608Y-43492750D01*
X154067398Y-43449435D01*
X154128832Y-43454665D01*
G36*
X159416750Y-42655619D02*
G01*
X159443068Y-42680368D01*
X159462800Y-42724616D01*
X159477140Y-42800098D01*
X159487284Y-42918551D01*
X159494425Y-43091710D01*
X159499760Y-43331312D01*
X159502369Y-43496584D01*
X159505424Y-43798135D01*
X159503444Y-44025381D01*
X159494626Y-44188618D01*
X159477164Y-44298146D01*
X159449253Y-44364263D01*
X159409088Y-44397268D01*
X159354863Y-44407459D01*
X159342667Y-44407667D01*
X159252098Y-44377138D01*
X159219897Y-44349264D01*
X159200852Y-44289139D01*
X159188141Y-44159590D01*
X159181578Y-43956342D01*
X159180979Y-43675117D01*
X159182964Y-43496584D01*
X159187812Y-43215211D01*
X159193806Y-43006770D01*
X159202142Y-42859523D01*
X159214015Y-42761735D01*
X159230618Y-42701670D01*
X159253148Y-42667591D01*
X159268583Y-42655619D01*
X159359648Y-42631567D01*
X159416750Y-42655619D01*
G37*
X159416750Y-42655619D02*
X159443068Y-42680368D01*
X159462800Y-42724616D01*
X159477140Y-42800098D01*
X159487284Y-42918551D01*
X159494425Y-43091710D01*
X159499760Y-43331312D01*
X159502369Y-43496584D01*
X159505424Y-43798135D01*
X159503444Y-44025381D01*
X159494626Y-44188618D01*
X159477164Y-44298146D01*
X159449253Y-44364263D01*
X159409088Y-44397268D01*
X159354863Y-44407459D01*
X159342667Y-44407667D01*
X159252098Y-44377138D01*
X159219897Y-44349264D01*
X159200852Y-44289139D01*
X159188141Y-44159590D01*
X159181578Y-43956342D01*
X159180979Y-43675117D01*
X159182964Y-43496584D01*
X159187812Y-43215211D01*
X159193806Y-43006770D01*
X159202142Y-42859523D01*
X159214015Y-42761735D01*
X159230618Y-42701670D01*
X159253148Y-42667591D01*
X159268583Y-42655619D01*
X159359648Y-42631567D01*
X159416750Y-42655619D01*
G36*
X156908805Y-42643024D02*
G01*
X157073507Y-42686707D01*
X157193748Y-42759341D01*
X157229239Y-42805052D01*
X157253291Y-42911617D01*
X157245343Y-42974077D01*
X157211945Y-43031789D01*
X157145352Y-43045357D01*
X157073665Y-43035978D01*
X156923090Y-43009460D01*
X156788355Y-42985669D01*
X156674974Y-42977394D01*
X156595815Y-43006549D01*
X156545211Y-43083846D01*
X156517493Y-43219999D01*
X156506991Y-43425721D01*
X156506333Y-43518666D01*
X156512042Y-43749994D01*
X156532970Y-43908647D01*
X156574822Y-44006081D01*
X156643302Y-44053753D01*
X156744115Y-44063119D01*
X156776226Y-44060703D01*
X156860730Y-44044868D01*
X156901614Y-44002234D01*
X156918508Y-43907160D01*
X156921359Y-43871159D01*
X156923793Y-43757428D01*
X156902083Y-43702442D01*
X156845768Y-43681391D01*
X156841016Y-43680659D01*
X156736487Y-43634293D01*
X156683334Y-43549562D01*
X156696856Y-43452339D01*
X156701410Y-43444583D01*
X156772117Y-43397085D01*
X156894529Y-43365583D01*
X157036699Y-43352990D01*
X157166683Y-43362217D01*
X157250603Y-43394518D01*
X157283160Y-43451774D01*
X157302481Y-43565618D01*
X157310301Y-43748152D01*
X157310667Y-43812804D01*
X157308684Y-43993885D01*
X157299416Y-44112008D01*
X157277885Y-44188848D01*
X157239113Y-44246082D01*
X157202772Y-44282603D01*
X157073384Y-44356294D01*
X156895299Y-44397881D01*
X156698828Y-44405699D01*
X156514278Y-44378084D01*
X156391972Y-44327126D01*
X156284589Y-44245785D01*
X156209514Y-44148415D01*
X156161509Y-44019132D01*
X156135335Y-43842056D01*
X156125755Y-43601305D01*
X156125333Y-43518667D01*
X156131191Y-43256298D01*
X156152219Y-43062338D01*
X156193599Y-42921121D01*
X156260515Y-42816980D01*
X156358149Y-42734249D01*
X156391972Y-42712619D01*
X156543633Y-42653286D01*
X156724045Y-42630986D01*
X156908805Y-42643024D01*
G37*
X156908805Y-42643024D02*
X157073507Y-42686707D01*
X157193748Y-42759341D01*
X157229239Y-42805052D01*
X157253291Y-42911617D01*
X157245343Y-42974077D01*
X157211945Y-43031789D01*
X157145352Y-43045357D01*
X157073665Y-43035978D01*
X156923090Y-43009460D01*
X156788355Y-42985669D01*
X156674974Y-42977394D01*
X156595815Y-43006549D01*
X156545211Y-43083846D01*
X156517493Y-43219999D01*
X156506991Y-43425721D01*
X156506333Y-43518666D01*
X156512042Y-43749994D01*
X156532970Y-43908647D01*
X156574822Y-44006081D01*
X156643302Y-44053753D01*
X156744115Y-44063119D01*
X156776226Y-44060703D01*
X156860730Y-44044868D01*
X156901614Y-44002234D01*
X156918508Y-43907160D01*
X156921359Y-43871159D01*
X156923793Y-43757428D01*
X156902083Y-43702442D01*
X156845768Y-43681391D01*
X156841016Y-43680659D01*
X156736487Y-43634293D01*
X156683334Y-43549562D01*
X156696856Y-43452339D01*
X156701410Y-43444583D01*
X156772117Y-43397085D01*
X156894529Y-43365583D01*
X157036699Y-43352990D01*
X157166683Y-43362217D01*
X157250603Y-43394518D01*
X157283160Y-43451774D01*
X157302481Y-43565618D01*
X157310301Y-43748152D01*
X157310667Y-43812804D01*
X157308684Y-43993885D01*
X157299416Y-44112008D01*
X157277885Y-44188848D01*
X157239113Y-44246082D01*
X157202772Y-44282603D01*
X157073384Y-44356294D01*
X156895299Y-44397881D01*
X156698828Y-44405699D01*
X156514278Y-44378084D01*
X156391972Y-44327126D01*
X156284589Y-44245785D01*
X156209514Y-44148415D01*
X156161509Y-44019132D01*
X156135335Y-43842056D01*
X156125755Y-43601305D01*
X156125333Y-43518667D01*
X156131191Y-43256298D01*
X156152219Y-43062338D01*
X156193599Y-42921121D01*
X156260515Y-42816980D01*
X156358149Y-42734249D01*
X156391972Y-42712619D01*
X156543633Y-42653286D01*
X156724045Y-42630986D01*
X156908805Y-42643024D01*
D13*
%TO.C,J101*%
X52218000Y-27051000D02*
G75*
G03*
X52218000Y-27051000I-2180000J0D01*
G01*
X52218000Y-32051000D02*
G75*
G03*
X52218000Y-32051000I-2180000J0D01*
G01*
X45438000Y-24491000D02*
X45438000Y-34611000D01*
X46538000Y-24491000D02*
X46538000Y-34611000D01*
X54098000Y-24491000D02*
X54098000Y-34611000D01*
X44978000Y-24491000D02*
X44978000Y-34611000D01*
X54098000Y-24491000D02*
X44978000Y-24491000D01*
X54098000Y-34611000D02*
X44978000Y-34611000D01*
X51426000Y-28705000D02*
X51319000Y-28598000D01*
X48491000Y-25769000D02*
X48384000Y-25663000D01*
X51692000Y-28439000D02*
X51585000Y-28332000D01*
X48757000Y-25503000D02*
X48650000Y-25397000D01*
X51426000Y-33705000D02*
X51030000Y-33310000D01*
X48764000Y-31044000D02*
X48384000Y-30664000D01*
X51692000Y-33439000D02*
X51312000Y-33059000D01*
X49046000Y-30793000D02*
X48650000Y-30398000D01*
X45378000Y-24251000D02*
X44738000Y-24251000D01*
X44738000Y-24251000D02*
X44738000Y-24651000D01*
%TO.C,J102*%
X163470000Y-92710000D02*
G75*
G03*
X163470000Y-92710000I-2180000J0D01*
G01*
X163470000Y-87710000D02*
G75*
G03*
X163470000Y-87710000I-2180000J0D01*
G01*
X163470000Y-82710000D02*
G75*
G03*
X163470000Y-82710000I-2180000J0D01*
G01*
X163470000Y-77710000D02*
G75*
G03*
X163470000Y-77710000I-2180000J0D01*
G01*
X163470000Y-72710000D02*
G75*
G03*
X163470000Y-72710000I-2180000J0D01*
G01*
X163470000Y-67710000D02*
G75*
G03*
X163470000Y-67710000I-2180000J0D01*
G01*
X163470000Y-62710000D02*
G75*
G03*
X163470000Y-62710000I-2180000J0D01*
G01*
X163470000Y-57710000D02*
G75*
G03*
X163470000Y-57710000I-2180000J0D01*
G01*
X165890000Y-95270000D02*
X165890000Y-55150000D01*
X164790000Y-95270000D02*
X164790000Y-55150000D01*
X157230000Y-95270000D02*
X157230000Y-55150000D01*
X166350000Y-95270000D02*
X166350000Y-55150000D01*
X157230000Y-95270000D02*
X166350000Y-95270000D01*
X157230000Y-55150000D02*
X166350000Y-55150000D01*
X159902000Y-91056000D02*
X160009000Y-91163000D01*
X162837000Y-93992000D02*
X162944000Y-94098000D01*
X159636000Y-91322000D02*
X159743000Y-91429000D01*
X162571000Y-94258000D02*
X162678000Y-94364000D01*
X159902000Y-86056000D02*
X160298000Y-86451000D01*
X162564000Y-88717000D02*
X162944000Y-89097000D01*
X159636000Y-86322000D02*
X160016000Y-86702000D01*
X162282000Y-88968000D02*
X162678000Y-89363000D01*
X159902000Y-81056000D02*
X160298000Y-81451000D01*
X162564000Y-83717000D02*
X162944000Y-84097000D01*
X159636000Y-81322000D02*
X160016000Y-81702000D01*
X162282000Y-83968000D02*
X162678000Y-84363000D01*
X159902000Y-76056000D02*
X160298000Y-76451000D01*
X162564000Y-78717000D02*
X162944000Y-79097000D01*
X159636000Y-76322000D02*
X160016000Y-76702000D01*
X162282000Y-78968000D02*
X162678000Y-79363000D01*
X159902000Y-71056000D02*
X160298000Y-71451000D01*
X162564000Y-73717000D02*
X162944000Y-74097000D01*
X159636000Y-71322000D02*
X160016000Y-71702000D01*
X162282000Y-73968000D02*
X162678000Y-74363000D01*
X159902000Y-66056000D02*
X160298000Y-66451000D01*
X162564000Y-68717000D02*
X162944000Y-69097000D01*
X159636000Y-66322000D02*
X160016000Y-66702000D01*
X162282000Y-68968000D02*
X162678000Y-69363000D01*
X159902000Y-61056000D02*
X160298000Y-61451000D01*
X162564000Y-63717000D02*
X162944000Y-64097000D01*
X159636000Y-61322000D02*
X160016000Y-61702000D01*
X162282000Y-63968000D02*
X162678000Y-64363000D01*
X159902000Y-56056000D02*
X160298000Y-56451000D01*
X162564000Y-58717000D02*
X162944000Y-59097000D01*
X159636000Y-56322000D02*
X160016000Y-56702000D01*
X162282000Y-58968000D02*
X162678000Y-59363000D01*
X165950000Y-95510000D02*
X166590000Y-95510000D01*
X166590000Y-95510000D02*
X166590000Y-95110000D01*
%TO.C,RV801*%
X81848000Y-43358000D02*
X86433000Y-43358000D01*
X89704000Y-43358000D02*
X134233000Y-43358000D01*
X137504000Y-43358000D02*
X142088000Y-43358000D01*
X81848000Y-52598000D02*
X85233000Y-52598000D01*
X88504000Y-52598000D02*
X135433000Y-52598000D01*
X138704000Y-52598000D02*
X142088000Y-52598000D01*
X81848000Y-43358000D02*
X81848000Y-45053000D01*
X81848000Y-47403000D02*
X81848000Y-48906000D01*
X81848000Y-50551000D02*
X81848000Y-52598000D01*
X142088000Y-43358000D02*
X142088000Y-45405000D01*
X142088000Y-47051000D02*
X142088000Y-52598000D01*
X81543000Y-46228000D02*
X81043000Y-45728000D01*
X81043000Y-45728000D02*
X81043000Y-46728000D01*
X81043000Y-46728000D02*
X81543000Y-46228000D01*
X89468000Y-47978000D02*
X134468000Y-47978000D01*
X89468000Y-46478000D02*
X89468000Y-49478000D01*
X90218000Y-47228000D02*
X89468000Y-47978000D01*
X89468000Y-47978000D02*
X90218000Y-48728000D01*
X134468000Y-46478000D02*
X134468000Y-49478000D01*
X133718000Y-47228000D02*
X134468000Y-47978000D01*
X134468000Y-47978000D02*
X133718000Y-48728000D01*
%TO.C,RV701*%
X134427000Y-80998000D02*
X133677000Y-81748000D01*
X133677000Y-80248000D02*
X134427000Y-80998000D01*
X134427000Y-79498000D02*
X134427000Y-82498000D01*
X89427000Y-80998000D02*
X90177000Y-81748000D01*
X90177000Y-80248000D02*
X89427000Y-80998000D01*
X89427000Y-79498000D02*
X89427000Y-82498000D01*
X89427000Y-80998000D02*
X134427000Y-80998000D01*
X81002000Y-79748000D02*
X81502000Y-79248000D01*
X81002000Y-78748000D02*
X81002000Y-79748000D01*
X81502000Y-79248000D02*
X81002000Y-78748000D01*
X142047000Y-80071000D02*
X142047000Y-85618000D01*
X142047000Y-76378000D02*
X142047000Y-78425000D01*
X81807000Y-83571000D02*
X81807000Y-85618000D01*
X81807000Y-80423000D02*
X81807000Y-81926000D01*
X81807000Y-76378000D02*
X81807000Y-78073000D01*
X138663000Y-85618000D02*
X142047000Y-85618000D01*
X88463000Y-85618000D02*
X135392000Y-85618000D01*
X81807000Y-85618000D02*
X85192000Y-85618000D01*
X137463000Y-76378000D02*
X142047000Y-76378000D01*
X89663000Y-76378000D02*
X134192000Y-76378000D01*
X81807000Y-76378000D02*
X86392000Y-76378000D01*
%TO.C,RV601*%
X134427000Y-97508000D02*
X133677000Y-98258000D01*
X133677000Y-96758000D02*
X134427000Y-97508000D01*
X134427000Y-96008000D02*
X134427000Y-99008000D01*
X89427000Y-97508000D02*
X90177000Y-98258000D01*
X90177000Y-96758000D02*
X89427000Y-97508000D01*
X89427000Y-96008000D02*
X89427000Y-99008000D01*
X89427000Y-97508000D02*
X134427000Y-97508000D01*
X81002000Y-96258000D02*
X81502000Y-95758000D01*
X81002000Y-95258000D02*
X81002000Y-96258000D01*
X81502000Y-95758000D02*
X81002000Y-95258000D01*
X142047000Y-96581000D02*
X142047000Y-102128000D01*
X142047000Y-92888000D02*
X142047000Y-94935000D01*
X81807000Y-100081000D02*
X81807000Y-102128000D01*
X81807000Y-96933000D02*
X81807000Y-98436000D01*
X81807000Y-92888000D02*
X81807000Y-94583000D01*
X138663000Y-102128000D02*
X142047000Y-102128000D01*
X88463000Y-102128000D02*
X135392000Y-102128000D01*
X81807000Y-102128000D02*
X85192000Y-102128000D01*
X137463000Y-92888000D02*
X142047000Y-92888000D01*
X89663000Y-92888000D02*
X134192000Y-92888000D01*
X81807000Y-92888000D02*
X86392000Y-92888000D01*
%TO.C,RV501*%
X134427000Y-114018000D02*
X133677000Y-114768000D01*
X133677000Y-113268000D02*
X134427000Y-114018000D01*
X134427000Y-112518000D02*
X134427000Y-115518000D01*
X89427000Y-114018000D02*
X90177000Y-114768000D01*
X90177000Y-113268000D02*
X89427000Y-114018000D01*
X89427000Y-112518000D02*
X89427000Y-115518000D01*
X89427000Y-114018000D02*
X134427000Y-114018000D01*
X81002000Y-112768000D02*
X81502000Y-112268000D01*
X81002000Y-111768000D02*
X81002000Y-112768000D01*
X81502000Y-112268000D02*
X81002000Y-111768000D01*
X142047000Y-113091000D02*
X142047000Y-118638000D01*
X142047000Y-109398000D02*
X142047000Y-111445000D01*
X81807000Y-116591000D02*
X81807000Y-118638000D01*
X81807000Y-113443000D02*
X81807000Y-114946000D01*
X81807000Y-109398000D02*
X81807000Y-111093000D01*
X138663000Y-118638000D02*
X142047000Y-118638000D01*
X88463000Y-118638000D02*
X135392000Y-118638000D01*
X81807000Y-118638000D02*
X85192000Y-118638000D01*
X137463000Y-109398000D02*
X142047000Y-109398000D01*
X89663000Y-109398000D02*
X134192000Y-109398000D01*
X81807000Y-109398000D02*
X86392000Y-109398000D01*
%TO.C,RV401*%
X134427000Y-130528000D02*
X133677000Y-131278000D01*
X133677000Y-129778000D02*
X134427000Y-130528000D01*
X134427000Y-129028000D02*
X134427000Y-132028000D01*
X89427000Y-130528000D02*
X90177000Y-131278000D01*
X90177000Y-129778000D02*
X89427000Y-130528000D01*
X89427000Y-129028000D02*
X89427000Y-132028000D01*
X89427000Y-130528000D02*
X134427000Y-130528000D01*
X81002000Y-129278000D02*
X81502000Y-128778000D01*
X81002000Y-128278000D02*
X81002000Y-129278000D01*
X81502000Y-128778000D02*
X81002000Y-128278000D01*
X142047000Y-129601000D02*
X142047000Y-135148000D01*
X142047000Y-125908000D02*
X142047000Y-127955000D01*
X81807000Y-133101000D02*
X81807000Y-135148000D01*
X81807000Y-129953000D02*
X81807000Y-131456000D01*
X81807000Y-125908000D02*
X81807000Y-127603000D01*
X138663000Y-135148000D02*
X142047000Y-135148000D01*
X88463000Y-135148000D02*
X135392000Y-135148000D01*
X81807000Y-135148000D02*
X85192000Y-135148000D01*
X137463000Y-125908000D02*
X142047000Y-125908000D01*
X89663000Y-125908000D02*
X134192000Y-125908000D01*
X81807000Y-125908000D02*
X86392000Y-125908000D01*
%TO.C,RV301*%
X134427000Y-146403000D02*
X133677000Y-147153000D01*
X133677000Y-145653000D02*
X134427000Y-146403000D01*
X134427000Y-144903000D02*
X134427000Y-147903000D01*
X89427000Y-146403000D02*
X90177000Y-147153000D01*
X90177000Y-145653000D02*
X89427000Y-146403000D01*
X89427000Y-144903000D02*
X89427000Y-147903000D01*
X89427000Y-146403000D02*
X134427000Y-146403000D01*
X81002000Y-145153000D02*
X81502000Y-144653000D01*
X81002000Y-144153000D02*
X81002000Y-145153000D01*
X81502000Y-144653000D02*
X81002000Y-144153000D01*
X142047000Y-145476000D02*
X142047000Y-151023000D01*
X142047000Y-141783000D02*
X142047000Y-143830000D01*
X81807000Y-148976000D02*
X81807000Y-151023000D01*
X81807000Y-145828000D02*
X81807000Y-147331000D01*
X81807000Y-141783000D02*
X81807000Y-143478000D01*
X138663000Y-151023000D02*
X142047000Y-151023000D01*
X88463000Y-151023000D02*
X135392000Y-151023000D01*
X81807000Y-151023000D02*
X85192000Y-151023000D01*
X137463000Y-141783000D02*
X142047000Y-141783000D01*
X89663000Y-141783000D02*
X134192000Y-141783000D01*
X81807000Y-141783000D02*
X86392000Y-141783000D01*
%TO.C,D102*%
X66230000Y-25618000D02*
X66074000Y-25618000D01*
X68546000Y-25618000D02*
X68390000Y-25618000D01*
X66230163Y-28219130D02*
G75*
G02*
X66230000Y-26137039I1079837J1041130D01*
G01*
X68389837Y-28219130D02*
G75*
G03*
X68390000Y-26137039I-1079837J1041130D01*
G01*
X66231392Y-28850335D02*
G75*
G02*
X66074484Y-25618000I1078608J1672335D01*
G01*
X68388608Y-28850335D02*
G75*
G03*
X68545516Y-25618000I-1078608J1672335D01*
G01*
%TO.C,RV201*%
X134427000Y-64488000D02*
X133677000Y-65238000D01*
X133677000Y-63738000D02*
X134427000Y-64488000D01*
X134427000Y-62988000D02*
X134427000Y-65988000D01*
X89427000Y-64488000D02*
X90177000Y-65238000D01*
X90177000Y-63738000D02*
X89427000Y-64488000D01*
X89427000Y-62988000D02*
X89427000Y-65988000D01*
X89427000Y-64488000D02*
X134427000Y-64488000D01*
X81002000Y-63238000D02*
X81502000Y-62738000D01*
X81002000Y-62238000D02*
X81002000Y-63238000D01*
X81502000Y-62738000D02*
X81002000Y-62238000D01*
X142047000Y-63561000D02*
X142047000Y-69108000D01*
X142047000Y-59868000D02*
X142047000Y-61915000D01*
X81807000Y-67061000D02*
X81807000Y-69108000D01*
X81807000Y-63913000D02*
X81807000Y-65416000D01*
X81807000Y-59868000D02*
X81807000Y-61563000D01*
X138663000Y-69108000D02*
X142047000Y-69108000D01*
X88463000Y-69108000D02*
X135392000Y-69108000D01*
X81807000Y-69108000D02*
X85192000Y-69108000D01*
X137463000Y-59868000D02*
X142047000Y-59868000D01*
X89663000Y-59868000D02*
X134192000Y-59868000D01*
X81807000Y-59868000D02*
X86392000Y-59868000D01*
%TO.C,J101*%
D14*
X54550380Y-30836714D02*
X55264666Y-30836714D01*
X55407523Y-30884333D01*
X55502761Y-30979571D01*
X55550380Y-31122428D01*
X55550380Y-31217666D01*
X55550380Y-29836714D02*
X55550380Y-30408142D01*
X55550380Y-30122428D02*
X54550380Y-30122428D01*
X54693238Y-30217666D01*
X54788476Y-30312904D01*
X54836095Y-30408142D01*
X54550380Y-29217666D02*
X54550380Y-29122428D01*
X54598000Y-29027190D01*
X54645619Y-28979571D01*
X54740857Y-28931952D01*
X54931333Y-28884333D01*
X55169428Y-28884333D01*
X55359904Y-28931952D01*
X55455142Y-28979571D01*
X55502761Y-29027190D01*
X55550380Y-29122428D01*
X55550380Y-29217666D01*
X55502761Y-29312904D01*
X55455142Y-29360523D01*
X55359904Y-29408142D01*
X55169428Y-29455761D01*
X54931333Y-29455761D01*
X54740857Y-29408142D01*
X54645619Y-29360523D01*
X54598000Y-29312904D01*
X54550380Y-29217666D01*
X55550380Y-27931952D02*
X55550380Y-28503380D01*
X55550380Y-28217666D02*
X54550380Y-28217666D01*
X54693238Y-28312904D01*
X54788476Y-28408142D01*
X54836095Y-28503380D01*
%TO.C,J102*%
X155682380Y-76495714D02*
X156396666Y-76495714D01*
X156539523Y-76543333D01*
X156634761Y-76638571D01*
X156682380Y-76781428D01*
X156682380Y-76876666D01*
X156682380Y-75495714D02*
X156682380Y-76067142D01*
X156682380Y-75781428D02*
X155682380Y-75781428D01*
X155825238Y-75876666D01*
X155920476Y-75971904D01*
X155968095Y-76067142D01*
X155682380Y-74876666D02*
X155682380Y-74781428D01*
X155730000Y-74686190D01*
X155777619Y-74638571D01*
X155872857Y-74590952D01*
X156063333Y-74543333D01*
X156301428Y-74543333D01*
X156491904Y-74590952D01*
X156587142Y-74638571D01*
X156634761Y-74686190D01*
X156682380Y-74781428D01*
X156682380Y-74876666D01*
X156634761Y-74971904D01*
X156587142Y-75019523D01*
X156491904Y-75067142D01*
X156301428Y-75114761D01*
X156063333Y-75114761D01*
X155872857Y-75067142D01*
X155777619Y-75019523D01*
X155730000Y-74971904D01*
X155682380Y-74876666D01*
X155777619Y-74162380D02*
X155730000Y-74114761D01*
X155682380Y-74019523D01*
X155682380Y-73781428D01*
X155730000Y-73686190D01*
X155777619Y-73638571D01*
X155872857Y-73590952D01*
X155968095Y-73590952D01*
X156110952Y-73638571D01*
X156682380Y-74210000D01*
X156682380Y-73590952D01*
%TO.C,RV801*%
X110420380Y-42680380D02*
X110087047Y-42204190D01*
X109848952Y-42680380D02*
X109848952Y-41680380D01*
X110229904Y-41680380D01*
X110325142Y-41728000D01*
X110372761Y-41775619D01*
X110420380Y-41870857D01*
X110420380Y-42013714D01*
X110372761Y-42108952D01*
X110325142Y-42156571D01*
X110229904Y-42204190D01*
X109848952Y-42204190D01*
X110706095Y-41680380D02*
X111039428Y-42680380D01*
X111372761Y-41680380D01*
X111848952Y-42108952D02*
X111753714Y-42061333D01*
X111706095Y-42013714D01*
X111658476Y-41918476D01*
X111658476Y-41870857D01*
X111706095Y-41775619D01*
X111753714Y-41728000D01*
X111848952Y-41680380D01*
X112039428Y-41680380D01*
X112134666Y-41728000D01*
X112182285Y-41775619D01*
X112229904Y-41870857D01*
X112229904Y-41918476D01*
X112182285Y-42013714D01*
X112134666Y-42061333D01*
X112039428Y-42108952D01*
X111848952Y-42108952D01*
X111753714Y-42156571D01*
X111706095Y-42204190D01*
X111658476Y-42299428D01*
X111658476Y-42489904D01*
X111706095Y-42585142D01*
X111753714Y-42632761D01*
X111848952Y-42680380D01*
X112039428Y-42680380D01*
X112134666Y-42632761D01*
X112182285Y-42585142D01*
X112229904Y-42489904D01*
X112229904Y-42299428D01*
X112182285Y-42204190D01*
X112134666Y-42156571D01*
X112039428Y-42108952D01*
X112848952Y-41680380D02*
X112944190Y-41680380D01*
X113039428Y-41728000D01*
X113087047Y-41775619D01*
X113134666Y-41870857D01*
X113182285Y-42061333D01*
X113182285Y-42299428D01*
X113134666Y-42489904D01*
X113087047Y-42585142D01*
X113039428Y-42632761D01*
X112944190Y-42680380D01*
X112848952Y-42680380D01*
X112753714Y-42632761D01*
X112706095Y-42585142D01*
X112658476Y-42489904D01*
X112610857Y-42299428D01*
X112610857Y-42061333D01*
X112658476Y-41870857D01*
X112706095Y-41775619D01*
X112753714Y-41728000D01*
X112848952Y-41680380D01*
X114134666Y-42680380D02*
X113563238Y-42680380D01*
X113848952Y-42680380D02*
X113848952Y-41680380D01*
X113753714Y-41823238D01*
X113658476Y-41918476D01*
X113563238Y-41966095D01*
%TO.C,H104*%
X158940714Y-154767380D02*
X158940714Y-153767380D01*
X158940714Y-154243571D02*
X159512142Y-154243571D01*
X159512142Y-154767380D02*
X159512142Y-153767380D01*
X160512142Y-154767380D02*
X159940714Y-154767380D01*
X160226428Y-154767380D02*
X160226428Y-153767380D01*
X160131190Y-153910238D01*
X160035952Y-154005476D01*
X159940714Y-154053095D01*
X161131190Y-153767380D02*
X161226428Y-153767380D01*
X161321666Y-153815000D01*
X161369285Y-153862619D01*
X161416904Y-153957857D01*
X161464523Y-154148333D01*
X161464523Y-154386428D01*
X161416904Y-154576904D01*
X161369285Y-154672142D01*
X161321666Y-154719761D01*
X161226428Y-154767380D01*
X161131190Y-154767380D01*
X161035952Y-154719761D01*
X160988333Y-154672142D01*
X160940714Y-154576904D01*
X160893095Y-154386428D01*
X160893095Y-154148333D01*
X160940714Y-153957857D01*
X160988333Y-153862619D01*
X161035952Y-153815000D01*
X161131190Y-153767380D01*
X162321666Y-154100714D02*
X162321666Y-154767380D01*
X162083571Y-153719761D02*
X161845476Y-154434047D01*
X162464523Y-154434047D01*
%TO.C,H103*%
X158813714Y-25852380D02*
X158813714Y-24852380D01*
X158813714Y-25328571D02*
X159385142Y-25328571D01*
X159385142Y-25852380D02*
X159385142Y-24852380D01*
X160385142Y-25852380D02*
X159813714Y-25852380D01*
X160099428Y-25852380D02*
X160099428Y-24852380D01*
X160004190Y-24995238D01*
X159908952Y-25090476D01*
X159813714Y-25138095D01*
X161004190Y-24852380D02*
X161099428Y-24852380D01*
X161194666Y-24900000D01*
X161242285Y-24947619D01*
X161289904Y-25042857D01*
X161337523Y-25233333D01*
X161337523Y-25471428D01*
X161289904Y-25661904D01*
X161242285Y-25757142D01*
X161194666Y-25804761D01*
X161099428Y-25852380D01*
X161004190Y-25852380D01*
X160908952Y-25804761D01*
X160861333Y-25757142D01*
X160813714Y-25661904D01*
X160766095Y-25471428D01*
X160766095Y-25233333D01*
X160813714Y-25042857D01*
X160861333Y-24947619D01*
X160908952Y-24900000D01*
X161004190Y-24852380D01*
X161670857Y-24852380D02*
X162289904Y-24852380D01*
X161956571Y-25233333D01*
X162099428Y-25233333D01*
X162194666Y-25280952D01*
X162242285Y-25328571D01*
X162289904Y-25423809D01*
X162289904Y-25661904D01*
X162242285Y-25757142D01*
X162194666Y-25804761D01*
X162099428Y-25852380D01*
X161813714Y-25852380D01*
X161718476Y-25804761D01*
X161670857Y-25757142D01*
%TO.C,H102*%
X50355714Y-154767380D02*
X50355714Y-153767380D01*
X50355714Y-154243571D02*
X50927142Y-154243571D01*
X50927142Y-154767380D02*
X50927142Y-153767380D01*
X51927142Y-154767380D02*
X51355714Y-154767380D01*
X51641428Y-154767380D02*
X51641428Y-153767380D01*
X51546190Y-153910238D01*
X51450952Y-154005476D01*
X51355714Y-154053095D01*
X52546190Y-153767380D02*
X52641428Y-153767380D01*
X52736666Y-153815000D01*
X52784285Y-153862619D01*
X52831904Y-153957857D01*
X52879523Y-154148333D01*
X52879523Y-154386428D01*
X52831904Y-154576904D01*
X52784285Y-154672142D01*
X52736666Y-154719761D01*
X52641428Y-154767380D01*
X52546190Y-154767380D01*
X52450952Y-154719761D01*
X52403333Y-154672142D01*
X52355714Y-154576904D01*
X52308095Y-154386428D01*
X52308095Y-154148333D01*
X52355714Y-153957857D01*
X52403333Y-153862619D01*
X52450952Y-153815000D01*
X52546190Y-153767380D01*
X53260476Y-153862619D02*
X53308095Y-153815000D01*
X53403333Y-153767380D01*
X53641428Y-153767380D01*
X53736666Y-153815000D01*
X53784285Y-153862619D01*
X53831904Y-153957857D01*
X53831904Y-154053095D01*
X53784285Y-154195952D01*
X53212857Y-154767380D01*
X53831904Y-154767380D01*
%TO.C,H101*%
X77025714Y-25852380D02*
X77025714Y-24852380D01*
X77025714Y-25328571D02*
X77597142Y-25328571D01*
X77597142Y-25852380D02*
X77597142Y-24852380D01*
X78597142Y-25852380D02*
X78025714Y-25852380D01*
X78311428Y-25852380D02*
X78311428Y-24852380D01*
X78216190Y-24995238D01*
X78120952Y-25090476D01*
X78025714Y-25138095D01*
X79216190Y-24852380D02*
X79311428Y-24852380D01*
X79406666Y-24900000D01*
X79454285Y-24947619D01*
X79501904Y-25042857D01*
X79549523Y-25233333D01*
X79549523Y-25471428D01*
X79501904Y-25661904D01*
X79454285Y-25757142D01*
X79406666Y-25804761D01*
X79311428Y-25852380D01*
X79216190Y-25852380D01*
X79120952Y-25804761D01*
X79073333Y-25757142D01*
X79025714Y-25661904D01*
X78978095Y-25471428D01*
X78978095Y-25233333D01*
X79025714Y-25042857D01*
X79073333Y-24947619D01*
X79120952Y-24900000D01*
X79216190Y-24852380D01*
X80501904Y-25852380D02*
X79930476Y-25852380D01*
X80216190Y-25852380D02*
X80216190Y-24852380D01*
X80120952Y-24995238D01*
X80025714Y-25090476D01*
X79930476Y-25138095D01*
%TO.C,RV701*%
X110379380Y-75700380D02*
X110046047Y-75224190D01*
X109807952Y-75700380D02*
X109807952Y-74700380D01*
X110188904Y-74700380D01*
X110284142Y-74748000D01*
X110331761Y-74795619D01*
X110379380Y-74890857D01*
X110379380Y-75033714D01*
X110331761Y-75128952D01*
X110284142Y-75176571D01*
X110188904Y-75224190D01*
X109807952Y-75224190D01*
X110665095Y-74700380D02*
X110998428Y-75700380D01*
X111331761Y-74700380D01*
X111569857Y-74700380D02*
X112236523Y-74700380D01*
X111807952Y-75700380D01*
X112807952Y-74700380D02*
X112903190Y-74700380D01*
X112998428Y-74748000D01*
X113046047Y-74795619D01*
X113093666Y-74890857D01*
X113141285Y-75081333D01*
X113141285Y-75319428D01*
X113093666Y-75509904D01*
X113046047Y-75605142D01*
X112998428Y-75652761D01*
X112903190Y-75700380D01*
X112807952Y-75700380D01*
X112712714Y-75652761D01*
X112665095Y-75605142D01*
X112617476Y-75509904D01*
X112569857Y-75319428D01*
X112569857Y-75081333D01*
X112617476Y-74890857D01*
X112665095Y-74795619D01*
X112712714Y-74748000D01*
X112807952Y-74700380D01*
X114093666Y-75700380D02*
X113522238Y-75700380D01*
X113807952Y-75700380D02*
X113807952Y-74700380D01*
X113712714Y-74843238D01*
X113617476Y-74938476D01*
X113522238Y-74986095D01*
%TO.C,RV601*%
X110379380Y-92210380D02*
X110046047Y-91734190D01*
X109807952Y-92210380D02*
X109807952Y-91210380D01*
X110188904Y-91210380D01*
X110284142Y-91258000D01*
X110331761Y-91305619D01*
X110379380Y-91400857D01*
X110379380Y-91543714D01*
X110331761Y-91638952D01*
X110284142Y-91686571D01*
X110188904Y-91734190D01*
X109807952Y-91734190D01*
X110665095Y-91210380D02*
X110998428Y-92210380D01*
X111331761Y-91210380D01*
X112093666Y-91210380D02*
X111903190Y-91210380D01*
X111807952Y-91258000D01*
X111760333Y-91305619D01*
X111665095Y-91448476D01*
X111617476Y-91638952D01*
X111617476Y-92019904D01*
X111665095Y-92115142D01*
X111712714Y-92162761D01*
X111807952Y-92210380D01*
X111998428Y-92210380D01*
X112093666Y-92162761D01*
X112141285Y-92115142D01*
X112188904Y-92019904D01*
X112188904Y-91781809D01*
X112141285Y-91686571D01*
X112093666Y-91638952D01*
X111998428Y-91591333D01*
X111807952Y-91591333D01*
X111712714Y-91638952D01*
X111665095Y-91686571D01*
X111617476Y-91781809D01*
X112807952Y-91210380D02*
X112903190Y-91210380D01*
X112998428Y-91258000D01*
X113046047Y-91305619D01*
X113093666Y-91400857D01*
X113141285Y-91591333D01*
X113141285Y-91829428D01*
X113093666Y-92019904D01*
X113046047Y-92115142D01*
X112998428Y-92162761D01*
X112903190Y-92210380D01*
X112807952Y-92210380D01*
X112712714Y-92162761D01*
X112665095Y-92115142D01*
X112617476Y-92019904D01*
X112569857Y-91829428D01*
X112569857Y-91591333D01*
X112617476Y-91400857D01*
X112665095Y-91305619D01*
X112712714Y-91258000D01*
X112807952Y-91210380D01*
X114093666Y-92210380D02*
X113522238Y-92210380D01*
X113807952Y-92210380D02*
X113807952Y-91210380D01*
X113712714Y-91353238D01*
X113617476Y-91448476D01*
X113522238Y-91496095D01*
%TO.C,RV501*%
X110379380Y-108720380D02*
X110046047Y-108244190D01*
X109807952Y-108720380D02*
X109807952Y-107720380D01*
X110188904Y-107720380D01*
X110284142Y-107768000D01*
X110331761Y-107815619D01*
X110379380Y-107910857D01*
X110379380Y-108053714D01*
X110331761Y-108148952D01*
X110284142Y-108196571D01*
X110188904Y-108244190D01*
X109807952Y-108244190D01*
X110665095Y-107720380D02*
X110998428Y-108720380D01*
X111331761Y-107720380D01*
X112141285Y-107720380D02*
X111665095Y-107720380D01*
X111617476Y-108196571D01*
X111665095Y-108148952D01*
X111760333Y-108101333D01*
X111998428Y-108101333D01*
X112093666Y-108148952D01*
X112141285Y-108196571D01*
X112188904Y-108291809D01*
X112188904Y-108529904D01*
X112141285Y-108625142D01*
X112093666Y-108672761D01*
X111998428Y-108720380D01*
X111760333Y-108720380D01*
X111665095Y-108672761D01*
X111617476Y-108625142D01*
X112807952Y-107720380D02*
X112903190Y-107720380D01*
X112998428Y-107768000D01*
X113046047Y-107815619D01*
X113093666Y-107910857D01*
X113141285Y-108101333D01*
X113141285Y-108339428D01*
X113093666Y-108529904D01*
X113046047Y-108625142D01*
X112998428Y-108672761D01*
X112903190Y-108720380D01*
X112807952Y-108720380D01*
X112712714Y-108672761D01*
X112665095Y-108625142D01*
X112617476Y-108529904D01*
X112569857Y-108339428D01*
X112569857Y-108101333D01*
X112617476Y-107910857D01*
X112665095Y-107815619D01*
X112712714Y-107768000D01*
X112807952Y-107720380D01*
X114093666Y-108720380D02*
X113522238Y-108720380D01*
X113807952Y-108720380D02*
X113807952Y-107720380D01*
X113712714Y-107863238D01*
X113617476Y-107958476D01*
X113522238Y-108006095D01*
%TO.C,RV401*%
X110379380Y-125230380D02*
X110046047Y-124754190D01*
X109807952Y-125230380D02*
X109807952Y-124230380D01*
X110188904Y-124230380D01*
X110284142Y-124278000D01*
X110331761Y-124325619D01*
X110379380Y-124420857D01*
X110379380Y-124563714D01*
X110331761Y-124658952D01*
X110284142Y-124706571D01*
X110188904Y-124754190D01*
X109807952Y-124754190D01*
X110665095Y-124230380D02*
X110998428Y-125230380D01*
X111331761Y-124230380D01*
X112093666Y-124563714D02*
X112093666Y-125230380D01*
X111855571Y-124182761D02*
X111617476Y-124897047D01*
X112236523Y-124897047D01*
X112807952Y-124230380D02*
X112903190Y-124230380D01*
X112998428Y-124278000D01*
X113046047Y-124325619D01*
X113093666Y-124420857D01*
X113141285Y-124611333D01*
X113141285Y-124849428D01*
X113093666Y-125039904D01*
X113046047Y-125135142D01*
X112998428Y-125182761D01*
X112903190Y-125230380D01*
X112807952Y-125230380D01*
X112712714Y-125182761D01*
X112665095Y-125135142D01*
X112617476Y-125039904D01*
X112569857Y-124849428D01*
X112569857Y-124611333D01*
X112617476Y-124420857D01*
X112665095Y-124325619D01*
X112712714Y-124278000D01*
X112807952Y-124230380D01*
X114093666Y-125230380D02*
X113522238Y-125230380D01*
X113807952Y-125230380D02*
X113807952Y-124230380D01*
X113712714Y-124373238D01*
X113617476Y-124468476D01*
X113522238Y-124516095D01*
%TO.C,RV301*%
X110379380Y-141105380D02*
X110046047Y-140629190D01*
X109807952Y-141105380D02*
X109807952Y-140105380D01*
X110188904Y-140105380D01*
X110284142Y-140153000D01*
X110331761Y-140200619D01*
X110379380Y-140295857D01*
X110379380Y-140438714D01*
X110331761Y-140533952D01*
X110284142Y-140581571D01*
X110188904Y-140629190D01*
X109807952Y-140629190D01*
X110665095Y-140105380D02*
X110998428Y-141105380D01*
X111331761Y-140105380D01*
X111569857Y-140105380D02*
X112188904Y-140105380D01*
X111855571Y-140486333D01*
X111998428Y-140486333D01*
X112093666Y-140533952D01*
X112141285Y-140581571D01*
X112188904Y-140676809D01*
X112188904Y-140914904D01*
X112141285Y-141010142D01*
X112093666Y-141057761D01*
X111998428Y-141105380D01*
X111712714Y-141105380D01*
X111617476Y-141057761D01*
X111569857Y-141010142D01*
X112807952Y-140105380D02*
X112903190Y-140105380D01*
X112998428Y-140153000D01*
X113046047Y-140200619D01*
X113093666Y-140295857D01*
X113141285Y-140486333D01*
X113141285Y-140724428D01*
X113093666Y-140914904D01*
X113046047Y-141010142D01*
X112998428Y-141057761D01*
X112903190Y-141105380D01*
X112807952Y-141105380D01*
X112712714Y-141057761D01*
X112665095Y-141010142D01*
X112617476Y-140914904D01*
X112569857Y-140724428D01*
X112569857Y-140486333D01*
X112617476Y-140295857D01*
X112665095Y-140200619D01*
X112712714Y-140153000D01*
X112807952Y-140105380D01*
X114093666Y-141105380D02*
X113522238Y-141105380D01*
X113807952Y-141105380D02*
X113807952Y-140105380D01*
X113712714Y-140248238D01*
X113617476Y-140343476D01*
X113522238Y-140391095D01*
%TO.C,D102*%
X70722380Y-28868476D02*
X69722380Y-28868476D01*
X69722380Y-28630380D01*
X69770000Y-28487523D01*
X69865238Y-28392285D01*
X69960476Y-28344666D01*
X70150952Y-28297047D01*
X70293809Y-28297047D01*
X70484285Y-28344666D01*
X70579523Y-28392285D01*
X70674761Y-28487523D01*
X70722380Y-28630380D01*
X70722380Y-28868476D01*
X70722380Y-27344666D02*
X70722380Y-27916095D01*
X70722380Y-27630380D02*
X69722380Y-27630380D01*
X69865238Y-27725619D01*
X69960476Y-27820857D01*
X70008095Y-27916095D01*
X69722380Y-26725619D02*
X69722380Y-26630380D01*
X69770000Y-26535142D01*
X69817619Y-26487523D01*
X69912857Y-26439904D01*
X70103333Y-26392285D01*
X70341428Y-26392285D01*
X70531904Y-26439904D01*
X70627142Y-26487523D01*
X70674761Y-26535142D01*
X70722380Y-26630380D01*
X70722380Y-26725619D01*
X70674761Y-26820857D01*
X70627142Y-26868476D01*
X70531904Y-26916095D01*
X70341428Y-26963714D01*
X70103333Y-26963714D01*
X69912857Y-26916095D01*
X69817619Y-26868476D01*
X69770000Y-26820857D01*
X69722380Y-26725619D01*
X69817619Y-26011333D02*
X69770000Y-25963714D01*
X69722380Y-25868476D01*
X69722380Y-25630380D01*
X69770000Y-25535142D01*
X69817619Y-25487523D01*
X69912857Y-25439904D01*
X70008095Y-25439904D01*
X70150952Y-25487523D01*
X70722380Y-26058952D01*
X70722380Y-25439904D01*
%TO.C,RV201*%
X110379380Y-59190380D02*
X110046047Y-58714190D01*
X109807952Y-59190380D02*
X109807952Y-58190380D01*
X110188904Y-58190380D01*
X110284142Y-58238000D01*
X110331761Y-58285619D01*
X110379380Y-58380857D01*
X110379380Y-58523714D01*
X110331761Y-58618952D01*
X110284142Y-58666571D01*
X110188904Y-58714190D01*
X109807952Y-58714190D01*
X110665095Y-58190380D02*
X110998428Y-59190380D01*
X111331761Y-58190380D01*
X111617476Y-58285619D02*
X111665095Y-58238000D01*
X111760333Y-58190380D01*
X111998428Y-58190380D01*
X112093666Y-58238000D01*
X112141285Y-58285619D01*
X112188904Y-58380857D01*
X112188904Y-58476095D01*
X112141285Y-58618952D01*
X111569857Y-59190380D01*
X112188904Y-59190380D01*
X112807952Y-58190380D02*
X112903190Y-58190380D01*
X112998428Y-58238000D01*
X113046047Y-58285619D01*
X113093666Y-58380857D01*
X113141285Y-58571333D01*
X113141285Y-58809428D01*
X113093666Y-58999904D01*
X113046047Y-59095142D01*
X112998428Y-59142761D01*
X112903190Y-59190380D01*
X112807952Y-59190380D01*
X112712714Y-59142761D01*
X112665095Y-59095142D01*
X112617476Y-58999904D01*
X112569857Y-58809428D01*
X112569857Y-58571333D01*
X112617476Y-58380857D01*
X112665095Y-58285619D01*
X112712714Y-58238000D01*
X112807952Y-58190380D01*
X114093666Y-59190380D02*
X113522238Y-59190380D01*
X113807952Y-59190380D02*
X113807952Y-58190380D01*
X113712714Y-58333238D01*
X113617476Y-58428476D01*
X113522238Y-58476095D01*
%TD*%
M02*
