%TF.GenerationSoftware,KiCad,Pcbnew,5.1.7-a382d34a8~87~ubuntu20.04.1*%
%TF.CreationDate,2020-11-02T17:40:13+01:00*%
%TF.ProjectId,7CellBatterySimulator_7CBS,3743656c-6c42-4617-9474-65727953696d,V1.0*%
%TF.SameCoordinates,Original*%
%TF.FileFunction,Soldermask,Bot*%
%TF.FilePolarity,Negative*%
%FSLAX46Y46*%
G04 Gerber Fmt 4.6, Leading zero omitted, Abs format (unit mm)*
G04 Created by KiCad (PCBNEW 5.1.7-a382d34a8~87~ubuntu20.04.1) date 2020-11-02 17:40:13*
%MOMM*%
%LPD*%
G01*
G04 APERTURE LIST*
%ADD10C,2.600000*%
%ADD11R,2.600000X2.600000*%
%ADD12C,1.430000*%
%ADD13R,1.430000X1.430000*%
%ADD14R,2.000000X1.500000*%
%ADD15R,2.000000X3.800000*%
%ADD16C,2.700000*%
%ADD17C,1.750000*%
%ADD18R,1.750000X1.750000*%
%ADD19C,3.200000*%
%ADD20C,1.800000*%
%ADD21R,1.800000X1.800000*%
G04 APERTURE END LIST*
D10*
%TO.C,J101*%
X50038000Y-32051000D03*
D11*
X50038000Y-27051000D03*
%TD*%
%TO.C,D101*%
G36*
G01*
X61894000Y-34456000D02*
X61894000Y-29806000D01*
G75*
G02*
X62144000Y-29556000I250000J0D01*
G01*
X64294000Y-29556000D01*
G75*
G02*
X64544000Y-29806000I0J-250000D01*
G01*
X64544000Y-34456000D01*
G75*
G02*
X64294000Y-34706000I-250000J0D01*
G01*
X62144000Y-34706000D01*
G75*
G02*
X61894000Y-34456000I0J250000D01*
G01*
G37*
G36*
G01*
X55344000Y-34456000D02*
X55344000Y-29806000D01*
G75*
G02*
X55594000Y-29556000I250000J0D01*
G01*
X57744000Y-29556000D01*
G75*
G02*
X57994000Y-29806000I0J-250000D01*
G01*
X57994000Y-34456000D01*
G75*
G02*
X57744000Y-34706000I-250000J0D01*
G01*
X55594000Y-34706000D01*
G75*
G02*
X55344000Y-34456000I0J250000D01*
G01*
G37*
%TD*%
D12*
%TO.C,PS601*%
X52197000Y-93218000D03*
X52197000Y-95758000D03*
X52197000Y-98298000D03*
D13*
X52197000Y-100838000D03*
%TD*%
D14*
%TO.C,U801*%
X68478000Y-50052000D03*
X68478000Y-45452000D03*
X68478000Y-47752000D03*
D15*
X74778000Y-47752000D03*
%TD*%
D14*
%TO.C,U701*%
X68478000Y-82564000D03*
X68478000Y-77964000D03*
X68478000Y-80264000D03*
D15*
X74778000Y-80264000D03*
%TD*%
D14*
%TO.C,U601*%
X68478000Y-99328000D03*
X68478000Y-94728000D03*
X68478000Y-97028000D03*
D15*
X74778000Y-97028000D03*
%TD*%
D14*
%TO.C,U501*%
X68478000Y-115584000D03*
X68478000Y-110984000D03*
X68478000Y-113284000D03*
D15*
X74778000Y-113284000D03*
%TD*%
D14*
%TO.C,U401*%
X68478000Y-132348000D03*
X68478000Y-127748000D03*
X68478000Y-130048000D03*
D15*
X74778000Y-130048000D03*
%TD*%
D14*
%TO.C,U301*%
X68478000Y-148604000D03*
X68478000Y-144004000D03*
X68478000Y-146304000D03*
D15*
X74778000Y-146304000D03*
%TD*%
D14*
%TO.C,U201*%
X68478000Y-66308000D03*
X68478000Y-61708000D03*
X68478000Y-64008000D03*
D15*
X74778000Y-64008000D03*
%TD*%
%TO.C,R801*%
G36*
G01*
X48827001Y-43804000D02*
X46676999Y-43804000D01*
G75*
G02*
X46427000Y-43554001I0J249999D01*
G01*
X46427000Y-42753999D01*
G75*
G02*
X46676999Y-42504000I249999J0D01*
G01*
X48827001Y-42504000D01*
G75*
G02*
X49077000Y-42753999I0J-249999D01*
G01*
X49077000Y-43554001D01*
G75*
G02*
X48827001Y-43804000I-249999J0D01*
G01*
G37*
G36*
G01*
X48827001Y-46904000D02*
X46676999Y-46904000D01*
G75*
G02*
X46427000Y-46654001I0J249999D01*
G01*
X46427000Y-45853999D01*
G75*
G02*
X46676999Y-45604000I249999J0D01*
G01*
X48827001Y-45604000D01*
G75*
G02*
X49077000Y-45853999I0J-249999D01*
G01*
X49077000Y-46654001D01*
G75*
G02*
X48827001Y-46904000I-249999J0D01*
G01*
G37*
%TD*%
%TO.C,R701*%
G36*
G01*
X48827001Y-76824000D02*
X46676999Y-76824000D01*
G75*
G02*
X46427000Y-76574001I0J249999D01*
G01*
X46427000Y-75773999D01*
G75*
G02*
X46676999Y-75524000I249999J0D01*
G01*
X48827001Y-75524000D01*
G75*
G02*
X49077000Y-75773999I0J-249999D01*
G01*
X49077000Y-76574001D01*
G75*
G02*
X48827001Y-76824000I-249999J0D01*
G01*
G37*
G36*
G01*
X48827001Y-79924000D02*
X46676999Y-79924000D01*
G75*
G02*
X46427000Y-79674001I0J249999D01*
G01*
X46427000Y-78873999D01*
G75*
G02*
X46676999Y-78624000I249999J0D01*
G01*
X48827001Y-78624000D01*
G75*
G02*
X49077000Y-78873999I0J-249999D01*
G01*
X49077000Y-79674001D01*
G75*
G02*
X48827001Y-79924000I-249999J0D01*
G01*
G37*
%TD*%
%TO.C,R601*%
G36*
G01*
X48827001Y-93588000D02*
X46676999Y-93588000D01*
G75*
G02*
X46427000Y-93338001I0J249999D01*
G01*
X46427000Y-92537999D01*
G75*
G02*
X46676999Y-92288000I249999J0D01*
G01*
X48827001Y-92288000D01*
G75*
G02*
X49077000Y-92537999I0J-249999D01*
G01*
X49077000Y-93338001D01*
G75*
G02*
X48827001Y-93588000I-249999J0D01*
G01*
G37*
G36*
G01*
X48827001Y-96688000D02*
X46676999Y-96688000D01*
G75*
G02*
X46427000Y-96438001I0J249999D01*
G01*
X46427000Y-95637999D01*
G75*
G02*
X46676999Y-95388000I249999J0D01*
G01*
X48827001Y-95388000D01*
G75*
G02*
X49077000Y-95637999I0J-249999D01*
G01*
X49077000Y-96438001D01*
G75*
G02*
X48827001Y-96688000I-249999J0D01*
G01*
G37*
%TD*%
%TO.C,R501*%
G36*
G01*
X48827001Y-109844000D02*
X46676999Y-109844000D01*
G75*
G02*
X46427000Y-109594001I0J249999D01*
G01*
X46427000Y-108793999D01*
G75*
G02*
X46676999Y-108544000I249999J0D01*
G01*
X48827001Y-108544000D01*
G75*
G02*
X49077000Y-108793999I0J-249999D01*
G01*
X49077000Y-109594001D01*
G75*
G02*
X48827001Y-109844000I-249999J0D01*
G01*
G37*
G36*
G01*
X48827001Y-112944000D02*
X46676999Y-112944000D01*
G75*
G02*
X46427000Y-112694001I0J249999D01*
G01*
X46427000Y-111893999D01*
G75*
G02*
X46676999Y-111644000I249999J0D01*
G01*
X48827001Y-111644000D01*
G75*
G02*
X49077000Y-111893999I0J-249999D01*
G01*
X49077000Y-112694001D01*
G75*
G02*
X48827001Y-112944000I-249999J0D01*
G01*
G37*
%TD*%
%TO.C,R401*%
G36*
G01*
X48827001Y-126608000D02*
X46676999Y-126608000D01*
G75*
G02*
X46427000Y-126358001I0J249999D01*
G01*
X46427000Y-125557999D01*
G75*
G02*
X46676999Y-125308000I249999J0D01*
G01*
X48827001Y-125308000D01*
G75*
G02*
X49077000Y-125557999I0J-249999D01*
G01*
X49077000Y-126358001D01*
G75*
G02*
X48827001Y-126608000I-249999J0D01*
G01*
G37*
G36*
G01*
X48827001Y-129708000D02*
X46676999Y-129708000D01*
G75*
G02*
X46427000Y-129458001I0J249999D01*
G01*
X46427000Y-128657999D01*
G75*
G02*
X46676999Y-128408000I249999J0D01*
G01*
X48827001Y-128408000D01*
G75*
G02*
X49077000Y-128657999I0J-249999D01*
G01*
X49077000Y-129458001D01*
G75*
G02*
X48827001Y-129708000I-249999J0D01*
G01*
G37*
%TD*%
%TO.C,R301*%
G36*
G01*
X48827001Y-142864000D02*
X46676999Y-142864000D01*
G75*
G02*
X46427000Y-142614001I0J249999D01*
G01*
X46427000Y-141813999D01*
G75*
G02*
X46676999Y-141564000I249999J0D01*
G01*
X48827001Y-141564000D01*
G75*
G02*
X49077000Y-141813999I0J-249999D01*
G01*
X49077000Y-142614001D01*
G75*
G02*
X48827001Y-142864000I-249999J0D01*
G01*
G37*
G36*
G01*
X48827001Y-145964000D02*
X46676999Y-145964000D01*
G75*
G02*
X46427000Y-145714001I0J249999D01*
G01*
X46427000Y-144913999D01*
G75*
G02*
X46676999Y-144664000I249999J0D01*
G01*
X48827001Y-144664000D01*
G75*
G02*
X49077000Y-144913999I0J-249999D01*
G01*
X49077000Y-145714001D01*
G75*
G02*
X48827001Y-145964000I-249999J0D01*
G01*
G37*
%TD*%
%TO.C,R201*%
G36*
G01*
X48827001Y-60568000D02*
X46676999Y-60568000D01*
G75*
G02*
X46427000Y-60318001I0J249999D01*
G01*
X46427000Y-59517999D01*
G75*
G02*
X46676999Y-59268000I249999J0D01*
G01*
X48827001Y-59268000D01*
G75*
G02*
X49077000Y-59517999I0J-249999D01*
G01*
X49077000Y-60318001D01*
G75*
G02*
X48827001Y-60568000I-249999J0D01*
G01*
G37*
G36*
G01*
X48827001Y-63668000D02*
X46676999Y-63668000D01*
G75*
G02*
X46427000Y-63418001I0J249999D01*
G01*
X46427000Y-62617999D01*
G75*
G02*
X46676999Y-62368000I249999J0D01*
G01*
X48827001Y-62368000D01*
G75*
G02*
X49077000Y-62617999I0J-249999D01*
G01*
X49077000Y-63418001D01*
G75*
G02*
X48827001Y-63668000I-249999J0D01*
G01*
G37*
%TD*%
D10*
%TO.C,J102*%
X161290000Y-57710000D03*
X161290000Y-62710000D03*
X161290000Y-67710000D03*
X161290000Y-72710000D03*
X161290000Y-77710000D03*
X161290000Y-82710000D03*
X161290000Y-87710000D03*
D11*
X161290000Y-92710000D03*
%TD*%
D16*
%TO.C,RV801*%
X137068000Y-52178000D03*
X86868000Y-52178000D03*
X135868000Y-43778000D03*
X88068000Y-43778000D03*
D17*
X141218000Y-46228000D03*
X82718000Y-49728000D03*
D18*
X82718000Y-46228000D03*
%TD*%
%TO.C,R803*%
G36*
G01*
X75300000Y-38548999D02*
X75300000Y-40699001D01*
G75*
G02*
X75050001Y-40949000I-249999J0D01*
G01*
X74249999Y-40949000D01*
G75*
G02*
X74000000Y-40699001I0J249999D01*
G01*
X74000000Y-38548999D01*
G75*
G02*
X74249999Y-38299000I249999J0D01*
G01*
X75050001Y-38299000D01*
G75*
G02*
X75300000Y-38548999I0J-249999D01*
G01*
G37*
G36*
G01*
X78400000Y-38548999D02*
X78400000Y-40699001D01*
G75*
G02*
X78150001Y-40949000I-249999J0D01*
G01*
X77349999Y-40949000D01*
G75*
G02*
X77100000Y-40699001I0J249999D01*
G01*
X77100000Y-38548999D01*
G75*
G02*
X77349999Y-38299000I249999J0D01*
G01*
X78150001Y-38299000D01*
G75*
G02*
X78400000Y-38548999I0J-249999D01*
G01*
G37*
%TD*%
%TO.C,R802*%
G36*
G01*
X61584000Y-41342999D02*
X61584000Y-43493001D01*
G75*
G02*
X61334001Y-43743000I-249999J0D01*
G01*
X60533999Y-43743000D01*
G75*
G02*
X60284000Y-43493001I0J249999D01*
G01*
X60284000Y-41342999D01*
G75*
G02*
X60533999Y-41093000I249999J0D01*
G01*
X61334001Y-41093000D01*
G75*
G02*
X61584000Y-41342999I0J-249999D01*
G01*
G37*
G36*
G01*
X64684000Y-41342999D02*
X64684000Y-43493001D01*
G75*
G02*
X64434001Y-43743000I-249999J0D01*
G01*
X63633999Y-43743000D01*
G75*
G02*
X63384000Y-43493001I0J249999D01*
G01*
X63384000Y-41342999D01*
G75*
G02*
X63633999Y-41093000I249999J0D01*
G01*
X64434001Y-41093000D01*
G75*
G02*
X64684000Y-41342999I0J-249999D01*
G01*
G37*
%TD*%
D12*
%TO.C,PS801*%
X52324000Y-43688000D03*
X52324000Y-46228000D03*
X52324000Y-48768000D03*
D13*
X52324000Y-51308000D03*
%TD*%
%TO.C,C804*%
G36*
G01*
X145526997Y-45604000D02*
X146827003Y-45604000D01*
G75*
G02*
X147077000Y-45853997I0J-249997D01*
G01*
X147077000Y-46679003D01*
G75*
G02*
X146827003Y-46929000I-249997J0D01*
G01*
X145526997Y-46929000D01*
G75*
G02*
X145277000Y-46679003I0J249997D01*
G01*
X145277000Y-45853997D01*
G75*
G02*
X145526997Y-45604000I249997J0D01*
G01*
G37*
G36*
G01*
X145526997Y-42479000D02*
X146827003Y-42479000D01*
G75*
G02*
X147077000Y-42728997I0J-249997D01*
G01*
X147077000Y-43554003D01*
G75*
G02*
X146827003Y-43804000I-249997J0D01*
G01*
X145526997Y-43804000D01*
G75*
G02*
X145277000Y-43554003I0J249997D01*
G01*
X145277000Y-42728997D01*
G75*
G02*
X145526997Y-42479000I249997J0D01*
G01*
G37*
%TD*%
%TO.C,C803*%
G36*
G01*
X61457000Y-51927997D02*
X61457000Y-53228003D01*
G75*
G02*
X61207003Y-53478000I-249997J0D01*
G01*
X60381997Y-53478000D01*
G75*
G02*
X60132000Y-53228003I0J249997D01*
G01*
X60132000Y-51927997D01*
G75*
G02*
X60381997Y-51678000I249997J0D01*
G01*
X61207003Y-51678000D01*
G75*
G02*
X61457000Y-51927997I0J-249997D01*
G01*
G37*
G36*
G01*
X64582000Y-51927997D02*
X64582000Y-53228003D01*
G75*
G02*
X64332003Y-53478000I-249997J0D01*
G01*
X63506997Y-53478000D01*
G75*
G02*
X63257000Y-53228003I0J249997D01*
G01*
X63257000Y-51927997D01*
G75*
G02*
X63506997Y-51678000I249997J0D01*
G01*
X64332003Y-51678000D01*
G75*
G02*
X64582000Y-51927997I0J-249997D01*
G01*
G37*
%TD*%
%TO.C,C802*%
G36*
G01*
X61584000Y-46593997D02*
X61584000Y-47894003D01*
G75*
G02*
X61334003Y-48144000I-249997J0D01*
G01*
X60508997Y-48144000D01*
G75*
G02*
X60259000Y-47894003I0J249997D01*
G01*
X60259000Y-46593997D01*
G75*
G02*
X60508997Y-46344000I249997J0D01*
G01*
X61334003Y-46344000D01*
G75*
G02*
X61584000Y-46593997I0J-249997D01*
G01*
G37*
G36*
G01*
X64709000Y-46593997D02*
X64709000Y-47894003D01*
G75*
G02*
X64459003Y-48144000I-249997J0D01*
G01*
X63633997Y-48144000D01*
G75*
G02*
X63384000Y-47894003I0J249997D01*
G01*
X63384000Y-46593997D01*
G75*
G02*
X63633997Y-46344000I249997J0D01*
G01*
X64459003Y-46344000D01*
G75*
G02*
X64709000Y-46593997I0J-249997D01*
G01*
G37*
%TD*%
%TO.C,C801*%
G36*
G01*
X47636000Y-51831003D02*
X47636000Y-50530997D01*
G75*
G02*
X47885997Y-50281000I249997J0D01*
G01*
X48711003Y-50281000D01*
G75*
G02*
X48961000Y-50530997I0J-249997D01*
G01*
X48961000Y-51831003D01*
G75*
G02*
X48711003Y-52081000I-249997J0D01*
G01*
X47885997Y-52081000D01*
G75*
G02*
X47636000Y-51831003I0J249997D01*
G01*
G37*
G36*
G01*
X44511000Y-51831003D02*
X44511000Y-50530997D01*
G75*
G02*
X44760997Y-50281000I249997J0D01*
G01*
X45586003Y-50281000D01*
G75*
G02*
X45836000Y-50530997I0J-249997D01*
G01*
X45836000Y-51831003D01*
G75*
G02*
X45586003Y-52081000I-249997J0D01*
G01*
X44760997Y-52081000D01*
G75*
G02*
X44511000Y-51831003I0J249997D01*
G01*
G37*
%TD*%
D19*
%TO.C,H104*%
X160655000Y-158115000D03*
%TD*%
%TO.C,H103*%
X160655000Y-29210000D03*
%TD*%
%TO.C,H102*%
X52070000Y-158115000D03*
%TD*%
%TO.C,H101*%
X78740000Y-29210000D03*
%TD*%
%TO.C,C501*%
G36*
G01*
X47470500Y-118252003D02*
X47470500Y-116951997D01*
G75*
G02*
X47720497Y-116702000I249997J0D01*
G01*
X48545503Y-116702000D01*
G75*
G02*
X48795500Y-116951997I0J-249997D01*
G01*
X48795500Y-118252003D01*
G75*
G02*
X48545503Y-118502000I-249997J0D01*
G01*
X47720497Y-118502000D01*
G75*
G02*
X47470500Y-118252003I0J249997D01*
G01*
G37*
G36*
G01*
X44345500Y-118252003D02*
X44345500Y-116951997D01*
G75*
G02*
X44595497Y-116702000I249997J0D01*
G01*
X45420503Y-116702000D01*
G75*
G02*
X45670500Y-116951997I0J-249997D01*
G01*
X45670500Y-118252003D01*
G75*
G02*
X45420503Y-118502000I-249997J0D01*
G01*
X44595497Y-118502000D01*
G75*
G02*
X44345500Y-118252003I0J249997D01*
G01*
G37*
%TD*%
%TO.C,R503*%
G36*
G01*
X75173000Y-104842999D02*
X75173000Y-106993001D01*
G75*
G02*
X74923001Y-107243000I-249999J0D01*
G01*
X74122999Y-107243000D01*
G75*
G02*
X73873000Y-106993001I0J249999D01*
G01*
X73873000Y-104842999D01*
G75*
G02*
X74122999Y-104593000I249999J0D01*
G01*
X74923001Y-104593000D01*
G75*
G02*
X75173000Y-104842999I0J-249999D01*
G01*
G37*
G36*
G01*
X78273000Y-104842999D02*
X78273000Y-106993001D01*
G75*
G02*
X78023001Y-107243000I-249999J0D01*
G01*
X77222999Y-107243000D01*
G75*
G02*
X76973000Y-106993001I0J249999D01*
G01*
X76973000Y-104842999D01*
G75*
G02*
X77222999Y-104593000I249999J0D01*
G01*
X78023001Y-104593000D01*
G75*
G02*
X78273000Y-104842999I0J-249999D01*
G01*
G37*
%TD*%
%TO.C,C303*%
G36*
G01*
X61457000Y-150479997D02*
X61457000Y-151780003D01*
G75*
G02*
X61207003Y-152030000I-249997J0D01*
G01*
X60381997Y-152030000D01*
G75*
G02*
X60132000Y-151780003I0J249997D01*
G01*
X60132000Y-150479997D01*
G75*
G02*
X60381997Y-150230000I249997J0D01*
G01*
X61207003Y-150230000D01*
G75*
G02*
X61457000Y-150479997I0J-249997D01*
G01*
G37*
G36*
G01*
X64582000Y-150479997D02*
X64582000Y-151780003D01*
G75*
G02*
X64332003Y-152030000I-249997J0D01*
G01*
X63506997Y-152030000D01*
G75*
G02*
X63257000Y-151780003I0J249997D01*
G01*
X63257000Y-150479997D01*
G75*
G02*
X63506997Y-150230000I249997J0D01*
G01*
X64332003Y-150230000D01*
G75*
G02*
X64582000Y-150479997I0J-249997D01*
G01*
G37*
%TD*%
D16*
%TO.C,RV701*%
X137027000Y-85198000D03*
X86827000Y-85198000D03*
X135827000Y-76798000D03*
X88027000Y-76798000D03*
D17*
X141177000Y-79248000D03*
X82677000Y-82748000D03*
D18*
X82677000Y-79248000D03*
%TD*%
D16*
%TO.C,RV601*%
X137027000Y-101708000D03*
X86827000Y-101708000D03*
X135827000Y-93308000D03*
X88027000Y-93308000D03*
D17*
X141177000Y-95758000D03*
X82677000Y-99258000D03*
D18*
X82677000Y-95758000D03*
%TD*%
D16*
%TO.C,RV501*%
X137027000Y-118218000D03*
X86827000Y-118218000D03*
X135827000Y-109818000D03*
X88027000Y-109818000D03*
D17*
X141177000Y-112268000D03*
X82677000Y-115768000D03*
D18*
X82677000Y-112268000D03*
%TD*%
D16*
%TO.C,RV401*%
X137027000Y-134728000D03*
X86827000Y-134728000D03*
X135827000Y-126328000D03*
X88027000Y-126328000D03*
D17*
X141177000Y-128778000D03*
X82677000Y-132278000D03*
D18*
X82677000Y-128778000D03*
%TD*%
D16*
%TO.C,RV301*%
X137027000Y-150603000D03*
X86827000Y-150603000D03*
X135827000Y-142203000D03*
X88027000Y-142203000D03*
D17*
X141177000Y-144653000D03*
X82677000Y-148153000D03*
D18*
X82677000Y-144653000D03*
%TD*%
%TO.C,R703*%
G36*
G01*
X75173000Y-71822999D02*
X75173000Y-73973001D01*
G75*
G02*
X74923001Y-74223000I-249999J0D01*
G01*
X74122999Y-74223000D01*
G75*
G02*
X73873000Y-73973001I0J249999D01*
G01*
X73873000Y-71822999D01*
G75*
G02*
X74122999Y-71573000I249999J0D01*
G01*
X74923001Y-71573000D01*
G75*
G02*
X75173000Y-71822999I0J-249999D01*
G01*
G37*
G36*
G01*
X78273000Y-71822999D02*
X78273000Y-73973001D01*
G75*
G02*
X78023001Y-74223000I-249999J0D01*
G01*
X77222999Y-74223000D01*
G75*
G02*
X76973000Y-73973001I0J249999D01*
G01*
X76973000Y-71822999D01*
G75*
G02*
X77222999Y-71573000I249999J0D01*
G01*
X78023001Y-71573000D01*
G75*
G02*
X78273000Y-71822999I0J-249999D01*
G01*
G37*
%TD*%
%TO.C,R702*%
G36*
G01*
X61457000Y-74362999D02*
X61457000Y-76513001D01*
G75*
G02*
X61207001Y-76763000I-249999J0D01*
G01*
X60406999Y-76763000D01*
G75*
G02*
X60157000Y-76513001I0J249999D01*
G01*
X60157000Y-74362999D01*
G75*
G02*
X60406999Y-74113000I249999J0D01*
G01*
X61207001Y-74113000D01*
G75*
G02*
X61457000Y-74362999I0J-249999D01*
G01*
G37*
G36*
G01*
X64557000Y-74362999D02*
X64557000Y-76513001D01*
G75*
G02*
X64307001Y-76763000I-249999J0D01*
G01*
X63506999Y-76763000D01*
G75*
G02*
X63257000Y-76513001I0J249999D01*
G01*
X63257000Y-74362999D01*
G75*
G02*
X63506999Y-74113000I249999J0D01*
G01*
X64307001Y-74113000D01*
G75*
G02*
X64557000Y-74362999I0J-249999D01*
G01*
G37*
%TD*%
%TO.C,R603*%
G36*
G01*
X75173000Y-88586999D02*
X75173000Y-90737001D01*
G75*
G02*
X74923001Y-90987000I-249999J0D01*
G01*
X74122999Y-90987000D01*
G75*
G02*
X73873000Y-90737001I0J249999D01*
G01*
X73873000Y-88586999D01*
G75*
G02*
X74122999Y-88337000I249999J0D01*
G01*
X74923001Y-88337000D01*
G75*
G02*
X75173000Y-88586999I0J-249999D01*
G01*
G37*
G36*
G01*
X78273000Y-88586999D02*
X78273000Y-90737001D01*
G75*
G02*
X78023001Y-90987000I-249999J0D01*
G01*
X77222999Y-90987000D01*
G75*
G02*
X76973000Y-90737001I0J249999D01*
G01*
X76973000Y-88586999D01*
G75*
G02*
X77222999Y-88337000I249999J0D01*
G01*
X78023001Y-88337000D01*
G75*
G02*
X78273000Y-88586999I0J-249999D01*
G01*
G37*
%TD*%
%TO.C,R602*%
G36*
G01*
X61457000Y-90872999D02*
X61457000Y-93023001D01*
G75*
G02*
X61207001Y-93273000I-249999J0D01*
G01*
X60406999Y-93273000D01*
G75*
G02*
X60157000Y-93023001I0J249999D01*
G01*
X60157000Y-90872999D01*
G75*
G02*
X60406999Y-90623000I249999J0D01*
G01*
X61207001Y-90623000D01*
G75*
G02*
X61457000Y-90872999I0J-249999D01*
G01*
G37*
G36*
G01*
X64557000Y-90872999D02*
X64557000Y-93023001D01*
G75*
G02*
X64307001Y-93273000I-249999J0D01*
G01*
X63506999Y-93273000D01*
G75*
G02*
X63257000Y-93023001I0J249999D01*
G01*
X63257000Y-90872999D01*
G75*
G02*
X63506999Y-90623000I249999J0D01*
G01*
X64307001Y-90623000D01*
G75*
G02*
X64557000Y-90872999I0J-249999D01*
G01*
G37*
%TD*%
%TO.C,R502*%
G36*
G01*
X61457000Y-107382999D02*
X61457000Y-109533001D01*
G75*
G02*
X61207001Y-109783000I-249999J0D01*
G01*
X60406999Y-109783000D01*
G75*
G02*
X60157000Y-109533001I0J249999D01*
G01*
X60157000Y-107382999D01*
G75*
G02*
X60406999Y-107133000I249999J0D01*
G01*
X61207001Y-107133000D01*
G75*
G02*
X61457000Y-107382999I0J-249999D01*
G01*
G37*
G36*
G01*
X64557000Y-107382999D02*
X64557000Y-109533001D01*
G75*
G02*
X64307001Y-109783000I-249999J0D01*
G01*
X63506999Y-109783000D01*
G75*
G02*
X63257000Y-109533001I0J249999D01*
G01*
X63257000Y-107382999D01*
G75*
G02*
X63506999Y-107133000I249999J0D01*
G01*
X64307001Y-107133000D01*
G75*
G02*
X64557000Y-107382999I0J-249999D01*
G01*
G37*
%TD*%
%TO.C,R403*%
G36*
G01*
X75173000Y-121606999D02*
X75173000Y-123757001D01*
G75*
G02*
X74923001Y-124007000I-249999J0D01*
G01*
X74122999Y-124007000D01*
G75*
G02*
X73873000Y-123757001I0J249999D01*
G01*
X73873000Y-121606999D01*
G75*
G02*
X74122999Y-121357000I249999J0D01*
G01*
X74923001Y-121357000D01*
G75*
G02*
X75173000Y-121606999I0J-249999D01*
G01*
G37*
G36*
G01*
X78273000Y-121606999D02*
X78273000Y-123757001D01*
G75*
G02*
X78023001Y-124007000I-249999J0D01*
G01*
X77222999Y-124007000D01*
G75*
G02*
X76973000Y-123757001I0J249999D01*
G01*
X76973000Y-121606999D01*
G75*
G02*
X77222999Y-121357000I249999J0D01*
G01*
X78023001Y-121357000D01*
G75*
G02*
X78273000Y-121606999I0J-249999D01*
G01*
G37*
%TD*%
%TO.C,R402*%
G36*
G01*
X61457000Y-123892999D02*
X61457000Y-126043001D01*
G75*
G02*
X61207001Y-126293000I-249999J0D01*
G01*
X60406999Y-126293000D01*
G75*
G02*
X60157000Y-126043001I0J249999D01*
G01*
X60157000Y-123892999D01*
G75*
G02*
X60406999Y-123643000I249999J0D01*
G01*
X61207001Y-123643000D01*
G75*
G02*
X61457000Y-123892999I0J-249999D01*
G01*
G37*
G36*
G01*
X64557000Y-123892999D02*
X64557000Y-126043001D01*
G75*
G02*
X64307001Y-126293000I-249999J0D01*
G01*
X63506999Y-126293000D01*
G75*
G02*
X63257000Y-126043001I0J249999D01*
G01*
X63257000Y-123892999D01*
G75*
G02*
X63506999Y-123643000I249999J0D01*
G01*
X64307001Y-123643000D01*
G75*
G02*
X64557000Y-123892999I0J-249999D01*
G01*
G37*
%TD*%
%TO.C,R303*%
G36*
G01*
X75173000Y-137862999D02*
X75173000Y-140013001D01*
G75*
G02*
X74923001Y-140263000I-249999J0D01*
G01*
X74122999Y-140263000D01*
G75*
G02*
X73873000Y-140013001I0J249999D01*
G01*
X73873000Y-137862999D01*
G75*
G02*
X74122999Y-137613000I249999J0D01*
G01*
X74923001Y-137613000D01*
G75*
G02*
X75173000Y-137862999I0J-249999D01*
G01*
G37*
G36*
G01*
X78273000Y-137862999D02*
X78273000Y-140013001D01*
G75*
G02*
X78023001Y-140263000I-249999J0D01*
G01*
X77222999Y-140263000D01*
G75*
G02*
X76973000Y-140013001I0J249999D01*
G01*
X76973000Y-137862999D01*
G75*
G02*
X77222999Y-137613000I249999J0D01*
G01*
X78023001Y-137613000D01*
G75*
G02*
X78273000Y-137862999I0J-249999D01*
G01*
G37*
%TD*%
%TO.C,R302*%
G36*
G01*
X61457000Y-140402999D02*
X61457000Y-142553001D01*
G75*
G02*
X61207001Y-142803000I-249999J0D01*
G01*
X60406999Y-142803000D01*
G75*
G02*
X60157000Y-142553001I0J249999D01*
G01*
X60157000Y-140402999D01*
G75*
G02*
X60406999Y-140153000I249999J0D01*
G01*
X61207001Y-140153000D01*
G75*
G02*
X61457000Y-140402999I0J-249999D01*
G01*
G37*
G36*
G01*
X64557000Y-140402999D02*
X64557000Y-142553001D01*
G75*
G02*
X64307001Y-142803000I-249999J0D01*
G01*
X63506999Y-142803000D01*
G75*
G02*
X63257000Y-142553001I0J249999D01*
G01*
X63257000Y-140402999D01*
G75*
G02*
X63506999Y-140153000I249999J0D01*
G01*
X64307001Y-140153000D01*
G75*
G02*
X64557000Y-140402999I0J-249999D01*
G01*
G37*
%TD*%
%TO.C,R101*%
G36*
G01*
X65289000Y-37709001D02*
X65289000Y-36458999D01*
G75*
G02*
X65538999Y-36209000I249999J0D01*
G01*
X66339001Y-36209000D01*
G75*
G02*
X66589000Y-36458999I0J-249999D01*
G01*
X66589000Y-37709001D01*
G75*
G02*
X66339001Y-37959000I-249999J0D01*
G01*
X65538999Y-37959000D01*
G75*
G02*
X65289000Y-37709001I0J249999D01*
G01*
G37*
G36*
G01*
X62189000Y-37709001D02*
X62189000Y-36458999D01*
G75*
G02*
X62438999Y-36209000I249999J0D01*
G01*
X63239001Y-36209000D01*
G75*
G02*
X63489000Y-36458999I0J-249999D01*
G01*
X63489000Y-37709001D01*
G75*
G02*
X63239001Y-37959000I-249999J0D01*
G01*
X62438999Y-37959000D01*
G75*
G02*
X62189000Y-37709001I0J249999D01*
G01*
G37*
%TD*%
D12*
%TO.C,PS701*%
X52451000Y-76708000D03*
X52451000Y-79248000D03*
X52451000Y-81788000D03*
D13*
X52451000Y-84328000D03*
%TD*%
D12*
%TO.C,PS501*%
X52197000Y-109728000D03*
X52197000Y-112268000D03*
X52197000Y-114808000D03*
D13*
X52197000Y-117348000D03*
%TD*%
D12*
%TO.C,PS401*%
X52197000Y-126238000D03*
X52197000Y-128778000D03*
X52197000Y-131318000D03*
D13*
X52197000Y-133858000D03*
%TD*%
D12*
%TO.C,PS301*%
X52197000Y-142748000D03*
X52197000Y-145288000D03*
X52197000Y-147828000D03*
D13*
X52197000Y-150368000D03*
%TD*%
%TO.C,F101*%
G36*
G01*
X59169000Y-26426000D02*
X59169000Y-27676000D01*
G75*
G02*
X58919000Y-27926000I-250000J0D01*
G01*
X57994000Y-27926000D01*
G75*
G02*
X57744000Y-27676000I0J250000D01*
G01*
X57744000Y-26426000D01*
G75*
G02*
X57994000Y-26176000I250000J0D01*
G01*
X58919000Y-26176000D01*
G75*
G02*
X59169000Y-26426000I0J-250000D01*
G01*
G37*
G36*
G01*
X62144000Y-26426000D02*
X62144000Y-27676000D01*
G75*
G02*
X61894000Y-27926000I-250000J0D01*
G01*
X60969000Y-27926000D01*
G75*
G02*
X60719000Y-27676000I0J250000D01*
G01*
X60719000Y-26426000D01*
G75*
G02*
X60969000Y-26176000I250000J0D01*
G01*
X61894000Y-26176000D01*
G75*
G02*
X62144000Y-26426000I0J-250000D01*
G01*
G37*
%TD*%
D20*
%TO.C,D102*%
X67310000Y-28448000D03*
D21*
X67310000Y-25908000D03*
%TD*%
%TO.C,C704*%
G36*
G01*
X145526997Y-78408500D02*
X146827003Y-78408500D01*
G75*
G02*
X147077000Y-78658497I0J-249997D01*
G01*
X147077000Y-79483503D01*
G75*
G02*
X146827003Y-79733500I-249997J0D01*
G01*
X145526997Y-79733500D01*
G75*
G02*
X145277000Y-79483503I0J249997D01*
G01*
X145277000Y-78658497D01*
G75*
G02*
X145526997Y-78408500I249997J0D01*
G01*
G37*
G36*
G01*
X145526997Y-75283500D02*
X146827003Y-75283500D01*
G75*
G02*
X147077000Y-75533497I0J-249997D01*
G01*
X147077000Y-76358503D01*
G75*
G02*
X146827003Y-76608500I-249997J0D01*
G01*
X145526997Y-76608500D01*
G75*
G02*
X145277000Y-76358503I0J249997D01*
G01*
X145277000Y-75533497D01*
G75*
G02*
X145526997Y-75283500I249997J0D01*
G01*
G37*
%TD*%
%TO.C,C703*%
G36*
G01*
X61457000Y-84947997D02*
X61457000Y-86248003D01*
G75*
G02*
X61207003Y-86498000I-249997J0D01*
G01*
X60381997Y-86498000D01*
G75*
G02*
X60132000Y-86248003I0J249997D01*
G01*
X60132000Y-84947997D01*
G75*
G02*
X60381997Y-84698000I249997J0D01*
G01*
X61207003Y-84698000D01*
G75*
G02*
X61457000Y-84947997I0J-249997D01*
G01*
G37*
G36*
G01*
X64582000Y-84947997D02*
X64582000Y-86248003D01*
G75*
G02*
X64332003Y-86498000I-249997J0D01*
G01*
X63506997Y-86498000D01*
G75*
G02*
X63257000Y-86248003I0J249997D01*
G01*
X63257000Y-84947997D01*
G75*
G02*
X63506997Y-84698000I249997J0D01*
G01*
X64332003Y-84698000D01*
G75*
G02*
X64582000Y-84947997I0J-249997D01*
G01*
G37*
%TD*%
%TO.C,C702*%
G36*
G01*
X61457000Y-79867997D02*
X61457000Y-81168003D01*
G75*
G02*
X61207003Y-81418000I-249997J0D01*
G01*
X60381997Y-81418000D01*
G75*
G02*
X60132000Y-81168003I0J249997D01*
G01*
X60132000Y-79867997D01*
G75*
G02*
X60381997Y-79618000I249997J0D01*
G01*
X61207003Y-79618000D01*
G75*
G02*
X61457000Y-79867997I0J-249997D01*
G01*
G37*
G36*
G01*
X64582000Y-79867997D02*
X64582000Y-81168003D01*
G75*
G02*
X64332003Y-81418000I-249997J0D01*
G01*
X63506997Y-81418000D01*
G75*
G02*
X63257000Y-81168003I0J249997D01*
G01*
X63257000Y-79867997D01*
G75*
G02*
X63506997Y-79618000I249997J0D01*
G01*
X64332003Y-79618000D01*
G75*
G02*
X64582000Y-79867997I0J-249997D01*
G01*
G37*
%TD*%
%TO.C,C701*%
G36*
G01*
X47470500Y-85232003D02*
X47470500Y-83931997D01*
G75*
G02*
X47720497Y-83682000I249997J0D01*
G01*
X48545503Y-83682000D01*
G75*
G02*
X48795500Y-83931997I0J-249997D01*
G01*
X48795500Y-85232003D01*
G75*
G02*
X48545503Y-85482000I-249997J0D01*
G01*
X47720497Y-85482000D01*
G75*
G02*
X47470500Y-85232003I0J249997D01*
G01*
G37*
G36*
G01*
X44345500Y-85232003D02*
X44345500Y-83931997D01*
G75*
G02*
X44595497Y-83682000I249997J0D01*
G01*
X45420503Y-83682000D01*
G75*
G02*
X45670500Y-83931997I0J-249997D01*
G01*
X45670500Y-85232003D01*
G75*
G02*
X45420503Y-85482000I-249997J0D01*
G01*
X44595497Y-85482000D01*
G75*
G02*
X44345500Y-85232003I0J249997D01*
G01*
G37*
%TD*%
%TO.C,C604*%
G36*
G01*
X145526997Y-95172500D02*
X146827003Y-95172500D01*
G75*
G02*
X147077000Y-95422497I0J-249997D01*
G01*
X147077000Y-96247503D01*
G75*
G02*
X146827003Y-96497500I-249997J0D01*
G01*
X145526997Y-96497500D01*
G75*
G02*
X145277000Y-96247503I0J249997D01*
G01*
X145277000Y-95422497D01*
G75*
G02*
X145526997Y-95172500I249997J0D01*
G01*
G37*
G36*
G01*
X145526997Y-92047500D02*
X146827003Y-92047500D01*
G75*
G02*
X147077000Y-92297497I0J-249997D01*
G01*
X147077000Y-93122503D01*
G75*
G02*
X146827003Y-93372500I-249997J0D01*
G01*
X145526997Y-93372500D01*
G75*
G02*
X145277000Y-93122503I0J249997D01*
G01*
X145277000Y-92297497D01*
G75*
G02*
X145526997Y-92047500I249997J0D01*
G01*
G37*
%TD*%
%TO.C,C603*%
G36*
G01*
X61457000Y-101457997D02*
X61457000Y-102758003D01*
G75*
G02*
X61207003Y-103008000I-249997J0D01*
G01*
X60381997Y-103008000D01*
G75*
G02*
X60132000Y-102758003I0J249997D01*
G01*
X60132000Y-101457997D01*
G75*
G02*
X60381997Y-101208000I249997J0D01*
G01*
X61207003Y-101208000D01*
G75*
G02*
X61457000Y-101457997I0J-249997D01*
G01*
G37*
G36*
G01*
X64582000Y-101457997D02*
X64582000Y-102758003D01*
G75*
G02*
X64332003Y-103008000I-249997J0D01*
G01*
X63506997Y-103008000D01*
G75*
G02*
X63257000Y-102758003I0J249997D01*
G01*
X63257000Y-101457997D01*
G75*
G02*
X63506997Y-101208000I249997J0D01*
G01*
X64332003Y-101208000D01*
G75*
G02*
X64582000Y-101457997I0J-249997D01*
G01*
G37*
%TD*%
%TO.C,C602*%
G36*
G01*
X61457000Y-96377997D02*
X61457000Y-97678003D01*
G75*
G02*
X61207003Y-97928000I-249997J0D01*
G01*
X60381997Y-97928000D01*
G75*
G02*
X60132000Y-97678003I0J249997D01*
G01*
X60132000Y-96377997D01*
G75*
G02*
X60381997Y-96128000I249997J0D01*
G01*
X61207003Y-96128000D01*
G75*
G02*
X61457000Y-96377997I0J-249997D01*
G01*
G37*
G36*
G01*
X64582000Y-96377997D02*
X64582000Y-97678003D01*
G75*
G02*
X64332003Y-97928000I-249997J0D01*
G01*
X63506997Y-97928000D01*
G75*
G02*
X63257000Y-97678003I0J249997D01*
G01*
X63257000Y-96377997D01*
G75*
G02*
X63506997Y-96128000I249997J0D01*
G01*
X64332003Y-96128000D01*
G75*
G02*
X64582000Y-96377997I0J-249997D01*
G01*
G37*
%TD*%
%TO.C,C601*%
G36*
G01*
X47509000Y-101488003D02*
X47509000Y-100187997D01*
G75*
G02*
X47758997Y-99938000I249997J0D01*
G01*
X48584003Y-99938000D01*
G75*
G02*
X48834000Y-100187997I0J-249997D01*
G01*
X48834000Y-101488003D01*
G75*
G02*
X48584003Y-101738000I-249997J0D01*
G01*
X47758997Y-101738000D01*
G75*
G02*
X47509000Y-101488003I0J249997D01*
G01*
G37*
G36*
G01*
X44384000Y-101488003D02*
X44384000Y-100187997D01*
G75*
G02*
X44633997Y-99938000I249997J0D01*
G01*
X45459003Y-99938000D01*
G75*
G02*
X45709000Y-100187997I0J-249997D01*
G01*
X45709000Y-101488003D01*
G75*
G02*
X45459003Y-101738000I-249997J0D01*
G01*
X44633997Y-101738000D01*
G75*
G02*
X44384000Y-101488003I0J249997D01*
G01*
G37*
%TD*%
%TO.C,C504*%
G36*
G01*
X145526997Y-111428500D02*
X146827003Y-111428500D01*
G75*
G02*
X147077000Y-111678497I0J-249997D01*
G01*
X147077000Y-112503503D01*
G75*
G02*
X146827003Y-112753500I-249997J0D01*
G01*
X145526997Y-112753500D01*
G75*
G02*
X145277000Y-112503503I0J249997D01*
G01*
X145277000Y-111678497D01*
G75*
G02*
X145526997Y-111428500I249997J0D01*
G01*
G37*
G36*
G01*
X145526997Y-108303500D02*
X146827003Y-108303500D01*
G75*
G02*
X147077000Y-108553497I0J-249997D01*
G01*
X147077000Y-109378503D01*
G75*
G02*
X146827003Y-109628500I-249997J0D01*
G01*
X145526997Y-109628500D01*
G75*
G02*
X145277000Y-109378503I0J249997D01*
G01*
X145277000Y-108553497D01*
G75*
G02*
X145526997Y-108303500I249997J0D01*
G01*
G37*
%TD*%
%TO.C,C503*%
G36*
G01*
X61457000Y-117967997D02*
X61457000Y-119268003D01*
G75*
G02*
X61207003Y-119518000I-249997J0D01*
G01*
X60381997Y-119518000D01*
G75*
G02*
X60132000Y-119268003I0J249997D01*
G01*
X60132000Y-117967997D01*
G75*
G02*
X60381997Y-117718000I249997J0D01*
G01*
X61207003Y-117718000D01*
G75*
G02*
X61457000Y-117967997I0J-249997D01*
G01*
G37*
G36*
G01*
X64582000Y-117967997D02*
X64582000Y-119268003D01*
G75*
G02*
X64332003Y-119518000I-249997J0D01*
G01*
X63506997Y-119518000D01*
G75*
G02*
X63257000Y-119268003I0J249997D01*
G01*
X63257000Y-117967997D01*
G75*
G02*
X63506997Y-117718000I249997J0D01*
G01*
X64332003Y-117718000D01*
G75*
G02*
X64582000Y-117967997I0J-249997D01*
G01*
G37*
%TD*%
%TO.C,C502*%
G36*
G01*
X61457000Y-112887997D02*
X61457000Y-114188003D01*
G75*
G02*
X61207003Y-114438000I-249997J0D01*
G01*
X60381997Y-114438000D01*
G75*
G02*
X60132000Y-114188003I0J249997D01*
G01*
X60132000Y-112887997D01*
G75*
G02*
X60381997Y-112638000I249997J0D01*
G01*
X61207003Y-112638000D01*
G75*
G02*
X61457000Y-112887997I0J-249997D01*
G01*
G37*
G36*
G01*
X64582000Y-112887997D02*
X64582000Y-114188003D01*
G75*
G02*
X64332003Y-114438000I-249997J0D01*
G01*
X63506997Y-114438000D01*
G75*
G02*
X63257000Y-114188003I0J249997D01*
G01*
X63257000Y-112887997D01*
G75*
G02*
X63506997Y-112638000I249997J0D01*
G01*
X64332003Y-112638000D01*
G75*
G02*
X64582000Y-112887997I0J-249997D01*
G01*
G37*
%TD*%
%TO.C,C404*%
G36*
G01*
X145526997Y-128115500D02*
X146827003Y-128115500D01*
G75*
G02*
X147077000Y-128365497I0J-249997D01*
G01*
X147077000Y-129190503D01*
G75*
G02*
X146827003Y-129440500I-249997J0D01*
G01*
X145526997Y-129440500D01*
G75*
G02*
X145277000Y-129190503I0J249997D01*
G01*
X145277000Y-128365497D01*
G75*
G02*
X145526997Y-128115500I249997J0D01*
G01*
G37*
G36*
G01*
X145526997Y-124990500D02*
X146827003Y-124990500D01*
G75*
G02*
X147077000Y-125240497I0J-249997D01*
G01*
X147077000Y-126065503D01*
G75*
G02*
X146827003Y-126315500I-249997J0D01*
G01*
X145526997Y-126315500D01*
G75*
G02*
X145277000Y-126065503I0J249997D01*
G01*
X145277000Y-125240497D01*
G75*
G02*
X145526997Y-124990500I249997J0D01*
G01*
G37*
%TD*%
%TO.C,C403*%
G36*
G01*
X61457000Y-134223997D02*
X61457000Y-135524003D01*
G75*
G02*
X61207003Y-135774000I-249997J0D01*
G01*
X60381997Y-135774000D01*
G75*
G02*
X60132000Y-135524003I0J249997D01*
G01*
X60132000Y-134223997D01*
G75*
G02*
X60381997Y-133974000I249997J0D01*
G01*
X61207003Y-133974000D01*
G75*
G02*
X61457000Y-134223997I0J-249997D01*
G01*
G37*
G36*
G01*
X64582000Y-134223997D02*
X64582000Y-135524003D01*
G75*
G02*
X64332003Y-135774000I-249997J0D01*
G01*
X63506997Y-135774000D01*
G75*
G02*
X63257000Y-135524003I0J249997D01*
G01*
X63257000Y-134223997D01*
G75*
G02*
X63506997Y-133974000I249997J0D01*
G01*
X64332003Y-133974000D01*
G75*
G02*
X64582000Y-134223997I0J-249997D01*
G01*
G37*
%TD*%
%TO.C,C402*%
G36*
G01*
X61457000Y-129397997D02*
X61457000Y-130698003D01*
G75*
G02*
X61207003Y-130948000I-249997J0D01*
G01*
X60381997Y-130948000D01*
G75*
G02*
X60132000Y-130698003I0J249997D01*
G01*
X60132000Y-129397997D01*
G75*
G02*
X60381997Y-129148000I249997J0D01*
G01*
X61207003Y-129148000D01*
G75*
G02*
X61457000Y-129397997I0J-249997D01*
G01*
G37*
G36*
G01*
X64582000Y-129397997D02*
X64582000Y-130698003D01*
G75*
G02*
X64332003Y-130948000I-249997J0D01*
G01*
X63506997Y-130948000D01*
G75*
G02*
X63257000Y-130698003I0J249997D01*
G01*
X63257000Y-129397997D01*
G75*
G02*
X63506997Y-129148000I249997J0D01*
G01*
X64332003Y-129148000D01*
G75*
G02*
X64582000Y-129397997I0J-249997D01*
G01*
G37*
%TD*%
%TO.C,C401*%
G36*
G01*
X47509000Y-134508003D02*
X47509000Y-133207997D01*
G75*
G02*
X47758997Y-132958000I249997J0D01*
G01*
X48584003Y-132958000D01*
G75*
G02*
X48834000Y-133207997I0J-249997D01*
G01*
X48834000Y-134508003D01*
G75*
G02*
X48584003Y-134758000I-249997J0D01*
G01*
X47758997Y-134758000D01*
G75*
G02*
X47509000Y-134508003I0J249997D01*
G01*
G37*
G36*
G01*
X44384000Y-134508003D02*
X44384000Y-133207997D01*
G75*
G02*
X44633997Y-132958000I249997J0D01*
G01*
X45459003Y-132958000D01*
G75*
G02*
X45709000Y-133207997I0J-249997D01*
G01*
X45709000Y-134508003D01*
G75*
G02*
X45459003Y-134758000I-249997J0D01*
G01*
X44633997Y-134758000D01*
G75*
G02*
X44384000Y-134508003I0J249997D01*
G01*
G37*
%TD*%
%TO.C,C304*%
G36*
G01*
X145526997Y-143863500D02*
X146827003Y-143863500D01*
G75*
G02*
X147077000Y-144113497I0J-249997D01*
G01*
X147077000Y-144938503D01*
G75*
G02*
X146827003Y-145188500I-249997J0D01*
G01*
X145526997Y-145188500D01*
G75*
G02*
X145277000Y-144938503I0J249997D01*
G01*
X145277000Y-144113497D01*
G75*
G02*
X145526997Y-143863500I249997J0D01*
G01*
G37*
G36*
G01*
X145526997Y-140738500D02*
X146827003Y-140738500D01*
G75*
G02*
X147077000Y-140988497I0J-249997D01*
G01*
X147077000Y-141813503D01*
G75*
G02*
X146827003Y-142063500I-249997J0D01*
G01*
X145526997Y-142063500D01*
G75*
G02*
X145277000Y-141813503I0J249997D01*
G01*
X145277000Y-140988497D01*
G75*
G02*
X145526997Y-140738500I249997J0D01*
G01*
G37*
%TD*%
%TO.C,C302*%
G36*
G01*
X61457000Y-145907997D02*
X61457000Y-147208003D01*
G75*
G02*
X61207003Y-147458000I-249997J0D01*
G01*
X60381997Y-147458000D01*
G75*
G02*
X60132000Y-147208003I0J249997D01*
G01*
X60132000Y-145907997D01*
G75*
G02*
X60381997Y-145658000I249997J0D01*
G01*
X61207003Y-145658000D01*
G75*
G02*
X61457000Y-145907997I0J-249997D01*
G01*
G37*
G36*
G01*
X64582000Y-145907997D02*
X64582000Y-147208003D01*
G75*
G02*
X64332003Y-147458000I-249997J0D01*
G01*
X63506997Y-147458000D01*
G75*
G02*
X63257000Y-147208003I0J249997D01*
G01*
X63257000Y-145907997D01*
G75*
G02*
X63506997Y-145658000I249997J0D01*
G01*
X64332003Y-145658000D01*
G75*
G02*
X64582000Y-145907997I0J-249997D01*
G01*
G37*
%TD*%
%TO.C,C301*%
G36*
G01*
X47509000Y-151272003D02*
X47509000Y-149971997D01*
G75*
G02*
X47758997Y-149722000I249997J0D01*
G01*
X48584003Y-149722000D01*
G75*
G02*
X48834000Y-149971997I0J-249997D01*
G01*
X48834000Y-151272003D01*
G75*
G02*
X48584003Y-151522000I-249997J0D01*
G01*
X47758997Y-151522000D01*
G75*
G02*
X47509000Y-151272003I0J249997D01*
G01*
G37*
G36*
G01*
X44384000Y-151272003D02*
X44384000Y-149971997D01*
G75*
G02*
X44633997Y-149722000I249997J0D01*
G01*
X45459003Y-149722000D01*
G75*
G02*
X45709000Y-149971997I0J-249997D01*
G01*
X45709000Y-151272003D01*
G75*
G02*
X45459003Y-151522000I-249997J0D01*
G01*
X44633997Y-151522000D01*
G75*
G02*
X44384000Y-151272003I0J249997D01*
G01*
G37*
%TD*%
%TO.C,C101*%
G36*
G01*
X70754003Y-36184000D02*
X69453997Y-36184000D01*
G75*
G02*
X69204000Y-35934003I0J249997D01*
G01*
X69204000Y-35108997D01*
G75*
G02*
X69453997Y-34859000I249997J0D01*
G01*
X70754003Y-34859000D01*
G75*
G02*
X71004000Y-35108997I0J-249997D01*
G01*
X71004000Y-35934003D01*
G75*
G02*
X70754003Y-36184000I-249997J0D01*
G01*
G37*
G36*
G01*
X70754003Y-39309000D02*
X69453997Y-39309000D01*
G75*
G02*
X69204000Y-39059003I0J249997D01*
G01*
X69204000Y-38233997D01*
G75*
G02*
X69453997Y-37984000I249997J0D01*
G01*
X70754003Y-37984000D01*
G75*
G02*
X71004000Y-38233997I0J-249997D01*
G01*
X71004000Y-39059003D01*
G75*
G02*
X70754003Y-39309000I-249997J0D01*
G01*
G37*
%TD*%
%TO.C,C202*%
G36*
G01*
X61457000Y-63357997D02*
X61457000Y-64658003D01*
G75*
G02*
X61207003Y-64908000I-249997J0D01*
G01*
X60381997Y-64908000D01*
G75*
G02*
X60132000Y-64658003I0J249997D01*
G01*
X60132000Y-63357997D01*
G75*
G02*
X60381997Y-63108000I249997J0D01*
G01*
X61207003Y-63108000D01*
G75*
G02*
X61457000Y-63357997I0J-249997D01*
G01*
G37*
G36*
G01*
X64582000Y-63357997D02*
X64582000Y-64658003D01*
G75*
G02*
X64332003Y-64908000I-249997J0D01*
G01*
X63506997Y-64908000D01*
G75*
G02*
X63257000Y-64658003I0J249997D01*
G01*
X63257000Y-63357997D01*
G75*
G02*
X63506997Y-63108000I249997J0D01*
G01*
X64332003Y-63108000D01*
G75*
G02*
X64582000Y-63357997I0J-249997D01*
G01*
G37*
%TD*%
D16*
%TO.C,RV201*%
X137027000Y-68688000D03*
X86827000Y-68688000D03*
X135827000Y-60288000D03*
X88027000Y-60288000D03*
D17*
X141177000Y-62738000D03*
X82677000Y-66238000D03*
D18*
X82677000Y-62738000D03*
%TD*%
%TO.C,R203*%
G36*
G01*
X75173000Y-55566999D02*
X75173000Y-57717001D01*
G75*
G02*
X74923001Y-57967000I-249999J0D01*
G01*
X74122999Y-57967000D01*
G75*
G02*
X73873000Y-57717001I0J249999D01*
G01*
X73873000Y-55566999D01*
G75*
G02*
X74122999Y-55317000I249999J0D01*
G01*
X74923001Y-55317000D01*
G75*
G02*
X75173000Y-55566999I0J-249999D01*
G01*
G37*
G36*
G01*
X78273000Y-55566999D02*
X78273000Y-57717001D01*
G75*
G02*
X78023001Y-57967000I-249999J0D01*
G01*
X77222999Y-57967000D01*
G75*
G02*
X76973000Y-57717001I0J249999D01*
G01*
X76973000Y-55566999D01*
G75*
G02*
X77222999Y-55317000I249999J0D01*
G01*
X78023001Y-55317000D01*
G75*
G02*
X78273000Y-55566999I0J-249999D01*
G01*
G37*
%TD*%
%TO.C,R202*%
G36*
G01*
X61457000Y-57852999D02*
X61457000Y-60003001D01*
G75*
G02*
X61207001Y-60253000I-249999J0D01*
G01*
X60406999Y-60253000D01*
G75*
G02*
X60157000Y-60003001I0J249999D01*
G01*
X60157000Y-57852999D01*
G75*
G02*
X60406999Y-57603000I249999J0D01*
G01*
X61207001Y-57603000D01*
G75*
G02*
X61457000Y-57852999I0J-249999D01*
G01*
G37*
G36*
G01*
X64557000Y-57852999D02*
X64557000Y-60003001D01*
G75*
G02*
X64307001Y-60253000I-249999J0D01*
G01*
X63506999Y-60253000D01*
G75*
G02*
X63257000Y-60003001I0J249999D01*
G01*
X63257000Y-57852999D01*
G75*
G02*
X63506999Y-57603000I249999J0D01*
G01*
X64307001Y-57603000D01*
G75*
G02*
X64557000Y-57852999I0J-249999D01*
G01*
G37*
%TD*%
D12*
%TO.C,PS201*%
X52451000Y-60198000D03*
X52451000Y-62738000D03*
X52451000Y-65278000D03*
D13*
X52451000Y-67818000D03*
%TD*%
%TO.C,C204*%
G36*
G01*
X145526997Y-62152500D02*
X146827003Y-62152500D01*
G75*
G02*
X147077000Y-62402497I0J-249997D01*
G01*
X147077000Y-63227503D01*
G75*
G02*
X146827003Y-63477500I-249997J0D01*
G01*
X145526997Y-63477500D01*
G75*
G02*
X145277000Y-63227503I0J249997D01*
G01*
X145277000Y-62402497D01*
G75*
G02*
X145526997Y-62152500I249997J0D01*
G01*
G37*
G36*
G01*
X145526997Y-59027500D02*
X146827003Y-59027500D01*
G75*
G02*
X147077000Y-59277497I0J-249997D01*
G01*
X147077000Y-60102503D01*
G75*
G02*
X146827003Y-60352500I-249997J0D01*
G01*
X145526997Y-60352500D01*
G75*
G02*
X145277000Y-60102503I0J249997D01*
G01*
X145277000Y-59277497D01*
G75*
G02*
X145526997Y-59027500I249997J0D01*
G01*
G37*
%TD*%
%TO.C,C203*%
G36*
G01*
X61457000Y-68437997D02*
X61457000Y-69738003D01*
G75*
G02*
X61207003Y-69988000I-249997J0D01*
G01*
X60381997Y-69988000D01*
G75*
G02*
X60132000Y-69738003I0J249997D01*
G01*
X60132000Y-68437997D01*
G75*
G02*
X60381997Y-68188000I249997J0D01*
G01*
X61207003Y-68188000D01*
G75*
G02*
X61457000Y-68437997I0J-249997D01*
G01*
G37*
G36*
G01*
X64582000Y-68437997D02*
X64582000Y-69738003D01*
G75*
G02*
X64332003Y-69988000I-249997J0D01*
G01*
X63506997Y-69988000D01*
G75*
G02*
X63257000Y-69738003I0J249997D01*
G01*
X63257000Y-68437997D01*
G75*
G02*
X63506997Y-68188000I249997J0D01*
G01*
X64332003Y-68188000D01*
G75*
G02*
X64582000Y-68437997I0J-249997D01*
G01*
G37*
%TD*%
%TO.C,C201*%
G36*
G01*
X47470500Y-68976003D02*
X47470500Y-67675997D01*
G75*
G02*
X47720497Y-67426000I249997J0D01*
G01*
X48545503Y-67426000D01*
G75*
G02*
X48795500Y-67675997I0J-249997D01*
G01*
X48795500Y-68976003D01*
G75*
G02*
X48545503Y-69226000I-249997J0D01*
G01*
X47720497Y-69226000D01*
G75*
G02*
X47470500Y-68976003I0J249997D01*
G01*
G37*
G36*
G01*
X44345500Y-68976003D02*
X44345500Y-67675997D01*
G75*
G02*
X44595497Y-67426000I249997J0D01*
G01*
X45420503Y-67426000D01*
G75*
G02*
X45670500Y-67675997I0J-249997D01*
G01*
X45670500Y-68976003D01*
G75*
G02*
X45420503Y-69226000I-249997J0D01*
G01*
X44595497Y-69226000D01*
G75*
G02*
X44345500Y-68976003I0J249997D01*
G01*
G37*
%TD*%
M02*
