%TF.GenerationSoftware,KiCad,Pcbnew,5.1.7-a382d34a8~87~ubuntu20.04.1*%
%TF.CreationDate,2020-11-02T17:40:13+01:00*%
%TF.ProjectId,7CellBatterySimulator_7CBS,3743656c-6c42-4617-9474-65727953696d,V1.0*%
%TF.SameCoordinates,Original*%
%TF.FileFunction,Soldermask,Top*%
%TF.FilePolarity,Negative*%
%FSLAX46Y46*%
G04 Gerber Fmt 4.6, Leading zero omitted, Abs format (unit mm)*
G04 Created by KiCad (PCBNEW 5.1.7-a382d34a8~87~ubuntu20.04.1) date 2020-11-02 17:40:13*
%MOMM*%
%LPD*%
G01*
G04 APERTURE LIST*
%ADD10C,2.600000*%
%ADD11R,2.600000X2.600000*%
%ADD12C,1.430000*%
%ADD13R,1.430000X1.430000*%
%ADD14C,2.700000*%
%ADD15C,1.750000*%
%ADD16R,1.750000X1.750000*%
%ADD17C,3.200000*%
%ADD18C,1.800000*%
%ADD19R,1.800000X1.800000*%
G04 APERTURE END LIST*
D10*
%TO.C,J101*%
X50038000Y-32051000D03*
D11*
X50038000Y-27051000D03*
%TD*%
D12*
%TO.C,PS601*%
X52197000Y-93218000D03*
X52197000Y-95758000D03*
X52197000Y-98298000D03*
D13*
X52197000Y-100838000D03*
%TD*%
D10*
%TO.C,J102*%
X161290000Y-57710000D03*
X161290000Y-62710000D03*
X161290000Y-67710000D03*
X161290000Y-72710000D03*
X161290000Y-77710000D03*
X161290000Y-82710000D03*
X161290000Y-87710000D03*
D11*
X161290000Y-92710000D03*
%TD*%
D14*
%TO.C,RV801*%
X137068000Y-52178000D03*
X86868000Y-52178000D03*
X135868000Y-43778000D03*
X88068000Y-43778000D03*
D15*
X141218000Y-46228000D03*
X82718000Y-49728000D03*
D16*
X82718000Y-46228000D03*
%TD*%
D12*
%TO.C,PS801*%
X52324000Y-43688000D03*
X52324000Y-46228000D03*
X52324000Y-48768000D03*
D13*
X52324000Y-51308000D03*
%TD*%
D17*
%TO.C,H104*%
X160655000Y-158115000D03*
%TD*%
%TO.C,H103*%
X160655000Y-29210000D03*
%TD*%
%TO.C,H102*%
X52070000Y-158115000D03*
%TD*%
%TO.C,H101*%
X78740000Y-29210000D03*
%TD*%
D14*
%TO.C,RV701*%
X137027000Y-85198000D03*
X86827000Y-85198000D03*
X135827000Y-76798000D03*
X88027000Y-76798000D03*
D15*
X141177000Y-79248000D03*
X82677000Y-82748000D03*
D16*
X82677000Y-79248000D03*
%TD*%
D14*
%TO.C,RV601*%
X137027000Y-101708000D03*
X86827000Y-101708000D03*
X135827000Y-93308000D03*
X88027000Y-93308000D03*
D15*
X141177000Y-95758000D03*
X82677000Y-99258000D03*
D16*
X82677000Y-95758000D03*
%TD*%
D14*
%TO.C,RV501*%
X137027000Y-118218000D03*
X86827000Y-118218000D03*
X135827000Y-109818000D03*
X88027000Y-109818000D03*
D15*
X141177000Y-112268000D03*
X82677000Y-115768000D03*
D16*
X82677000Y-112268000D03*
%TD*%
D14*
%TO.C,RV401*%
X137027000Y-134728000D03*
X86827000Y-134728000D03*
X135827000Y-126328000D03*
X88027000Y-126328000D03*
D15*
X141177000Y-128778000D03*
X82677000Y-132278000D03*
D16*
X82677000Y-128778000D03*
%TD*%
D14*
%TO.C,RV301*%
X137027000Y-150603000D03*
X86827000Y-150603000D03*
X135827000Y-142203000D03*
X88027000Y-142203000D03*
D15*
X141177000Y-144653000D03*
X82677000Y-148153000D03*
D16*
X82677000Y-144653000D03*
%TD*%
D12*
%TO.C,PS701*%
X52451000Y-76708000D03*
X52451000Y-79248000D03*
X52451000Y-81788000D03*
D13*
X52451000Y-84328000D03*
%TD*%
D12*
%TO.C,PS501*%
X52197000Y-109728000D03*
X52197000Y-112268000D03*
X52197000Y-114808000D03*
D13*
X52197000Y-117348000D03*
%TD*%
D12*
%TO.C,PS401*%
X52197000Y-126238000D03*
X52197000Y-128778000D03*
X52197000Y-131318000D03*
D13*
X52197000Y-133858000D03*
%TD*%
D12*
%TO.C,PS301*%
X52197000Y-142748000D03*
X52197000Y-145288000D03*
X52197000Y-147828000D03*
D13*
X52197000Y-150368000D03*
%TD*%
D18*
%TO.C,D102*%
X67310000Y-28448000D03*
D19*
X67310000Y-25908000D03*
%TD*%
D14*
%TO.C,RV201*%
X137027000Y-68688000D03*
X86827000Y-68688000D03*
X135827000Y-60288000D03*
X88027000Y-60288000D03*
D15*
X141177000Y-62738000D03*
X82677000Y-66238000D03*
D16*
X82677000Y-62738000D03*
%TD*%
D12*
%TO.C,PS201*%
X52451000Y-60198000D03*
X52451000Y-62738000D03*
X52451000Y-65278000D03*
D13*
X52451000Y-67818000D03*
%TD*%
M02*
