M48
; DRILL file {KiCad 5.1.7-a382d34a8~87~ubuntu20.04.1} date Wed Nov  4 11:31:24 2020
; FORMAT={-:-/ absolute / inch / decimal}
; #@! TF.CreationDate,2020-11-04T11:31:24+01:00
; #@! TF.GenerationSoftware,Kicad,Pcbnew,5.1.7-a382d34a8~87~ubuntu20.04.1
FMAT,2
INCH
T1C0.0236
T2C0.0315
T3C0.0350
T4C0.0354
T5C0.0394
T6C0.0512
T7C0.0618
T8C0.1260
T9C0.1280
%
G90
G05
T1
X1.655Y-4.025
X1.72Y-4.51
X1.82Y-4.205
X1.85Y-1.505
X1.9Y-4.51
X2.035Y-3.82
X2.09Y-4.205
X2.105Y-4.025
X2.17Y-4.51
X2.27Y-4.205
X2.35Y-4.51
X2.375Y-3.48
X2.54Y-4.205
X2.555Y-4.025
X2.62Y-4.51
X2.695Y-3.5655
X2.695Y-3.845
X2.72Y-4.205
X2.725Y-3.01
X2.8Y-4.51
X2.87Y-2.775
X2.95Y-3.77
X2.9625Y-3.3775
X3.0Y-4.205
X3.005Y-4.025
X3.07Y-4.51
X3.17Y-4.205
X3.205Y-3.565
X3.25Y-4.51
X3.2575Y-3.3825
X3.265Y-2.775
X3.3569Y-3.3809
X3.3575Y-3.7575
X3.405Y-3.585
X3.42Y-3.01
X3.44Y-4.205
X3.455Y-4.025
X3.52Y-4.51
X3.62Y-4.205
X3.625Y-3.505
X3.64Y-3.645
X3.695Y-3.645
X3.7Y-4.51
X3.71Y-2.845
X3.89Y-4.205
X3.91Y-4.025
X3.97Y-4.51
X4.07Y-4.205
X4.15Y-4.51
X4.27Y-4.205
X4.275Y-1.505
X4.34Y-3.945
X4.48Y-4.025
X4.6585Y-3.0
X4.775Y-2.23
X4.775Y-2.505
X4.775Y-2.78
X4.775Y-3.055
X4.775Y-3.33
X4.775Y-3.605
X4.775Y-3.88
X4.775Y-4.155
X4.985Y-2.115
X4.985Y-2.38
X4.985Y-2.66
X4.985Y-2.94
X4.985Y-3.22
X4.985Y-3.495
X4.985Y-3.77
X4.985Y-4.045
T2
X4.0575Y-1.8525
X4.0575Y-1.9525
X4.0575Y-2.0525
X4.0575Y-2.1525
X4.3575Y-1.8525
X4.3575Y-1.9525
X4.3575Y-2.0525
X4.3575Y-2.1525
T3
X3.32Y-1.285
X3.36Y-1.3551
X3.4Y-1.285
X3.44Y-1.3551
X3.48Y-1.285
X3.52Y-1.3551
X3.56Y-1.285
X3.6Y-1.3551
X2.54Y-1.285
X2.58Y-1.3551
X2.62Y-1.285
X2.66Y-1.3551
X2.7Y-1.285
X2.74Y-1.3551
X2.78Y-1.285
X2.82Y-1.3551
T4
X2.16Y-4.855
X2.26Y-4.855
X1.71Y-4.855
X1.81Y-4.855
X3.51Y-4.855
X3.61Y-4.855
X3.96Y-4.855
X4.06Y-4.855
X2.61Y-4.855
X2.71Y-4.855
X2.05Y-3.165
X2.15Y-3.165
X4.41Y-4.855
X4.51Y-4.855
X3.06Y-4.855
X3.16Y-4.855
T5
X4.29Y-4.285
X4.29Y-4.385
X4.04Y-3.83
X4.14Y-3.83
X4.24Y-3.83
X3.855Y-3.035
X3.21Y-3.295
X3.31Y-3.295
X3.41Y-3.295
X2.725Y-3.27
X2.825Y-3.27
X2.445Y-3.72
X2.545Y-3.72
X2.115Y-3.8
X2.215Y-3.8
X3.635Y-3.8
X2.97Y-3.17
X2.97Y-3.27
X2.995Y-3.01
X4.41Y-3.7175
X4.41Y-3.8175
X2.825Y-3.415
X2.825Y-3.515
X4.205Y-2.74
X4.205Y-2.84
X4.205Y-2.94
X3.65Y-2.045
X3.75Y-2.045
X3.85Y-2.045
X3.65Y-2.195
X3.75Y-2.195
X3.85Y-2.195
X2.27Y-3.355
X2.37Y-3.355
X2.445Y-3.57
X2.545Y-3.57
X4.205Y-2.395
X4.205Y-2.495
X4.205Y-2.595
X3.915Y-3.455
X4.015Y-3.455
X4.115Y-3.455
X3.155Y-3.01
X4.355Y-2.395
X4.355Y-2.495
X4.355Y-2.595
X4.61Y-1.85
X4.61Y-1.95
X4.61Y-2.05
X2.68Y-2.9175
X3.21Y-3.15
X3.31Y-3.15
X3.41Y-3.15
X3.65Y-1.9
X3.75Y-1.9
X3.85Y-1.9
X3.47Y-2.915
X3.855Y-2.885
X3.51Y-3.8
T6
X2.585Y-5.835
X2.7819Y-5.835
X2.9787Y-5.835
X3.1756Y-5.835
X3.3724Y-5.835
X3.5693Y-5.835
X3.7661Y-5.835
X3.963Y-5.835
X5.2325Y-1.2622
X5.2325Y-1.4591
X5.2325Y-1.6559
X5.2325Y-1.8528
X5.2325Y-2.0496
X5.2325Y-2.2465
X5.2325Y-2.4433
X5.2325Y-2.6402
X5.2325Y-2.837
X5.2325Y-3.0339
X5.2325Y-3.2307
X5.2325Y-3.4276
X5.2325Y-3.6244
X5.2325Y-3.8213
X5.2325Y-4.0181
X5.2325Y-4.215
T7
X3.1401Y-1.32
X3.7802Y-1.32
X2.3601Y-1.32
X3.0002Y-1.32
T8
X5.07Y-5.83
X2.07Y-1.23
X1.57Y-5.83
X4.07Y-1.23
T9
X3.2102Y-1.185
X3.7102Y-1.185
X2.4302Y-1.185
X2.9302Y-1.185
T0
M30
