M48
; DRILL file {KiCad 5.1.7-a382d34a8~87~ubuntu20.04.1} date Wed Nov  4 11:30:24 2020
; FORMAT={-:-/ absolute / inch / decimal}
; #@! TF.CreationDate,2020-11-04T11:30:24+01:00
; #@! TF.GenerationSoftware,Kicad,Pcbnew,5.1.7-a382d34a8~87~ubuntu20.04.1
FMAT,2
INCH
T1C0.0157
T2C0.0350
T3C0.0354
T4C0.0394
T5C0.0618
T6C0.1260
T7C0.1280
%
G90
G05
T1
X3.825Y-3.965
X3.9Y-4.18
X4.15Y-4.17
X4.315Y-4.18
X4.33Y-4.995
X4.375Y-4.025
X4.435Y-4.63
X4.515Y-5.0
X4.55Y-4.835
X4.755Y-5.0
X4.815Y-4.63
X4.875Y-4.025
X4.93Y-4.16
X4.99Y-4.555
X5.09Y-4.16
X5.11Y-4.555
X5.41Y-3.955
T2
X5.1599Y-6.22
X5.1599Y-6.3
X5.1599Y-6.38
X5.1599Y-6.46
X5.23Y-6.18
X5.23Y-6.26
X5.23Y-6.34
X5.23Y-6.42
X4.02Y-6.225
X4.02Y-6.305
X4.02Y-6.385
X4.02Y-6.465
X4.0901Y-6.185
X4.0901Y-6.265
X4.0901Y-6.345
X4.0901Y-6.425
T3
X4.83Y-4.375
X4.83Y-4.475
X4.43Y-4.375
X4.43Y-4.475
T4
X5.51Y-3.395
X5.51Y-3.495
X5.51Y-3.595
X3.895Y-3.405
X3.895Y-3.505
X3.895Y-3.605
X4.055Y-3.405
X4.055Y-3.505
X4.055Y-3.605
X4.235Y-3.515
X4.235Y-3.615
X4.235Y-3.715
X4.395Y-3.515
X4.395Y-3.615
X4.395Y-3.715
X4.87Y-3.515
X4.87Y-3.615
X4.87Y-3.715
X3.735Y-3.405
X3.735Y-3.505
X3.735Y-3.605
X4.61Y-3.715
X4.61Y-3.815
X4.61Y-3.915
X4.61Y-4.015
X4.61Y-4.115
X4.61Y-4.215
X4.61Y-4.315
X5.35Y-3.395
X5.35Y-3.495
X5.35Y-3.595
X5.19Y-3.395
X5.19Y-3.495
X5.19Y-3.595
X5.03Y-3.515
X5.03Y-3.615
X5.03Y-3.715
X4.61Y-3.375
X4.61Y-3.475
T5
X5.195Y-6.0001
X5.195Y-6.6402
X4.055Y-6.0048
X4.055Y-6.6449
T6
X4.11Y-5.75
X5.44Y-4.3
X5.145Y-5.75
X3.8Y-4.295
T7
X5.33Y-6.0702
X5.33Y-6.5702
X3.92Y-6.0748
X3.92Y-6.5748
T0
M30
