%TF.GenerationSoftware,KiCad,Pcbnew,5.1.7-a382d34a8~87~ubuntu20.04.1*%
%TF.CreationDate,2020-11-04T11:30:01+01:00*%
%TF.ProjectId,isoSPI_Interface,69736f53-5049-45f4-996e-746572666163,rev?*%
%TF.SameCoordinates,Original*%
%TF.FileFunction,Copper,L2,Bot*%
%TF.FilePolarity,Positive*%
%FSLAX46Y46*%
G04 Gerber Fmt 4.6, Leading zero omitted, Abs format (unit mm)*
G04 Created by KiCad (PCBNEW 5.1.7-a382d34a8~87~ubuntu20.04.1) date 2020-11-04 11:30:01*
%MOMM*%
%LPD*%
G01*
G04 APERTURE LIST*
%TA.AperFunction,ComponentPad*%
%ADD10C,2.300000*%
%TD*%
%TA.AperFunction,ComponentPad*%
%ADD11C,1.500000*%
%TD*%
%TA.AperFunction,ComponentPad*%
%ADD12R,1.500000X1.500000*%
%TD*%
%TA.AperFunction,ComponentPad*%
%ADD13O,1.700000X1.700000*%
%TD*%
%TA.AperFunction,ComponentPad*%
%ADD14R,1.700000X1.700000*%
%TD*%
%TA.AperFunction,SMDPad,CuDef*%
%ADD15R,0.800000X0.900000*%
%TD*%
%TA.AperFunction,ComponentPad*%
%ADD16C,1.800000*%
%TD*%
%TA.AperFunction,ComponentPad*%
%ADD17R,1.800000X1.800000*%
%TD*%
%TA.AperFunction,ViaPad*%
%ADD18C,0.800000*%
%TD*%
%TA.AperFunction,Conductor*%
%ADD19C,0.300000*%
%TD*%
%TA.AperFunction,Conductor*%
%ADD20C,0.500000*%
%TD*%
%TA.AperFunction,Conductor*%
%ADD21C,0.254000*%
%TD*%
%TA.AperFunction,Conductor*%
%ADD22C,0.100000*%
%TD*%
G04 APERTURE END LIST*
D10*
%TO.P,J102,SH*%
%TO.N,Net-(J102-PadSH)*%
X131952000Y-152402000D03*
X131952000Y-168662000D03*
D11*
%TO.P,J102,8*%
%TO.N,/Transformer/isoSPI_OUT-_Header*%
X131062000Y-164084000D03*
%TO.P,J102,6*%
%TO.N,Net-(J102-Pad6)*%
X131062000Y-162052000D03*
%TO.P,J102,4*%
%TO.N,Net-(J102-Pad4)*%
X131062000Y-160020000D03*
%TO.P,J102,2*%
%TO.N,Net-(J102-Pad2)*%
X131062000Y-157988000D03*
%TO.P,J102,7*%
%TO.N,/Transformer/isoSPI_OUT+_Header*%
X132842000Y-163068000D03*
%TO.P,J102,5*%
%TO.N,Net-(J102-Pad5)*%
X132842000Y-161036000D03*
%TO.P,J102,3*%
%TO.N,Net-(J102-Pad3)*%
X132842000Y-159004000D03*
D12*
%TO.P,J102,1*%
%TO.N,Net-(J102-Pad1)*%
X132842000Y-156972000D03*
%TD*%
D10*
%TO.P,J104,SH*%
%TO.N,Net-(J102-PadSH)*%
X102998000Y-168781000D03*
X102998000Y-152521000D03*
D11*
%TO.P,J104,8*%
%TO.N,/Transformer/isoSPI_IN-_Header*%
X103888000Y-157099000D03*
%TO.P,J104,6*%
%TO.N,Net-(J104-Pad6)*%
X103888000Y-159131000D03*
%TO.P,J104,4*%
%TO.N,Net-(J104-Pad4)*%
X103888000Y-161163000D03*
%TO.P,J104,2*%
%TO.N,Net-(J104-Pad2)*%
X103888000Y-163195000D03*
%TO.P,J104,7*%
%TO.N,/Transformer/isoSPI_IN+_Header*%
X102108000Y-158115000D03*
%TO.P,J104,5*%
%TO.N,Net-(J104-Pad5)*%
X102108000Y-160147000D03*
%TO.P,J104,3*%
%TO.N,Net-(J104-Pad3)*%
X102108000Y-162179000D03*
D12*
%TO.P,J104,1*%
%TO.N,Net-(J104-Pad1)*%
X102108000Y-164211000D03*
%TD*%
%TO.P,R403,2*%
%TO.N,GND*%
%TA.AperFunction,SMDPad,CuDef*%
G36*
G01*
X97771000Y-98736999D02*
X97771000Y-99637001D01*
G75*
G02*
X97521001Y-99887000I-249999J0D01*
G01*
X96820999Y-99887000D01*
G75*
G02*
X96571000Y-99637001I0J249999D01*
G01*
X96571000Y-98736999D01*
G75*
G02*
X96820999Y-98487000I249999J0D01*
G01*
X97521001Y-98487000D01*
G75*
G02*
X97771000Y-98736999I0J-249999D01*
G01*
G37*
%TD.AperFunction*%
%TO.P,R403,1*%
%TO.N,/SPI_Convert_2/ICMP*%
%TA.AperFunction,SMDPad,CuDef*%
G36*
G01*
X99771000Y-98736999D02*
X99771000Y-99637001D01*
G75*
G02*
X99521001Y-99887000I-249999J0D01*
G01*
X98820999Y-99887000D01*
G75*
G02*
X98571000Y-99637001I0J249999D01*
G01*
X98571000Y-98736999D01*
G75*
G02*
X98820999Y-98487000I249999J0D01*
G01*
X99521001Y-98487000D01*
G75*
G02*
X99771000Y-98736999I0J-249999D01*
G01*
G37*
%TD.AperFunction*%
%TD*%
%TO.P,R402,2*%
%TO.N,/SPI_Convert_2/ICMP*%
%TA.AperFunction,SMDPad,CuDef*%
G36*
G01*
X97771000Y-96704999D02*
X97771000Y-97605001D01*
G75*
G02*
X97521001Y-97855000I-249999J0D01*
G01*
X96820999Y-97855000D01*
G75*
G02*
X96571000Y-97605001I0J249999D01*
G01*
X96571000Y-96704999D01*
G75*
G02*
X96820999Y-96455000I249999J0D01*
G01*
X97521001Y-96455000D01*
G75*
G02*
X97771000Y-96704999I0J-249999D01*
G01*
G37*
%TD.AperFunction*%
%TO.P,R402,1*%
%TO.N,/SPI_Convert_2/IBIAS*%
%TA.AperFunction,SMDPad,CuDef*%
G36*
G01*
X99771000Y-96704999D02*
X99771000Y-97605001D01*
G75*
G02*
X99521001Y-97855000I-249999J0D01*
G01*
X98820999Y-97855000D01*
G75*
G02*
X98571000Y-97605001I0J249999D01*
G01*
X98571000Y-96704999D01*
G75*
G02*
X98820999Y-96455000I249999J0D01*
G01*
X99521001Y-96455000D01*
G75*
G02*
X99771000Y-96704999I0J-249999D01*
G01*
G37*
%TD.AperFunction*%
%TD*%
%TO.P,R401,2*%
%TO.N,SDO*%
%TA.AperFunction,SMDPad,CuDef*%
G36*
G01*
X110166999Y-99079000D02*
X111067001Y-99079000D01*
G75*
G02*
X111317000Y-99328999I0J-249999D01*
G01*
X111317000Y-100029001D01*
G75*
G02*
X111067001Y-100279000I-249999J0D01*
G01*
X110166999Y-100279000D01*
G75*
G02*
X109917000Y-100029001I0J249999D01*
G01*
X109917000Y-99328999D01*
G75*
G02*
X110166999Y-99079000I249999J0D01*
G01*
G37*
%TD.AperFunction*%
%TO.P,R401,1*%
%TO.N,V_SPI*%
%TA.AperFunction,SMDPad,CuDef*%
G36*
G01*
X110166999Y-97079000D02*
X111067001Y-97079000D01*
G75*
G02*
X111317000Y-97328999I0J-249999D01*
G01*
X111317000Y-98029001D01*
G75*
G02*
X111067001Y-98279000I-249999J0D01*
G01*
X110166999Y-98279000D01*
G75*
G02*
X109917000Y-98029001I0J249999D01*
G01*
X109917000Y-97328999D01*
G75*
G02*
X110166999Y-97079000I249999J0D01*
G01*
G37*
%TD.AperFunction*%
%TD*%
%TO.P,R104,2*%
%TO.N,V_SPI*%
%TA.AperFunction,SMDPad,CuDef*%
G36*
G01*
X112972001Y-107169000D02*
X112071999Y-107169000D01*
G75*
G02*
X111822000Y-106919001I0J249999D01*
G01*
X111822000Y-106218999D01*
G75*
G02*
X112071999Y-105969000I249999J0D01*
G01*
X112972001Y-105969000D01*
G75*
G02*
X113222000Y-106218999I0J-249999D01*
G01*
X113222000Y-106919001D01*
G75*
G02*
X112972001Y-107169000I-249999J0D01*
G01*
G37*
%TD.AperFunction*%
%TO.P,R104,1*%
%TO.N,Net-(D103-Pad2)*%
%TA.AperFunction,SMDPad,CuDef*%
G36*
G01*
X112972001Y-109169000D02*
X112071999Y-109169000D01*
G75*
G02*
X111822000Y-108919001I0J249999D01*
G01*
X111822000Y-108218999D01*
G75*
G02*
X112071999Y-107969000I249999J0D01*
G01*
X112972001Y-107969000D01*
G75*
G02*
X113222000Y-108218999I0J-249999D01*
G01*
X113222000Y-108919001D01*
G75*
G02*
X112972001Y-109169000I-249999J0D01*
G01*
G37*
%TD.AperFunction*%
%TD*%
D13*
%TO.P,J405,3*%
%TO.N,GND*%
X98933000Y-86487000D03*
%TO.P,J405,2*%
%TO.N,/SPI_Convert_2/MSTR*%
X98933000Y-89027000D03*
D14*
%TO.P,J405,1*%
%TO.N,+5V*%
X98933000Y-91567000D03*
%TD*%
D13*
%TO.P,J404,3*%
%TO.N,GND*%
X102997000Y-86487000D03*
%TO.P,J404,2*%
%TO.N,/SPI_Convert_2/PHA*%
X102997000Y-89027000D03*
D14*
%TO.P,J404,1*%
%TO.N,+5V*%
X102997000Y-91567000D03*
%TD*%
D13*
%TO.P,J403,3*%
%TO.N,GND*%
X94869000Y-86487000D03*
%TO.P,J403,2*%
%TO.N,/SPI_Convert_2/SLOW*%
X94869000Y-89027000D03*
D14*
%TO.P,J403,1*%
%TO.N,+5V*%
X94869000Y-91567000D03*
%TD*%
D13*
%TO.P,J402,3*%
%TO.N,GND*%
X107569000Y-89281000D03*
%TO.P,J402,2*%
%TO.N,/SPI_Convert_2/POL*%
X107569000Y-91821000D03*
D14*
%TO.P,J402,1*%
%TO.N,+5V*%
X107569000Y-94361000D03*
%TD*%
D13*
%TO.P,J401,3*%
%TO.N,GND*%
X111633000Y-89281000D03*
%TO.P,J401,2*%
%TO.N,/SPI_Convert_2/EN*%
X111633000Y-91821000D03*
D14*
%TO.P,J401,1*%
%TO.N,V_SPI*%
X111633000Y-94361000D03*
%TD*%
D13*
%TO.P,J205,3*%
%TO.N,GND*%
X135890000Y-86233000D03*
%TO.P,J205,2*%
%TO.N,/SPI_Convert_1/MSTR*%
X135890000Y-88773000D03*
D14*
%TO.P,J205,1*%
%TO.N,+5V*%
X135890000Y-91313000D03*
%TD*%
D13*
%TO.P,J204,3*%
%TO.N,GND*%
X131826000Y-86233000D03*
%TO.P,J204,2*%
%TO.N,/SPI_Convert_1/PHA*%
X131826000Y-88773000D03*
D14*
%TO.P,J204,1*%
%TO.N,+5V*%
X131826000Y-91313000D03*
%TD*%
D13*
%TO.P,J203,3*%
%TO.N,GND*%
X139954000Y-86233000D03*
%TO.P,J203,2*%
%TO.N,/SPI_Convert_1/SLOW*%
X139954000Y-88773000D03*
D14*
%TO.P,J203,1*%
%TO.N,+5V*%
X139954000Y-91313000D03*
%TD*%
D13*
%TO.P,J202,3*%
%TO.N,GND*%
X127762000Y-89281000D03*
%TO.P,J202,2*%
%TO.N,/SPI_Convert_1/POL*%
X127762000Y-91821000D03*
D14*
%TO.P,J202,1*%
%TO.N,+5V*%
X127762000Y-94361000D03*
%TD*%
D13*
%TO.P,J201,3*%
%TO.N,GND*%
X123698000Y-89281000D03*
%TO.P,J201,2*%
%TO.N,/SPI_Convert_1/EN*%
X123698000Y-91821000D03*
D14*
%TO.P,J201,1*%
%TO.N,V_SPI*%
X123698000Y-94361000D03*
%TD*%
D13*
%TO.P,J103,7*%
%TO.N,GND*%
X117094000Y-109601000D03*
%TO.P,J103,6*%
%TO.N,~CS_2*%
X117094000Y-107061000D03*
%TO.P,J103,5*%
%TO.N,~CS_1*%
X117094000Y-104521000D03*
%TO.P,J103,4*%
%TO.N,SCK*%
X117094000Y-101981000D03*
%TO.P,J103,3*%
%TO.N,SDO*%
X117094000Y-99441000D03*
%TO.P,J103,2*%
%TO.N,SDI*%
X117094000Y-96901000D03*
D14*
%TO.P,J103,1*%
%TO.N,V_SPI*%
X117094000Y-94361000D03*
%TD*%
D13*
%TO.P,J101,2*%
%TO.N,GND*%
X117094000Y-85725000D03*
D14*
%TO.P,J101,1*%
%TO.N,+5V*%
X117094000Y-88265000D03*
%TD*%
%TO.P,IC401,16*%
%TO.N,/SPI_Convert_2/IBIAS*%
%TA.AperFunction,SMDPad,CuDef*%
G36*
G01*
X103350000Y-98886000D02*
X103350000Y-99036000D01*
G75*
G02*
X103275000Y-99111000I-75000J0D01*
G01*
X101975000Y-99111000D01*
G75*
G02*
X101900000Y-99036000I0J75000D01*
G01*
X101900000Y-98886000D01*
G75*
G02*
X101975000Y-98811000I75000J0D01*
G01*
X103275000Y-98811000D01*
G75*
G02*
X103350000Y-98886000I0J-75000D01*
G01*
G37*
%TD.AperFunction*%
%TO.P,IC401,15*%
%TO.N,/SPI_Convert_2/ICMP*%
%TA.AperFunction,SMDPad,CuDef*%
G36*
G01*
X103350000Y-99386000D02*
X103350000Y-99536000D01*
G75*
G02*
X103275000Y-99611000I-75000J0D01*
G01*
X101975000Y-99611000D01*
G75*
G02*
X101900000Y-99536000I0J75000D01*
G01*
X101900000Y-99386000D01*
G75*
G02*
X101975000Y-99311000I75000J0D01*
G01*
X103275000Y-99311000D01*
G75*
G02*
X103350000Y-99386000I0J-75000D01*
G01*
G37*
%TD.AperFunction*%
%TO.P,IC401,14*%
%TO.N,GND*%
%TA.AperFunction,SMDPad,CuDef*%
G36*
G01*
X103350000Y-99886000D02*
X103350000Y-100036000D01*
G75*
G02*
X103275000Y-100111000I-75000J0D01*
G01*
X101975000Y-100111000D01*
G75*
G02*
X101900000Y-100036000I0J75000D01*
G01*
X101900000Y-99886000D01*
G75*
G02*
X101975000Y-99811000I75000J0D01*
G01*
X103275000Y-99811000D01*
G75*
G02*
X103350000Y-99886000I0J-75000D01*
G01*
G37*
%TD.AperFunction*%
%TO.P,IC401,13*%
%TO.N,/SPI_Convert_2/SLOW*%
%TA.AperFunction,SMDPad,CuDef*%
G36*
G01*
X103350000Y-100386000D02*
X103350000Y-100536000D01*
G75*
G02*
X103275000Y-100611000I-75000J0D01*
G01*
X101975000Y-100611000D01*
G75*
G02*
X101900000Y-100536000I0J75000D01*
G01*
X101900000Y-100386000D01*
G75*
G02*
X101975000Y-100311000I75000J0D01*
G01*
X103275000Y-100311000D01*
G75*
G02*
X103350000Y-100386000I0J-75000D01*
G01*
G37*
%TD.AperFunction*%
%TO.P,IC401,12*%
%TO.N,/SPI_Convert_2/MSTR*%
%TA.AperFunction,SMDPad,CuDef*%
G36*
G01*
X103350000Y-100886000D02*
X103350000Y-101036000D01*
G75*
G02*
X103275000Y-101111000I-75000J0D01*
G01*
X101975000Y-101111000D01*
G75*
G02*
X101900000Y-101036000I0J75000D01*
G01*
X101900000Y-100886000D01*
G75*
G02*
X101975000Y-100811000I75000J0D01*
G01*
X103275000Y-100811000D01*
G75*
G02*
X103350000Y-100886000I0J-75000D01*
G01*
G37*
%TD.AperFunction*%
%TO.P,IC401,11*%
%TO.N,/SPI_Convert_2/IP*%
%TA.AperFunction,SMDPad,CuDef*%
G36*
G01*
X103350000Y-101386000D02*
X103350000Y-101536000D01*
G75*
G02*
X103275000Y-101611000I-75000J0D01*
G01*
X101975000Y-101611000D01*
G75*
G02*
X101900000Y-101536000I0J75000D01*
G01*
X101900000Y-101386000D01*
G75*
G02*
X101975000Y-101311000I75000J0D01*
G01*
X103275000Y-101311000D01*
G75*
G02*
X103350000Y-101386000I0J-75000D01*
G01*
G37*
%TD.AperFunction*%
%TO.P,IC401,10*%
%TO.N,/SPI_Convert_2/IM*%
%TA.AperFunction,SMDPad,CuDef*%
G36*
G01*
X103350000Y-101886000D02*
X103350000Y-102036000D01*
G75*
G02*
X103275000Y-102111000I-75000J0D01*
G01*
X101975000Y-102111000D01*
G75*
G02*
X101900000Y-102036000I0J75000D01*
G01*
X101900000Y-101886000D01*
G75*
G02*
X101975000Y-101811000I75000J0D01*
G01*
X103275000Y-101811000D01*
G75*
G02*
X103350000Y-101886000I0J-75000D01*
G01*
G37*
%TD.AperFunction*%
%TO.P,IC401,9*%
%TO.N,+5V*%
%TA.AperFunction,SMDPad,CuDef*%
G36*
G01*
X103350000Y-102386000D02*
X103350000Y-102536000D01*
G75*
G02*
X103275000Y-102611000I-75000J0D01*
G01*
X101975000Y-102611000D01*
G75*
G02*
X101900000Y-102536000I0J75000D01*
G01*
X101900000Y-102386000D01*
G75*
G02*
X101975000Y-102311000I75000J0D01*
G01*
X103275000Y-102311000D01*
G75*
G02*
X103350000Y-102386000I0J-75000D01*
G01*
G37*
%TD.AperFunction*%
%TO.P,IC401,8*%
%TO.N,/SPI_Convert_2/PHA*%
%TA.AperFunction,SMDPad,CuDef*%
G36*
G01*
X107650000Y-102386000D02*
X107650000Y-102536000D01*
G75*
G02*
X107575000Y-102611000I-75000J0D01*
G01*
X106275000Y-102611000D01*
G75*
G02*
X106200000Y-102536000I0J75000D01*
G01*
X106200000Y-102386000D01*
G75*
G02*
X106275000Y-102311000I75000J0D01*
G01*
X107575000Y-102311000D01*
G75*
G02*
X107650000Y-102386000I0J-75000D01*
G01*
G37*
%TD.AperFunction*%
%TO.P,IC401,7*%
%TO.N,/SPI_Convert_2/POL*%
%TA.AperFunction,SMDPad,CuDef*%
G36*
G01*
X107650000Y-101886000D02*
X107650000Y-102036000D01*
G75*
G02*
X107575000Y-102111000I-75000J0D01*
G01*
X106275000Y-102111000D01*
G75*
G02*
X106200000Y-102036000I0J75000D01*
G01*
X106200000Y-101886000D01*
G75*
G02*
X106275000Y-101811000I75000J0D01*
G01*
X107575000Y-101811000D01*
G75*
G02*
X107650000Y-101886000I0J-75000D01*
G01*
G37*
%TD.AperFunction*%
%TO.P,IC401,6*%
%TO.N,V_SPI*%
%TA.AperFunction,SMDPad,CuDef*%
G36*
G01*
X107650000Y-101386000D02*
X107650000Y-101536000D01*
G75*
G02*
X107575000Y-101611000I-75000J0D01*
G01*
X106275000Y-101611000D01*
G75*
G02*
X106200000Y-101536000I0J75000D01*
G01*
X106200000Y-101386000D01*
G75*
G02*
X106275000Y-101311000I75000J0D01*
G01*
X107575000Y-101311000D01*
G75*
G02*
X107650000Y-101386000I0J-75000D01*
G01*
G37*
%TD.AperFunction*%
%TO.P,IC401,5*%
%TO.N,~CS_2*%
%TA.AperFunction,SMDPad,CuDef*%
G36*
G01*
X107650000Y-100886000D02*
X107650000Y-101036000D01*
G75*
G02*
X107575000Y-101111000I-75000J0D01*
G01*
X106275000Y-101111000D01*
G75*
G02*
X106200000Y-101036000I0J75000D01*
G01*
X106200000Y-100886000D01*
G75*
G02*
X106275000Y-100811000I75000J0D01*
G01*
X107575000Y-100811000D01*
G75*
G02*
X107650000Y-100886000I0J-75000D01*
G01*
G37*
%TD.AperFunction*%
%TO.P,IC401,4*%
%TO.N,SCK*%
%TA.AperFunction,SMDPad,CuDef*%
G36*
G01*
X107650000Y-100386000D02*
X107650000Y-100536000D01*
G75*
G02*
X107575000Y-100611000I-75000J0D01*
G01*
X106275000Y-100611000D01*
G75*
G02*
X106200000Y-100536000I0J75000D01*
G01*
X106200000Y-100386000D01*
G75*
G02*
X106275000Y-100311000I75000J0D01*
G01*
X107575000Y-100311000D01*
G75*
G02*
X107650000Y-100386000I0J-75000D01*
G01*
G37*
%TD.AperFunction*%
%TO.P,IC401,3*%
%TO.N,SDO*%
%TA.AperFunction,SMDPad,CuDef*%
G36*
G01*
X107650000Y-99886000D02*
X107650000Y-100036000D01*
G75*
G02*
X107575000Y-100111000I-75000J0D01*
G01*
X106275000Y-100111000D01*
G75*
G02*
X106200000Y-100036000I0J75000D01*
G01*
X106200000Y-99886000D01*
G75*
G02*
X106275000Y-99811000I75000J0D01*
G01*
X107575000Y-99811000D01*
G75*
G02*
X107650000Y-99886000I0J-75000D01*
G01*
G37*
%TD.AperFunction*%
%TO.P,IC401,2*%
%TO.N,SDI*%
%TA.AperFunction,SMDPad,CuDef*%
G36*
G01*
X107650000Y-99386000D02*
X107650000Y-99536000D01*
G75*
G02*
X107575000Y-99611000I-75000J0D01*
G01*
X106275000Y-99611000D01*
G75*
G02*
X106200000Y-99536000I0J75000D01*
G01*
X106200000Y-99386000D01*
G75*
G02*
X106275000Y-99311000I75000J0D01*
G01*
X107575000Y-99311000D01*
G75*
G02*
X107650000Y-99386000I0J-75000D01*
G01*
G37*
%TD.AperFunction*%
%TO.P,IC401,1*%
%TO.N,/SPI_Convert_2/EN*%
%TA.AperFunction,SMDPad,CuDef*%
G36*
G01*
X107650000Y-98886000D02*
X107650000Y-99036000D01*
G75*
G02*
X107575000Y-99111000I-75000J0D01*
G01*
X106275000Y-99111000D01*
G75*
G02*
X106200000Y-99036000I0J75000D01*
G01*
X106200000Y-98886000D01*
G75*
G02*
X106275000Y-98811000I75000J0D01*
G01*
X107575000Y-98811000D01*
G75*
G02*
X107650000Y-98886000I0J-75000D01*
G01*
G37*
%TD.AperFunction*%
%TD*%
D15*
%TO.P,D104,3*%
%TO.N,GND*%
X105410000Y-104791000D03*
%TO.P,D104,2*%
%TO.N,/SPI_Convert_2/IM*%
X104460000Y-106791000D03*
%TO.P,D104,1*%
%TO.N,/SPI_Convert_2/IP*%
X106360000Y-106791000D03*
%TD*%
D16*
%TO.P,D103,2*%
%TO.N,Net-(D103-Pad2)*%
X112522000Y-111125000D03*
D17*
%TO.P,D103,1*%
%TO.N,~CS_2*%
X112522000Y-113665000D03*
%TD*%
D16*
%TO.P,D101,2*%
%TO.N,Net-(D101-Pad2)*%
X122682000Y-111125000D03*
D17*
%TO.P,D101,1*%
%TO.N,~CS_1*%
X122682000Y-113665000D03*
%TD*%
%TO.P,C402,2*%
%TO.N,V_SPI*%
%TA.AperFunction,SMDPad,CuDef*%
G36*
G01*
X110076000Y-103330500D02*
X109126000Y-103330500D01*
G75*
G02*
X108876000Y-103080500I0J250000D01*
G01*
X108876000Y-102405500D01*
G75*
G02*
X109126000Y-102155500I250000J0D01*
G01*
X110076000Y-102155500D01*
G75*
G02*
X110326000Y-102405500I0J-250000D01*
G01*
X110326000Y-103080500D01*
G75*
G02*
X110076000Y-103330500I-250000J0D01*
G01*
G37*
%TD.AperFunction*%
%TO.P,C402,1*%
%TO.N,GND*%
%TA.AperFunction,SMDPad,CuDef*%
G36*
G01*
X110076000Y-105405500D02*
X109126000Y-105405500D01*
G75*
G02*
X108876000Y-105155500I0J250000D01*
G01*
X108876000Y-104480500D01*
G75*
G02*
X109126000Y-104230500I250000J0D01*
G01*
X110076000Y-104230500D01*
G75*
G02*
X110326000Y-104480500I0J-250000D01*
G01*
X110326000Y-105155500D01*
G75*
G02*
X110076000Y-105405500I-250000J0D01*
G01*
G37*
%TD.AperFunction*%
%TD*%
%TO.P,C401,2*%
%TO.N,+5V*%
%TA.AperFunction,SMDPad,CuDef*%
G36*
G01*
X99535000Y-103055000D02*
X98585000Y-103055000D01*
G75*
G02*
X98335000Y-102805000I0J250000D01*
G01*
X98335000Y-102130000D01*
G75*
G02*
X98585000Y-101880000I250000J0D01*
G01*
X99535000Y-101880000D01*
G75*
G02*
X99785000Y-102130000I0J-250000D01*
G01*
X99785000Y-102805000D01*
G75*
G02*
X99535000Y-103055000I-250000J0D01*
G01*
G37*
%TD.AperFunction*%
%TO.P,C401,1*%
%TO.N,GND*%
%TA.AperFunction,SMDPad,CuDef*%
G36*
G01*
X99535000Y-105130000D02*
X98585000Y-105130000D01*
G75*
G02*
X98335000Y-104880000I0J250000D01*
G01*
X98335000Y-104205000D01*
G75*
G02*
X98585000Y-103955000I250000J0D01*
G01*
X99535000Y-103955000D01*
G75*
G02*
X99785000Y-104205000I0J-250000D01*
G01*
X99785000Y-104880000D01*
G75*
G02*
X99535000Y-105130000I-250000J0D01*
G01*
G37*
%TD.AperFunction*%
%TD*%
D18*
%TO.N,GND*%
X125222000Y-105664000D03*
X129286000Y-105664000D03*
X105410000Y-105918000D03*
X109601000Y-106172000D03*
X99060000Y-106172000D03*
X97155000Y-100711000D03*
X137414000Y-100457000D03*
X112649000Y-117602000D03*
X122301000Y-117602000D03*
X114681000Y-127000000D03*
X120777000Y-127000000D03*
%TO.N,V_SPI*%
X111125000Y-102235000D03*
X123825000Y-102235000D03*
%TO.N,/SPI_Convert_1/IM*%
X129794000Y-115697000D03*
X126746000Y-115697000D03*
%TO.N,/SPI_Convert_2/IM*%
X109982000Y-126873000D03*
%TO.N,/SPI_Convert_2/IP*%
X115570000Y-122809000D03*
%TD*%
D19*
%TO.N,+5V*%
X99434500Y-102461000D02*
X99208500Y-102235000D01*
X102625000Y-102461000D02*
X99434500Y-102461000D01*
D20*
X131826000Y-91313000D02*
X135890000Y-91313000D01*
X139954000Y-91313000D02*
X135890000Y-91313000D01*
X127762000Y-94361000D02*
X130810000Y-94361000D01*
X131826000Y-93345000D02*
X131826000Y-91313000D01*
X130810000Y-94361000D02*
X131826000Y-93345000D01*
X125730000Y-92329000D02*
X127762000Y-94361000D01*
X125730000Y-87757000D02*
X125730000Y-92329000D01*
X125222000Y-87249000D02*
X125730000Y-87757000D01*
X118110000Y-87249000D02*
X125222000Y-87249000D01*
X117094000Y-88265000D02*
X118110000Y-87249000D01*
X94869000Y-100584000D02*
X94869000Y-91567000D01*
X96752500Y-102467500D02*
X94869000Y-100584000D01*
X99060000Y-102467500D02*
X96752500Y-102467500D01*
%TO.N,GND*%
X105410000Y-104791000D02*
X105410000Y-105791000D01*
X109601000Y-104818000D02*
X109601000Y-106172000D01*
X99060000Y-104542500D02*
X99060000Y-106172000D01*
X97171000Y-100695000D02*
X97155000Y-100711000D01*
X97171000Y-99187000D02*
X97171000Y-100695000D01*
D19*
X97171000Y-100711000D02*
X97171000Y-99187000D01*
X100076000Y-100711000D02*
X97171000Y-100711000D01*
X100826000Y-99961000D02*
X100076000Y-100711000D01*
X102625000Y-99961000D02*
X100826000Y-99961000D01*
D20*
X120777000Y-125095000D02*
X120777000Y-127000000D01*
X120142000Y-124460000D02*
X120777000Y-125095000D01*
X114681000Y-124968000D02*
X115189000Y-124460000D01*
X114681000Y-127000000D02*
X114681000Y-124968000D01*
X117475000Y-124460000D02*
X120142000Y-124460000D01*
X116967000Y-117602000D02*
X122301000Y-117602000D01*
X117094000Y-117475000D02*
X116967000Y-117602000D01*
X117094000Y-109601000D02*
X117094000Y-117475000D01*
X112649000Y-117602000D02*
X116967000Y-117602000D01*
X117094000Y-109601000D02*
X117094000Y-124206000D01*
X115189000Y-124460000D02*
X116840000Y-124460000D01*
X117221000Y-124206000D02*
X117475000Y-124460000D01*
X117094000Y-124206000D02*
X117221000Y-124206000D01*
X116840000Y-124460000D02*
X117475000Y-124460000D01*
X117094000Y-124206000D02*
X116840000Y-124460000D01*
%TO.N,V_SPI*%
X117094000Y-94361000D02*
X123698000Y-94361000D01*
D19*
X108319000Y-101461000D02*
X109601000Y-102743000D01*
X106925000Y-101461000D02*
X108319000Y-101461000D01*
X110617000Y-95377000D02*
X111633000Y-94361000D01*
X110617000Y-97679000D02*
X110617000Y-95377000D01*
X110617000Y-102743000D02*
X111125000Y-102235000D01*
X109601000Y-102743000D02*
X110617000Y-102743000D01*
X123825000Y-94488000D02*
X123698000Y-94361000D01*
X123825000Y-102235000D02*
X123825000Y-94488000D01*
X112522000Y-103632000D02*
X111125000Y-102235000D01*
X112522000Y-106569000D02*
X112522000Y-103632000D01*
%TO.N,/SPI_Convert_1/IM*%
X129794000Y-115697000D02*
X126746000Y-115697000D01*
D20*
%TO.N,Net-(D103-Pad2)*%
X112522000Y-108569000D02*
X112522000Y-111125000D01*
D19*
%TO.N,~CS_2*%
X114935000Y-104902000D02*
X117094000Y-107061000D01*
X114935000Y-102870000D02*
X114935000Y-104902000D01*
X113284000Y-101219000D02*
X114935000Y-102870000D01*
X109401880Y-101219000D02*
X113284000Y-101219000D01*
X109143880Y-100961000D02*
X109401880Y-101219000D01*
X106925000Y-100961000D02*
X109143880Y-100961000D01*
%TO.N,/SPI_Convert_2/IM*%
X102625000Y-101961000D02*
X103539880Y-101961000D01*
X103539880Y-101961000D02*
X104278999Y-102700119D01*
X104278999Y-106609999D02*
X104460000Y-106791000D01*
X104278999Y-102700119D02*
X104278999Y-106609999D01*
X104460000Y-121351000D02*
X109982000Y-126873000D01*
X104460000Y-106791000D02*
X104460000Y-121351000D01*
%TO.N,/SPI_Convert_2/IP*%
X106360000Y-104074000D02*
X106360000Y-106791000D01*
X103747000Y-101461000D02*
X106360000Y-104074000D01*
X102625000Y-101461000D02*
X103747000Y-101461000D01*
X106360000Y-106791000D02*
X106360000Y-118171000D01*
X110998000Y-122809000D02*
X115570000Y-122809000D01*
X106360000Y-118171000D02*
X110998000Y-122809000D01*
%TO.N,SCK*%
X115824000Y-100711000D02*
X117094000Y-101981000D01*
X109601000Y-100711000D02*
X115824000Y-100711000D01*
X109351000Y-100461000D02*
X109601000Y-100711000D01*
X106925000Y-100461000D02*
X109351000Y-100461000D01*
%TO.N,SDO*%
X110335000Y-99961000D02*
X110617000Y-99679000D01*
X106925000Y-99961000D02*
X110335000Y-99961000D01*
X116856000Y-99679000D02*
X117094000Y-99441000D01*
X110617000Y-99679000D02*
X116856000Y-99679000D01*
%TO.N,SDI*%
X115316000Y-98679000D02*
X117094000Y-96901000D01*
X109968454Y-98679000D02*
X115316000Y-98679000D01*
X109186454Y-99461000D02*
X109968454Y-98679000D01*
X106925000Y-99461000D02*
X109186454Y-99461000D01*
%TO.N,/SPI_Convert_2/IBIAS*%
X100977000Y-98961000D02*
X99171000Y-97155000D01*
X102625000Y-98961000D02*
X100977000Y-98961000D01*
%TO.N,/SPI_Convert_2/ICMP*%
X99171000Y-99155000D02*
X97171000Y-97155000D01*
X99171000Y-99187000D02*
X99171000Y-99155000D01*
X99445000Y-99461000D02*
X99171000Y-99187000D01*
X102625000Y-99461000D02*
X99445000Y-99461000D01*
%TO.N,/SPI_Convert_2/SLOW*%
X96901000Y-91059000D02*
X94869000Y-89027000D01*
X97409000Y-93599000D02*
X96901000Y-93091000D01*
X96901000Y-93091000D02*
X96901000Y-91059000D01*
X100257880Y-93599000D02*
X97409000Y-93599000D01*
X104013000Y-97354120D02*
X100257880Y-93599000D01*
X104013000Y-100203000D02*
X104013000Y-97354120D01*
X103755000Y-100461000D02*
X104013000Y-100203000D01*
X102625000Y-100461000D02*
X103755000Y-100461000D01*
%TO.N,/SPI_Convert_2/MSTR*%
X100965000Y-93599000D02*
X100965000Y-91059000D01*
X100965000Y-91059000D02*
X98933000Y-89027000D01*
X104521000Y-97155000D02*
X100965000Y-93599000D01*
X104521000Y-100711000D02*
X104521000Y-97155000D01*
X104271000Y-100961000D02*
X104521000Y-100711000D01*
X102625000Y-100961000D02*
X104271000Y-100961000D01*
%TO.N,/SPI_Convert_2/PHA*%
X105029000Y-91059000D02*
X102997000Y-89027000D01*
X105454120Y-102461000D02*
X105029000Y-102035880D01*
X105029000Y-102035880D02*
X105029000Y-91059000D01*
X106925000Y-102461000D02*
X105454120Y-102461000D01*
%TO.N,/SPI_Convert_2/POL*%
X106925000Y-101961000D02*
X105771000Y-101961000D01*
X105771000Y-101961000D02*
X105537000Y-101727000D01*
X105537000Y-93853000D02*
X107569000Y-91821000D01*
X105537000Y-101727000D02*
X105537000Y-93853000D01*
%TO.N,/SPI_Convert_2/EN*%
X108303000Y-98961000D02*
X109093000Y-98171000D01*
X106925000Y-98961000D02*
X108303000Y-98961000D01*
X109093000Y-94361000D02*
X111633000Y-91821000D01*
X109093000Y-98171000D02*
X109093000Y-94361000D01*
%TD*%
D21*
%TO.N,GND*%
X142113000Y-170688000D02*
X92887000Y-170688000D01*
X92887000Y-166778409D01*
X97308000Y-166778409D01*
X97308000Y-167223591D01*
X97394851Y-167660218D01*
X97565214Y-168071511D01*
X97812544Y-168441666D01*
X98127334Y-168756456D01*
X98497489Y-169003786D01*
X98908782Y-169174149D01*
X99345409Y-169261000D01*
X99790591Y-169261000D01*
X100227218Y-169174149D01*
X100638511Y-169003786D01*
X101008666Y-168756456D01*
X101226178Y-168538944D01*
X101213000Y-168605193D01*
X101213000Y-168956807D01*
X101281596Y-169301665D01*
X101416153Y-169626515D01*
X101611500Y-169918871D01*
X101860129Y-170167500D01*
X102152485Y-170362847D01*
X102477335Y-170497404D01*
X102822193Y-170566000D01*
X103173807Y-170566000D01*
X103518665Y-170497404D01*
X103843515Y-170362847D01*
X104135871Y-170167500D01*
X104384500Y-169918871D01*
X104579847Y-169626515D01*
X104714404Y-169301665D01*
X104783000Y-168956807D01*
X104783000Y-168605193D01*
X104759330Y-168486193D01*
X130167000Y-168486193D01*
X130167000Y-168837807D01*
X130235596Y-169182665D01*
X130370153Y-169507515D01*
X130565500Y-169799871D01*
X130814129Y-170048500D01*
X131106485Y-170243847D01*
X131431335Y-170378404D01*
X131776193Y-170447000D01*
X132127807Y-170447000D01*
X132472665Y-170378404D01*
X132797515Y-170243847D01*
X133089871Y-170048500D01*
X133338500Y-169799871D01*
X133533847Y-169507515D01*
X133668404Y-169182665D01*
X133737000Y-168837807D01*
X133737000Y-168486193D01*
X133723822Y-168419944D01*
X133941334Y-168637456D01*
X134311489Y-168884786D01*
X134722782Y-169055149D01*
X135159409Y-169142000D01*
X135604591Y-169142000D01*
X136041218Y-169055149D01*
X136452511Y-168884786D01*
X136822666Y-168637456D01*
X137137456Y-168322666D01*
X137384786Y-167952511D01*
X137555149Y-167541218D01*
X137642000Y-167104591D01*
X137642000Y-166659409D01*
X137555149Y-166222782D01*
X137384786Y-165811489D01*
X137137456Y-165441334D01*
X136822666Y-165126544D01*
X136452511Y-164879214D01*
X136041218Y-164708851D01*
X135604591Y-164622000D01*
X135159409Y-164622000D01*
X134722782Y-164708851D01*
X134311489Y-164879214D01*
X133941334Y-165126544D01*
X133626544Y-165441334D01*
X133379214Y-165811489D01*
X133208851Y-166222782D01*
X133122000Y-166659409D01*
X133122000Y-167104591D01*
X133172415Y-167358044D01*
X133089871Y-167275500D01*
X132797515Y-167080153D01*
X132472665Y-166945596D01*
X132127807Y-166877000D01*
X131776193Y-166877000D01*
X131431335Y-166945596D01*
X131106485Y-167080153D01*
X130814129Y-167275500D01*
X130565500Y-167524129D01*
X130370153Y-167816485D01*
X130235596Y-168141335D01*
X130167000Y-168486193D01*
X104759330Y-168486193D01*
X104714404Y-168260335D01*
X104579847Y-167935485D01*
X104384500Y-167643129D01*
X104135871Y-167394500D01*
X103843515Y-167199153D01*
X103518665Y-167064596D01*
X103173807Y-166996000D01*
X102822193Y-166996000D01*
X102477335Y-167064596D01*
X102152485Y-167199153D01*
X101860129Y-167394500D01*
X101777585Y-167477044D01*
X101828000Y-167223591D01*
X101828000Y-166778409D01*
X101741149Y-166341782D01*
X101570786Y-165930489D01*
X101348730Y-165598159D01*
X101358000Y-165599072D01*
X102858000Y-165599072D01*
X102982482Y-165586812D01*
X103102180Y-165550502D01*
X103212494Y-165491537D01*
X103309185Y-165412185D01*
X103388537Y-165315494D01*
X103447502Y-165205180D01*
X103483812Y-165085482D01*
X103496072Y-164961000D01*
X103496072Y-164529174D01*
X103751589Y-164580000D01*
X104024411Y-164580000D01*
X104291989Y-164526775D01*
X104544043Y-164422371D01*
X104770886Y-164270799D01*
X104963799Y-164077886D01*
X105115371Y-163851043D01*
X105219775Y-163598989D01*
X105273000Y-163331411D01*
X105273000Y-163058589D01*
X105219775Y-162791011D01*
X105115371Y-162538957D01*
X104963799Y-162312114D01*
X104830685Y-162179000D01*
X104963799Y-162045886D01*
X105115371Y-161819043D01*
X105219775Y-161566989D01*
X105273000Y-161299411D01*
X105273000Y-161026589D01*
X105219775Y-160759011D01*
X105115371Y-160506957D01*
X104963799Y-160280114D01*
X104830685Y-160147000D01*
X104963799Y-160013886D01*
X105115371Y-159787043D01*
X105219775Y-159534989D01*
X105273000Y-159267411D01*
X105273000Y-158994589D01*
X105219775Y-158727011D01*
X105115371Y-158474957D01*
X104963799Y-158248114D01*
X104830685Y-158115000D01*
X104963799Y-157981886D01*
X105050860Y-157851589D01*
X129677000Y-157851589D01*
X129677000Y-158124411D01*
X129730225Y-158391989D01*
X129834629Y-158644043D01*
X129986201Y-158870886D01*
X130119315Y-159004000D01*
X129986201Y-159137114D01*
X129834629Y-159363957D01*
X129730225Y-159616011D01*
X129677000Y-159883589D01*
X129677000Y-160156411D01*
X129730225Y-160423989D01*
X129834629Y-160676043D01*
X129986201Y-160902886D01*
X130119315Y-161036000D01*
X129986201Y-161169114D01*
X129834629Y-161395957D01*
X129730225Y-161648011D01*
X129677000Y-161915589D01*
X129677000Y-162188411D01*
X129730225Y-162455989D01*
X129834629Y-162708043D01*
X129986201Y-162934886D01*
X130119315Y-163068000D01*
X129986201Y-163201114D01*
X129834629Y-163427957D01*
X129730225Y-163680011D01*
X129677000Y-163947589D01*
X129677000Y-164220411D01*
X129730225Y-164487989D01*
X129834629Y-164740043D01*
X129986201Y-164966886D01*
X130179114Y-165159799D01*
X130405957Y-165311371D01*
X130658011Y-165415775D01*
X130925589Y-165469000D01*
X131198411Y-165469000D01*
X131465989Y-165415775D01*
X131718043Y-165311371D01*
X131944886Y-165159799D01*
X132137799Y-164966886D01*
X132289371Y-164740043D01*
X132393775Y-164487989D01*
X132413354Y-164389562D01*
X132438011Y-164399775D01*
X132705589Y-164453000D01*
X132978411Y-164453000D01*
X133245989Y-164399775D01*
X133498043Y-164295371D01*
X133724886Y-164143799D01*
X133917799Y-163950886D01*
X134069371Y-163724043D01*
X134173775Y-163471989D01*
X134227000Y-163204411D01*
X134227000Y-162931589D01*
X134173775Y-162664011D01*
X134069371Y-162411957D01*
X133917799Y-162185114D01*
X133784685Y-162052000D01*
X133917799Y-161918886D01*
X134069371Y-161692043D01*
X134173775Y-161439989D01*
X134227000Y-161172411D01*
X134227000Y-160899589D01*
X134173775Y-160632011D01*
X134069371Y-160379957D01*
X133917799Y-160153114D01*
X133784685Y-160020000D01*
X133917799Y-159886886D01*
X134069371Y-159660043D01*
X134173775Y-159407989D01*
X134227000Y-159140411D01*
X134227000Y-158867589D01*
X134173775Y-158600011D01*
X134069371Y-158347957D01*
X133984676Y-158221202D01*
X134043185Y-158173185D01*
X134122537Y-158076494D01*
X134181502Y-157966180D01*
X134217812Y-157846482D01*
X134230072Y-157722000D01*
X134230072Y-156222000D01*
X134220413Y-156123931D01*
X134311489Y-156184786D01*
X134722782Y-156355149D01*
X135159409Y-156442000D01*
X135604591Y-156442000D01*
X136041218Y-156355149D01*
X136452511Y-156184786D01*
X136822666Y-155937456D01*
X137137456Y-155622666D01*
X137384786Y-155252511D01*
X137555149Y-154841218D01*
X137642000Y-154404591D01*
X137642000Y-153959409D01*
X137555149Y-153522782D01*
X137384786Y-153111489D01*
X137137456Y-152741334D01*
X136822666Y-152426544D01*
X136452511Y-152179214D01*
X136041218Y-152008851D01*
X135604591Y-151922000D01*
X135159409Y-151922000D01*
X134722782Y-152008851D01*
X134311489Y-152179214D01*
X133941334Y-152426544D01*
X133723822Y-152644056D01*
X133737000Y-152577807D01*
X133737000Y-152226193D01*
X133668404Y-151881335D01*
X133533847Y-151556485D01*
X133338500Y-151264129D01*
X133089871Y-151015500D01*
X132797515Y-150820153D01*
X132472665Y-150685596D01*
X132127807Y-150617000D01*
X131776193Y-150617000D01*
X131431335Y-150685596D01*
X131106485Y-150820153D01*
X130814129Y-151015500D01*
X130565500Y-151264129D01*
X130370153Y-151556485D01*
X130235596Y-151881335D01*
X130167000Y-152226193D01*
X130167000Y-152577807D01*
X130235596Y-152922665D01*
X130370153Y-153247515D01*
X130565500Y-153539871D01*
X130814129Y-153788500D01*
X131106485Y-153983847D01*
X131431335Y-154118404D01*
X131776193Y-154187000D01*
X132127807Y-154187000D01*
X132472665Y-154118404D01*
X132797515Y-153983847D01*
X133089871Y-153788500D01*
X133172415Y-153705956D01*
X133122000Y-153959409D01*
X133122000Y-154404591D01*
X133208851Y-154841218D01*
X133379214Y-155252511D01*
X133601270Y-155584841D01*
X133592000Y-155583928D01*
X132092000Y-155583928D01*
X131967518Y-155596188D01*
X131847820Y-155632498D01*
X131737506Y-155691463D01*
X131640815Y-155770815D01*
X131561463Y-155867506D01*
X131502498Y-155977820D01*
X131466188Y-156097518D01*
X131453928Y-156222000D01*
X131453928Y-156653826D01*
X131198411Y-156603000D01*
X130925589Y-156603000D01*
X130658011Y-156656225D01*
X130405957Y-156760629D01*
X130179114Y-156912201D01*
X129986201Y-157105114D01*
X129834629Y-157331957D01*
X129730225Y-157584011D01*
X129677000Y-157851589D01*
X105050860Y-157851589D01*
X105115371Y-157755043D01*
X105219775Y-157502989D01*
X105273000Y-157235411D01*
X105273000Y-156962589D01*
X105219775Y-156695011D01*
X105115371Y-156442957D01*
X104963799Y-156216114D01*
X104770886Y-156023201D01*
X104544043Y-155871629D01*
X104291989Y-155767225D01*
X104024411Y-155714000D01*
X103751589Y-155714000D01*
X103484011Y-155767225D01*
X103231957Y-155871629D01*
X103005114Y-156023201D01*
X102812201Y-156216114D01*
X102660629Y-156442957D01*
X102556225Y-156695011D01*
X102536646Y-156793438D01*
X102511989Y-156783225D01*
X102244411Y-156730000D01*
X101971589Y-156730000D01*
X101704011Y-156783225D01*
X101451957Y-156887629D01*
X101225114Y-157039201D01*
X101032201Y-157232114D01*
X100880629Y-157458957D01*
X100776225Y-157711011D01*
X100723000Y-157978589D01*
X100723000Y-158251411D01*
X100776225Y-158518989D01*
X100880629Y-158771043D01*
X101032201Y-158997886D01*
X101165315Y-159131000D01*
X101032201Y-159264114D01*
X100880629Y-159490957D01*
X100776225Y-159743011D01*
X100723000Y-160010589D01*
X100723000Y-160283411D01*
X100776225Y-160550989D01*
X100880629Y-160803043D01*
X101032201Y-161029886D01*
X101165315Y-161163000D01*
X101032201Y-161296114D01*
X100880629Y-161522957D01*
X100776225Y-161775011D01*
X100723000Y-162042589D01*
X100723000Y-162315411D01*
X100776225Y-162582989D01*
X100880629Y-162835043D01*
X100965324Y-162961798D01*
X100906815Y-163009815D01*
X100827463Y-163106506D01*
X100768498Y-163216820D01*
X100732188Y-163336518D01*
X100719928Y-163461000D01*
X100719928Y-164961000D01*
X100729587Y-165059069D01*
X100638511Y-164998214D01*
X100227218Y-164827851D01*
X99790591Y-164741000D01*
X99345409Y-164741000D01*
X98908782Y-164827851D01*
X98497489Y-164998214D01*
X98127334Y-165245544D01*
X97812544Y-165560334D01*
X97565214Y-165930489D01*
X97394851Y-166341782D01*
X97308000Y-166778409D01*
X92887000Y-166778409D01*
X92887000Y-154078409D01*
X97308000Y-154078409D01*
X97308000Y-154523591D01*
X97394851Y-154960218D01*
X97565214Y-155371511D01*
X97812544Y-155741666D01*
X98127334Y-156056456D01*
X98497489Y-156303786D01*
X98908782Y-156474149D01*
X99345409Y-156561000D01*
X99790591Y-156561000D01*
X100227218Y-156474149D01*
X100638511Y-156303786D01*
X101008666Y-156056456D01*
X101323456Y-155741666D01*
X101570786Y-155371511D01*
X101741149Y-154960218D01*
X101828000Y-154523591D01*
X101828000Y-154078409D01*
X101777585Y-153824956D01*
X101860129Y-153907500D01*
X102152485Y-154102847D01*
X102477335Y-154237404D01*
X102822193Y-154306000D01*
X103173807Y-154306000D01*
X103518665Y-154237404D01*
X103843515Y-154102847D01*
X104135871Y-153907500D01*
X104384500Y-153658871D01*
X104579847Y-153366515D01*
X104714404Y-153041665D01*
X104783000Y-152696807D01*
X104783000Y-152345193D01*
X104714404Y-152000335D01*
X104579847Y-151675485D01*
X104384500Y-151383129D01*
X104135871Y-151134500D01*
X103843515Y-150939153D01*
X103518665Y-150804596D01*
X103173807Y-150736000D01*
X102822193Y-150736000D01*
X102477335Y-150804596D01*
X102152485Y-150939153D01*
X101860129Y-151134500D01*
X101611500Y-151383129D01*
X101416153Y-151675485D01*
X101281596Y-152000335D01*
X101213000Y-152345193D01*
X101213000Y-152696807D01*
X101226178Y-152763056D01*
X101008666Y-152545544D01*
X100638511Y-152298214D01*
X100227218Y-152127851D01*
X99790591Y-152041000D01*
X99345409Y-152041000D01*
X98908782Y-152127851D01*
X98497489Y-152298214D01*
X98127334Y-152545544D01*
X97812544Y-152860334D01*
X97565214Y-153230489D01*
X97394851Y-153641782D01*
X97308000Y-154078409D01*
X92887000Y-154078409D01*
X92887000Y-145829872D01*
X102159000Y-145829872D01*
X102159000Y-146270128D01*
X102244890Y-146701925D01*
X102413369Y-147108669D01*
X102657962Y-147474729D01*
X102969271Y-147786038D01*
X103335331Y-148030631D01*
X103742075Y-148199110D01*
X104173872Y-148285000D01*
X104614128Y-148285000D01*
X105045925Y-148199110D01*
X105452669Y-148030631D01*
X105818729Y-147786038D01*
X106130038Y-147474729D01*
X106374631Y-147108669D01*
X106543110Y-146701925D01*
X106629000Y-146270128D01*
X106629000Y-145829872D01*
X128448000Y-145829872D01*
X128448000Y-146270128D01*
X128533890Y-146701925D01*
X128702369Y-147108669D01*
X128946962Y-147474729D01*
X129258271Y-147786038D01*
X129624331Y-148030631D01*
X130031075Y-148199110D01*
X130462872Y-148285000D01*
X130903128Y-148285000D01*
X131334925Y-148199110D01*
X131741669Y-148030631D01*
X132107729Y-147786038D01*
X132419038Y-147474729D01*
X132663631Y-147108669D01*
X132832110Y-146701925D01*
X132918000Y-146270128D01*
X132918000Y-145829872D01*
X132832110Y-145398075D01*
X132663631Y-144991331D01*
X132419038Y-144625271D01*
X132107729Y-144313962D01*
X131741669Y-144069369D01*
X131334925Y-143900890D01*
X130903128Y-143815000D01*
X130462872Y-143815000D01*
X130031075Y-143900890D01*
X129624331Y-144069369D01*
X129258271Y-144313962D01*
X128946962Y-144625271D01*
X128702369Y-144991331D01*
X128533890Y-145398075D01*
X128448000Y-145829872D01*
X106629000Y-145829872D01*
X106543110Y-145398075D01*
X106374631Y-144991331D01*
X106130038Y-144625271D01*
X105818729Y-144313962D01*
X105452669Y-144069369D01*
X105045925Y-143900890D01*
X104614128Y-143815000D01*
X104173872Y-143815000D01*
X103742075Y-143900890D01*
X103335331Y-144069369D01*
X102969271Y-144313962D01*
X102657962Y-144625271D01*
X102413369Y-144991331D01*
X102244890Y-145398075D01*
X102159000Y-145829872D01*
X92887000Y-145829872D01*
X92887000Y-108872872D01*
X94285000Y-108872872D01*
X94285000Y-109313128D01*
X94370890Y-109744925D01*
X94539369Y-110151669D01*
X94783962Y-110517729D01*
X95095271Y-110829038D01*
X95461331Y-111073631D01*
X95868075Y-111242110D01*
X96299872Y-111328000D01*
X96740128Y-111328000D01*
X97171925Y-111242110D01*
X97578669Y-111073631D01*
X97944729Y-110829038D01*
X98256038Y-110517729D01*
X98500631Y-110151669D01*
X98669110Y-109744925D01*
X98755000Y-109313128D01*
X98755000Y-108872872D01*
X98669110Y-108441075D01*
X98500631Y-108034331D01*
X98256038Y-107668271D01*
X97944729Y-107356962D01*
X97578669Y-107112369D01*
X97171925Y-106943890D01*
X96740128Y-106858000D01*
X96299872Y-106858000D01*
X95868075Y-106943890D01*
X95461331Y-107112369D01*
X95095271Y-107356962D01*
X94783962Y-107668271D01*
X94539369Y-108034331D01*
X94370890Y-108441075D01*
X94285000Y-108872872D01*
X92887000Y-108872872D01*
X92887000Y-105130000D01*
X97696928Y-105130000D01*
X97709188Y-105254482D01*
X97745498Y-105374180D01*
X97804463Y-105484494D01*
X97883815Y-105581185D01*
X97980506Y-105660537D01*
X98090820Y-105719502D01*
X98210518Y-105755812D01*
X98335000Y-105768072D01*
X98774250Y-105765000D01*
X98933000Y-105606250D01*
X98933000Y-104669500D01*
X99187000Y-104669500D01*
X99187000Y-105606250D01*
X99345750Y-105765000D01*
X99785000Y-105768072D01*
X99909482Y-105755812D01*
X100029180Y-105719502D01*
X100139494Y-105660537D01*
X100236185Y-105581185D01*
X100315537Y-105484494D01*
X100374502Y-105374180D01*
X100410812Y-105254482D01*
X100423072Y-105130000D01*
X100420000Y-104828250D01*
X100261250Y-104669500D01*
X99187000Y-104669500D01*
X98933000Y-104669500D01*
X97858750Y-104669500D01*
X97700000Y-104828250D01*
X97696928Y-105130000D01*
X92887000Y-105130000D01*
X92887000Y-90717000D01*
X93380928Y-90717000D01*
X93380928Y-92417000D01*
X93393188Y-92541482D01*
X93429498Y-92661180D01*
X93488463Y-92771494D01*
X93567815Y-92868185D01*
X93664506Y-92947537D01*
X93774820Y-93006502D01*
X93894518Y-93042812D01*
X93984001Y-93051625D01*
X93984000Y-100540531D01*
X93979719Y-100584000D01*
X93984000Y-100627469D01*
X93984000Y-100627476D01*
X93996805Y-100757489D01*
X94047411Y-100924312D01*
X94129589Y-101078058D01*
X94240183Y-101212817D01*
X94273956Y-101240534D01*
X96095970Y-103062549D01*
X96123683Y-103096317D01*
X96157451Y-103124030D01*
X96157453Y-103124032D01*
X96170178Y-103134475D01*
X96258441Y-103206911D01*
X96412187Y-103289089D01*
X96579010Y-103339695D01*
X96709023Y-103352500D01*
X96709033Y-103352500D01*
X96752499Y-103356781D01*
X96795965Y-103352500D01*
X97891005Y-103352500D01*
X97957038Y-103432962D01*
X97963594Y-103438342D01*
X97883815Y-103503815D01*
X97804463Y-103600506D01*
X97745498Y-103710820D01*
X97709188Y-103830518D01*
X97696928Y-103955000D01*
X97700000Y-104256750D01*
X97858750Y-104415500D01*
X98933000Y-104415500D01*
X98933000Y-104395500D01*
X99187000Y-104395500D01*
X99187000Y-104415500D01*
X100261250Y-104415500D01*
X100420000Y-104256750D01*
X100423072Y-103955000D01*
X100410812Y-103830518D01*
X100374502Y-103710820D01*
X100315537Y-103600506D01*
X100236185Y-103503815D01*
X100156406Y-103438342D01*
X100162962Y-103432962D01*
X100273405Y-103298386D01*
X100301406Y-103246000D01*
X101943808Y-103246000D01*
X101975000Y-103249072D01*
X103275000Y-103249072D01*
X103414113Y-103235371D01*
X103493999Y-103211138D01*
X103494000Y-106052852D01*
X103470498Y-106096820D01*
X103434188Y-106216518D01*
X103421928Y-106341000D01*
X103421928Y-107241000D01*
X103434188Y-107365482D01*
X103470498Y-107485180D01*
X103529463Y-107595494D01*
X103608815Y-107692185D01*
X103675000Y-107746502D01*
X103675001Y-121312437D01*
X103671203Y-121351000D01*
X103686359Y-121504886D01*
X103731246Y-121652859D01*
X103731247Y-121652860D01*
X103804139Y-121789233D01*
X103824280Y-121813774D01*
X103877655Y-121878812D01*
X103877659Y-121878816D01*
X103902237Y-121908764D01*
X103932185Y-121933342D01*
X108947000Y-126948158D01*
X108947000Y-126974939D01*
X108986774Y-127174898D01*
X109064795Y-127363256D01*
X109178063Y-127532774D01*
X109322226Y-127676937D01*
X109491744Y-127790205D01*
X109680102Y-127868226D01*
X109880061Y-127908000D01*
X110083939Y-127908000D01*
X110283898Y-127868226D01*
X110472256Y-127790205D01*
X110641774Y-127676937D01*
X110785937Y-127532774D01*
X110899205Y-127363256D01*
X110977226Y-127174898D01*
X111017000Y-126974939D01*
X111017000Y-126771061D01*
X110977226Y-126571102D01*
X110899205Y-126382744D01*
X110785937Y-126213226D01*
X110641774Y-126069063D01*
X110472256Y-125955795D01*
X110283898Y-125877774D01*
X110083939Y-125838000D01*
X110057158Y-125838000D01*
X105245000Y-121025843D01*
X105245000Y-107746501D01*
X105311185Y-107692185D01*
X105390537Y-107595494D01*
X105410000Y-107559082D01*
X105429463Y-107595494D01*
X105508815Y-107692185D01*
X105575000Y-107746502D01*
X105575001Y-118132437D01*
X105571203Y-118171000D01*
X105586359Y-118324886D01*
X105631246Y-118472859D01*
X105631247Y-118472860D01*
X105704139Y-118609233D01*
X105744690Y-118658644D01*
X105777655Y-118698812D01*
X105777659Y-118698816D01*
X105802237Y-118728764D01*
X105832185Y-118753342D01*
X110415653Y-123336810D01*
X110440236Y-123366764D01*
X110559767Y-123464862D01*
X110696140Y-123537754D01*
X110844113Y-123582642D01*
X110919026Y-123590020D01*
X110959439Y-123594000D01*
X110959444Y-123594000D01*
X110998000Y-123597797D01*
X111036556Y-123594000D01*
X114891289Y-123594000D01*
X114910226Y-123612937D01*
X115079744Y-123726205D01*
X115268102Y-123804226D01*
X115468061Y-123844000D01*
X115671939Y-123844000D01*
X115871898Y-123804226D01*
X116060256Y-123726205D01*
X116229774Y-123612937D01*
X116373937Y-123468774D01*
X116487205Y-123299256D01*
X116565226Y-123110898D01*
X116605000Y-122910939D01*
X116605000Y-122707061D01*
X116565226Y-122507102D01*
X116487205Y-122318744D01*
X116373937Y-122149226D01*
X116229774Y-122005063D01*
X116060256Y-121891795D01*
X115871898Y-121813774D01*
X115671939Y-121774000D01*
X115468061Y-121774000D01*
X115268102Y-121813774D01*
X115079744Y-121891795D01*
X114910226Y-122005063D01*
X114891289Y-122024000D01*
X111323157Y-122024000D01*
X107145000Y-117845843D01*
X107145000Y-115595061D01*
X125711000Y-115595061D01*
X125711000Y-115798939D01*
X125750774Y-115998898D01*
X125828795Y-116187256D01*
X125942063Y-116356774D01*
X126086226Y-116500937D01*
X126255744Y-116614205D01*
X126444102Y-116692226D01*
X126644061Y-116732000D01*
X126847939Y-116732000D01*
X127047898Y-116692226D01*
X127236256Y-116614205D01*
X127405774Y-116500937D01*
X127424711Y-116482000D01*
X129115289Y-116482000D01*
X129134226Y-116500937D01*
X129303744Y-116614205D01*
X129492102Y-116692226D01*
X129692061Y-116732000D01*
X129895939Y-116732000D01*
X130095898Y-116692226D01*
X130284256Y-116614205D01*
X130453774Y-116500937D01*
X130597937Y-116356774D01*
X130711205Y-116187256D01*
X130789226Y-115998898D01*
X130829000Y-115798939D01*
X130829000Y-115595061D01*
X130789226Y-115395102D01*
X130711205Y-115206744D01*
X130597937Y-115037226D01*
X130453774Y-114893063D01*
X130284256Y-114779795D01*
X130095898Y-114701774D01*
X129895939Y-114662000D01*
X129692061Y-114662000D01*
X129492102Y-114701774D01*
X129303744Y-114779795D01*
X129134226Y-114893063D01*
X129115289Y-114912000D01*
X127424711Y-114912000D01*
X127405774Y-114893063D01*
X127236256Y-114779795D01*
X127047898Y-114701774D01*
X126847939Y-114662000D01*
X126644061Y-114662000D01*
X126444102Y-114701774D01*
X126255744Y-114779795D01*
X126086226Y-114893063D01*
X125942063Y-115037226D01*
X125828795Y-115206744D01*
X125750774Y-115395102D01*
X125711000Y-115595061D01*
X107145000Y-115595061D01*
X107145000Y-107746501D01*
X107211185Y-107692185D01*
X107290537Y-107595494D01*
X107349502Y-107485180D01*
X107385812Y-107365482D01*
X107398072Y-107241000D01*
X107398072Y-106341000D01*
X107385812Y-106216518D01*
X107349502Y-106096820D01*
X107290537Y-105986506D01*
X107211185Y-105889815D01*
X107145000Y-105835499D01*
X107145000Y-105405500D01*
X108237928Y-105405500D01*
X108250188Y-105529982D01*
X108286498Y-105649680D01*
X108345463Y-105759994D01*
X108424815Y-105856685D01*
X108521506Y-105936037D01*
X108631820Y-105995002D01*
X108751518Y-106031312D01*
X108876000Y-106043572D01*
X109315250Y-106040500D01*
X109474000Y-105881750D01*
X109474000Y-104945000D01*
X109728000Y-104945000D01*
X109728000Y-105881750D01*
X109886750Y-106040500D01*
X110326000Y-106043572D01*
X110450482Y-106031312D01*
X110570180Y-105995002D01*
X110680494Y-105936037D01*
X110777185Y-105856685D01*
X110856537Y-105759994D01*
X110915502Y-105649680D01*
X110951812Y-105529982D01*
X110964072Y-105405500D01*
X110961000Y-105103750D01*
X110802250Y-104945000D01*
X109728000Y-104945000D01*
X109474000Y-104945000D01*
X108399750Y-104945000D01*
X108241000Y-105103750D01*
X108237928Y-105405500D01*
X107145000Y-105405500D01*
X107145000Y-104112552D01*
X107148797Y-104073999D01*
X107145000Y-104035446D01*
X107145000Y-104035439D01*
X107133641Y-103920113D01*
X107088754Y-103772140D01*
X107015862Y-103635767D01*
X106917764Y-103516236D01*
X106887817Y-103491659D01*
X106645230Y-103249072D01*
X107575000Y-103249072D01*
X107714113Y-103235371D01*
X107847881Y-103194793D01*
X107971162Y-103128898D01*
X108079218Y-103040218D01*
X108167898Y-102932162D01*
X108233793Y-102808881D01*
X108237928Y-102795250D01*
X108237928Y-103080500D01*
X108254992Y-103253754D01*
X108305528Y-103420350D01*
X108387595Y-103573886D01*
X108498038Y-103708462D01*
X108504594Y-103713842D01*
X108424815Y-103779315D01*
X108345463Y-103876006D01*
X108286498Y-103986320D01*
X108250188Y-104106018D01*
X108237928Y-104230500D01*
X108241000Y-104532250D01*
X108399750Y-104691000D01*
X109474000Y-104691000D01*
X109474000Y-104671000D01*
X109728000Y-104671000D01*
X109728000Y-104691000D01*
X110802250Y-104691000D01*
X110961000Y-104532250D01*
X110964072Y-104230500D01*
X110951812Y-104106018D01*
X110915502Y-103986320D01*
X110856537Y-103876006D01*
X110777185Y-103779315D01*
X110697406Y-103713842D01*
X110703962Y-103708462D01*
X110814405Y-103573886D01*
X110859346Y-103489807D01*
X110918860Y-103471754D01*
X111055233Y-103398862D01*
X111123049Y-103343206D01*
X111737001Y-103957159D01*
X111737000Y-105397056D01*
X111732149Y-105398528D01*
X111578613Y-105480595D01*
X111444038Y-105591038D01*
X111333595Y-105725613D01*
X111251528Y-105879149D01*
X111200992Y-106045745D01*
X111183928Y-106218999D01*
X111183928Y-106919001D01*
X111200992Y-107092255D01*
X111251528Y-107258851D01*
X111333595Y-107412387D01*
X111444038Y-107546962D01*
X111470891Y-107569000D01*
X111444038Y-107591038D01*
X111333595Y-107725613D01*
X111251528Y-107879149D01*
X111200992Y-108045745D01*
X111183928Y-108218999D01*
X111183928Y-108919001D01*
X111200992Y-109092255D01*
X111251528Y-109258851D01*
X111333595Y-109412387D01*
X111444038Y-109546962D01*
X111578613Y-109657405D01*
X111637000Y-109688614D01*
X111637001Y-109870210D01*
X111543495Y-109932688D01*
X111329688Y-110146495D01*
X111161701Y-110397905D01*
X111045989Y-110677257D01*
X110987000Y-110973816D01*
X110987000Y-111276184D01*
X111045989Y-111572743D01*
X111161701Y-111852095D01*
X111329688Y-112103505D01*
X111396127Y-112169944D01*
X111377820Y-112175498D01*
X111267506Y-112234463D01*
X111170815Y-112313815D01*
X111091463Y-112410506D01*
X111032498Y-112520820D01*
X110996188Y-112640518D01*
X110983928Y-112765000D01*
X110983928Y-114565000D01*
X110996188Y-114689482D01*
X111032498Y-114809180D01*
X111091463Y-114919494D01*
X111170815Y-115016185D01*
X111267506Y-115095537D01*
X111377820Y-115154502D01*
X111497518Y-115190812D01*
X111622000Y-115203072D01*
X113422000Y-115203072D01*
X113546482Y-115190812D01*
X113666180Y-115154502D01*
X113776494Y-115095537D01*
X113873185Y-115016185D01*
X113952537Y-114919494D01*
X114011502Y-114809180D01*
X114047812Y-114689482D01*
X114060072Y-114565000D01*
X114060072Y-112765000D01*
X121143928Y-112765000D01*
X121143928Y-114565000D01*
X121156188Y-114689482D01*
X121192498Y-114809180D01*
X121251463Y-114919494D01*
X121330815Y-115016185D01*
X121427506Y-115095537D01*
X121537820Y-115154502D01*
X121657518Y-115190812D01*
X121782000Y-115203072D01*
X123582000Y-115203072D01*
X123706482Y-115190812D01*
X123826180Y-115154502D01*
X123936494Y-115095537D01*
X124033185Y-115016185D01*
X124112537Y-114919494D01*
X124171502Y-114809180D01*
X124207812Y-114689482D01*
X124220072Y-114565000D01*
X124220072Y-112765000D01*
X124207812Y-112640518D01*
X124171502Y-112520820D01*
X124112537Y-112410506D01*
X124033185Y-112313815D01*
X123936494Y-112234463D01*
X123826180Y-112175498D01*
X123807873Y-112169944D01*
X123874312Y-112103505D01*
X124042299Y-111852095D01*
X124158011Y-111572743D01*
X124217000Y-111276184D01*
X124217000Y-110973816D01*
X124158011Y-110677257D01*
X124042299Y-110397905D01*
X123874312Y-110146495D01*
X123660505Y-109932688D01*
X123409095Y-109764701D01*
X123129743Y-109648989D01*
X122833184Y-109590000D01*
X122530816Y-109590000D01*
X122234257Y-109648989D01*
X121954905Y-109764701D01*
X121703495Y-109932688D01*
X121489688Y-110146495D01*
X121321701Y-110397905D01*
X121205989Y-110677257D01*
X121147000Y-110973816D01*
X121147000Y-111276184D01*
X121205989Y-111572743D01*
X121321701Y-111852095D01*
X121489688Y-112103505D01*
X121556127Y-112169944D01*
X121537820Y-112175498D01*
X121427506Y-112234463D01*
X121330815Y-112313815D01*
X121251463Y-112410506D01*
X121192498Y-112520820D01*
X121156188Y-112640518D01*
X121143928Y-112765000D01*
X114060072Y-112765000D01*
X114047812Y-112640518D01*
X114011502Y-112520820D01*
X113952537Y-112410506D01*
X113873185Y-112313815D01*
X113776494Y-112234463D01*
X113666180Y-112175498D01*
X113647873Y-112169944D01*
X113714312Y-112103505D01*
X113882299Y-111852095D01*
X113998011Y-111572743D01*
X114057000Y-111276184D01*
X114057000Y-110973816D01*
X113998011Y-110677257D01*
X113882299Y-110397905D01*
X113714312Y-110146495D01*
X113525707Y-109957890D01*
X115652524Y-109957890D01*
X115697175Y-110105099D01*
X115822359Y-110367920D01*
X115996412Y-110601269D01*
X116212645Y-110796178D01*
X116462748Y-110945157D01*
X116737109Y-111042481D01*
X116967000Y-110921814D01*
X116967000Y-109728000D01*
X117221000Y-109728000D01*
X117221000Y-110921814D01*
X117450891Y-111042481D01*
X117725252Y-110945157D01*
X117975355Y-110796178D01*
X118191588Y-110601269D01*
X118365641Y-110367920D01*
X118490825Y-110105099D01*
X118535476Y-109957890D01*
X118414155Y-109728000D01*
X117221000Y-109728000D01*
X116967000Y-109728000D01*
X115773845Y-109728000D01*
X115652524Y-109957890D01*
X113525707Y-109957890D01*
X113500505Y-109932688D01*
X113407000Y-109870210D01*
X113407000Y-109688614D01*
X113465387Y-109657405D01*
X113599962Y-109546962D01*
X113710405Y-109412387D01*
X113792472Y-109258851D01*
X113843008Y-109092255D01*
X113860072Y-108919001D01*
X113860072Y-108218999D01*
X113843008Y-108045745D01*
X113792472Y-107879149D01*
X113710405Y-107725613D01*
X113599962Y-107591038D01*
X113573109Y-107569000D01*
X113599962Y-107546962D01*
X113710405Y-107412387D01*
X113792472Y-107258851D01*
X113843008Y-107092255D01*
X113860072Y-106919001D01*
X113860072Y-106218999D01*
X113843008Y-106045745D01*
X113792472Y-105879149D01*
X113710405Y-105725613D01*
X113599962Y-105591038D01*
X113465387Y-105480595D01*
X113311851Y-105398528D01*
X113307000Y-105397056D01*
X113307000Y-103670552D01*
X113310797Y-103631999D01*
X113307000Y-103593446D01*
X113307000Y-103593439D01*
X113295641Y-103478113D01*
X113250754Y-103330140D01*
X113177862Y-103193767D01*
X113079764Y-103074236D01*
X113049816Y-103049658D01*
X112160000Y-102159843D01*
X112160000Y-102133061D01*
X112134328Y-102004000D01*
X112958843Y-102004000D01*
X114150000Y-103195157D01*
X114150001Y-104863437D01*
X114146203Y-104902000D01*
X114161359Y-105055886D01*
X114206246Y-105203859D01*
X114233305Y-105254482D01*
X114279139Y-105340233D01*
X114285507Y-105347992D01*
X114352655Y-105429812D01*
X114352659Y-105429816D01*
X114377237Y-105459764D01*
X114407185Y-105484342D01*
X115646925Y-106724082D01*
X115609000Y-106914740D01*
X115609000Y-107207260D01*
X115666068Y-107494158D01*
X115778010Y-107764411D01*
X115940525Y-108007632D01*
X116147368Y-108214475D01*
X116329534Y-108336195D01*
X116212645Y-108405822D01*
X115996412Y-108600731D01*
X115822359Y-108834080D01*
X115697175Y-109096901D01*
X115652524Y-109244110D01*
X115773845Y-109474000D01*
X116967000Y-109474000D01*
X116967000Y-109454000D01*
X117221000Y-109454000D01*
X117221000Y-109474000D01*
X118414155Y-109474000D01*
X118535476Y-109244110D01*
X118490825Y-109096901D01*
X118444610Y-108999872D01*
X135941000Y-108999872D01*
X135941000Y-109440128D01*
X136026890Y-109871925D01*
X136195369Y-110278669D01*
X136439962Y-110644729D01*
X136751271Y-110956038D01*
X137117331Y-111200631D01*
X137524075Y-111369110D01*
X137955872Y-111455000D01*
X138396128Y-111455000D01*
X138827925Y-111369110D01*
X139234669Y-111200631D01*
X139600729Y-110956038D01*
X139912038Y-110644729D01*
X140156631Y-110278669D01*
X140325110Y-109871925D01*
X140411000Y-109440128D01*
X140411000Y-108999872D01*
X140325110Y-108568075D01*
X140156631Y-108161331D01*
X139912038Y-107795271D01*
X139600729Y-107483962D01*
X139234669Y-107239369D01*
X138827925Y-107070890D01*
X138396128Y-106985000D01*
X137955872Y-106985000D01*
X137524075Y-107070890D01*
X137117331Y-107239369D01*
X136751271Y-107483962D01*
X136439962Y-107795271D01*
X136195369Y-108161331D01*
X136026890Y-108568075D01*
X135941000Y-108999872D01*
X118444610Y-108999872D01*
X118365641Y-108834080D01*
X118191588Y-108600731D01*
X117975355Y-108405822D01*
X117858466Y-108336195D01*
X118040632Y-108214475D01*
X118247475Y-108007632D01*
X118409990Y-107764411D01*
X118521932Y-107494158D01*
X118579000Y-107207260D01*
X118579000Y-106914740D01*
X118521932Y-106627842D01*
X118409990Y-106357589D01*
X118247475Y-106114368D01*
X118040632Y-105907525D01*
X117866240Y-105791000D01*
X118040632Y-105674475D01*
X118247475Y-105467632D01*
X118409990Y-105224411D01*
X118521932Y-104954158D01*
X118579000Y-104667260D01*
X118579000Y-104374740D01*
X118521932Y-104087842D01*
X118409990Y-103817589D01*
X118247475Y-103574368D01*
X118040632Y-103367525D01*
X117866240Y-103251000D01*
X118040632Y-103134475D01*
X118247475Y-102927632D01*
X118409990Y-102684411D01*
X118521932Y-102414158D01*
X118579000Y-102127260D01*
X118579000Y-101834740D01*
X118521932Y-101547842D01*
X118409990Y-101277589D01*
X118247475Y-101034368D01*
X118040632Y-100827525D01*
X117866240Y-100711000D01*
X118040632Y-100594475D01*
X118247475Y-100387632D01*
X118409990Y-100144411D01*
X118521932Y-99874158D01*
X118579000Y-99587260D01*
X118579000Y-99294740D01*
X118521932Y-99007842D01*
X118409990Y-98737589D01*
X118247475Y-98494368D01*
X118040632Y-98287525D01*
X117866240Y-98171000D01*
X118040632Y-98054475D01*
X118247475Y-97847632D01*
X118409990Y-97604411D01*
X118521932Y-97334158D01*
X118579000Y-97047260D01*
X118579000Y-96754740D01*
X118521932Y-96467842D01*
X118409990Y-96197589D01*
X118247475Y-95954368D01*
X118115620Y-95822513D01*
X118188180Y-95800502D01*
X118298494Y-95741537D01*
X118395185Y-95662185D01*
X118474537Y-95565494D01*
X118533502Y-95455180D01*
X118569812Y-95335482D01*
X118578625Y-95246000D01*
X122213375Y-95246000D01*
X122222188Y-95335482D01*
X122258498Y-95455180D01*
X122317463Y-95565494D01*
X122396815Y-95662185D01*
X122493506Y-95741537D01*
X122603820Y-95800502D01*
X122723518Y-95836812D01*
X122848000Y-95849072D01*
X123040001Y-95849072D01*
X123040000Y-101556289D01*
X123021063Y-101575226D01*
X122907795Y-101744744D01*
X122829774Y-101933102D01*
X122790000Y-102133061D01*
X122790000Y-102336939D01*
X122829774Y-102536898D01*
X122907795Y-102725256D01*
X123021063Y-102894774D01*
X123165226Y-103038937D01*
X123334744Y-103152205D01*
X123523102Y-103230226D01*
X123723061Y-103270000D01*
X123926939Y-103270000D01*
X124126898Y-103230226D01*
X124315256Y-103152205D01*
X124484774Y-103038937D01*
X124628937Y-102894774D01*
X124742205Y-102725256D01*
X124820226Y-102536898D01*
X124860000Y-102336939D01*
X124860000Y-102133061D01*
X124820226Y-101933102D01*
X124742205Y-101744744D01*
X124628937Y-101575226D01*
X124610000Y-101556289D01*
X124610000Y-95842966D01*
X124672482Y-95836812D01*
X124792180Y-95800502D01*
X124902494Y-95741537D01*
X124999185Y-95662185D01*
X125078537Y-95565494D01*
X125137502Y-95455180D01*
X125173812Y-95335482D01*
X125186072Y-95211000D01*
X125186072Y-93511000D01*
X125173812Y-93386518D01*
X125137502Y-93266820D01*
X125078537Y-93156506D01*
X124999185Y-93059815D01*
X124902494Y-92980463D01*
X124792180Y-92921498D01*
X124719620Y-92899487D01*
X124851475Y-92767632D01*
X124912304Y-92676595D01*
X124990590Y-92823059D01*
X125073468Y-92924046D01*
X125073471Y-92924049D01*
X125101184Y-92957817D01*
X125134951Y-92985529D01*
X126273928Y-94124507D01*
X126273928Y-95211000D01*
X126286188Y-95335482D01*
X126322498Y-95455180D01*
X126381463Y-95565494D01*
X126460815Y-95662185D01*
X126557506Y-95741537D01*
X126667820Y-95800502D01*
X126787518Y-95836812D01*
X126912000Y-95849072D01*
X128612000Y-95849072D01*
X128736482Y-95836812D01*
X128856180Y-95800502D01*
X128966494Y-95741537D01*
X129063185Y-95662185D01*
X129142537Y-95565494D01*
X129201502Y-95455180D01*
X129237812Y-95335482D01*
X129246625Y-95246000D01*
X130766531Y-95246000D01*
X130810000Y-95250281D01*
X130853469Y-95246000D01*
X130853477Y-95246000D01*
X130983490Y-95233195D01*
X131150313Y-95182589D01*
X131304059Y-95100411D01*
X131438817Y-94989817D01*
X131466534Y-94956044D01*
X132421050Y-94001529D01*
X132454817Y-93973817D01*
X132490584Y-93930236D01*
X132565410Y-93839060D01*
X132565411Y-93839059D01*
X132647589Y-93685313D01*
X132694936Y-93529233D01*
X132698195Y-93518491D01*
X132702380Y-93476000D01*
X132711000Y-93388477D01*
X132711000Y-93388469D01*
X132715281Y-93345000D01*
X132711000Y-93301531D01*
X132711000Y-92797625D01*
X132800482Y-92788812D01*
X132920180Y-92752502D01*
X133030494Y-92693537D01*
X133127185Y-92614185D01*
X133206537Y-92517494D01*
X133265502Y-92407180D01*
X133301812Y-92287482D01*
X133310625Y-92198000D01*
X134405375Y-92198000D01*
X134414188Y-92287482D01*
X134450498Y-92407180D01*
X134509463Y-92517494D01*
X134588815Y-92614185D01*
X134685506Y-92693537D01*
X134795820Y-92752502D01*
X134915518Y-92788812D01*
X135040000Y-92801072D01*
X136740000Y-92801072D01*
X136864482Y-92788812D01*
X136984180Y-92752502D01*
X137094494Y-92693537D01*
X137191185Y-92614185D01*
X137270537Y-92517494D01*
X137329502Y-92407180D01*
X137365812Y-92287482D01*
X137374625Y-92198000D01*
X138469375Y-92198000D01*
X138478188Y-92287482D01*
X138514498Y-92407180D01*
X138573463Y-92517494D01*
X138652815Y-92614185D01*
X138749506Y-92693537D01*
X138859820Y-92752502D01*
X138979518Y-92788812D01*
X139104000Y-92801072D01*
X140804000Y-92801072D01*
X140928482Y-92788812D01*
X141048180Y-92752502D01*
X141158494Y-92693537D01*
X141255185Y-92614185D01*
X141334537Y-92517494D01*
X141393502Y-92407180D01*
X141429812Y-92287482D01*
X141442072Y-92163000D01*
X141442072Y-90463000D01*
X141429812Y-90338518D01*
X141393502Y-90218820D01*
X141334537Y-90108506D01*
X141255185Y-90011815D01*
X141158494Y-89932463D01*
X141048180Y-89873498D01*
X140975620Y-89851487D01*
X141107475Y-89719632D01*
X141269990Y-89476411D01*
X141381932Y-89206158D01*
X141439000Y-88919260D01*
X141439000Y-88626740D01*
X141381932Y-88339842D01*
X141269990Y-88069589D01*
X141107475Y-87826368D01*
X140900632Y-87619525D01*
X140718466Y-87497805D01*
X140835355Y-87428178D01*
X141051588Y-87233269D01*
X141225641Y-86999920D01*
X141350825Y-86737099D01*
X141395476Y-86589890D01*
X141274155Y-86360000D01*
X140081000Y-86360000D01*
X140081000Y-86380000D01*
X139827000Y-86380000D01*
X139827000Y-86360000D01*
X138633845Y-86360000D01*
X138512524Y-86589890D01*
X138557175Y-86737099D01*
X138682359Y-86999920D01*
X138856412Y-87233269D01*
X139072645Y-87428178D01*
X139189534Y-87497805D01*
X139007368Y-87619525D01*
X138800525Y-87826368D01*
X138638010Y-88069589D01*
X138526068Y-88339842D01*
X138469000Y-88626740D01*
X138469000Y-88919260D01*
X138526068Y-89206158D01*
X138638010Y-89476411D01*
X138800525Y-89719632D01*
X138932380Y-89851487D01*
X138859820Y-89873498D01*
X138749506Y-89932463D01*
X138652815Y-90011815D01*
X138573463Y-90108506D01*
X138514498Y-90218820D01*
X138478188Y-90338518D01*
X138469375Y-90428000D01*
X137374625Y-90428000D01*
X137365812Y-90338518D01*
X137329502Y-90218820D01*
X137270537Y-90108506D01*
X137191185Y-90011815D01*
X137094494Y-89932463D01*
X136984180Y-89873498D01*
X136911620Y-89851487D01*
X137043475Y-89719632D01*
X137205990Y-89476411D01*
X137317932Y-89206158D01*
X137375000Y-88919260D01*
X137375000Y-88626740D01*
X137317932Y-88339842D01*
X137205990Y-88069589D01*
X137043475Y-87826368D01*
X136836632Y-87619525D01*
X136654466Y-87497805D01*
X136771355Y-87428178D01*
X136987588Y-87233269D01*
X137161641Y-86999920D01*
X137286825Y-86737099D01*
X137331476Y-86589890D01*
X137210155Y-86360000D01*
X136017000Y-86360000D01*
X136017000Y-86380000D01*
X135763000Y-86380000D01*
X135763000Y-86360000D01*
X134569845Y-86360000D01*
X134448524Y-86589890D01*
X134493175Y-86737099D01*
X134618359Y-86999920D01*
X134792412Y-87233269D01*
X135008645Y-87428178D01*
X135125534Y-87497805D01*
X134943368Y-87619525D01*
X134736525Y-87826368D01*
X134574010Y-88069589D01*
X134462068Y-88339842D01*
X134405000Y-88626740D01*
X134405000Y-88919260D01*
X134462068Y-89206158D01*
X134574010Y-89476411D01*
X134736525Y-89719632D01*
X134868380Y-89851487D01*
X134795820Y-89873498D01*
X134685506Y-89932463D01*
X134588815Y-90011815D01*
X134509463Y-90108506D01*
X134450498Y-90218820D01*
X134414188Y-90338518D01*
X134405375Y-90428000D01*
X133310625Y-90428000D01*
X133301812Y-90338518D01*
X133265502Y-90218820D01*
X133206537Y-90108506D01*
X133127185Y-90011815D01*
X133030494Y-89932463D01*
X132920180Y-89873498D01*
X132847620Y-89851487D01*
X132979475Y-89719632D01*
X133141990Y-89476411D01*
X133253932Y-89206158D01*
X133311000Y-88919260D01*
X133311000Y-88626740D01*
X133253932Y-88339842D01*
X133141990Y-88069589D01*
X132979475Y-87826368D01*
X132772632Y-87619525D01*
X132590466Y-87497805D01*
X132707355Y-87428178D01*
X132923588Y-87233269D01*
X133097641Y-86999920D01*
X133222825Y-86737099D01*
X133267476Y-86589890D01*
X133146155Y-86360000D01*
X131953000Y-86360000D01*
X131953000Y-86380000D01*
X131699000Y-86380000D01*
X131699000Y-86360000D01*
X130505845Y-86360000D01*
X130384524Y-86589890D01*
X130429175Y-86737099D01*
X130554359Y-86999920D01*
X130728412Y-87233269D01*
X130944645Y-87428178D01*
X131061534Y-87497805D01*
X130879368Y-87619525D01*
X130672525Y-87826368D01*
X130510010Y-88069589D01*
X130398068Y-88339842D01*
X130341000Y-88626740D01*
X130341000Y-88919260D01*
X130398068Y-89206158D01*
X130510010Y-89476411D01*
X130672525Y-89719632D01*
X130804380Y-89851487D01*
X130731820Y-89873498D01*
X130621506Y-89932463D01*
X130524815Y-90011815D01*
X130445463Y-90108506D01*
X130386498Y-90218820D01*
X130350188Y-90338518D01*
X130337928Y-90463000D01*
X130337928Y-92163000D01*
X130350188Y-92287482D01*
X130386498Y-92407180D01*
X130445463Y-92517494D01*
X130524815Y-92614185D01*
X130621506Y-92693537D01*
X130731820Y-92752502D01*
X130851518Y-92788812D01*
X130941000Y-92797625D01*
X130941000Y-92978421D01*
X130443422Y-93476000D01*
X129246625Y-93476000D01*
X129237812Y-93386518D01*
X129201502Y-93266820D01*
X129142537Y-93156506D01*
X129063185Y-93059815D01*
X128966494Y-92980463D01*
X128856180Y-92921498D01*
X128783620Y-92899487D01*
X128915475Y-92767632D01*
X129077990Y-92524411D01*
X129189932Y-92254158D01*
X129247000Y-91967260D01*
X129247000Y-91674740D01*
X129189932Y-91387842D01*
X129077990Y-91117589D01*
X128915475Y-90874368D01*
X128708632Y-90667525D01*
X128526466Y-90545805D01*
X128643355Y-90476178D01*
X128859588Y-90281269D01*
X129033641Y-90047920D01*
X129158825Y-89785099D01*
X129203476Y-89637890D01*
X129082155Y-89408000D01*
X127889000Y-89408000D01*
X127889000Y-89428000D01*
X127635000Y-89428000D01*
X127635000Y-89408000D01*
X127615000Y-89408000D01*
X127615000Y-89154000D01*
X127635000Y-89154000D01*
X127635000Y-87960186D01*
X127889000Y-87960186D01*
X127889000Y-89154000D01*
X129082155Y-89154000D01*
X129203476Y-88924110D01*
X129158825Y-88776901D01*
X129033641Y-88514080D01*
X128859588Y-88280731D01*
X128643355Y-88085822D01*
X128393252Y-87936843D01*
X128118891Y-87839519D01*
X127889000Y-87960186D01*
X127635000Y-87960186D01*
X127405109Y-87839519D01*
X127130748Y-87936843D01*
X126880645Y-88085822D01*
X126664412Y-88280731D01*
X126615000Y-88346977D01*
X126615000Y-87800465D01*
X126619281Y-87756999D01*
X126615000Y-87713533D01*
X126615000Y-87713523D01*
X126602195Y-87583510D01*
X126551589Y-87416687D01*
X126469411Y-87262941D01*
X126358817Y-87128183D01*
X126325045Y-87100467D01*
X125878534Y-86653956D01*
X125850817Y-86620183D01*
X125716059Y-86509589D01*
X125562313Y-86427411D01*
X125395490Y-86376805D01*
X125265477Y-86364000D01*
X125265469Y-86364000D01*
X125222000Y-86359719D01*
X125178531Y-86364000D01*
X118426570Y-86364000D01*
X118490825Y-86229099D01*
X118535476Y-86081890D01*
X118426879Y-85876110D01*
X130384524Y-85876110D01*
X130505845Y-86106000D01*
X131699000Y-86106000D01*
X131699000Y-84912186D01*
X131953000Y-84912186D01*
X131953000Y-86106000D01*
X133146155Y-86106000D01*
X133267476Y-85876110D01*
X134448524Y-85876110D01*
X134569845Y-86106000D01*
X135763000Y-86106000D01*
X135763000Y-84912186D01*
X136017000Y-84912186D01*
X136017000Y-86106000D01*
X137210155Y-86106000D01*
X137331476Y-85876110D01*
X138512524Y-85876110D01*
X138633845Y-86106000D01*
X139827000Y-86106000D01*
X139827000Y-84912186D01*
X140081000Y-84912186D01*
X140081000Y-86106000D01*
X141274155Y-86106000D01*
X141395476Y-85876110D01*
X141350825Y-85728901D01*
X141225641Y-85466080D01*
X141051588Y-85232731D01*
X140835355Y-85037822D01*
X140585252Y-84888843D01*
X140310891Y-84791519D01*
X140081000Y-84912186D01*
X139827000Y-84912186D01*
X139597109Y-84791519D01*
X139322748Y-84888843D01*
X139072645Y-85037822D01*
X138856412Y-85232731D01*
X138682359Y-85466080D01*
X138557175Y-85728901D01*
X138512524Y-85876110D01*
X137331476Y-85876110D01*
X137286825Y-85728901D01*
X137161641Y-85466080D01*
X136987588Y-85232731D01*
X136771355Y-85037822D01*
X136521252Y-84888843D01*
X136246891Y-84791519D01*
X136017000Y-84912186D01*
X135763000Y-84912186D01*
X135533109Y-84791519D01*
X135258748Y-84888843D01*
X135008645Y-85037822D01*
X134792412Y-85232731D01*
X134618359Y-85466080D01*
X134493175Y-85728901D01*
X134448524Y-85876110D01*
X133267476Y-85876110D01*
X133222825Y-85728901D01*
X133097641Y-85466080D01*
X132923588Y-85232731D01*
X132707355Y-85037822D01*
X132457252Y-84888843D01*
X132182891Y-84791519D01*
X131953000Y-84912186D01*
X131699000Y-84912186D01*
X131469109Y-84791519D01*
X131194748Y-84888843D01*
X130944645Y-85037822D01*
X130728412Y-85232731D01*
X130554359Y-85466080D01*
X130429175Y-85728901D01*
X130384524Y-85876110D01*
X118426879Y-85876110D01*
X118414155Y-85852000D01*
X117221000Y-85852000D01*
X117221000Y-85872000D01*
X116967000Y-85872000D01*
X116967000Y-85852000D01*
X115773845Y-85852000D01*
X115652524Y-86081890D01*
X115697175Y-86229099D01*
X115822359Y-86491920D01*
X115996412Y-86725269D01*
X116080466Y-86801034D01*
X115999820Y-86825498D01*
X115889506Y-86884463D01*
X115792815Y-86963815D01*
X115713463Y-87060506D01*
X115654498Y-87170820D01*
X115618188Y-87290518D01*
X115605928Y-87415000D01*
X115605928Y-89115000D01*
X115618188Y-89239482D01*
X115654498Y-89359180D01*
X115713463Y-89469494D01*
X115792815Y-89566185D01*
X115889506Y-89645537D01*
X115999820Y-89704502D01*
X116119518Y-89740812D01*
X116244000Y-89753072D01*
X117944000Y-89753072D01*
X118068482Y-89740812D01*
X118188180Y-89704502D01*
X118298494Y-89645537D01*
X118395185Y-89566185D01*
X118474537Y-89469494D01*
X118533502Y-89359180D01*
X118569812Y-89239482D01*
X118582072Y-89115000D01*
X118582072Y-88134000D01*
X122763196Y-88134000D01*
X122600412Y-88280731D01*
X122426359Y-88514080D01*
X122301175Y-88776901D01*
X122256524Y-88924110D01*
X122377845Y-89154000D01*
X123571000Y-89154000D01*
X123571000Y-89134000D01*
X123825000Y-89134000D01*
X123825000Y-89154000D01*
X123845000Y-89154000D01*
X123845000Y-89408000D01*
X123825000Y-89408000D01*
X123825000Y-89428000D01*
X123571000Y-89428000D01*
X123571000Y-89408000D01*
X122377845Y-89408000D01*
X122256524Y-89637890D01*
X122301175Y-89785099D01*
X122426359Y-90047920D01*
X122600412Y-90281269D01*
X122816645Y-90476178D01*
X122933534Y-90545805D01*
X122751368Y-90667525D01*
X122544525Y-90874368D01*
X122382010Y-91117589D01*
X122270068Y-91387842D01*
X122213000Y-91674740D01*
X122213000Y-91967260D01*
X122270068Y-92254158D01*
X122382010Y-92524411D01*
X122544525Y-92767632D01*
X122676380Y-92899487D01*
X122603820Y-92921498D01*
X122493506Y-92980463D01*
X122396815Y-93059815D01*
X122317463Y-93156506D01*
X122258498Y-93266820D01*
X122222188Y-93386518D01*
X122213375Y-93476000D01*
X118578625Y-93476000D01*
X118569812Y-93386518D01*
X118533502Y-93266820D01*
X118474537Y-93156506D01*
X118395185Y-93059815D01*
X118298494Y-92980463D01*
X118188180Y-92921498D01*
X118068482Y-92885188D01*
X117944000Y-92872928D01*
X116244000Y-92872928D01*
X116119518Y-92885188D01*
X115999820Y-92921498D01*
X115889506Y-92980463D01*
X115792815Y-93059815D01*
X115713463Y-93156506D01*
X115654498Y-93266820D01*
X115618188Y-93386518D01*
X115605928Y-93511000D01*
X115605928Y-95211000D01*
X115618188Y-95335482D01*
X115654498Y-95455180D01*
X115713463Y-95565494D01*
X115792815Y-95662185D01*
X115889506Y-95741537D01*
X115999820Y-95800502D01*
X116072380Y-95822513D01*
X115940525Y-95954368D01*
X115778010Y-96197589D01*
X115666068Y-96467842D01*
X115609000Y-96754740D01*
X115609000Y-97047260D01*
X115646925Y-97237918D01*
X114990843Y-97894000D01*
X111955072Y-97894000D01*
X111955072Y-97328999D01*
X111938008Y-97155745D01*
X111887472Y-96989149D01*
X111805405Y-96835613D01*
X111694962Y-96701038D01*
X111560387Y-96590595D01*
X111406851Y-96508528D01*
X111402000Y-96507056D01*
X111402000Y-95849072D01*
X112483000Y-95849072D01*
X112607482Y-95836812D01*
X112727180Y-95800502D01*
X112837494Y-95741537D01*
X112934185Y-95662185D01*
X113013537Y-95565494D01*
X113072502Y-95455180D01*
X113108812Y-95335482D01*
X113121072Y-95211000D01*
X113121072Y-93511000D01*
X113108812Y-93386518D01*
X113072502Y-93266820D01*
X113013537Y-93156506D01*
X112934185Y-93059815D01*
X112837494Y-92980463D01*
X112727180Y-92921498D01*
X112654620Y-92899487D01*
X112786475Y-92767632D01*
X112948990Y-92524411D01*
X113060932Y-92254158D01*
X113118000Y-91967260D01*
X113118000Y-91674740D01*
X113060932Y-91387842D01*
X112948990Y-91117589D01*
X112786475Y-90874368D01*
X112579632Y-90667525D01*
X112397466Y-90545805D01*
X112514355Y-90476178D01*
X112730588Y-90281269D01*
X112904641Y-90047920D01*
X113029825Y-89785099D01*
X113074476Y-89637890D01*
X112953155Y-89408000D01*
X111760000Y-89408000D01*
X111760000Y-89428000D01*
X111506000Y-89428000D01*
X111506000Y-89408000D01*
X110312845Y-89408000D01*
X110191524Y-89637890D01*
X110236175Y-89785099D01*
X110361359Y-90047920D01*
X110535412Y-90281269D01*
X110751645Y-90476178D01*
X110868534Y-90545805D01*
X110686368Y-90667525D01*
X110479525Y-90874368D01*
X110317010Y-91117589D01*
X110205068Y-91387842D01*
X110148000Y-91674740D01*
X110148000Y-91967260D01*
X110185924Y-92157918D01*
X109024450Y-93319393D01*
X109008502Y-93266820D01*
X108949537Y-93156506D01*
X108870185Y-93059815D01*
X108773494Y-92980463D01*
X108663180Y-92921498D01*
X108590620Y-92899487D01*
X108722475Y-92767632D01*
X108884990Y-92524411D01*
X108996932Y-92254158D01*
X109054000Y-91967260D01*
X109054000Y-91674740D01*
X108996932Y-91387842D01*
X108884990Y-91117589D01*
X108722475Y-90874368D01*
X108515632Y-90667525D01*
X108333466Y-90545805D01*
X108450355Y-90476178D01*
X108666588Y-90281269D01*
X108840641Y-90047920D01*
X108965825Y-89785099D01*
X109010476Y-89637890D01*
X108889155Y-89408000D01*
X107696000Y-89408000D01*
X107696000Y-89428000D01*
X107442000Y-89428000D01*
X107442000Y-89408000D01*
X106248845Y-89408000D01*
X106127524Y-89637890D01*
X106172175Y-89785099D01*
X106297359Y-90047920D01*
X106471412Y-90281269D01*
X106687645Y-90476178D01*
X106804534Y-90545805D01*
X106622368Y-90667525D01*
X106415525Y-90874368D01*
X106253010Y-91117589D01*
X106141068Y-91387842D01*
X106084000Y-91674740D01*
X106084000Y-91967260D01*
X106121925Y-92157918D01*
X105814000Y-92465843D01*
X105814000Y-91097555D01*
X105817797Y-91059000D01*
X105814000Y-91020444D01*
X105814000Y-91020439D01*
X105809297Y-90972687D01*
X105802642Y-90905113D01*
X105757754Y-90757140D01*
X105751485Y-90745411D01*
X105684862Y-90620767D01*
X105586764Y-90501236D01*
X105556816Y-90476658D01*
X104444075Y-89363918D01*
X104482000Y-89173260D01*
X104482000Y-88924110D01*
X106127524Y-88924110D01*
X106248845Y-89154000D01*
X107442000Y-89154000D01*
X107442000Y-87960186D01*
X107696000Y-87960186D01*
X107696000Y-89154000D01*
X108889155Y-89154000D01*
X109010476Y-88924110D01*
X110191524Y-88924110D01*
X110312845Y-89154000D01*
X111506000Y-89154000D01*
X111506000Y-87960186D01*
X111760000Y-87960186D01*
X111760000Y-89154000D01*
X112953155Y-89154000D01*
X113074476Y-88924110D01*
X113029825Y-88776901D01*
X112904641Y-88514080D01*
X112730588Y-88280731D01*
X112514355Y-88085822D01*
X112264252Y-87936843D01*
X111989891Y-87839519D01*
X111760000Y-87960186D01*
X111506000Y-87960186D01*
X111276109Y-87839519D01*
X111001748Y-87936843D01*
X110751645Y-88085822D01*
X110535412Y-88280731D01*
X110361359Y-88514080D01*
X110236175Y-88776901D01*
X110191524Y-88924110D01*
X109010476Y-88924110D01*
X108965825Y-88776901D01*
X108840641Y-88514080D01*
X108666588Y-88280731D01*
X108450355Y-88085822D01*
X108200252Y-87936843D01*
X107925891Y-87839519D01*
X107696000Y-87960186D01*
X107442000Y-87960186D01*
X107212109Y-87839519D01*
X106937748Y-87936843D01*
X106687645Y-88085822D01*
X106471412Y-88280731D01*
X106297359Y-88514080D01*
X106172175Y-88776901D01*
X106127524Y-88924110D01*
X104482000Y-88924110D01*
X104482000Y-88880740D01*
X104424932Y-88593842D01*
X104312990Y-88323589D01*
X104150475Y-88080368D01*
X103943632Y-87873525D01*
X103761466Y-87751805D01*
X103878355Y-87682178D01*
X104094588Y-87487269D01*
X104268641Y-87253920D01*
X104393825Y-86991099D01*
X104438476Y-86843890D01*
X104317155Y-86614000D01*
X103124000Y-86614000D01*
X103124000Y-86634000D01*
X102870000Y-86634000D01*
X102870000Y-86614000D01*
X101676845Y-86614000D01*
X101555524Y-86843890D01*
X101600175Y-86991099D01*
X101725359Y-87253920D01*
X101899412Y-87487269D01*
X102115645Y-87682178D01*
X102232534Y-87751805D01*
X102050368Y-87873525D01*
X101843525Y-88080368D01*
X101681010Y-88323589D01*
X101569068Y-88593842D01*
X101512000Y-88880740D01*
X101512000Y-89173260D01*
X101569068Y-89460158D01*
X101681010Y-89730411D01*
X101843525Y-89973632D01*
X101975380Y-90105487D01*
X101902820Y-90127498D01*
X101792506Y-90186463D01*
X101695815Y-90265815D01*
X101616463Y-90362506D01*
X101557498Y-90472820D01*
X101541831Y-90524468D01*
X101522764Y-90501236D01*
X101492816Y-90476658D01*
X100380075Y-89363918D01*
X100418000Y-89173260D01*
X100418000Y-88880740D01*
X100360932Y-88593842D01*
X100248990Y-88323589D01*
X100086475Y-88080368D01*
X99879632Y-87873525D01*
X99697466Y-87751805D01*
X99814355Y-87682178D01*
X100030588Y-87487269D01*
X100204641Y-87253920D01*
X100329825Y-86991099D01*
X100374476Y-86843890D01*
X100253155Y-86614000D01*
X99060000Y-86614000D01*
X99060000Y-86634000D01*
X98806000Y-86634000D01*
X98806000Y-86614000D01*
X97612845Y-86614000D01*
X97491524Y-86843890D01*
X97536175Y-86991099D01*
X97661359Y-87253920D01*
X97835412Y-87487269D01*
X98051645Y-87682178D01*
X98168534Y-87751805D01*
X97986368Y-87873525D01*
X97779525Y-88080368D01*
X97617010Y-88323589D01*
X97505068Y-88593842D01*
X97448000Y-88880740D01*
X97448000Y-89173260D01*
X97505068Y-89460158D01*
X97617010Y-89730411D01*
X97779525Y-89973632D01*
X97911380Y-90105487D01*
X97838820Y-90127498D01*
X97728506Y-90186463D01*
X97631815Y-90265815D01*
X97552463Y-90362506D01*
X97493498Y-90472820D01*
X97477831Y-90524468D01*
X97458764Y-90501236D01*
X97428816Y-90476658D01*
X96316075Y-89363918D01*
X96354000Y-89173260D01*
X96354000Y-88880740D01*
X96296932Y-88593842D01*
X96184990Y-88323589D01*
X96022475Y-88080368D01*
X95815632Y-87873525D01*
X95633466Y-87751805D01*
X95750355Y-87682178D01*
X95966588Y-87487269D01*
X96140641Y-87253920D01*
X96265825Y-86991099D01*
X96310476Y-86843890D01*
X96189155Y-86614000D01*
X94996000Y-86614000D01*
X94996000Y-86634000D01*
X94742000Y-86634000D01*
X94742000Y-86614000D01*
X93548845Y-86614000D01*
X93427524Y-86843890D01*
X93472175Y-86991099D01*
X93597359Y-87253920D01*
X93771412Y-87487269D01*
X93987645Y-87682178D01*
X94104534Y-87751805D01*
X93922368Y-87873525D01*
X93715525Y-88080368D01*
X93553010Y-88323589D01*
X93441068Y-88593842D01*
X93384000Y-88880740D01*
X93384000Y-89173260D01*
X93441068Y-89460158D01*
X93553010Y-89730411D01*
X93715525Y-89973632D01*
X93847380Y-90105487D01*
X93774820Y-90127498D01*
X93664506Y-90186463D01*
X93567815Y-90265815D01*
X93488463Y-90362506D01*
X93429498Y-90472820D01*
X93393188Y-90592518D01*
X93380928Y-90717000D01*
X92887000Y-90717000D01*
X92887000Y-86130110D01*
X93427524Y-86130110D01*
X93548845Y-86360000D01*
X94742000Y-86360000D01*
X94742000Y-85166186D01*
X94996000Y-85166186D01*
X94996000Y-86360000D01*
X96189155Y-86360000D01*
X96310476Y-86130110D01*
X97491524Y-86130110D01*
X97612845Y-86360000D01*
X98806000Y-86360000D01*
X98806000Y-85166186D01*
X99060000Y-85166186D01*
X99060000Y-86360000D01*
X100253155Y-86360000D01*
X100374476Y-86130110D01*
X101555524Y-86130110D01*
X101676845Y-86360000D01*
X102870000Y-86360000D01*
X102870000Y-85166186D01*
X103124000Y-85166186D01*
X103124000Y-86360000D01*
X104317155Y-86360000D01*
X104438476Y-86130110D01*
X104393825Y-85982901D01*
X104268641Y-85720080D01*
X104094588Y-85486731D01*
X103962990Y-85368110D01*
X115652524Y-85368110D01*
X115773845Y-85598000D01*
X116967000Y-85598000D01*
X116967000Y-84404186D01*
X117221000Y-84404186D01*
X117221000Y-85598000D01*
X118414155Y-85598000D01*
X118535476Y-85368110D01*
X118490825Y-85220901D01*
X118365641Y-84958080D01*
X118191588Y-84724731D01*
X117975355Y-84529822D01*
X117725252Y-84380843D01*
X117450891Y-84283519D01*
X117221000Y-84404186D01*
X116967000Y-84404186D01*
X116737109Y-84283519D01*
X116462748Y-84380843D01*
X116212645Y-84529822D01*
X115996412Y-84724731D01*
X115822359Y-84958080D01*
X115697175Y-85220901D01*
X115652524Y-85368110D01*
X103962990Y-85368110D01*
X103878355Y-85291822D01*
X103628252Y-85142843D01*
X103353891Y-85045519D01*
X103124000Y-85166186D01*
X102870000Y-85166186D01*
X102640109Y-85045519D01*
X102365748Y-85142843D01*
X102115645Y-85291822D01*
X101899412Y-85486731D01*
X101725359Y-85720080D01*
X101600175Y-85982901D01*
X101555524Y-86130110D01*
X100374476Y-86130110D01*
X100329825Y-85982901D01*
X100204641Y-85720080D01*
X100030588Y-85486731D01*
X99814355Y-85291822D01*
X99564252Y-85142843D01*
X99289891Y-85045519D01*
X99060000Y-85166186D01*
X98806000Y-85166186D01*
X98576109Y-85045519D01*
X98301748Y-85142843D01*
X98051645Y-85291822D01*
X97835412Y-85486731D01*
X97661359Y-85720080D01*
X97536175Y-85982901D01*
X97491524Y-86130110D01*
X96310476Y-86130110D01*
X96265825Y-85982901D01*
X96140641Y-85720080D01*
X95966588Y-85486731D01*
X95750355Y-85291822D01*
X95500252Y-85142843D01*
X95225891Y-85045519D01*
X94996000Y-85166186D01*
X94742000Y-85166186D01*
X94512109Y-85045519D01*
X94237748Y-85142843D01*
X93987645Y-85291822D01*
X93771412Y-85486731D01*
X93597359Y-85720080D01*
X93472175Y-85982901D01*
X93427524Y-86130110D01*
X92887000Y-86130110D01*
X92887000Y-83362000D01*
X142113000Y-83362000D01*
X142113000Y-170688000D01*
%TA.AperFunction,Conductor*%
D22*
G36*
X142113000Y-170688000D02*
G01*
X92887000Y-170688000D01*
X92887000Y-166778409D01*
X97308000Y-166778409D01*
X97308000Y-167223591D01*
X97394851Y-167660218D01*
X97565214Y-168071511D01*
X97812544Y-168441666D01*
X98127334Y-168756456D01*
X98497489Y-169003786D01*
X98908782Y-169174149D01*
X99345409Y-169261000D01*
X99790591Y-169261000D01*
X100227218Y-169174149D01*
X100638511Y-169003786D01*
X101008666Y-168756456D01*
X101226178Y-168538944D01*
X101213000Y-168605193D01*
X101213000Y-168956807D01*
X101281596Y-169301665D01*
X101416153Y-169626515D01*
X101611500Y-169918871D01*
X101860129Y-170167500D01*
X102152485Y-170362847D01*
X102477335Y-170497404D01*
X102822193Y-170566000D01*
X103173807Y-170566000D01*
X103518665Y-170497404D01*
X103843515Y-170362847D01*
X104135871Y-170167500D01*
X104384500Y-169918871D01*
X104579847Y-169626515D01*
X104714404Y-169301665D01*
X104783000Y-168956807D01*
X104783000Y-168605193D01*
X104759330Y-168486193D01*
X130167000Y-168486193D01*
X130167000Y-168837807D01*
X130235596Y-169182665D01*
X130370153Y-169507515D01*
X130565500Y-169799871D01*
X130814129Y-170048500D01*
X131106485Y-170243847D01*
X131431335Y-170378404D01*
X131776193Y-170447000D01*
X132127807Y-170447000D01*
X132472665Y-170378404D01*
X132797515Y-170243847D01*
X133089871Y-170048500D01*
X133338500Y-169799871D01*
X133533847Y-169507515D01*
X133668404Y-169182665D01*
X133737000Y-168837807D01*
X133737000Y-168486193D01*
X133723822Y-168419944D01*
X133941334Y-168637456D01*
X134311489Y-168884786D01*
X134722782Y-169055149D01*
X135159409Y-169142000D01*
X135604591Y-169142000D01*
X136041218Y-169055149D01*
X136452511Y-168884786D01*
X136822666Y-168637456D01*
X137137456Y-168322666D01*
X137384786Y-167952511D01*
X137555149Y-167541218D01*
X137642000Y-167104591D01*
X137642000Y-166659409D01*
X137555149Y-166222782D01*
X137384786Y-165811489D01*
X137137456Y-165441334D01*
X136822666Y-165126544D01*
X136452511Y-164879214D01*
X136041218Y-164708851D01*
X135604591Y-164622000D01*
X135159409Y-164622000D01*
X134722782Y-164708851D01*
X134311489Y-164879214D01*
X133941334Y-165126544D01*
X133626544Y-165441334D01*
X133379214Y-165811489D01*
X133208851Y-166222782D01*
X133122000Y-166659409D01*
X133122000Y-167104591D01*
X133172415Y-167358044D01*
X133089871Y-167275500D01*
X132797515Y-167080153D01*
X132472665Y-166945596D01*
X132127807Y-166877000D01*
X131776193Y-166877000D01*
X131431335Y-166945596D01*
X131106485Y-167080153D01*
X130814129Y-167275500D01*
X130565500Y-167524129D01*
X130370153Y-167816485D01*
X130235596Y-168141335D01*
X130167000Y-168486193D01*
X104759330Y-168486193D01*
X104714404Y-168260335D01*
X104579847Y-167935485D01*
X104384500Y-167643129D01*
X104135871Y-167394500D01*
X103843515Y-167199153D01*
X103518665Y-167064596D01*
X103173807Y-166996000D01*
X102822193Y-166996000D01*
X102477335Y-167064596D01*
X102152485Y-167199153D01*
X101860129Y-167394500D01*
X101777585Y-167477044D01*
X101828000Y-167223591D01*
X101828000Y-166778409D01*
X101741149Y-166341782D01*
X101570786Y-165930489D01*
X101348730Y-165598159D01*
X101358000Y-165599072D01*
X102858000Y-165599072D01*
X102982482Y-165586812D01*
X103102180Y-165550502D01*
X103212494Y-165491537D01*
X103309185Y-165412185D01*
X103388537Y-165315494D01*
X103447502Y-165205180D01*
X103483812Y-165085482D01*
X103496072Y-164961000D01*
X103496072Y-164529174D01*
X103751589Y-164580000D01*
X104024411Y-164580000D01*
X104291989Y-164526775D01*
X104544043Y-164422371D01*
X104770886Y-164270799D01*
X104963799Y-164077886D01*
X105115371Y-163851043D01*
X105219775Y-163598989D01*
X105273000Y-163331411D01*
X105273000Y-163058589D01*
X105219775Y-162791011D01*
X105115371Y-162538957D01*
X104963799Y-162312114D01*
X104830685Y-162179000D01*
X104963799Y-162045886D01*
X105115371Y-161819043D01*
X105219775Y-161566989D01*
X105273000Y-161299411D01*
X105273000Y-161026589D01*
X105219775Y-160759011D01*
X105115371Y-160506957D01*
X104963799Y-160280114D01*
X104830685Y-160147000D01*
X104963799Y-160013886D01*
X105115371Y-159787043D01*
X105219775Y-159534989D01*
X105273000Y-159267411D01*
X105273000Y-158994589D01*
X105219775Y-158727011D01*
X105115371Y-158474957D01*
X104963799Y-158248114D01*
X104830685Y-158115000D01*
X104963799Y-157981886D01*
X105050860Y-157851589D01*
X129677000Y-157851589D01*
X129677000Y-158124411D01*
X129730225Y-158391989D01*
X129834629Y-158644043D01*
X129986201Y-158870886D01*
X130119315Y-159004000D01*
X129986201Y-159137114D01*
X129834629Y-159363957D01*
X129730225Y-159616011D01*
X129677000Y-159883589D01*
X129677000Y-160156411D01*
X129730225Y-160423989D01*
X129834629Y-160676043D01*
X129986201Y-160902886D01*
X130119315Y-161036000D01*
X129986201Y-161169114D01*
X129834629Y-161395957D01*
X129730225Y-161648011D01*
X129677000Y-161915589D01*
X129677000Y-162188411D01*
X129730225Y-162455989D01*
X129834629Y-162708043D01*
X129986201Y-162934886D01*
X130119315Y-163068000D01*
X129986201Y-163201114D01*
X129834629Y-163427957D01*
X129730225Y-163680011D01*
X129677000Y-163947589D01*
X129677000Y-164220411D01*
X129730225Y-164487989D01*
X129834629Y-164740043D01*
X129986201Y-164966886D01*
X130179114Y-165159799D01*
X130405957Y-165311371D01*
X130658011Y-165415775D01*
X130925589Y-165469000D01*
X131198411Y-165469000D01*
X131465989Y-165415775D01*
X131718043Y-165311371D01*
X131944886Y-165159799D01*
X132137799Y-164966886D01*
X132289371Y-164740043D01*
X132393775Y-164487989D01*
X132413354Y-164389562D01*
X132438011Y-164399775D01*
X132705589Y-164453000D01*
X132978411Y-164453000D01*
X133245989Y-164399775D01*
X133498043Y-164295371D01*
X133724886Y-164143799D01*
X133917799Y-163950886D01*
X134069371Y-163724043D01*
X134173775Y-163471989D01*
X134227000Y-163204411D01*
X134227000Y-162931589D01*
X134173775Y-162664011D01*
X134069371Y-162411957D01*
X133917799Y-162185114D01*
X133784685Y-162052000D01*
X133917799Y-161918886D01*
X134069371Y-161692043D01*
X134173775Y-161439989D01*
X134227000Y-161172411D01*
X134227000Y-160899589D01*
X134173775Y-160632011D01*
X134069371Y-160379957D01*
X133917799Y-160153114D01*
X133784685Y-160020000D01*
X133917799Y-159886886D01*
X134069371Y-159660043D01*
X134173775Y-159407989D01*
X134227000Y-159140411D01*
X134227000Y-158867589D01*
X134173775Y-158600011D01*
X134069371Y-158347957D01*
X133984676Y-158221202D01*
X134043185Y-158173185D01*
X134122537Y-158076494D01*
X134181502Y-157966180D01*
X134217812Y-157846482D01*
X134230072Y-157722000D01*
X134230072Y-156222000D01*
X134220413Y-156123931D01*
X134311489Y-156184786D01*
X134722782Y-156355149D01*
X135159409Y-156442000D01*
X135604591Y-156442000D01*
X136041218Y-156355149D01*
X136452511Y-156184786D01*
X136822666Y-155937456D01*
X137137456Y-155622666D01*
X137384786Y-155252511D01*
X137555149Y-154841218D01*
X137642000Y-154404591D01*
X137642000Y-153959409D01*
X137555149Y-153522782D01*
X137384786Y-153111489D01*
X137137456Y-152741334D01*
X136822666Y-152426544D01*
X136452511Y-152179214D01*
X136041218Y-152008851D01*
X135604591Y-151922000D01*
X135159409Y-151922000D01*
X134722782Y-152008851D01*
X134311489Y-152179214D01*
X133941334Y-152426544D01*
X133723822Y-152644056D01*
X133737000Y-152577807D01*
X133737000Y-152226193D01*
X133668404Y-151881335D01*
X133533847Y-151556485D01*
X133338500Y-151264129D01*
X133089871Y-151015500D01*
X132797515Y-150820153D01*
X132472665Y-150685596D01*
X132127807Y-150617000D01*
X131776193Y-150617000D01*
X131431335Y-150685596D01*
X131106485Y-150820153D01*
X130814129Y-151015500D01*
X130565500Y-151264129D01*
X130370153Y-151556485D01*
X130235596Y-151881335D01*
X130167000Y-152226193D01*
X130167000Y-152577807D01*
X130235596Y-152922665D01*
X130370153Y-153247515D01*
X130565500Y-153539871D01*
X130814129Y-153788500D01*
X131106485Y-153983847D01*
X131431335Y-154118404D01*
X131776193Y-154187000D01*
X132127807Y-154187000D01*
X132472665Y-154118404D01*
X132797515Y-153983847D01*
X133089871Y-153788500D01*
X133172415Y-153705956D01*
X133122000Y-153959409D01*
X133122000Y-154404591D01*
X133208851Y-154841218D01*
X133379214Y-155252511D01*
X133601270Y-155584841D01*
X133592000Y-155583928D01*
X132092000Y-155583928D01*
X131967518Y-155596188D01*
X131847820Y-155632498D01*
X131737506Y-155691463D01*
X131640815Y-155770815D01*
X131561463Y-155867506D01*
X131502498Y-155977820D01*
X131466188Y-156097518D01*
X131453928Y-156222000D01*
X131453928Y-156653826D01*
X131198411Y-156603000D01*
X130925589Y-156603000D01*
X130658011Y-156656225D01*
X130405957Y-156760629D01*
X130179114Y-156912201D01*
X129986201Y-157105114D01*
X129834629Y-157331957D01*
X129730225Y-157584011D01*
X129677000Y-157851589D01*
X105050860Y-157851589D01*
X105115371Y-157755043D01*
X105219775Y-157502989D01*
X105273000Y-157235411D01*
X105273000Y-156962589D01*
X105219775Y-156695011D01*
X105115371Y-156442957D01*
X104963799Y-156216114D01*
X104770886Y-156023201D01*
X104544043Y-155871629D01*
X104291989Y-155767225D01*
X104024411Y-155714000D01*
X103751589Y-155714000D01*
X103484011Y-155767225D01*
X103231957Y-155871629D01*
X103005114Y-156023201D01*
X102812201Y-156216114D01*
X102660629Y-156442957D01*
X102556225Y-156695011D01*
X102536646Y-156793438D01*
X102511989Y-156783225D01*
X102244411Y-156730000D01*
X101971589Y-156730000D01*
X101704011Y-156783225D01*
X101451957Y-156887629D01*
X101225114Y-157039201D01*
X101032201Y-157232114D01*
X100880629Y-157458957D01*
X100776225Y-157711011D01*
X100723000Y-157978589D01*
X100723000Y-158251411D01*
X100776225Y-158518989D01*
X100880629Y-158771043D01*
X101032201Y-158997886D01*
X101165315Y-159131000D01*
X101032201Y-159264114D01*
X100880629Y-159490957D01*
X100776225Y-159743011D01*
X100723000Y-160010589D01*
X100723000Y-160283411D01*
X100776225Y-160550989D01*
X100880629Y-160803043D01*
X101032201Y-161029886D01*
X101165315Y-161163000D01*
X101032201Y-161296114D01*
X100880629Y-161522957D01*
X100776225Y-161775011D01*
X100723000Y-162042589D01*
X100723000Y-162315411D01*
X100776225Y-162582989D01*
X100880629Y-162835043D01*
X100965324Y-162961798D01*
X100906815Y-163009815D01*
X100827463Y-163106506D01*
X100768498Y-163216820D01*
X100732188Y-163336518D01*
X100719928Y-163461000D01*
X100719928Y-164961000D01*
X100729587Y-165059069D01*
X100638511Y-164998214D01*
X100227218Y-164827851D01*
X99790591Y-164741000D01*
X99345409Y-164741000D01*
X98908782Y-164827851D01*
X98497489Y-164998214D01*
X98127334Y-165245544D01*
X97812544Y-165560334D01*
X97565214Y-165930489D01*
X97394851Y-166341782D01*
X97308000Y-166778409D01*
X92887000Y-166778409D01*
X92887000Y-154078409D01*
X97308000Y-154078409D01*
X97308000Y-154523591D01*
X97394851Y-154960218D01*
X97565214Y-155371511D01*
X97812544Y-155741666D01*
X98127334Y-156056456D01*
X98497489Y-156303786D01*
X98908782Y-156474149D01*
X99345409Y-156561000D01*
X99790591Y-156561000D01*
X100227218Y-156474149D01*
X100638511Y-156303786D01*
X101008666Y-156056456D01*
X101323456Y-155741666D01*
X101570786Y-155371511D01*
X101741149Y-154960218D01*
X101828000Y-154523591D01*
X101828000Y-154078409D01*
X101777585Y-153824956D01*
X101860129Y-153907500D01*
X102152485Y-154102847D01*
X102477335Y-154237404D01*
X102822193Y-154306000D01*
X103173807Y-154306000D01*
X103518665Y-154237404D01*
X103843515Y-154102847D01*
X104135871Y-153907500D01*
X104384500Y-153658871D01*
X104579847Y-153366515D01*
X104714404Y-153041665D01*
X104783000Y-152696807D01*
X104783000Y-152345193D01*
X104714404Y-152000335D01*
X104579847Y-151675485D01*
X104384500Y-151383129D01*
X104135871Y-151134500D01*
X103843515Y-150939153D01*
X103518665Y-150804596D01*
X103173807Y-150736000D01*
X102822193Y-150736000D01*
X102477335Y-150804596D01*
X102152485Y-150939153D01*
X101860129Y-151134500D01*
X101611500Y-151383129D01*
X101416153Y-151675485D01*
X101281596Y-152000335D01*
X101213000Y-152345193D01*
X101213000Y-152696807D01*
X101226178Y-152763056D01*
X101008666Y-152545544D01*
X100638511Y-152298214D01*
X100227218Y-152127851D01*
X99790591Y-152041000D01*
X99345409Y-152041000D01*
X98908782Y-152127851D01*
X98497489Y-152298214D01*
X98127334Y-152545544D01*
X97812544Y-152860334D01*
X97565214Y-153230489D01*
X97394851Y-153641782D01*
X97308000Y-154078409D01*
X92887000Y-154078409D01*
X92887000Y-145829872D01*
X102159000Y-145829872D01*
X102159000Y-146270128D01*
X102244890Y-146701925D01*
X102413369Y-147108669D01*
X102657962Y-147474729D01*
X102969271Y-147786038D01*
X103335331Y-148030631D01*
X103742075Y-148199110D01*
X104173872Y-148285000D01*
X104614128Y-148285000D01*
X105045925Y-148199110D01*
X105452669Y-148030631D01*
X105818729Y-147786038D01*
X106130038Y-147474729D01*
X106374631Y-147108669D01*
X106543110Y-146701925D01*
X106629000Y-146270128D01*
X106629000Y-145829872D01*
X128448000Y-145829872D01*
X128448000Y-146270128D01*
X128533890Y-146701925D01*
X128702369Y-147108669D01*
X128946962Y-147474729D01*
X129258271Y-147786038D01*
X129624331Y-148030631D01*
X130031075Y-148199110D01*
X130462872Y-148285000D01*
X130903128Y-148285000D01*
X131334925Y-148199110D01*
X131741669Y-148030631D01*
X132107729Y-147786038D01*
X132419038Y-147474729D01*
X132663631Y-147108669D01*
X132832110Y-146701925D01*
X132918000Y-146270128D01*
X132918000Y-145829872D01*
X132832110Y-145398075D01*
X132663631Y-144991331D01*
X132419038Y-144625271D01*
X132107729Y-144313962D01*
X131741669Y-144069369D01*
X131334925Y-143900890D01*
X130903128Y-143815000D01*
X130462872Y-143815000D01*
X130031075Y-143900890D01*
X129624331Y-144069369D01*
X129258271Y-144313962D01*
X128946962Y-144625271D01*
X128702369Y-144991331D01*
X128533890Y-145398075D01*
X128448000Y-145829872D01*
X106629000Y-145829872D01*
X106543110Y-145398075D01*
X106374631Y-144991331D01*
X106130038Y-144625271D01*
X105818729Y-144313962D01*
X105452669Y-144069369D01*
X105045925Y-143900890D01*
X104614128Y-143815000D01*
X104173872Y-143815000D01*
X103742075Y-143900890D01*
X103335331Y-144069369D01*
X102969271Y-144313962D01*
X102657962Y-144625271D01*
X102413369Y-144991331D01*
X102244890Y-145398075D01*
X102159000Y-145829872D01*
X92887000Y-145829872D01*
X92887000Y-108872872D01*
X94285000Y-108872872D01*
X94285000Y-109313128D01*
X94370890Y-109744925D01*
X94539369Y-110151669D01*
X94783962Y-110517729D01*
X95095271Y-110829038D01*
X95461331Y-111073631D01*
X95868075Y-111242110D01*
X96299872Y-111328000D01*
X96740128Y-111328000D01*
X97171925Y-111242110D01*
X97578669Y-111073631D01*
X97944729Y-110829038D01*
X98256038Y-110517729D01*
X98500631Y-110151669D01*
X98669110Y-109744925D01*
X98755000Y-109313128D01*
X98755000Y-108872872D01*
X98669110Y-108441075D01*
X98500631Y-108034331D01*
X98256038Y-107668271D01*
X97944729Y-107356962D01*
X97578669Y-107112369D01*
X97171925Y-106943890D01*
X96740128Y-106858000D01*
X96299872Y-106858000D01*
X95868075Y-106943890D01*
X95461331Y-107112369D01*
X95095271Y-107356962D01*
X94783962Y-107668271D01*
X94539369Y-108034331D01*
X94370890Y-108441075D01*
X94285000Y-108872872D01*
X92887000Y-108872872D01*
X92887000Y-105130000D01*
X97696928Y-105130000D01*
X97709188Y-105254482D01*
X97745498Y-105374180D01*
X97804463Y-105484494D01*
X97883815Y-105581185D01*
X97980506Y-105660537D01*
X98090820Y-105719502D01*
X98210518Y-105755812D01*
X98335000Y-105768072D01*
X98774250Y-105765000D01*
X98933000Y-105606250D01*
X98933000Y-104669500D01*
X99187000Y-104669500D01*
X99187000Y-105606250D01*
X99345750Y-105765000D01*
X99785000Y-105768072D01*
X99909482Y-105755812D01*
X100029180Y-105719502D01*
X100139494Y-105660537D01*
X100236185Y-105581185D01*
X100315537Y-105484494D01*
X100374502Y-105374180D01*
X100410812Y-105254482D01*
X100423072Y-105130000D01*
X100420000Y-104828250D01*
X100261250Y-104669500D01*
X99187000Y-104669500D01*
X98933000Y-104669500D01*
X97858750Y-104669500D01*
X97700000Y-104828250D01*
X97696928Y-105130000D01*
X92887000Y-105130000D01*
X92887000Y-90717000D01*
X93380928Y-90717000D01*
X93380928Y-92417000D01*
X93393188Y-92541482D01*
X93429498Y-92661180D01*
X93488463Y-92771494D01*
X93567815Y-92868185D01*
X93664506Y-92947537D01*
X93774820Y-93006502D01*
X93894518Y-93042812D01*
X93984001Y-93051625D01*
X93984000Y-100540531D01*
X93979719Y-100584000D01*
X93984000Y-100627469D01*
X93984000Y-100627476D01*
X93996805Y-100757489D01*
X94047411Y-100924312D01*
X94129589Y-101078058D01*
X94240183Y-101212817D01*
X94273956Y-101240534D01*
X96095970Y-103062549D01*
X96123683Y-103096317D01*
X96157451Y-103124030D01*
X96157453Y-103124032D01*
X96170178Y-103134475D01*
X96258441Y-103206911D01*
X96412187Y-103289089D01*
X96579010Y-103339695D01*
X96709023Y-103352500D01*
X96709033Y-103352500D01*
X96752499Y-103356781D01*
X96795965Y-103352500D01*
X97891005Y-103352500D01*
X97957038Y-103432962D01*
X97963594Y-103438342D01*
X97883815Y-103503815D01*
X97804463Y-103600506D01*
X97745498Y-103710820D01*
X97709188Y-103830518D01*
X97696928Y-103955000D01*
X97700000Y-104256750D01*
X97858750Y-104415500D01*
X98933000Y-104415500D01*
X98933000Y-104395500D01*
X99187000Y-104395500D01*
X99187000Y-104415500D01*
X100261250Y-104415500D01*
X100420000Y-104256750D01*
X100423072Y-103955000D01*
X100410812Y-103830518D01*
X100374502Y-103710820D01*
X100315537Y-103600506D01*
X100236185Y-103503815D01*
X100156406Y-103438342D01*
X100162962Y-103432962D01*
X100273405Y-103298386D01*
X100301406Y-103246000D01*
X101943808Y-103246000D01*
X101975000Y-103249072D01*
X103275000Y-103249072D01*
X103414113Y-103235371D01*
X103493999Y-103211138D01*
X103494000Y-106052852D01*
X103470498Y-106096820D01*
X103434188Y-106216518D01*
X103421928Y-106341000D01*
X103421928Y-107241000D01*
X103434188Y-107365482D01*
X103470498Y-107485180D01*
X103529463Y-107595494D01*
X103608815Y-107692185D01*
X103675000Y-107746502D01*
X103675001Y-121312437D01*
X103671203Y-121351000D01*
X103686359Y-121504886D01*
X103731246Y-121652859D01*
X103731247Y-121652860D01*
X103804139Y-121789233D01*
X103824280Y-121813774D01*
X103877655Y-121878812D01*
X103877659Y-121878816D01*
X103902237Y-121908764D01*
X103932185Y-121933342D01*
X108947000Y-126948158D01*
X108947000Y-126974939D01*
X108986774Y-127174898D01*
X109064795Y-127363256D01*
X109178063Y-127532774D01*
X109322226Y-127676937D01*
X109491744Y-127790205D01*
X109680102Y-127868226D01*
X109880061Y-127908000D01*
X110083939Y-127908000D01*
X110283898Y-127868226D01*
X110472256Y-127790205D01*
X110641774Y-127676937D01*
X110785937Y-127532774D01*
X110899205Y-127363256D01*
X110977226Y-127174898D01*
X111017000Y-126974939D01*
X111017000Y-126771061D01*
X110977226Y-126571102D01*
X110899205Y-126382744D01*
X110785937Y-126213226D01*
X110641774Y-126069063D01*
X110472256Y-125955795D01*
X110283898Y-125877774D01*
X110083939Y-125838000D01*
X110057158Y-125838000D01*
X105245000Y-121025843D01*
X105245000Y-107746501D01*
X105311185Y-107692185D01*
X105390537Y-107595494D01*
X105410000Y-107559082D01*
X105429463Y-107595494D01*
X105508815Y-107692185D01*
X105575000Y-107746502D01*
X105575001Y-118132437D01*
X105571203Y-118171000D01*
X105586359Y-118324886D01*
X105631246Y-118472859D01*
X105631247Y-118472860D01*
X105704139Y-118609233D01*
X105744690Y-118658644D01*
X105777655Y-118698812D01*
X105777659Y-118698816D01*
X105802237Y-118728764D01*
X105832185Y-118753342D01*
X110415653Y-123336810D01*
X110440236Y-123366764D01*
X110559767Y-123464862D01*
X110696140Y-123537754D01*
X110844113Y-123582642D01*
X110919026Y-123590020D01*
X110959439Y-123594000D01*
X110959444Y-123594000D01*
X110998000Y-123597797D01*
X111036556Y-123594000D01*
X114891289Y-123594000D01*
X114910226Y-123612937D01*
X115079744Y-123726205D01*
X115268102Y-123804226D01*
X115468061Y-123844000D01*
X115671939Y-123844000D01*
X115871898Y-123804226D01*
X116060256Y-123726205D01*
X116229774Y-123612937D01*
X116373937Y-123468774D01*
X116487205Y-123299256D01*
X116565226Y-123110898D01*
X116605000Y-122910939D01*
X116605000Y-122707061D01*
X116565226Y-122507102D01*
X116487205Y-122318744D01*
X116373937Y-122149226D01*
X116229774Y-122005063D01*
X116060256Y-121891795D01*
X115871898Y-121813774D01*
X115671939Y-121774000D01*
X115468061Y-121774000D01*
X115268102Y-121813774D01*
X115079744Y-121891795D01*
X114910226Y-122005063D01*
X114891289Y-122024000D01*
X111323157Y-122024000D01*
X107145000Y-117845843D01*
X107145000Y-115595061D01*
X125711000Y-115595061D01*
X125711000Y-115798939D01*
X125750774Y-115998898D01*
X125828795Y-116187256D01*
X125942063Y-116356774D01*
X126086226Y-116500937D01*
X126255744Y-116614205D01*
X126444102Y-116692226D01*
X126644061Y-116732000D01*
X126847939Y-116732000D01*
X127047898Y-116692226D01*
X127236256Y-116614205D01*
X127405774Y-116500937D01*
X127424711Y-116482000D01*
X129115289Y-116482000D01*
X129134226Y-116500937D01*
X129303744Y-116614205D01*
X129492102Y-116692226D01*
X129692061Y-116732000D01*
X129895939Y-116732000D01*
X130095898Y-116692226D01*
X130284256Y-116614205D01*
X130453774Y-116500937D01*
X130597937Y-116356774D01*
X130711205Y-116187256D01*
X130789226Y-115998898D01*
X130829000Y-115798939D01*
X130829000Y-115595061D01*
X130789226Y-115395102D01*
X130711205Y-115206744D01*
X130597937Y-115037226D01*
X130453774Y-114893063D01*
X130284256Y-114779795D01*
X130095898Y-114701774D01*
X129895939Y-114662000D01*
X129692061Y-114662000D01*
X129492102Y-114701774D01*
X129303744Y-114779795D01*
X129134226Y-114893063D01*
X129115289Y-114912000D01*
X127424711Y-114912000D01*
X127405774Y-114893063D01*
X127236256Y-114779795D01*
X127047898Y-114701774D01*
X126847939Y-114662000D01*
X126644061Y-114662000D01*
X126444102Y-114701774D01*
X126255744Y-114779795D01*
X126086226Y-114893063D01*
X125942063Y-115037226D01*
X125828795Y-115206744D01*
X125750774Y-115395102D01*
X125711000Y-115595061D01*
X107145000Y-115595061D01*
X107145000Y-107746501D01*
X107211185Y-107692185D01*
X107290537Y-107595494D01*
X107349502Y-107485180D01*
X107385812Y-107365482D01*
X107398072Y-107241000D01*
X107398072Y-106341000D01*
X107385812Y-106216518D01*
X107349502Y-106096820D01*
X107290537Y-105986506D01*
X107211185Y-105889815D01*
X107145000Y-105835499D01*
X107145000Y-105405500D01*
X108237928Y-105405500D01*
X108250188Y-105529982D01*
X108286498Y-105649680D01*
X108345463Y-105759994D01*
X108424815Y-105856685D01*
X108521506Y-105936037D01*
X108631820Y-105995002D01*
X108751518Y-106031312D01*
X108876000Y-106043572D01*
X109315250Y-106040500D01*
X109474000Y-105881750D01*
X109474000Y-104945000D01*
X109728000Y-104945000D01*
X109728000Y-105881750D01*
X109886750Y-106040500D01*
X110326000Y-106043572D01*
X110450482Y-106031312D01*
X110570180Y-105995002D01*
X110680494Y-105936037D01*
X110777185Y-105856685D01*
X110856537Y-105759994D01*
X110915502Y-105649680D01*
X110951812Y-105529982D01*
X110964072Y-105405500D01*
X110961000Y-105103750D01*
X110802250Y-104945000D01*
X109728000Y-104945000D01*
X109474000Y-104945000D01*
X108399750Y-104945000D01*
X108241000Y-105103750D01*
X108237928Y-105405500D01*
X107145000Y-105405500D01*
X107145000Y-104112552D01*
X107148797Y-104073999D01*
X107145000Y-104035446D01*
X107145000Y-104035439D01*
X107133641Y-103920113D01*
X107088754Y-103772140D01*
X107015862Y-103635767D01*
X106917764Y-103516236D01*
X106887817Y-103491659D01*
X106645230Y-103249072D01*
X107575000Y-103249072D01*
X107714113Y-103235371D01*
X107847881Y-103194793D01*
X107971162Y-103128898D01*
X108079218Y-103040218D01*
X108167898Y-102932162D01*
X108233793Y-102808881D01*
X108237928Y-102795250D01*
X108237928Y-103080500D01*
X108254992Y-103253754D01*
X108305528Y-103420350D01*
X108387595Y-103573886D01*
X108498038Y-103708462D01*
X108504594Y-103713842D01*
X108424815Y-103779315D01*
X108345463Y-103876006D01*
X108286498Y-103986320D01*
X108250188Y-104106018D01*
X108237928Y-104230500D01*
X108241000Y-104532250D01*
X108399750Y-104691000D01*
X109474000Y-104691000D01*
X109474000Y-104671000D01*
X109728000Y-104671000D01*
X109728000Y-104691000D01*
X110802250Y-104691000D01*
X110961000Y-104532250D01*
X110964072Y-104230500D01*
X110951812Y-104106018D01*
X110915502Y-103986320D01*
X110856537Y-103876006D01*
X110777185Y-103779315D01*
X110697406Y-103713842D01*
X110703962Y-103708462D01*
X110814405Y-103573886D01*
X110859346Y-103489807D01*
X110918860Y-103471754D01*
X111055233Y-103398862D01*
X111123049Y-103343206D01*
X111737001Y-103957159D01*
X111737000Y-105397056D01*
X111732149Y-105398528D01*
X111578613Y-105480595D01*
X111444038Y-105591038D01*
X111333595Y-105725613D01*
X111251528Y-105879149D01*
X111200992Y-106045745D01*
X111183928Y-106218999D01*
X111183928Y-106919001D01*
X111200992Y-107092255D01*
X111251528Y-107258851D01*
X111333595Y-107412387D01*
X111444038Y-107546962D01*
X111470891Y-107569000D01*
X111444038Y-107591038D01*
X111333595Y-107725613D01*
X111251528Y-107879149D01*
X111200992Y-108045745D01*
X111183928Y-108218999D01*
X111183928Y-108919001D01*
X111200992Y-109092255D01*
X111251528Y-109258851D01*
X111333595Y-109412387D01*
X111444038Y-109546962D01*
X111578613Y-109657405D01*
X111637000Y-109688614D01*
X111637001Y-109870210D01*
X111543495Y-109932688D01*
X111329688Y-110146495D01*
X111161701Y-110397905D01*
X111045989Y-110677257D01*
X110987000Y-110973816D01*
X110987000Y-111276184D01*
X111045989Y-111572743D01*
X111161701Y-111852095D01*
X111329688Y-112103505D01*
X111396127Y-112169944D01*
X111377820Y-112175498D01*
X111267506Y-112234463D01*
X111170815Y-112313815D01*
X111091463Y-112410506D01*
X111032498Y-112520820D01*
X110996188Y-112640518D01*
X110983928Y-112765000D01*
X110983928Y-114565000D01*
X110996188Y-114689482D01*
X111032498Y-114809180D01*
X111091463Y-114919494D01*
X111170815Y-115016185D01*
X111267506Y-115095537D01*
X111377820Y-115154502D01*
X111497518Y-115190812D01*
X111622000Y-115203072D01*
X113422000Y-115203072D01*
X113546482Y-115190812D01*
X113666180Y-115154502D01*
X113776494Y-115095537D01*
X113873185Y-115016185D01*
X113952537Y-114919494D01*
X114011502Y-114809180D01*
X114047812Y-114689482D01*
X114060072Y-114565000D01*
X114060072Y-112765000D01*
X121143928Y-112765000D01*
X121143928Y-114565000D01*
X121156188Y-114689482D01*
X121192498Y-114809180D01*
X121251463Y-114919494D01*
X121330815Y-115016185D01*
X121427506Y-115095537D01*
X121537820Y-115154502D01*
X121657518Y-115190812D01*
X121782000Y-115203072D01*
X123582000Y-115203072D01*
X123706482Y-115190812D01*
X123826180Y-115154502D01*
X123936494Y-115095537D01*
X124033185Y-115016185D01*
X124112537Y-114919494D01*
X124171502Y-114809180D01*
X124207812Y-114689482D01*
X124220072Y-114565000D01*
X124220072Y-112765000D01*
X124207812Y-112640518D01*
X124171502Y-112520820D01*
X124112537Y-112410506D01*
X124033185Y-112313815D01*
X123936494Y-112234463D01*
X123826180Y-112175498D01*
X123807873Y-112169944D01*
X123874312Y-112103505D01*
X124042299Y-111852095D01*
X124158011Y-111572743D01*
X124217000Y-111276184D01*
X124217000Y-110973816D01*
X124158011Y-110677257D01*
X124042299Y-110397905D01*
X123874312Y-110146495D01*
X123660505Y-109932688D01*
X123409095Y-109764701D01*
X123129743Y-109648989D01*
X122833184Y-109590000D01*
X122530816Y-109590000D01*
X122234257Y-109648989D01*
X121954905Y-109764701D01*
X121703495Y-109932688D01*
X121489688Y-110146495D01*
X121321701Y-110397905D01*
X121205989Y-110677257D01*
X121147000Y-110973816D01*
X121147000Y-111276184D01*
X121205989Y-111572743D01*
X121321701Y-111852095D01*
X121489688Y-112103505D01*
X121556127Y-112169944D01*
X121537820Y-112175498D01*
X121427506Y-112234463D01*
X121330815Y-112313815D01*
X121251463Y-112410506D01*
X121192498Y-112520820D01*
X121156188Y-112640518D01*
X121143928Y-112765000D01*
X114060072Y-112765000D01*
X114047812Y-112640518D01*
X114011502Y-112520820D01*
X113952537Y-112410506D01*
X113873185Y-112313815D01*
X113776494Y-112234463D01*
X113666180Y-112175498D01*
X113647873Y-112169944D01*
X113714312Y-112103505D01*
X113882299Y-111852095D01*
X113998011Y-111572743D01*
X114057000Y-111276184D01*
X114057000Y-110973816D01*
X113998011Y-110677257D01*
X113882299Y-110397905D01*
X113714312Y-110146495D01*
X113525707Y-109957890D01*
X115652524Y-109957890D01*
X115697175Y-110105099D01*
X115822359Y-110367920D01*
X115996412Y-110601269D01*
X116212645Y-110796178D01*
X116462748Y-110945157D01*
X116737109Y-111042481D01*
X116967000Y-110921814D01*
X116967000Y-109728000D01*
X117221000Y-109728000D01*
X117221000Y-110921814D01*
X117450891Y-111042481D01*
X117725252Y-110945157D01*
X117975355Y-110796178D01*
X118191588Y-110601269D01*
X118365641Y-110367920D01*
X118490825Y-110105099D01*
X118535476Y-109957890D01*
X118414155Y-109728000D01*
X117221000Y-109728000D01*
X116967000Y-109728000D01*
X115773845Y-109728000D01*
X115652524Y-109957890D01*
X113525707Y-109957890D01*
X113500505Y-109932688D01*
X113407000Y-109870210D01*
X113407000Y-109688614D01*
X113465387Y-109657405D01*
X113599962Y-109546962D01*
X113710405Y-109412387D01*
X113792472Y-109258851D01*
X113843008Y-109092255D01*
X113860072Y-108919001D01*
X113860072Y-108218999D01*
X113843008Y-108045745D01*
X113792472Y-107879149D01*
X113710405Y-107725613D01*
X113599962Y-107591038D01*
X113573109Y-107569000D01*
X113599962Y-107546962D01*
X113710405Y-107412387D01*
X113792472Y-107258851D01*
X113843008Y-107092255D01*
X113860072Y-106919001D01*
X113860072Y-106218999D01*
X113843008Y-106045745D01*
X113792472Y-105879149D01*
X113710405Y-105725613D01*
X113599962Y-105591038D01*
X113465387Y-105480595D01*
X113311851Y-105398528D01*
X113307000Y-105397056D01*
X113307000Y-103670552D01*
X113310797Y-103631999D01*
X113307000Y-103593446D01*
X113307000Y-103593439D01*
X113295641Y-103478113D01*
X113250754Y-103330140D01*
X113177862Y-103193767D01*
X113079764Y-103074236D01*
X113049816Y-103049658D01*
X112160000Y-102159843D01*
X112160000Y-102133061D01*
X112134328Y-102004000D01*
X112958843Y-102004000D01*
X114150000Y-103195157D01*
X114150001Y-104863437D01*
X114146203Y-104902000D01*
X114161359Y-105055886D01*
X114206246Y-105203859D01*
X114233305Y-105254482D01*
X114279139Y-105340233D01*
X114285507Y-105347992D01*
X114352655Y-105429812D01*
X114352659Y-105429816D01*
X114377237Y-105459764D01*
X114407185Y-105484342D01*
X115646925Y-106724082D01*
X115609000Y-106914740D01*
X115609000Y-107207260D01*
X115666068Y-107494158D01*
X115778010Y-107764411D01*
X115940525Y-108007632D01*
X116147368Y-108214475D01*
X116329534Y-108336195D01*
X116212645Y-108405822D01*
X115996412Y-108600731D01*
X115822359Y-108834080D01*
X115697175Y-109096901D01*
X115652524Y-109244110D01*
X115773845Y-109474000D01*
X116967000Y-109474000D01*
X116967000Y-109454000D01*
X117221000Y-109454000D01*
X117221000Y-109474000D01*
X118414155Y-109474000D01*
X118535476Y-109244110D01*
X118490825Y-109096901D01*
X118444610Y-108999872D01*
X135941000Y-108999872D01*
X135941000Y-109440128D01*
X136026890Y-109871925D01*
X136195369Y-110278669D01*
X136439962Y-110644729D01*
X136751271Y-110956038D01*
X137117331Y-111200631D01*
X137524075Y-111369110D01*
X137955872Y-111455000D01*
X138396128Y-111455000D01*
X138827925Y-111369110D01*
X139234669Y-111200631D01*
X139600729Y-110956038D01*
X139912038Y-110644729D01*
X140156631Y-110278669D01*
X140325110Y-109871925D01*
X140411000Y-109440128D01*
X140411000Y-108999872D01*
X140325110Y-108568075D01*
X140156631Y-108161331D01*
X139912038Y-107795271D01*
X139600729Y-107483962D01*
X139234669Y-107239369D01*
X138827925Y-107070890D01*
X138396128Y-106985000D01*
X137955872Y-106985000D01*
X137524075Y-107070890D01*
X137117331Y-107239369D01*
X136751271Y-107483962D01*
X136439962Y-107795271D01*
X136195369Y-108161331D01*
X136026890Y-108568075D01*
X135941000Y-108999872D01*
X118444610Y-108999872D01*
X118365641Y-108834080D01*
X118191588Y-108600731D01*
X117975355Y-108405822D01*
X117858466Y-108336195D01*
X118040632Y-108214475D01*
X118247475Y-108007632D01*
X118409990Y-107764411D01*
X118521932Y-107494158D01*
X118579000Y-107207260D01*
X118579000Y-106914740D01*
X118521932Y-106627842D01*
X118409990Y-106357589D01*
X118247475Y-106114368D01*
X118040632Y-105907525D01*
X117866240Y-105791000D01*
X118040632Y-105674475D01*
X118247475Y-105467632D01*
X118409990Y-105224411D01*
X118521932Y-104954158D01*
X118579000Y-104667260D01*
X118579000Y-104374740D01*
X118521932Y-104087842D01*
X118409990Y-103817589D01*
X118247475Y-103574368D01*
X118040632Y-103367525D01*
X117866240Y-103251000D01*
X118040632Y-103134475D01*
X118247475Y-102927632D01*
X118409990Y-102684411D01*
X118521932Y-102414158D01*
X118579000Y-102127260D01*
X118579000Y-101834740D01*
X118521932Y-101547842D01*
X118409990Y-101277589D01*
X118247475Y-101034368D01*
X118040632Y-100827525D01*
X117866240Y-100711000D01*
X118040632Y-100594475D01*
X118247475Y-100387632D01*
X118409990Y-100144411D01*
X118521932Y-99874158D01*
X118579000Y-99587260D01*
X118579000Y-99294740D01*
X118521932Y-99007842D01*
X118409990Y-98737589D01*
X118247475Y-98494368D01*
X118040632Y-98287525D01*
X117866240Y-98171000D01*
X118040632Y-98054475D01*
X118247475Y-97847632D01*
X118409990Y-97604411D01*
X118521932Y-97334158D01*
X118579000Y-97047260D01*
X118579000Y-96754740D01*
X118521932Y-96467842D01*
X118409990Y-96197589D01*
X118247475Y-95954368D01*
X118115620Y-95822513D01*
X118188180Y-95800502D01*
X118298494Y-95741537D01*
X118395185Y-95662185D01*
X118474537Y-95565494D01*
X118533502Y-95455180D01*
X118569812Y-95335482D01*
X118578625Y-95246000D01*
X122213375Y-95246000D01*
X122222188Y-95335482D01*
X122258498Y-95455180D01*
X122317463Y-95565494D01*
X122396815Y-95662185D01*
X122493506Y-95741537D01*
X122603820Y-95800502D01*
X122723518Y-95836812D01*
X122848000Y-95849072D01*
X123040001Y-95849072D01*
X123040000Y-101556289D01*
X123021063Y-101575226D01*
X122907795Y-101744744D01*
X122829774Y-101933102D01*
X122790000Y-102133061D01*
X122790000Y-102336939D01*
X122829774Y-102536898D01*
X122907795Y-102725256D01*
X123021063Y-102894774D01*
X123165226Y-103038937D01*
X123334744Y-103152205D01*
X123523102Y-103230226D01*
X123723061Y-103270000D01*
X123926939Y-103270000D01*
X124126898Y-103230226D01*
X124315256Y-103152205D01*
X124484774Y-103038937D01*
X124628937Y-102894774D01*
X124742205Y-102725256D01*
X124820226Y-102536898D01*
X124860000Y-102336939D01*
X124860000Y-102133061D01*
X124820226Y-101933102D01*
X124742205Y-101744744D01*
X124628937Y-101575226D01*
X124610000Y-101556289D01*
X124610000Y-95842966D01*
X124672482Y-95836812D01*
X124792180Y-95800502D01*
X124902494Y-95741537D01*
X124999185Y-95662185D01*
X125078537Y-95565494D01*
X125137502Y-95455180D01*
X125173812Y-95335482D01*
X125186072Y-95211000D01*
X125186072Y-93511000D01*
X125173812Y-93386518D01*
X125137502Y-93266820D01*
X125078537Y-93156506D01*
X124999185Y-93059815D01*
X124902494Y-92980463D01*
X124792180Y-92921498D01*
X124719620Y-92899487D01*
X124851475Y-92767632D01*
X124912304Y-92676595D01*
X124990590Y-92823059D01*
X125073468Y-92924046D01*
X125073471Y-92924049D01*
X125101184Y-92957817D01*
X125134951Y-92985529D01*
X126273928Y-94124507D01*
X126273928Y-95211000D01*
X126286188Y-95335482D01*
X126322498Y-95455180D01*
X126381463Y-95565494D01*
X126460815Y-95662185D01*
X126557506Y-95741537D01*
X126667820Y-95800502D01*
X126787518Y-95836812D01*
X126912000Y-95849072D01*
X128612000Y-95849072D01*
X128736482Y-95836812D01*
X128856180Y-95800502D01*
X128966494Y-95741537D01*
X129063185Y-95662185D01*
X129142537Y-95565494D01*
X129201502Y-95455180D01*
X129237812Y-95335482D01*
X129246625Y-95246000D01*
X130766531Y-95246000D01*
X130810000Y-95250281D01*
X130853469Y-95246000D01*
X130853477Y-95246000D01*
X130983490Y-95233195D01*
X131150313Y-95182589D01*
X131304059Y-95100411D01*
X131438817Y-94989817D01*
X131466534Y-94956044D01*
X132421050Y-94001529D01*
X132454817Y-93973817D01*
X132490584Y-93930236D01*
X132565410Y-93839060D01*
X132565411Y-93839059D01*
X132647589Y-93685313D01*
X132694936Y-93529233D01*
X132698195Y-93518491D01*
X132702380Y-93476000D01*
X132711000Y-93388477D01*
X132711000Y-93388469D01*
X132715281Y-93345000D01*
X132711000Y-93301531D01*
X132711000Y-92797625D01*
X132800482Y-92788812D01*
X132920180Y-92752502D01*
X133030494Y-92693537D01*
X133127185Y-92614185D01*
X133206537Y-92517494D01*
X133265502Y-92407180D01*
X133301812Y-92287482D01*
X133310625Y-92198000D01*
X134405375Y-92198000D01*
X134414188Y-92287482D01*
X134450498Y-92407180D01*
X134509463Y-92517494D01*
X134588815Y-92614185D01*
X134685506Y-92693537D01*
X134795820Y-92752502D01*
X134915518Y-92788812D01*
X135040000Y-92801072D01*
X136740000Y-92801072D01*
X136864482Y-92788812D01*
X136984180Y-92752502D01*
X137094494Y-92693537D01*
X137191185Y-92614185D01*
X137270537Y-92517494D01*
X137329502Y-92407180D01*
X137365812Y-92287482D01*
X137374625Y-92198000D01*
X138469375Y-92198000D01*
X138478188Y-92287482D01*
X138514498Y-92407180D01*
X138573463Y-92517494D01*
X138652815Y-92614185D01*
X138749506Y-92693537D01*
X138859820Y-92752502D01*
X138979518Y-92788812D01*
X139104000Y-92801072D01*
X140804000Y-92801072D01*
X140928482Y-92788812D01*
X141048180Y-92752502D01*
X141158494Y-92693537D01*
X141255185Y-92614185D01*
X141334537Y-92517494D01*
X141393502Y-92407180D01*
X141429812Y-92287482D01*
X141442072Y-92163000D01*
X141442072Y-90463000D01*
X141429812Y-90338518D01*
X141393502Y-90218820D01*
X141334537Y-90108506D01*
X141255185Y-90011815D01*
X141158494Y-89932463D01*
X141048180Y-89873498D01*
X140975620Y-89851487D01*
X141107475Y-89719632D01*
X141269990Y-89476411D01*
X141381932Y-89206158D01*
X141439000Y-88919260D01*
X141439000Y-88626740D01*
X141381932Y-88339842D01*
X141269990Y-88069589D01*
X141107475Y-87826368D01*
X140900632Y-87619525D01*
X140718466Y-87497805D01*
X140835355Y-87428178D01*
X141051588Y-87233269D01*
X141225641Y-86999920D01*
X141350825Y-86737099D01*
X141395476Y-86589890D01*
X141274155Y-86360000D01*
X140081000Y-86360000D01*
X140081000Y-86380000D01*
X139827000Y-86380000D01*
X139827000Y-86360000D01*
X138633845Y-86360000D01*
X138512524Y-86589890D01*
X138557175Y-86737099D01*
X138682359Y-86999920D01*
X138856412Y-87233269D01*
X139072645Y-87428178D01*
X139189534Y-87497805D01*
X139007368Y-87619525D01*
X138800525Y-87826368D01*
X138638010Y-88069589D01*
X138526068Y-88339842D01*
X138469000Y-88626740D01*
X138469000Y-88919260D01*
X138526068Y-89206158D01*
X138638010Y-89476411D01*
X138800525Y-89719632D01*
X138932380Y-89851487D01*
X138859820Y-89873498D01*
X138749506Y-89932463D01*
X138652815Y-90011815D01*
X138573463Y-90108506D01*
X138514498Y-90218820D01*
X138478188Y-90338518D01*
X138469375Y-90428000D01*
X137374625Y-90428000D01*
X137365812Y-90338518D01*
X137329502Y-90218820D01*
X137270537Y-90108506D01*
X137191185Y-90011815D01*
X137094494Y-89932463D01*
X136984180Y-89873498D01*
X136911620Y-89851487D01*
X137043475Y-89719632D01*
X137205990Y-89476411D01*
X137317932Y-89206158D01*
X137375000Y-88919260D01*
X137375000Y-88626740D01*
X137317932Y-88339842D01*
X137205990Y-88069589D01*
X137043475Y-87826368D01*
X136836632Y-87619525D01*
X136654466Y-87497805D01*
X136771355Y-87428178D01*
X136987588Y-87233269D01*
X137161641Y-86999920D01*
X137286825Y-86737099D01*
X137331476Y-86589890D01*
X137210155Y-86360000D01*
X136017000Y-86360000D01*
X136017000Y-86380000D01*
X135763000Y-86380000D01*
X135763000Y-86360000D01*
X134569845Y-86360000D01*
X134448524Y-86589890D01*
X134493175Y-86737099D01*
X134618359Y-86999920D01*
X134792412Y-87233269D01*
X135008645Y-87428178D01*
X135125534Y-87497805D01*
X134943368Y-87619525D01*
X134736525Y-87826368D01*
X134574010Y-88069589D01*
X134462068Y-88339842D01*
X134405000Y-88626740D01*
X134405000Y-88919260D01*
X134462068Y-89206158D01*
X134574010Y-89476411D01*
X134736525Y-89719632D01*
X134868380Y-89851487D01*
X134795820Y-89873498D01*
X134685506Y-89932463D01*
X134588815Y-90011815D01*
X134509463Y-90108506D01*
X134450498Y-90218820D01*
X134414188Y-90338518D01*
X134405375Y-90428000D01*
X133310625Y-90428000D01*
X133301812Y-90338518D01*
X133265502Y-90218820D01*
X133206537Y-90108506D01*
X133127185Y-90011815D01*
X133030494Y-89932463D01*
X132920180Y-89873498D01*
X132847620Y-89851487D01*
X132979475Y-89719632D01*
X133141990Y-89476411D01*
X133253932Y-89206158D01*
X133311000Y-88919260D01*
X133311000Y-88626740D01*
X133253932Y-88339842D01*
X133141990Y-88069589D01*
X132979475Y-87826368D01*
X132772632Y-87619525D01*
X132590466Y-87497805D01*
X132707355Y-87428178D01*
X132923588Y-87233269D01*
X133097641Y-86999920D01*
X133222825Y-86737099D01*
X133267476Y-86589890D01*
X133146155Y-86360000D01*
X131953000Y-86360000D01*
X131953000Y-86380000D01*
X131699000Y-86380000D01*
X131699000Y-86360000D01*
X130505845Y-86360000D01*
X130384524Y-86589890D01*
X130429175Y-86737099D01*
X130554359Y-86999920D01*
X130728412Y-87233269D01*
X130944645Y-87428178D01*
X131061534Y-87497805D01*
X130879368Y-87619525D01*
X130672525Y-87826368D01*
X130510010Y-88069589D01*
X130398068Y-88339842D01*
X130341000Y-88626740D01*
X130341000Y-88919260D01*
X130398068Y-89206158D01*
X130510010Y-89476411D01*
X130672525Y-89719632D01*
X130804380Y-89851487D01*
X130731820Y-89873498D01*
X130621506Y-89932463D01*
X130524815Y-90011815D01*
X130445463Y-90108506D01*
X130386498Y-90218820D01*
X130350188Y-90338518D01*
X130337928Y-90463000D01*
X130337928Y-92163000D01*
X130350188Y-92287482D01*
X130386498Y-92407180D01*
X130445463Y-92517494D01*
X130524815Y-92614185D01*
X130621506Y-92693537D01*
X130731820Y-92752502D01*
X130851518Y-92788812D01*
X130941000Y-92797625D01*
X130941000Y-92978421D01*
X130443422Y-93476000D01*
X129246625Y-93476000D01*
X129237812Y-93386518D01*
X129201502Y-93266820D01*
X129142537Y-93156506D01*
X129063185Y-93059815D01*
X128966494Y-92980463D01*
X128856180Y-92921498D01*
X128783620Y-92899487D01*
X128915475Y-92767632D01*
X129077990Y-92524411D01*
X129189932Y-92254158D01*
X129247000Y-91967260D01*
X129247000Y-91674740D01*
X129189932Y-91387842D01*
X129077990Y-91117589D01*
X128915475Y-90874368D01*
X128708632Y-90667525D01*
X128526466Y-90545805D01*
X128643355Y-90476178D01*
X128859588Y-90281269D01*
X129033641Y-90047920D01*
X129158825Y-89785099D01*
X129203476Y-89637890D01*
X129082155Y-89408000D01*
X127889000Y-89408000D01*
X127889000Y-89428000D01*
X127635000Y-89428000D01*
X127635000Y-89408000D01*
X127615000Y-89408000D01*
X127615000Y-89154000D01*
X127635000Y-89154000D01*
X127635000Y-87960186D01*
X127889000Y-87960186D01*
X127889000Y-89154000D01*
X129082155Y-89154000D01*
X129203476Y-88924110D01*
X129158825Y-88776901D01*
X129033641Y-88514080D01*
X128859588Y-88280731D01*
X128643355Y-88085822D01*
X128393252Y-87936843D01*
X128118891Y-87839519D01*
X127889000Y-87960186D01*
X127635000Y-87960186D01*
X127405109Y-87839519D01*
X127130748Y-87936843D01*
X126880645Y-88085822D01*
X126664412Y-88280731D01*
X126615000Y-88346977D01*
X126615000Y-87800465D01*
X126619281Y-87756999D01*
X126615000Y-87713533D01*
X126615000Y-87713523D01*
X126602195Y-87583510D01*
X126551589Y-87416687D01*
X126469411Y-87262941D01*
X126358817Y-87128183D01*
X126325045Y-87100467D01*
X125878534Y-86653956D01*
X125850817Y-86620183D01*
X125716059Y-86509589D01*
X125562313Y-86427411D01*
X125395490Y-86376805D01*
X125265477Y-86364000D01*
X125265469Y-86364000D01*
X125222000Y-86359719D01*
X125178531Y-86364000D01*
X118426570Y-86364000D01*
X118490825Y-86229099D01*
X118535476Y-86081890D01*
X118426879Y-85876110D01*
X130384524Y-85876110D01*
X130505845Y-86106000D01*
X131699000Y-86106000D01*
X131699000Y-84912186D01*
X131953000Y-84912186D01*
X131953000Y-86106000D01*
X133146155Y-86106000D01*
X133267476Y-85876110D01*
X134448524Y-85876110D01*
X134569845Y-86106000D01*
X135763000Y-86106000D01*
X135763000Y-84912186D01*
X136017000Y-84912186D01*
X136017000Y-86106000D01*
X137210155Y-86106000D01*
X137331476Y-85876110D01*
X138512524Y-85876110D01*
X138633845Y-86106000D01*
X139827000Y-86106000D01*
X139827000Y-84912186D01*
X140081000Y-84912186D01*
X140081000Y-86106000D01*
X141274155Y-86106000D01*
X141395476Y-85876110D01*
X141350825Y-85728901D01*
X141225641Y-85466080D01*
X141051588Y-85232731D01*
X140835355Y-85037822D01*
X140585252Y-84888843D01*
X140310891Y-84791519D01*
X140081000Y-84912186D01*
X139827000Y-84912186D01*
X139597109Y-84791519D01*
X139322748Y-84888843D01*
X139072645Y-85037822D01*
X138856412Y-85232731D01*
X138682359Y-85466080D01*
X138557175Y-85728901D01*
X138512524Y-85876110D01*
X137331476Y-85876110D01*
X137286825Y-85728901D01*
X137161641Y-85466080D01*
X136987588Y-85232731D01*
X136771355Y-85037822D01*
X136521252Y-84888843D01*
X136246891Y-84791519D01*
X136017000Y-84912186D01*
X135763000Y-84912186D01*
X135533109Y-84791519D01*
X135258748Y-84888843D01*
X135008645Y-85037822D01*
X134792412Y-85232731D01*
X134618359Y-85466080D01*
X134493175Y-85728901D01*
X134448524Y-85876110D01*
X133267476Y-85876110D01*
X133222825Y-85728901D01*
X133097641Y-85466080D01*
X132923588Y-85232731D01*
X132707355Y-85037822D01*
X132457252Y-84888843D01*
X132182891Y-84791519D01*
X131953000Y-84912186D01*
X131699000Y-84912186D01*
X131469109Y-84791519D01*
X131194748Y-84888843D01*
X130944645Y-85037822D01*
X130728412Y-85232731D01*
X130554359Y-85466080D01*
X130429175Y-85728901D01*
X130384524Y-85876110D01*
X118426879Y-85876110D01*
X118414155Y-85852000D01*
X117221000Y-85852000D01*
X117221000Y-85872000D01*
X116967000Y-85872000D01*
X116967000Y-85852000D01*
X115773845Y-85852000D01*
X115652524Y-86081890D01*
X115697175Y-86229099D01*
X115822359Y-86491920D01*
X115996412Y-86725269D01*
X116080466Y-86801034D01*
X115999820Y-86825498D01*
X115889506Y-86884463D01*
X115792815Y-86963815D01*
X115713463Y-87060506D01*
X115654498Y-87170820D01*
X115618188Y-87290518D01*
X115605928Y-87415000D01*
X115605928Y-89115000D01*
X115618188Y-89239482D01*
X115654498Y-89359180D01*
X115713463Y-89469494D01*
X115792815Y-89566185D01*
X115889506Y-89645537D01*
X115999820Y-89704502D01*
X116119518Y-89740812D01*
X116244000Y-89753072D01*
X117944000Y-89753072D01*
X118068482Y-89740812D01*
X118188180Y-89704502D01*
X118298494Y-89645537D01*
X118395185Y-89566185D01*
X118474537Y-89469494D01*
X118533502Y-89359180D01*
X118569812Y-89239482D01*
X118582072Y-89115000D01*
X118582072Y-88134000D01*
X122763196Y-88134000D01*
X122600412Y-88280731D01*
X122426359Y-88514080D01*
X122301175Y-88776901D01*
X122256524Y-88924110D01*
X122377845Y-89154000D01*
X123571000Y-89154000D01*
X123571000Y-89134000D01*
X123825000Y-89134000D01*
X123825000Y-89154000D01*
X123845000Y-89154000D01*
X123845000Y-89408000D01*
X123825000Y-89408000D01*
X123825000Y-89428000D01*
X123571000Y-89428000D01*
X123571000Y-89408000D01*
X122377845Y-89408000D01*
X122256524Y-89637890D01*
X122301175Y-89785099D01*
X122426359Y-90047920D01*
X122600412Y-90281269D01*
X122816645Y-90476178D01*
X122933534Y-90545805D01*
X122751368Y-90667525D01*
X122544525Y-90874368D01*
X122382010Y-91117589D01*
X122270068Y-91387842D01*
X122213000Y-91674740D01*
X122213000Y-91967260D01*
X122270068Y-92254158D01*
X122382010Y-92524411D01*
X122544525Y-92767632D01*
X122676380Y-92899487D01*
X122603820Y-92921498D01*
X122493506Y-92980463D01*
X122396815Y-93059815D01*
X122317463Y-93156506D01*
X122258498Y-93266820D01*
X122222188Y-93386518D01*
X122213375Y-93476000D01*
X118578625Y-93476000D01*
X118569812Y-93386518D01*
X118533502Y-93266820D01*
X118474537Y-93156506D01*
X118395185Y-93059815D01*
X118298494Y-92980463D01*
X118188180Y-92921498D01*
X118068482Y-92885188D01*
X117944000Y-92872928D01*
X116244000Y-92872928D01*
X116119518Y-92885188D01*
X115999820Y-92921498D01*
X115889506Y-92980463D01*
X115792815Y-93059815D01*
X115713463Y-93156506D01*
X115654498Y-93266820D01*
X115618188Y-93386518D01*
X115605928Y-93511000D01*
X115605928Y-95211000D01*
X115618188Y-95335482D01*
X115654498Y-95455180D01*
X115713463Y-95565494D01*
X115792815Y-95662185D01*
X115889506Y-95741537D01*
X115999820Y-95800502D01*
X116072380Y-95822513D01*
X115940525Y-95954368D01*
X115778010Y-96197589D01*
X115666068Y-96467842D01*
X115609000Y-96754740D01*
X115609000Y-97047260D01*
X115646925Y-97237918D01*
X114990843Y-97894000D01*
X111955072Y-97894000D01*
X111955072Y-97328999D01*
X111938008Y-97155745D01*
X111887472Y-96989149D01*
X111805405Y-96835613D01*
X111694962Y-96701038D01*
X111560387Y-96590595D01*
X111406851Y-96508528D01*
X111402000Y-96507056D01*
X111402000Y-95849072D01*
X112483000Y-95849072D01*
X112607482Y-95836812D01*
X112727180Y-95800502D01*
X112837494Y-95741537D01*
X112934185Y-95662185D01*
X113013537Y-95565494D01*
X113072502Y-95455180D01*
X113108812Y-95335482D01*
X113121072Y-95211000D01*
X113121072Y-93511000D01*
X113108812Y-93386518D01*
X113072502Y-93266820D01*
X113013537Y-93156506D01*
X112934185Y-93059815D01*
X112837494Y-92980463D01*
X112727180Y-92921498D01*
X112654620Y-92899487D01*
X112786475Y-92767632D01*
X112948990Y-92524411D01*
X113060932Y-92254158D01*
X113118000Y-91967260D01*
X113118000Y-91674740D01*
X113060932Y-91387842D01*
X112948990Y-91117589D01*
X112786475Y-90874368D01*
X112579632Y-90667525D01*
X112397466Y-90545805D01*
X112514355Y-90476178D01*
X112730588Y-90281269D01*
X112904641Y-90047920D01*
X113029825Y-89785099D01*
X113074476Y-89637890D01*
X112953155Y-89408000D01*
X111760000Y-89408000D01*
X111760000Y-89428000D01*
X111506000Y-89428000D01*
X111506000Y-89408000D01*
X110312845Y-89408000D01*
X110191524Y-89637890D01*
X110236175Y-89785099D01*
X110361359Y-90047920D01*
X110535412Y-90281269D01*
X110751645Y-90476178D01*
X110868534Y-90545805D01*
X110686368Y-90667525D01*
X110479525Y-90874368D01*
X110317010Y-91117589D01*
X110205068Y-91387842D01*
X110148000Y-91674740D01*
X110148000Y-91967260D01*
X110185924Y-92157918D01*
X109024450Y-93319393D01*
X109008502Y-93266820D01*
X108949537Y-93156506D01*
X108870185Y-93059815D01*
X108773494Y-92980463D01*
X108663180Y-92921498D01*
X108590620Y-92899487D01*
X108722475Y-92767632D01*
X108884990Y-92524411D01*
X108996932Y-92254158D01*
X109054000Y-91967260D01*
X109054000Y-91674740D01*
X108996932Y-91387842D01*
X108884990Y-91117589D01*
X108722475Y-90874368D01*
X108515632Y-90667525D01*
X108333466Y-90545805D01*
X108450355Y-90476178D01*
X108666588Y-90281269D01*
X108840641Y-90047920D01*
X108965825Y-89785099D01*
X109010476Y-89637890D01*
X108889155Y-89408000D01*
X107696000Y-89408000D01*
X107696000Y-89428000D01*
X107442000Y-89428000D01*
X107442000Y-89408000D01*
X106248845Y-89408000D01*
X106127524Y-89637890D01*
X106172175Y-89785099D01*
X106297359Y-90047920D01*
X106471412Y-90281269D01*
X106687645Y-90476178D01*
X106804534Y-90545805D01*
X106622368Y-90667525D01*
X106415525Y-90874368D01*
X106253010Y-91117589D01*
X106141068Y-91387842D01*
X106084000Y-91674740D01*
X106084000Y-91967260D01*
X106121925Y-92157918D01*
X105814000Y-92465843D01*
X105814000Y-91097555D01*
X105817797Y-91059000D01*
X105814000Y-91020444D01*
X105814000Y-91020439D01*
X105809297Y-90972687D01*
X105802642Y-90905113D01*
X105757754Y-90757140D01*
X105751485Y-90745411D01*
X105684862Y-90620767D01*
X105586764Y-90501236D01*
X105556816Y-90476658D01*
X104444075Y-89363918D01*
X104482000Y-89173260D01*
X104482000Y-88924110D01*
X106127524Y-88924110D01*
X106248845Y-89154000D01*
X107442000Y-89154000D01*
X107442000Y-87960186D01*
X107696000Y-87960186D01*
X107696000Y-89154000D01*
X108889155Y-89154000D01*
X109010476Y-88924110D01*
X110191524Y-88924110D01*
X110312845Y-89154000D01*
X111506000Y-89154000D01*
X111506000Y-87960186D01*
X111760000Y-87960186D01*
X111760000Y-89154000D01*
X112953155Y-89154000D01*
X113074476Y-88924110D01*
X113029825Y-88776901D01*
X112904641Y-88514080D01*
X112730588Y-88280731D01*
X112514355Y-88085822D01*
X112264252Y-87936843D01*
X111989891Y-87839519D01*
X111760000Y-87960186D01*
X111506000Y-87960186D01*
X111276109Y-87839519D01*
X111001748Y-87936843D01*
X110751645Y-88085822D01*
X110535412Y-88280731D01*
X110361359Y-88514080D01*
X110236175Y-88776901D01*
X110191524Y-88924110D01*
X109010476Y-88924110D01*
X108965825Y-88776901D01*
X108840641Y-88514080D01*
X108666588Y-88280731D01*
X108450355Y-88085822D01*
X108200252Y-87936843D01*
X107925891Y-87839519D01*
X107696000Y-87960186D01*
X107442000Y-87960186D01*
X107212109Y-87839519D01*
X106937748Y-87936843D01*
X106687645Y-88085822D01*
X106471412Y-88280731D01*
X106297359Y-88514080D01*
X106172175Y-88776901D01*
X106127524Y-88924110D01*
X104482000Y-88924110D01*
X104482000Y-88880740D01*
X104424932Y-88593842D01*
X104312990Y-88323589D01*
X104150475Y-88080368D01*
X103943632Y-87873525D01*
X103761466Y-87751805D01*
X103878355Y-87682178D01*
X104094588Y-87487269D01*
X104268641Y-87253920D01*
X104393825Y-86991099D01*
X104438476Y-86843890D01*
X104317155Y-86614000D01*
X103124000Y-86614000D01*
X103124000Y-86634000D01*
X102870000Y-86634000D01*
X102870000Y-86614000D01*
X101676845Y-86614000D01*
X101555524Y-86843890D01*
X101600175Y-86991099D01*
X101725359Y-87253920D01*
X101899412Y-87487269D01*
X102115645Y-87682178D01*
X102232534Y-87751805D01*
X102050368Y-87873525D01*
X101843525Y-88080368D01*
X101681010Y-88323589D01*
X101569068Y-88593842D01*
X101512000Y-88880740D01*
X101512000Y-89173260D01*
X101569068Y-89460158D01*
X101681010Y-89730411D01*
X101843525Y-89973632D01*
X101975380Y-90105487D01*
X101902820Y-90127498D01*
X101792506Y-90186463D01*
X101695815Y-90265815D01*
X101616463Y-90362506D01*
X101557498Y-90472820D01*
X101541831Y-90524468D01*
X101522764Y-90501236D01*
X101492816Y-90476658D01*
X100380075Y-89363918D01*
X100418000Y-89173260D01*
X100418000Y-88880740D01*
X100360932Y-88593842D01*
X100248990Y-88323589D01*
X100086475Y-88080368D01*
X99879632Y-87873525D01*
X99697466Y-87751805D01*
X99814355Y-87682178D01*
X100030588Y-87487269D01*
X100204641Y-87253920D01*
X100329825Y-86991099D01*
X100374476Y-86843890D01*
X100253155Y-86614000D01*
X99060000Y-86614000D01*
X99060000Y-86634000D01*
X98806000Y-86634000D01*
X98806000Y-86614000D01*
X97612845Y-86614000D01*
X97491524Y-86843890D01*
X97536175Y-86991099D01*
X97661359Y-87253920D01*
X97835412Y-87487269D01*
X98051645Y-87682178D01*
X98168534Y-87751805D01*
X97986368Y-87873525D01*
X97779525Y-88080368D01*
X97617010Y-88323589D01*
X97505068Y-88593842D01*
X97448000Y-88880740D01*
X97448000Y-89173260D01*
X97505068Y-89460158D01*
X97617010Y-89730411D01*
X97779525Y-89973632D01*
X97911380Y-90105487D01*
X97838820Y-90127498D01*
X97728506Y-90186463D01*
X97631815Y-90265815D01*
X97552463Y-90362506D01*
X97493498Y-90472820D01*
X97477831Y-90524468D01*
X97458764Y-90501236D01*
X97428816Y-90476658D01*
X96316075Y-89363918D01*
X96354000Y-89173260D01*
X96354000Y-88880740D01*
X96296932Y-88593842D01*
X96184990Y-88323589D01*
X96022475Y-88080368D01*
X95815632Y-87873525D01*
X95633466Y-87751805D01*
X95750355Y-87682178D01*
X95966588Y-87487269D01*
X96140641Y-87253920D01*
X96265825Y-86991099D01*
X96310476Y-86843890D01*
X96189155Y-86614000D01*
X94996000Y-86614000D01*
X94996000Y-86634000D01*
X94742000Y-86634000D01*
X94742000Y-86614000D01*
X93548845Y-86614000D01*
X93427524Y-86843890D01*
X93472175Y-86991099D01*
X93597359Y-87253920D01*
X93771412Y-87487269D01*
X93987645Y-87682178D01*
X94104534Y-87751805D01*
X93922368Y-87873525D01*
X93715525Y-88080368D01*
X93553010Y-88323589D01*
X93441068Y-88593842D01*
X93384000Y-88880740D01*
X93384000Y-89173260D01*
X93441068Y-89460158D01*
X93553010Y-89730411D01*
X93715525Y-89973632D01*
X93847380Y-90105487D01*
X93774820Y-90127498D01*
X93664506Y-90186463D01*
X93567815Y-90265815D01*
X93488463Y-90362506D01*
X93429498Y-90472820D01*
X93393188Y-90592518D01*
X93380928Y-90717000D01*
X92887000Y-90717000D01*
X92887000Y-86130110D01*
X93427524Y-86130110D01*
X93548845Y-86360000D01*
X94742000Y-86360000D01*
X94742000Y-85166186D01*
X94996000Y-85166186D01*
X94996000Y-86360000D01*
X96189155Y-86360000D01*
X96310476Y-86130110D01*
X97491524Y-86130110D01*
X97612845Y-86360000D01*
X98806000Y-86360000D01*
X98806000Y-85166186D01*
X99060000Y-85166186D01*
X99060000Y-86360000D01*
X100253155Y-86360000D01*
X100374476Y-86130110D01*
X101555524Y-86130110D01*
X101676845Y-86360000D01*
X102870000Y-86360000D01*
X102870000Y-85166186D01*
X103124000Y-85166186D01*
X103124000Y-86360000D01*
X104317155Y-86360000D01*
X104438476Y-86130110D01*
X104393825Y-85982901D01*
X104268641Y-85720080D01*
X104094588Y-85486731D01*
X103962990Y-85368110D01*
X115652524Y-85368110D01*
X115773845Y-85598000D01*
X116967000Y-85598000D01*
X116967000Y-84404186D01*
X117221000Y-84404186D01*
X117221000Y-85598000D01*
X118414155Y-85598000D01*
X118535476Y-85368110D01*
X118490825Y-85220901D01*
X118365641Y-84958080D01*
X118191588Y-84724731D01*
X117975355Y-84529822D01*
X117725252Y-84380843D01*
X117450891Y-84283519D01*
X117221000Y-84404186D01*
X116967000Y-84404186D01*
X116737109Y-84283519D01*
X116462748Y-84380843D01*
X116212645Y-84529822D01*
X115996412Y-84724731D01*
X115822359Y-84958080D01*
X115697175Y-85220901D01*
X115652524Y-85368110D01*
X103962990Y-85368110D01*
X103878355Y-85291822D01*
X103628252Y-85142843D01*
X103353891Y-85045519D01*
X103124000Y-85166186D01*
X102870000Y-85166186D01*
X102640109Y-85045519D01*
X102365748Y-85142843D01*
X102115645Y-85291822D01*
X101899412Y-85486731D01*
X101725359Y-85720080D01*
X101600175Y-85982901D01*
X101555524Y-86130110D01*
X100374476Y-86130110D01*
X100329825Y-85982901D01*
X100204641Y-85720080D01*
X100030588Y-85486731D01*
X99814355Y-85291822D01*
X99564252Y-85142843D01*
X99289891Y-85045519D01*
X99060000Y-85166186D01*
X98806000Y-85166186D01*
X98576109Y-85045519D01*
X98301748Y-85142843D01*
X98051645Y-85291822D01*
X97835412Y-85486731D01*
X97661359Y-85720080D01*
X97536175Y-85982901D01*
X97491524Y-86130110D01*
X96310476Y-86130110D01*
X96265825Y-85982901D01*
X96140641Y-85720080D01*
X95966588Y-85486731D01*
X95750355Y-85291822D01*
X95500252Y-85142843D01*
X95225891Y-85045519D01*
X94996000Y-85166186D01*
X94742000Y-85166186D01*
X94512109Y-85045519D01*
X94237748Y-85142843D01*
X93987645Y-85291822D01*
X93771412Y-85486731D01*
X93597359Y-85720080D01*
X93472175Y-85982901D01*
X93427524Y-86130110D01*
X92887000Y-86130110D01*
X92887000Y-83362000D01*
X142113000Y-83362000D01*
X142113000Y-170688000D01*
G37*
%TD.AperFunction*%
D21*
X105537000Y-104664000D02*
X105557000Y-104664000D01*
X105557000Y-104918000D01*
X105537000Y-104918000D01*
X105537000Y-105717250D01*
X105575001Y-105755251D01*
X105575001Y-105835498D01*
X105508815Y-105889815D01*
X105429463Y-105986506D01*
X105410000Y-106022918D01*
X105390537Y-105986506D01*
X105311185Y-105889815D01*
X105214494Y-105810463D01*
X105198393Y-105801857D01*
X105283000Y-105717250D01*
X105283000Y-104918000D01*
X105263000Y-104918000D01*
X105263000Y-104664000D01*
X105283000Y-104664000D01*
X105283000Y-104644000D01*
X105537000Y-104644000D01*
X105537000Y-104664000D01*
%TA.AperFunction,Conductor*%
D22*
G36*
X105537000Y-104664000D02*
G01*
X105557000Y-104664000D01*
X105557000Y-104918000D01*
X105537000Y-104918000D01*
X105537000Y-105717250D01*
X105575001Y-105755251D01*
X105575001Y-105835498D01*
X105508815Y-105889815D01*
X105429463Y-105986506D01*
X105410000Y-106022918D01*
X105390537Y-105986506D01*
X105311185Y-105889815D01*
X105214494Y-105810463D01*
X105198393Y-105801857D01*
X105283000Y-105717250D01*
X105283000Y-104918000D01*
X105263000Y-104918000D01*
X105263000Y-104664000D01*
X105283000Y-104664000D01*
X105283000Y-104644000D01*
X105537000Y-104644000D01*
X105537000Y-104664000D01*
G37*
%TD.AperFunction*%
D21*
X96116000Y-93052447D02*
X96112203Y-93091000D01*
X96116000Y-93129553D01*
X96116000Y-93129560D01*
X96127359Y-93244886D01*
X96172246Y-93392859D01*
X96245138Y-93529232D01*
X96343236Y-93648764D01*
X96373190Y-93673347D01*
X96826653Y-94126810D01*
X96851236Y-94156764D01*
X96970767Y-94254862D01*
X97107140Y-94327754D01*
X97216738Y-94361000D01*
X97255112Y-94372641D01*
X97269490Y-94374057D01*
X97370439Y-94384000D01*
X97370446Y-94384000D01*
X97408999Y-94387797D01*
X97447552Y-94384000D01*
X99932723Y-94384000D01*
X103228001Y-97679278D01*
X103228001Y-98172928D01*
X101975000Y-98172928D01*
X101943808Y-98176000D01*
X101302157Y-98176000D01*
X100409072Y-97282915D01*
X100409072Y-96704999D01*
X100392008Y-96531745D01*
X100341472Y-96365149D01*
X100259405Y-96211613D01*
X100148962Y-96077038D01*
X100014387Y-95966595D01*
X99860851Y-95884528D01*
X99694255Y-95833992D01*
X99521001Y-95816928D01*
X98820999Y-95816928D01*
X98647745Y-95833992D01*
X98481149Y-95884528D01*
X98327613Y-95966595D01*
X98193038Y-96077038D01*
X98171000Y-96103891D01*
X98148962Y-96077038D01*
X98014387Y-95966595D01*
X97860851Y-95884528D01*
X97694255Y-95833992D01*
X97521001Y-95816928D01*
X96820999Y-95816928D01*
X96647745Y-95833992D01*
X96481149Y-95884528D01*
X96327613Y-95966595D01*
X96193038Y-96077038D01*
X96082595Y-96211613D01*
X96000528Y-96365149D01*
X95949992Y-96531745D01*
X95932928Y-96704999D01*
X95932928Y-97605001D01*
X95949992Y-97778255D01*
X96000528Y-97944851D01*
X96077021Y-98087959D01*
X96040463Y-98132506D01*
X95981498Y-98242820D01*
X95945188Y-98362518D01*
X95932928Y-98487000D01*
X95936000Y-98901250D01*
X96094750Y-99060000D01*
X97044000Y-99060000D01*
X97044000Y-99040000D01*
X97298000Y-99040000D01*
X97298000Y-99060000D01*
X97318000Y-99060000D01*
X97318000Y-99314000D01*
X97298000Y-99314000D01*
X97298000Y-100363250D01*
X97456750Y-100522000D01*
X97771000Y-100525072D01*
X97895482Y-100512812D01*
X98015180Y-100476502D01*
X98125494Y-100417537D01*
X98222185Y-100338185D01*
X98246363Y-100308724D01*
X98327613Y-100375405D01*
X98481149Y-100457472D01*
X98647745Y-100508008D01*
X98820999Y-100525072D01*
X99521001Y-100525072D01*
X99694255Y-100508008D01*
X99860851Y-100457472D01*
X100014387Y-100375405D01*
X100148962Y-100264962D01*
X100164524Y-100246000D01*
X101275898Y-100246000D01*
X101275629Y-100246887D01*
X101261928Y-100386000D01*
X101261928Y-100536000D01*
X101275629Y-100675113D01*
X101286515Y-100710999D01*
X101275629Y-100746887D01*
X101261928Y-100886000D01*
X101261928Y-101036000D01*
X101275629Y-101175113D01*
X101286515Y-101211000D01*
X101275629Y-101246887D01*
X101261928Y-101386000D01*
X101261928Y-101536000D01*
X101275629Y-101675113D01*
X101275898Y-101676000D01*
X100294457Y-101676000D01*
X100273405Y-101636614D01*
X100162962Y-101502038D01*
X100028386Y-101391595D01*
X99874850Y-101309528D01*
X99708254Y-101258992D01*
X99535000Y-101241928D01*
X98585000Y-101241928D01*
X98411746Y-101258992D01*
X98245150Y-101309528D01*
X98091614Y-101391595D01*
X97957038Y-101502038D01*
X97891005Y-101582500D01*
X97119079Y-101582500D01*
X95754000Y-100217422D01*
X95754000Y-99887000D01*
X95932928Y-99887000D01*
X95945188Y-100011482D01*
X95981498Y-100131180D01*
X96040463Y-100241494D01*
X96119815Y-100338185D01*
X96216506Y-100417537D01*
X96326820Y-100476502D01*
X96446518Y-100512812D01*
X96571000Y-100525072D01*
X96885250Y-100522000D01*
X97044000Y-100363250D01*
X97044000Y-99314000D01*
X96094750Y-99314000D01*
X95936000Y-99472750D01*
X95932928Y-99887000D01*
X95754000Y-99887000D01*
X95754000Y-93051625D01*
X95843482Y-93042812D01*
X95963180Y-93006502D01*
X96073494Y-92947537D01*
X96116000Y-92912653D01*
X96116000Y-93052447D01*
%TA.AperFunction,Conductor*%
D22*
G36*
X96116000Y-93052447D02*
G01*
X96112203Y-93091000D01*
X96116000Y-93129553D01*
X96116000Y-93129560D01*
X96127359Y-93244886D01*
X96172246Y-93392859D01*
X96245138Y-93529232D01*
X96343236Y-93648764D01*
X96373190Y-93673347D01*
X96826653Y-94126810D01*
X96851236Y-94156764D01*
X96970767Y-94254862D01*
X97107140Y-94327754D01*
X97216738Y-94361000D01*
X97255112Y-94372641D01*
X97269490Y-94374057D01*
X97370439Y-94384000D01*
X97370446Y-94384000D01*
X97408999Y-94387797D01*
X97447552Y-94384000D01*
X99932723Y-94384000D01*
X103228001Y-97679278D01*
X103228001Y-98172928D01*
X101975000Y-98172928D01*
X101943808Y-98176000D01*
X101302157Y-98176000D01*
X100409072Y-97282915D01*
X100409072Y-96704999D01*
X100392008Y-96531745D01*
X100341472Y-96365149D01*
X100259405Y-96211613D01*
X100148962Y-96077038D01*
X100014387Y-95966595D01*
X99860851Y-95884528D01*
X99694255Y-95833992D01*
X99521001Y-95816928D01*
X98820999Y-95816928D01*
X98647745Y-95833992D01*
X98481149Y-95884528D01*
X98327613Y-95966595D01*
X98193038Y-96077038D01*
X98171000Y-96103891D01*
X98148962Y-96077038D01*
X98014387Y-95966595D01*
X97860851Y-95884528D01*
X97694255Y-95833992D01*
X97521001Y-95816928D01*
X96820999Y-95816928D01*
X96647745Y-95833992D01*
X96481149Y-95884528D01*
X96327613Y-95966595D01*
X96193038Y-96077038D01*
X96082595Y-96211613D01*
X96000528Y-96365149D01*
X95949992Y-96531745D01*
X95932928Y-96704999D01*
X95932928Y-97605001D01*
X95949992Y-97778255D01*
X96000528Y-97944851D01*
X96077021Y-98087959D01*
X96040463Y-98132506D01*
X95981498Y-98242820D01*
X95945188Y-98362518D01*
X95932928Y-98487000D01*
X95936000Y-98901250D01*
X96094750Y-99060000D01*
X97044000Y-99060000D01*
X97044000Y-99040000D01*
X97298000Y-99040000D01*
X97298000Y-99060000D01*
X97318000Y-99060000D01*
X97318000Y-99314000D01*
X97298000Y-99314000D01*
X97298000Y-100363250D01*
X97456750Y-100522000D01*
X97771000Y-100525072D01*
X97895482Y-100512812D01*
X98015180Y-100476502D01*
X98125494Y-100417537D01*
X98222185Y-100338185D01*
X98246363Y-100308724D01*
X98327613Y-100375405D01*
X98481149Y-100457472D01*
X98647745Y-100508008D01*
X98820999Y-100525072D01*
X99521001Y-100525072D01*
X99694255Y-100508008D01*
X99860851Y-100457472D01*
X100014387Y-100375405D01*
X100148962Y-100264962D01*
X100164524Y-100246000D01*
X101275898Y-100246000D01*
X101275629Y-100246887D01*
X101261928Y-100386000D01*
X101261928Y-100536000D01*
X101275629Y-100675113D01*
X101286515Y-100710999D01*
X101275629Y-100746887D01*
X101261928Y-100886000D01*
X101261928Y-101036000D01*
X101275629Y-101175113D01*
X101286515Y-101211000D01*
X101275629Y-101246887D01*
X101261928Y-101386000D01*
X101261928Y-101536000D01*
X101275629Y-101675113D01*
X101275898Y-101676000D01*
X100294457Y-101676000D01*
X100273405Y-101636614D01*
X100162962Y-101502038D01*
X100028386Y-101391595D01*
X99874850Y-101309528D01*
X99708254Y-101258992D01*
X99535000Y-101241928D01*
X98585000Y-101241928D01*
X98411746Y-101258992D01*
X98245150Y-101309528D01*
X98091614Y-101391595D01*
X97957038Y-101502038D01*
X97891005Y-101582500D01*
X97119079Y-101582500D01*
X95754000Y-100217422D01*
X95754000Y-99887000D01*
X95932928Y-99887000D01*
X95945188Y-100011482D01*
X95981498Y-100131180D01*
X96040463Y-100241494D01*
X96119815Y-100338185D01*
X96216506Y-100417537D01*
X96326820Y-100476502D01*
X96446518Y-100512812D01*
X96571000Y-100525072D01*
X96885250Y-100522000D01*
X97044000Y-100363250D01*
X97044000Y-99314000D01*
X96094750Y-99314000D01*
X95936000Y-99472750D01*
X95932928Y-99887000D01*
X95754000Y-99887000D01*
X95754000Y-93051625D01*
X95843482Y-93042812D01*
X95963180Y-93006502D01*
X96073494Y-92947537D01*
X96116000Y-92912653D01*
X96116000Y-93052447D01*
G37*
%TD.AperFunction*%
%TD*%
M02*
