%TF.GenerationSoftware,KiCad,Pcbnew,5.1.7-a382d34a8~87~ubuntu20.04.1*%
%TF.CreationDate,2020-11-04T11:30:01+01:00*%
%TF.ProjectId,isoSPI_Interface,69736f53-5049-45f4-996e-746572666163,rev?*%
%TF.SameCoordinates,Original*%
%TF.FileFunction,Paste,Top*%
%TF.FilePolarity,Positive*%
%FSLAX46Y46*%
G04 Gerber Fmt 4.6, Leading zero omitted, Abs format (unit mm)*
G04 Created by KiCad (PCBNEW 5.1.7-a382d34a8~87~ubuntu20.04.1) date 2020-11-04 11:30:01*
%MOMM*%
%LPD*%
G01*
G04 APERTURE LIST*
%ADD10R,0.800000X2.200000*%
%ADD11R,0.800000X0.900000*%
G04 APERTURE END LIST*
D10*
%TO.C,T301*%
X122729000Y-149211000D03*
X120729000Y-149211000D03*
X118729000Y-149211000D03*
X116729000Y-149211000D03*
X114729000Y-149211000D03*
X112729000Y-149211000D03*
X112729000Y-134761000D03*
X114729000Y-134761000D03*
X116729000Y-134761000D03*
X118729000Y-134761000D03*
X120729000Y-134761000D03*
X122729000Y-134761000D03*
%TD*%
%TO.C,R304*%
G36*
G01*
X112083001Y-125330000D02*
X111182999Y-125330000D01*
G75*
G02*
X110933000Y-125080001I0J249999D01*
G01*
X110933000Y-124379999D01*
G75*
G02*
X111182999Y-124130000I249999J0D01*
G01*
X112083001Y-124130000D01*
G75*
G02*
X112333000Y-124379999I0J-249999D01*
G01*
X112333000Y-125080001D01*
G75*
G02*
X112083001Y-125330000I-249999J0D01*
G01*
G37*
G36*
G01*
X112083001Y-127330000D02*
X111182999Y-127330000D01*
G75*
G02*
X110933000Y-127080001I0J249999D01*
G01*
X110933000Y-126379999D01*
G75*
G02*
X111182999Y-126130000I249999J0D01*
G01*
X112083001Y-126130000D01*
G75*
G02*
X112333000Y-126379999I0J-249999D01*
G01*
X112333000Y-127080001D01*
G75*
G02*
X112083001Y-127330000I-249999J0D01*
G01*
G37*
%TD*%
%TO.C,R303*%
G36*
G01*
X115081000Y-125164001D02*
X115081000Y-124263999D01*
G75*
G02*
X115330999Y-124014000I249999J0D01*
G01*
X116031001Y-124014000D01*
G75*
G02*
X116281000Y-124263999I0J-249999D01*
G01*
X116281000Y-125164001D01*
G75*
G02*
X116031001Y-125414000I-249999J0D01*
G01*
X115330999Y-125414000D01*
G75*
G02*
X115081000Y-125164001I0J249999D01*
G01*
G37*
G36*
G01*
X113081000Y-125164001D02*
X113081000Y-124263999D01*
G75*
G02*
X113330999Y-124014000I249999J0D01*
G01*
X114031001Y-124014000D01*
G75*
G02*
X114281000Y-124263999I0J-249999D01*
G01*
X114281000Y-125164001D01*
G75*
G02*
X114031001Y-125414000I-249999J0D01*
G01*
X113330999Y-125414000D01*
G75*
G02*
X113081000Y-125164001I0J249999D01*
G01*
G37*
%TD*%
%TO.C,R302*%
G36*
G01*
X120669000Y-125164001D02*
X120669000Y-124263999D01*
G75*
G02*
X120918999Y-124014000I249999J0D01*
G01*
X121619001Y-124014000D01*
G75*
G02*
X121869000Y-124263999I0J-249999D01*
G01*
X121869000Y-125164001D01*
G75*
G02*
X121619001Y-125414000I-249999J0D01*
G01*
X120918999Y-125414000D01*
G75*
G02*
X120669000Y-125164001I0J249999D01*
G01*
G37*
G36*
G01*
X118669000Y-125164001D02*
X118669000Y-124263999D01*
G75*
G02*
X118918999Y-124014000I249999J0D01*
G01*
X119619001Y-124014000D01*
G75*
G02*
X119869000Y-124263999I0J-249999D01*
G01*
X119869000Y-125164001D01*
G75*
G02*
X119619001Y-125414000I-249999J0D01*
G01*
X118918999Y-125414000D01*
G75*
G02*
X118669000Y-125164001I0J249999D01*
G01*
G37*
%TD*%
%TO.C,R301*%
G36*
G01*
X122866999Y-126130000D02*
X123767001Y-126130000D01*
G75*
G02*
X124017000Y-126379999I0J-249999D01*
G01*
X124017000Y-127080001D01*
G75*
G02*
X123767001Y-127330000I-249999J0D01*
G01*
X122866999Y-127330000D01*
G75*
G02*
X122617000Y-127080001I0J249999D01*
G01*
X122617000Y-126379999D01*
G75*
G02*
X122866999Y-126130000I249999J0D01*
G01*
G37*
G36*
G01*
X122866999Y-124130000D02*
X123767001Y-124130000D01*
G75*
G02*
X124017000Y-124379999I0J-249999D01*
G01*
X124017000Y-125080001D01*
G75*
G02*
X123767001Y-125330000I-249999J0D01*
G01*
X122866999Y-125330000D01*
G75*
G02*
X122617000Y-125080001I0J249999D01*
G01*
X122617000Y-124379999D01*
G75*
G02*
X122866999Y-124130000I249999J0D01*
G01*
G37*
%TD*%
%TO.C,R203*%
G36*
G01*
X136798000Y-99383001D02*
X136798000Y-98482999D01*
G75*
G02*
X137047999Y-98233000I249999J0D01*
G01*
X137748001Y-98233000D01*
G75*
G02*
X137998000Y-98482999I0J-249999D01*
G01*
X137998000Y-99383001D01*
G75*
G02*
X137748001Y-99633000I-249999J0D01*
G01*
X137047999Y-99633000D01*
G75*
G02*
X136798000Y-99383001I0J249999D01*
G01*
G37*
G36*
G01*
X134798000Y-99383001D02*
X134798000Y-98482999D01*
G75*
G02*
X135047999Y-98233000I249999J0D01*
G01*
X135748001Y-98233000D01*
G75*
G02*
X135998000Y-98482999I0J-249999D01*
G01*
X135998000Y-99383001D01*
G75*
G02*
X135748001Y-99633000I-249999J0D01*
G01*
X135047999Y-99633000D01*
G75*
G02*
X134798000Y-99383001I0J249999D01*
G01*
G37*
%TD*%
%TO.C,R202*%
G36*
G01*
X136798000Y-97351001D02*
X136798000Y-96450999D01*
G75*
G02*
X137047999Y-96201000I249999J0D01*
G01*
X137748001Y-96201000D01*
G75*
G02*
X137998000Y-96450999I0J-249999D01*
G01*
X137998000Y-97351001D01*
G75*
G02*
X137748001Y-97601000I-249999J0D01*
G01*
X137047999Y-97601000D01*
G75*
G02*
X136798000Y-97351001I0J249999D01*
G01*
G37*
G36*
G01*
X134798000Y-97351001D02*
X134798000Y-96450999D01*
G75*
G02*
X135047999Y-96201000I249999J0D01*
G01*
X135748001Y-96201000D01*
G75*
G02*
X135998000Y-96450999I0J-249999D01*
G01*
X135998000Y-97351001D01*
G75*
G02*
X135748001Y-97601000I-249999J0D01*
G01*
X135047999Y-97601000D01*
G75*
G02*
X134798000Y-97351001I0J249999D01*
G01*
G37*
%TD*%
%TO.C,R201*%
G36*
G01*
X124263999Y-98825000D02*
X125164001Y-98825000D01*
G75*
G02*
X125414000Y-99074999I0J-249999D01*
G01*
X125414000Y-99775001D01*
G75*
G02*
X125164001Y-100025000I-249999J0D01*
G01*
X124263999Y-100025000D01*
G75*
G02*
X124014000Y-99775001I0J249999D01*
G01*
X124014000Y-99074999D01*
G75*
G02*
X124263999Y-98825000I249999J0D01*
G01*
G37*
G36*
G01*
X124263999Y-96825000D02*
X125164001Y-96825000D01*
G75*
G02*
X125414000Y-97074999I0J-249999D01*
G01*
X125414000Y-97775001D01*
G75*
G02*
X125164001Y-98025000I-249999J0D01*
G01*
X124263999Y-98025000D01*
G75*
G02*
X124014000Y-97775001I0J249999D01*
G01*
X124014000Y-97074999D01*
G75*
G02*
X124263999Y-96825000I249999J0D01*
G01*
G37*
%TD*%
%TO.C,R103*%
G36*
G01*
X98609999Y-115335000D02*
X99510001Y-115335000D01*
G75*
G02*
X99760000Y-115584999I0J-249999D01*
G01*
X99760000Y-116285001D01*
G75*
G02*
X99510001Y-116535000I-249999J0D01*
G01*
X98609999Y-116535000D01*
G75*
G02*
X98360000Y-116285001I0J249999D01*
G01*
X98360000Y-115584999D01*
G75*
G02*
X98609999Y-115335000I249999J0D01*
G01*
G37*
G36*
G01*
X98609999Y-113335000D02*
X99510001Y-113335000D01*
G75*
G02*
X99760000Y-113584999I0J-249999D01*
G01*
X99760000Y-114285001D01*
G75*
G02*
X99510001Y-114535000I-249999J0D01*
G01*
X98609999Y-114535000D01*
G75*
G02*
X98360000Y-114285001I0J249999D01*
G01*
X98360000Y-113584999D01*
G75*
G02*
X98609999Y-113335000I249999J0D01*
G01*
G37*
%TD*%
%TO.C,R102*%
G36*
G01*
X123132001Y-107169000D02*
X122231999Y-107169000D01*
G75*
G02*
X121982000Y-106919001I0J249999D01*
G01*
X121982000Y-106218999D01*
G75*
G02*
X122231999Y-105969000I249999J0D01*
G01*
X123132001Y-105969000D01*
G75*
G02*
X123382000Y-106218999I0J-249999D01*
G01*
X123382000Y-106919001D01*
G75*
G02*
X123132001Y-107169000I-249999J0D01*
G01*
G37*
G36*
G01*
X123132001Y-109169000D02*
X122231999Y-109169000D01*
G75*
G02*
X121982000Y-108919001I0J249999D01*
G01*
X121982000Y-108218999D01*
G75*
G02*
X122231999Y-107969000I249999J0D01*
G01*
X123132001Y-107969000D01*
G75*
G02*
X123382000Y-108218999I0J-249999D01*
G01*
X123382000Y-108919001D01*
G75*
G02*
X123132001Y-109169000I-249999J0D01*
G01*
G37*
%TD*%
%TO.C,R101*%
G36*
G01*
X135439999Y-115335000D02*
X136340001Y-115335000D01*
G75*
G02*
X136590000Y-115584999I0J-249999D01*
G01*
X136590000Y-116285001D01*
G75*
G02*
X136340001Y-116535000I-249999J0D01*
G01*
X135439999Y-116535000D01*
G75*
G02*
X135190000Y-116285001I0J249999D01*
G01*
X135190000Y-115584999D01*
G75*
G02*
X135439999Y-115335000I249999J0D01*
G01*
G37*
G36*
G01*
X135439999Y-113335000D02*
X136340001Y-113335000D01*
G75*
G02*
X136590000Y-113584999I0J-249999D01*
G01*
X136590000Y-114285001D01*
G75*
G02*
X136340001Y-114535000I-249999J0D01*
G01*
X135439999Y-114535000D01*
G75*
G02*
X135190000Y-114285001I0J249999D01*
G01*
X135190000Y-113584999D01*
G75*
G02*
X135439999Y-113335000I249999J0D01*
G01*
G37*
%TD*%
%TO.C,IC201*%
G36*
G01*
X131727000Y-98782000D02*
X131727000Y-98632000D01*
G75*
G02*
X131802000Y-98557000I75000J0D01*
G01*
X133102000Y-98557000D01*
G75*
G02*
X133177000Y-98632000I0J-75000D01*
G01*
X133177000Y-98782000D01*
G75*
G02*
X133102000Y-98857000I-75000J0D01*
G01*
X131802000Y-98857000D01*
G75*
G02*
X131727000Y-98782000I0J75000D01*
G01*
G37*
G36*
G01*
X131727000Y-99282000D02*
X131727000Y-99132000D01*
G75*
G02*
X131802000Y-99057000I75000J0D01*
G01*
X133102000Y-99057000D01*
G75*
G02*
X133177000Y-99132000I0J-75000D01*
G01*
X133177000Y-99282000D01*
G75*
G02*
X133102000Y-99357000I-75000J0D01*
G01*
X131802000Y-99357000D01*
G75*
G02*
X131727000Y-99282000I0J75000D01*
G01*
G37*
G36*
G01*
X131727000Y-99782000D02*
X131727000Y-99632000D01*
G75*
G02*
X131802000Y-99557000I75000J0D01*
G01*
X133102000Y-99557000D01*
G75*
G02*
X133177000Y-99632000I0J-75000D01*
G01*
X133177000Y-99782000D01*
G75*
G02*
X133102000Y-99857000I-75000J0D01*
G01*
X131802000Y-99857000D01*
G75*
G02*
X131727000Y-99782000I0J75000D01*
G01*
G37*
G36*
G01*
X131727000Y-100282000D02*
X131727000Y-100132000D01*
G75*
G02*
X131802000Y-100057000I75000J0D01*
G01*
X133102000Y-100057000D01*
G75*
G02*
X133177000Y-100132000I0J-75000D01*
G01*
X133177000Y-100282000D01*
G75*
G02*
X133102000Y-100357000I-75000J0D01*
G01*
X131802000Y-100357000D01*
G75*
G02*
X131727000Y-100282000I0J75000D01*
G01*
G37*
G36*
G01*
X131727000Y-100782000D02*
X131727000Y-100632000D01*
G75*
G02*
X131802000Y-100557000I75000J0D01*
G01*
X133102000Y-100557000D01*
G75*
G02*
X133177000Y-100632000I0J-75000D01*
G01*
X133177000Y-100782000D01*
G75*
G02*
X133102000Y-100857000I-75000J0D01*
G01*
X131802000Y-100857000D01*
G75*
G02*
X131727000Y-100782000I0J75000D01*
G01*
G37*
G36*
G01*
X131727000Y-101282000D02*
X131727000Y-101132000D01*
G75*
G02*
X131802000Y-101057000I75000J0D01*
G01*
X133102000Y-101057000D01*
G75*
G02*
X133177000Y-101132000I0J-75000D01*
G01*
X133177000Y-101282000D01*
G75*
G02*
X133102000Y-101357000I-75000J0D01*
G01*
X131802000Y-101357000D01*
G75*
G02*
X131727000Y-101282000I0J75000D01*
G01*
G37*
G36*
G01*
X131727000Y-101782000D02*
X131727000Y-101632000D01*
G75*
G02*
X131802000Y-101557000I75000J0D01*
G01*
X133102000Y-101557000D01*
G75*
G02*
X133177000Y-101632000I0J-75000D01*
G01*
X133177000Y-101782000D01*
G75*
G02*
X133102000Y-101857000I-75000J0D01*
G01*
X131802000Y-101857000D01*
G75*
G02*
X131727000Y-101782000I0J75000D01*
G01*
G37*
G36*
G01*
X131727000Y-102282000D02*
X131727000Y-102132000D01*
G75*
G02*
X131802000Y-102057000I75000J0D01*
G01*
X133102000Y-102057000D01*
G75*
G02*
X133177000Y-102132000I0J-75000D01*
G01*
X133177000Y-102282000D01*
G75*
G02*
X133102000Y-102357000I-75000J0D01*
G01*
X131802000Y-102357000D01*
G75*
G02*
X131727000Y-102282000I0J75000D01*
G01*
G37*
G36*
G01*
X127427000Y-102282000D02*
X127427000Y-102132000D01*
G75*
G02*
X127502000Y-102057000I75000J0D01*
G01*
X128802000Y-102057000D01*
G75*
G02*
X128877000Y-102132000I0J-75000D01*
G01*
X128877000Y-102282000D01*
G75*
G02*
X128802000Y-102357000I-75000J0D01*
G01*
X127502000Y-102357000D01*
G75*
G02*
X127427000Y-102282000I0J75000D01*
G01*
G37*
G36*
G01*
X127427000Y-101782000D02*
X127427000Y-101632000D01*
G75*
G02*
X127502000Y-101557000I75000J0D01*
G01*
X128802000Y-101557000D01*
G75*
G02*
X128877000Y-101632000I0J-75000D01*
G01*
X128877000Y-101782000D01*
G75*
G02*
X128802000Y-101857000I-75000J0D01*
G01*
X127502000Y-101857000D01*
G75*
G02*
X127427000Y-101782000I0J75000D01*
G01*
G37*
G36*
G01*
X127427000Y-101282000D02*
X127427000Y-101132000D01*
G75*
G02*
X127502000Y-101057000I75000J0D01*
G01*
X128802000Y-101057000D01*
G75*
G02*
X128877000Y-101132000I0J-75000D01*
G01*
X128877000Y-101282000D01*
G75*
G02*
X128802000Y-101357000I-75000J0D01*
G01*
X127502000Y-101357000D01*
G75*
G02*
X127427000Y-101282000I0J75000D01*
G01*
G37*
G36*
G01*
X127427000Y-100782000D02*
X127427000Y-100632000D01*
G75*
G02*
X127502000Y-100557000I75000J0D01*
G01*
X128802000Y-100557000D01*
G75*
G02*
X128877000Y-100632000I0J-75000D01*
G01*
X128877000Y-100782000D01*
G75*
G02*
X128802000Y-100857000I-75000J0D01*
G01*
X127502000Y-100857000D01*
G75*
G02*
X127427000Y-100782000I0J75000D01*
G01*
G37*
G36*
G01*
X127427000Y-100282000D02*
X127427000Y-100132000D01*
G75*
G02*
X127502000Y-100057000I75000J0D01*
G01*
X128802000Y-100057000D01*
G75*
G02*
X128877000Y-100132000I0J-75000D01*
G01*
X128877000Y-100282000D01*
G75*
G02*
X128802000Y-100357000I-75000J0D01*
G01*
X127502000Y-100357000D01*
G75*
G02*
X127427000Y-100282000I0J75000D01*
G01*
G37*
G36*
G01*
X127427000Y-99782000D02*
X127427000Y-99632000D01*
G75*
G02*
X127502000Y-99557000I75000J0D01*
G01*
X128802000Y-99557000D01*
G75*
G02*
X128877000Y-99632000I0J-75000D01*
G01*
X128877000Y-99782000D01*
G75*
G02*
X128802000Y-99857000I-75000J0D01*
G01*
X127502000Y-99857000D01*
G75*
G02*
X127427000Y-99782000I0J75000D01*
G01*
G37*
G36*
G01*
X127427000Y-99282000D02*
X127427000Y-99132000D01*
G75*
G02*
X127502000Y-99057000I75000J0D01*
G01*
X128802000Y-99057000D01*
G75*
G02*
X128877000Y-99132000I0J-75000D01*
G01*
X128877000Y-99282000D01*
G75*
G02*
X128802000Y-99357000I-75000J0D01*
G01*
X127502000Y-99357000D01*
G75*
G02*
X127427000Y-99282000I0J75000D01*
G01*
G37*
G36*
G01*
X127427000Y-98782000D02*
X127427000Y-98632000D01*
G75*
G02*
X127502000Y-98557000I75000J0D01*
G01*
X128802000Y-98557000D01*
G75*
G02*
X128877000Y-98632000I0J-75000D01*
G01*
X128877000Y-98782000D01*
G75*
G02*
X128802000Y-98857000I-75000J0D01*
G01*
X127502000Y-98857000D01*
G75*
G02*
X127427000Y-98782000I0J75000D01*
G01*
G37*
%TD*%
D11*
%TO.C,D102*%
X129286000Y-104553000D03*
X130236000Y-106553000D03*
X128336000Y-106553000D03*
%TD*%
%TO.C,C304*%
G36*
G01*
X113124000Y-120200000D02*
X112174000Y-120200000D01*
G75*
G02*
X111924000Y-119950000I0J250000D01*
G01*
X111924000Y-119275000D01*
G75*
G02*
X112174000Y-119025000I250000J0D01*
G01*
X113124000Y-119025000D01*
G75*
G02*
X113374000Y-119275000I0J-250000D01*
G01*
X113374000Y-119950000D01*
G75*
G02*
X113124000Y-120200000I-250000J0D01*
G01*
G37*
G36*
G01*
X113124000Y-122275000D02*
X112174000Y-122275000D01*
G75*
G02*
X111924000Y-122025000I0J250000D01*
G01*
X111924000Y-121350000D01*
G75*
G02*
X112174000Y-121100000I250000J0D01*
G01*
X113124000Y-121100000D01*
G75*
G02*
X113374000Y-121350000I0J-250000D01*
G01*
X113374000Y-122025000D01*
G75*
G02*
X113124000Y-122275000I-250000J0D01*
G01*
G37*
%TD*%
%TO.C,C303*%
G36*
G01*
X115156000Y-129344000D02*
X114206000Y-129344000D01*
G75*
G02*
X113956000Y-129094000I0J250000D01*
G01*
X113956000Y-128419000D01*
G75*
G02*
X114206000Y-128169000I250000J0D01*
G01*
X115156000Y-128169000D01*
G75*
G02*
X115406000Y-128419000I0J-250000D01*
G01*
X115406000Y-129094000D01*
G75*
G02*
X115156000Y-129344000I-250000J0D01*
G01*
G37*
G36*
G01*
X115156000Y-131419000D02*
X114206000Y-131419000D01*
G75*
G02*
X113956000Y-131169000I0J250000D01*
G01*
X113956000Y-130494000D01*
G75*
G02*
X114206000Y-130244000I250000J0D01*
G01*
X115156000Y-130244000D01*
G75*
G02*
X115406000Y-130494000I0J-250000D01*
G01*
X115406000Y-131169000D01*
G75*
G02*
X115156000Y-131419000I-250000J0D01*
G01*
G37*
%TD*%
%TO.C,C302*%
G36*
G01*
X121252000Y-129322500D02*
X120302000Y-129322500D01*
G75*
G02*
X120052000Y-129072500I0J250000D01*
G01*
X120052000Y-128397500D01*
G75*
G02*
X120302000Y-128147500I250000J0D01*
G01*
X121252000Y-128147500D01*
G75*
G02*
X121502000Y-128397500I0J-250000D01*
G01*
X121502000Y-129072500D01*
G75*
G02*
X121252000Y-129322500I-250000J0D01*
G01*
G37*
G36*
G01*
X121252000Y-131397500D02*
X120302000Y-131397500D01*
G75*
G02*
X120052000Y-131147500I0J250000D01*
G01*
X120052000Y-130472500D01*
G75*
G02*
X120302000Y-130222500I250000J0D01*
G01*
X121252000Y-130222500D01*
G75*
G02*
X121502000Y-130472500I0J-250000D01*
G01*
X121502000Y-131147500D01*
G75*
G02*
X121252000Y-131397500I-250000J0D01*
G01*
G37*
%TD*%
%TO.C,C301*%
G36*
G01*
X122776000Y-120708000D02*
X121826000Y-120708000D01*
G75*
G02*
X121576000Y-120458000I0J250000D01*
G01*
X121576000Y-119783000D01*
G75*
G02*
X121826000Y-119533000I250000J0D01*
G01*
X122776000Y-119533000D01*
G75*
G02*
X123026000Y-119783000I0J-250000D01*
G01*
X123026000Y-120458000D01*
G75*
G02*
X122776000Y-120708000I-250000J0D01*
G01*
G37*
G36*
G01*
X122776000Y-122783000D02*
X121826000Y-122783000D01*
G75*
G02*
X121576000Y-122533000I0J250000D01*
G01*
X121576000Y-121858000D01*
G75*
G02*
X121826000Y-121608000I250000J0D01*
G01*
X122776000Y-121608000D01*
G75*
G02*
X123026000Y-121858000I0J-250000D01*
G01*
X123026000Y-122533000D01*
G75*
G02*
X122776000Y-122783000I-250000J0D01*
G01*
G37*
%TD*%
%TO.C,C202*%
G36*
G01*
X125697000Y-103055000D02*
X124747000Y-103055000D01*
G75*
G02*
X124497000Y-102805000I0J250000D01*
G01*
X124497000Y-102130000D01*
G75*
G02*
X124747000Y-101880000I250000J0D01*
G01*
X125697000Y-101880000D01*
G75*
G02*
X125947000Y-102130000I0J-250000D01*
G01*
X125947000Y-102805000D01*
G75*
G02*
X125697000Y-103055000I-250000J0D01*
G01*
G37*
G36*
G01*
X125697000Y-105130000D02*
X124747000Y-105130000D01*
G75*
G02*
X124497000Y-104880000I0J250000D01*
G01*
X124497000Y-104205000D01*
G75*
G02*
X124747000Y-103955000I250000J0D01*
G01*
X125697000Y-103955000D01*
G75*
G02*
X125947000Y-104205000I0J-250000D01*
G01*
X125947000Y-104880000D01*
G75*
G02*
X125697000Y-105130000I-250000J0D01*
G01*
G37*
%TD*%
%TO.C,C201*%
G36*
G01*
X136365000Y-102652500D02*
X135415000Y-102652500D01*
G75*
G02*
X135165000Y-102402500I0J250000D01*
G01*
X135165000Y-101727500D01*
G75*
G02*
X135415000Y-101477500I250000J0D01*
G01*
X136365000Y-101477500D01*
G75*
G02*
X136615000Y-101727500I0J-250000D01*
G01*
X136615000Y-102402500D01*
G75*
G02*
X136365000Y-102652500I-250000J0D01*
G01*
G37*
G36*
G01*
X136365000Y-104727500D02*
X135415000Y-104727500D01*
G75*
G02*
X135165000Y-104477500I0J250000D01*
G01*
X135165000Y-103802500D01*
G75*
G02*
X135415000Y-103552500I250000J0D01*
G01*
X136365000Y-103552500D01*
G75*
G02*
X136615000Y-103802500I0J-250000D01*
G01*
X136615000Y-104477500D01*
G75*
G02*
X136365000Y-104727500I-250000J0D01*
G01*
G37*
%TD*%
M02*
