%TF.GenerationSoftware,KiCad,Pcbnew,5.1.7-a382d34a8~87~ubuntu20.04.1*%
%TF.CreationDate,2020-11-04T11:30:01+01:00*%
%TF.ProjectId,isoSPI_Interface,69736f53-5049-45f4-996e-746572666163,rev?*%
%TF.SameCoordinates,Original*%
%TF.FileFunction,Legend,Bot*%
%TF.FilePolarity,Positive*%
%FSLAX46Y46*%
G04 Gerber Fmt 4.6, Leading zero omitted, Abs format (unit mm)*
G04 Created by KiCad (PCBNEW 5.1.7-a382d34a8~87~ubuntu20.04.1) date 2020-11-04 11:30:01*
%MOMM*%
%LPD*%
G01*
G04 APERTURE LIST*
%ADD10C,0.120000*%
%ADD11C,0.150000*%
G04 APERTURE END LIST*
D10*
%TO.C,R403*%
X98398064Y-98452000D02*
X97943936Y-98452000D01*
X98398064Y-99922000D02*
X97943936Y-99922000D01*
%TO.C,R402*%
X98398064Y-96420000D02*
X97943936Y-96420000D01*
X98398064Y-97890000D02*
X97943936Y-97890000D01*
%TO.C,R401*%
X109882000Y-98451936D02*
X109882000Y-98906064D01*
X111352000Y-98451936D02*
X111352000Y-98906064D01*
%TO.C,R104*%
X113257000Y-107796064D02*
X113257000Y-107341936D01*
X111787000Y-107796064D02*
X111787000Y-107341936D01*
%TO.C,IC401*%
X104775000Y-102871000D02*
X103275000Y-102871000D01*
X104775000Y-102871000D02*
X106275000Y-102871000D01*
X104775000Y-98551000D02*
X103275000Y-98551000D01*
X104775000Y-98551000D02*
X107650000Y-98551000D01*
%TO.C,D104*%
X103830000Y-105031000D02*
X104760000Y-105031000D01*
X106990000Y-105031000D02*
X106060000Y-105031000D01*
X106990000Y-105031000D02*
X106990000Y-107191000D01*
X103830000Y-105031000D02*
X103830000Y-106491000D01*
%TO.C,C402*%
X110336000Y-104041752D02*
X110336000Y-103519248D01*
X108866000Y-104041752D02*
X108866000Y-103519248D01*
%TO.C,C401*%
X99795000Y-103766252D02*
X99795000Y-103243748D01*
X98325000Y-103766252D02*
X98325000Y-103243748D01*
%TO.C,R403*%
D11*
X99290047Y-101417380D02*
X99623380Y-100941190D01*
X99861476Y-101417380D02*
X99861476Y-100417380D01*
X99480523Y-100417380D01*
X99385285Y-100465000D01*
X99337666Y-100512619D01*
X99290047Y-100607857D01*
X99290047Y-100750714D01*
X99337666Y-100845952D01*
X99385285Y-100893571D01*
X99480523Y-100941190D01*
X99861476Y-100941190D01*
X98432904Y-100750714D02*
X98432904Y-101417380D01*
X98671000Y-100369761D02*
X98909095Y-101084047D01*
X98290047Y-101084047D01*
X97718619Y-100417380D02*
X97623380Y-100417380D01*
X97528142Y-100465000D01*
X97480523Y-100512619D01*
X97432904Y-100607857D01*
X97385285Y-100798333D01*
X97385285Y-101036428D01*
X97432904Y-101226904D01*
X97480523Y-101322142D01*
X97528142Y-101369761D01*
X97623380Y-101417380D01*
X97718619Y-101417380D01*
X97813857Y-101369761D01*
X97861476Y-101322142D01*
X97909095Y-101226904D01*
X97956714Y-101036428D01*
X97956714Y-100798333D01*
X97909095Y-100607857D01*
X97861476Y-100512619D01*
X97813857Y-100465000D01*
X97718619Y-100417380D01*
X97051952Y-100417380D02*
X96432904Y-100417380D01*
X96766238Y-100798333D01*
X96623380Y-100798333D01*
X96528142Y-100845952D01*
X96480523Y-100893571D01*
X96432904Y-100988809D01*
X96432904Y-101226904D01*
X96480523Y-101322142D01*
X96528142Y-101369761D01*
X96623380Y-101417380D01*
X96909095Y-101417380D01*
X97004333Y-101369761D01*
X97051952Y-101322142D01*
%TO.C,R402*%
X99290047Y-95957380D02*
X99623380Y-95481190D01*
X99861476Y-95957380D02*
X99861476Y-94957380D01*
X99480523Y-94957380D01*
X99385285Y-95005000D01*
X99337666Y-95052619D01*
X99290047Y-95147857D01*
X99290047Y-95290714D01*
X99337666Y-95385952D01*
X99385285Y-95433571D01*
X99480523Y-95481190D01*
X99861476Y-95481190D01*
X98432904Y-95290714D02*
X98432904Y-95957380D01*
X98671000Y-94909761D02*
X98909095Y-95624047D01*
X98290047Y-95624047D01*
X97718619Y-94957380D02*
X97623380Y-94957380D01*
X97528142Y-95005000D01*
X97480523Y-95052619D01*
X97432904Y-95147857D01*
X97385285Y-95338333D01*
X97385285Y-95576428D01*
X97432904Y-95766904D01*
X97480523Y-95862142D01*
X97528142Y-95909761D01*
X97623380Y-95957380D01*
X97718619Y-95957380D01*
X97813857Y-95909761D01*
X97861476Y-95862142D01*
X97909095Y-95766904D01*
X97956714Y-95576428D01*
X97956714Y-95338333D01*
X97909095Y-95147857D01*
X97861476Y-95052619D01*
X97813857Y-95005000D01*
X97718619Y-94957380D01*
X97004333Y-95052619D02*
X96956714Y-95005000D01*
X96861476Y-94957380D01*
X96623380Y-94957380D01*
X96528142Y-95005000D01*
X96480523Y-95052619D01*
X96432904Y-95147857D01*
X96432904Y-95243095D01*
X96480523Y-95385952D01*
X97051952Y-95957380D01*
X96432904Y-95957380D01*
%TO.C,R401*%
X109419380Y-97559952D02*
X108943190Y-97226619D01*
X109419380Y-96988523D02*
X108419380Y-96988523D01*
X108419380Y-97369476D01*
X108467000Y-97464714D01*
X108514619Y-97512333D01*
X108609857Y-97559952D01*
X108752714Y-97559952D01*
X108847952Y-97512333D01*
X108895571Y-97464714D01*
X108943190Y-97369476D01*
X108943190Y-96988523D01*
X108752714Y-98417095D02*
X109419380Y-98417095D01*
X108371761Y-98179000D02*
X109086047Y-97940904D01*
X109086047Y-98559952D01*
X108419380Y-99131380D02*
X108419380Y-99226619D01*
X108467000Y-99321857D01*
X108514619Y-99369476D01*
X108609857Y-99417095D01*
X108800333Y-99464714D01*
X109038428Y-99464714D01*
X109228904Y-99417095D01*
X109324142Y-99369476D01*
X109371761Y-99321857D01*
X109419380Y-99226619D01*
X109419380Y-99131380D01*
X109371761Y-99036142D01*
X109324142Y-98988523D01*
X109228904Y-98940904D01*
X109038428Y-98893285D01*
X108800333Y-98893285D01*
X108609857Y-98940904D01*
X108514619Y-98988523D01*
X108467000Y-99036142D01*
X108419380Y-99131380D01*
X109419380Y-100417095D02*
X109419380Y-99845666D01*
X109419380Y-100131380D02*
X108419380Y-100131380D01*
X108562238Y-100036142D01*
X108657476Y-99940904D01*
X108705095Y-99845666D01*
%TO.C,R104*%
X114624380Y-106449952D02*
X114148190Y-106116619D01*
X114624380Y-105878523D02*
X113624380Y-105878523D01*
X113624380Y-106259476D01*
X113672000Y-106354714D01*
X113719619Y-106402333D01*
X113814857Y-106449952D01*
X113957714Y-106449952D01*
X114052952Y-106402333D01*
X114100571Y-106354714D01*
X114148190Y-106259476D01*
X114148190Y-105878523D01*
X114624380Y-107402333D02*
X114624380Y-106830904D01*
X114624380Y-107116619D02*
X113624380Y-107116619D01*
X113767238Y-107021380D01*
X113862476Y-106926142D01*
X113910095Y-106830904D01*
X113624380Y-108021380D02*
X113624380Y-108116619D01*
X113672000Y-108211857D01*
X113719619Y-108259476D01*
X113814857Y-108307095D01*
X114005333Y-108354714D01*
X114243428Y-108354714D01*
X114433904Y-108307095D01*
X114529142Y-108259476D01*
X114576761Y-108211857D01*
X114624380Y-108116619D01*
X114624380Y-108021380D01*
X114576761Y-107926142D01*
X114529142Y-107878523D01*
X114433904Y-107830904D01*
X114243428Y-107783285D01*
X114005333Y-107783285D01*
X113814857Y-107830904D01*
X113719619Y-107878523D01*
X113672000Y-107926142D01*
X113624380Y-108021380D01*
X113957714Y-109211857D02*
X114624380Y-109211857D01*
X113576761Y-108973761D02*
X114291047Y-108735666D01*
X114291047Y-109354714D01*
%TO.C,IC401*%
X106703571Y-98193380D02*
X106703571Y-97193380D01*
X105655952Y-98098142D02*
X105703571Y-98145761D01*
X105846428Y-98193380D01*
X105941666Y-98193380D01*
X106084523Y-98145761D01*
X106179761Y-98050523D01*
X106227380Y-97955285D01*
X106275000Y-97764809D01*
X106275000Y-97621952D01*
X106227380Y-97431476D01*
X106179761Y-97336238D01*
X106084523Y-97241000D01*
X105941666Y-97193380D01*
X105846428Y-97193380D01*
X105703571Y-97241000D01*
X105655952Y-97288619D01*
X104798809Y-97526714D02*
X104798809Y-98193380D01*
X105036904Y-97145761D02*
X105275000Y-97860047D01*
X104655952Y-97860047D01*
X104084523Y-97193380D02*
X103989285Y-97193380D01*
X103894047Y-97241000D01*
X103846428Y-97288619D01*
X103798809Y-97383857D01*
X103751190Y-97574333D01*
X103751190Y-97812428D01*
X103798809Y-98002904D01*
X103846428Y-98098142D01*
X103894047Y-98145761D01*
X103989285Y-98193380D01*
X104084523Y-98193380D01*
X104179761Y-98145761D01*
X104227380Y-98098142D01*
X104275000Y-98002904D01*
X104322619Y-97812428D01*
X104322619Y-97574333D01*
X104275000Y-97383857D01*
X104227380Y-97288619D01*
X104179761Y-97241000D01*
X104084523Y-97193380D01*
X102798809Y-98193380D02*
X103370238Y-98193380D01*
X103084523Y-98193380D02*
X103084523Y-97193380D01*
X103179761Y-97336238D01*
X103275000Y-97431476D01*
X103370238Y-97479095D01*
%TO.C,D104*%
X108362380Y-104100523D02*
X107362380Y-104100523D01*
X107362380Y-104338619D01*
X107410000Y-104481476D01*
X107505238Y-104576714D01*
X107600476Y-104624333D01*
X107790952Y-104671952D01*
X107933809Y-104671952D01*
X108124285Y-104624333D01*
X108219523Y-104576714D01*
X108314761Y-104481476D01*
X108362380Y-104338619D01*
X108362380Y-104100523D01*
X108362380Y-105624333D02*
X108362380Y-105052904D01*
X108362380Y-105338619D02*
X107362380Y-105338619D01*
X107505238Y-105243380D01*
X107600476Y-105148142D01*
X107648095Y-105052904D01*
X107362380Y-106243380D02*
X107362380Y-106338619D01*
X107410000Y-106433857D01*
X107457619Y-106481476D01*
X107552857Y-106529095D01*
X107743333Y-106576714D01*
X107981428Y-106576714D01*
X108171904Y-106529095D01*
X108267142Y-106481476D01*
X108314761Y-106433857D01*
X108362380Y-106338619D01*
X108362380Y-106243380D01*
X108314761Y-106148142D01*
X108267142Y-106100523D01*
X108171904Y-106052904D01*
X107981428Y-106005285D01*
X107743333Y-106005285D01*
X107552857Y-106052904D01*
X107457619Y-106100523D01*
X107410000Y-106148142D01*
X107362380Y-106243380D01*
X107695714Y-107433857D02*
X108362380Y-107433857D01*
X107314761Y-107195761D02*
X108029047Y-106957666D01*
X108029047Y-107576714D01*
%TO.C,C402*%
X111638142Y-102661452D02*
X111685761Y-102613833D01*
X111733380Y-102470976D01*
X111733380Y-102375738D01*
X111685761Y-102232880D01*
X111590523Y-102137642D01*
X111495285Y-102090023D01*
X111304809Y-102042404D01*
X111161952Y-102042404D01*
X110971476Y-102090023D01*
X110876238Y-102137642D01*
X110781000Y-102232880D01*
X110733380Y-102375738D01*
X110733380Y-102470976D01*
X110781000Y-102613833D01*
X110828619Y-102661452D01*
X111066714Y-103518595D02*
X111733380Y-103518595D01*
X110685761Y-103280500D02*
X111400047Y-103042404D01*
X111400047Y-103661452D01*
X110733380Y-104232880D02*
X110733380Y-104328119D01*
X110781000Y-104423357D01*
X110828619Y-104470976D01*
X110923857Y-104518595D01*
X111114333Y-104566214D01*
X111352428Y-104566214D01*
X111542904Y-104518595D01*
X111638142Y-104470976D01*
X111685761Y-104423357D01*
X111733380Y-104328119D01*
X111733380Y-104232880D01*
X111685761Y-104137642D01*
X111638142Y-104090023D01*
X111542904Y-104042404D01*
X111352428Y-103994785D01*
X111114333Y-103994785D01*
X110923857Y-104042404D01*
X110828619Y-104090023D01*
X110781000Y-104137642D01*
X110733380Y-104232880D01*
X110828619Y-104947166D02*
X110781000Y-104994785D01*
X110733380Y-105090023D01*
X110733380Y-105328119D01*
X110781000Y-105423357D01*
X110828619Y-105470976D01*
X110923857Y-105518595D01*
X111019095Y-105518595D01*
X111161952Y-105470976D01*
X111733380Y-104899547D01*
X111733380Y-105518595D01*
%TO.C,C401*%
X101097142Y-102385952D02*
X101144761Y-102338333D01*
X101192380Y-102195476D01*
X101192380Y-102100238D01*
X101144761Y-101957380D01*
X101049523Y-101862142D01*
X100954285Y-101814523D01*
X100763809Y-101766904D01*
X100620952Y-101766904D01*
X100430476Y-101814523D01*
X100335238Y-101862142D01*
X100240000Y-101957380D01*
X100192380Y-102100238D01*
X100192380Y-102195476D01*
X100240000Y-102338333D01*
X100287619Y-102385952D01*
X100525714Y-103243095D02*
X101192380Y-103243095D01*
X100144761Y-103005000D02*
X100859047Y-102766904D01*
X100859047Y-103385952D01*
X100192380Y-103957380D02*
X100192380Y-104052619D01*
X100240000Y-104147857D01*
X100287619Y-104195476D01*
X100382857Y-104243095D01*
X100573333Y-104290714D01*
X100811428Y-104290714D01*
X101001904Y-104243095D01*
X101097142Y-104195476D01*
X101144761Y-104147857D01*
X101192380Y-104052619D01*
X101192380Y-103957380D01*
X101144761Y-103862142D01*
X101097142Y-103814523D01*
X101001904Y-103766904D01*
X100811428Y-103719285D01*
X100573333Y-103719285D01*
X100382857Y-103766904D01*
X100287619Y-103814523D01*
X100240000Y-103862142D01*
X100192380Y-103957380D01*
X101192380Y-105243095D02*
X101192380Y-104671666D01*
X101192380Y-104957380D02*
X100192380Y-104957380D01*
X100335238Y-104862142D01*
X100430476Y-104766904D01*
X100478095Y-104671666D01*
%TD*%
M02*
