%TF.GenerationSoftware,KiCad,Pcbnew,5.1.7-a382d34a8~87~ubuntu20.04.1*%
%TF.CreationDate,2020-11-04T11:30:01+01:00*%
%TF.ProjectId,isoSPI_Interface,69736f53-5049-45f4-996e-746572666163,rev?*%
%TF.SameCoordinates,Original*%
%TF.FileFunction,Soldermask,Bot*%
%TF.FilePolarity,Negative*%
%FSLAX46Y46*%
G04 Gerber Fmt 4.6, Leading zero omitted, Abs format (unit mm)*
G04 Created by KiCad (PCBNEW 5.1.7-a382d34a8~87~ubuntu20.04.1) date 2020-11-04 11:30:01*
%MOMM*%
%LPD*%
G01*
G04 APERTURE LIST*
%ADD10C,2.300000*%
%ADD11C,3.250000*%
%ADD12C,1.500000*%
%ADD13R,1.500000X1.500000*%
%ADD14C,3.200000*%
%ADD15O,1.700000X1.700000*%
%ADD16R,1.700000X1.700000*%
%ADD17R,0.800000X0.900000*%
%ADD18C,1.800000*%
%ADD19R,1.800000X1.800000*%
G04 APERTURE END LIST*
D10*
%TO.C,J102*%
X131952000Y-152402000D03*
X131952000Y-168662000D03*
D11*
X135382000Y-166882000D03*
X135382000Y-154182000D03*
D12*
X131062000Y-164084000D03*
X131062000Y-162052000D03*
X131062000Y-160020000D03*
X131062000Y-157988000D03*
X132842000Y-163068000D03*
X132842000Y-161036000D03*
X132842000Y-159004000D03*
D13*
X132842000Y-156972000D03*
%TD*%
D10*
%TO.C,J104*%
X102998000Y-168781000D03*
X102998000Y-152521000D03*
D11*
X99568000Y-154301000D03*
X99568000Y-167001000D03*
D12*
X103888000Y-157099000D03*
X103888000Y-159131000D03*
X103888000Y-161163000D03*
X103888000Y-163195000D03*
X102108000Y-158115000D03*
X102108000Y-160147000D03*
X102108000Y-162179000D03*
D13*
X102108000Y-164211000D03*
%TD*%
D14*
%TO.C,H104*%
X130683000Y-146050000D03*
%TD*%
%TO.C,H103*%
X138176000Y-109220000D03*
%TD*%
%TO.C,H102*%
X104394000Y-146050000D03*
%TD*%
%TO.C,H101*%
X96520000Y-109093000D03*
%TD*%
%TO.C,R403*%
G36*
G01*
X97771000Y-98736999D02*
X97771000Y-99637001D01*
G75*
G02*
X97521001Y-99887000I-249999J0D01*
G01*
X96820999Y-99887000D01*
G75*
G02*
X96571000Y-99637001I0J249999D01*
G01*
X96571000Y-98736999D01*
G75*
G02*
X96820999Y-98487000I249999J0D01*
G01*
X97521001Y-98487000D01*
G75*
G02*
X97771000Y-98736999I0J-249999D01*
G01*
G37*
G36*
G01*
X99771000Y-98736999D02*
X99771000Y-99637001D01*
G75*
G02*
X99521001Y-99887000I-249999J0D01*
G01*
X98820999Y-99887000D01*
G75*
G02*
X98571000Y-99637001I0J249999D01*
G01*
X98571000Y-98736999D01*
G75*
G02*
X98820999Y-98487000I249999J0D01*
G01*
X99521001Y-98487000D01*
G75*
G02*
X99771000Y-98736999I0J-249999D01*
G01*
G37*
%TD*%
%TO.C,R402*%
G36*
G01*
X97771000Y-96704999D02*
X97771000Y-97605001D01*
G75*
G02*
X97521001Y-97855000I-249999J0D01*
G01*
X96820999Y-97855000D01*
G75*
G02*
X96571000Y-97605001I0J249999D01*
G01*
X96571000Y-96704999D01*
G75*
G02*
X96820999Y-96455000I249999J0D01*
G01*
X97521001Y-96455000D01*
G75*
G02*
X97771000Y-96704999I0J-249999D01*
G01*
G37*
G36*
G01*
X99771000Y-96704999D02*
X99771000Y-97605001D01*
G75*
G02*
X99521001Y-97855000I-249999J0D01*
G01*
X98820999Y-97855000D01*
G75*
G02*
X98571000Y-97605001I0J249999D01*
G01*
X98571000Y-96704999D01*
G75*
G02*
X98820999Y-96455000I249999J0D01*
G01*
X99521001Y-96455000D01*
G75*
G02*
X99771000Y-96704999I0J-249999D01*
G01*
G37*
%TD*%
%TO.C,R401*%
G36*
G01*
X110166999Y-99079000D02*
X111067001Y-99079000D01*
G75*
G02*
X111317000Y-99328999I0J-249999D01*
G01*
X111317000Y-100029001D01*
G75*
G02*
X111067001Y-100279000I-249999J0D01*
G01*
X110166999Y-100279000D01*
G75*
G02*
X109917000Y-100029001I0J249999D01*
G01*
X109917000Y-99328999D01*
G75*
G02*
X110166999Y-99079000I249999J0D01*
G01*
G37*
G36*
G01*
X110166999Y-97079000D02*
X111067001Y-97079000D01*
G75*
G02*
X111317000Y-97328999I0J-249999D01*
G01*
X111317000Y-98029001D01*
G75*
G02*
X111067001Y-98279000I-249999J0D01*
G01*
X110166999Y-98279000D01*
G75*
G02*
X109917000Y-98029001I0J249999D01*
G01*
X109917000Y-97328999D01*
G75*
G02*
X110166999Y-97079000I249999J0D01*
G01*
G37*
%TD*%
%TO.C,R104*%
G36*
G01*
X112972001Y-107169000D02*
X112071999Y-107169000D01*
G75*
G02*
X111822000Y-106919001I0J249999D01*
G01*
X111822000Y-106218999D01*
G75*
G02*
X112071999Y-105969000I249999J0D01*
G01*
X112972001Y-105969000D01*
G75*
G02*
X113222000Y-106218999I0J-249999D01*
G01*
X113222000Y-106919001D01*
G75*
G02*
X112972001Y-107169000I-249999J0D01*
G01*
G37*
G36*
G01*
X112972001Y-109169000D02*
X112071999Y-109169000D01*
G75*
G02*
X111822000Y-108919001I0J249999D01*
G01*
X111822000Y-108218999D01*
G75*
G02*
X112071999Y-107969000I249999J0D01*
G01*
X112972001Y-107969000D01*
G75*
G02*
X113222000Y-108218999I0J-249999D01*
G01*
X113222000Y-108919001D01*
G75*
G02*
X112972001Y-109169000I-249999J0D01*
G01*
G37*
%TD*%
D15*
%TO.C,J405*%
X98933000Y-86487000D03*
X98933000Y-89027000D03*
D16*
X98933000Y-91567000D03*
%TD*%
D15*
%TO.C,J404*%
X102997000Y-86487000D03*
X102997000Y-89027000D03*
D16*
X102997000Y-91567000D03*
%TD*%
D15*
%TO.C,J403*%
X94869000Y-86487000D03*
X94869000Y-89027000D03*
D16*
X94869000Y-91567000D03*
%TD*%
D15*
%TO.C,J402*%
X107569000Y-89281000D03*
X107569000Y-91821000D03*
D16*
X107569000Y-94361000D03*
%TD*%
D15*
%TO.C,J401*%
X111633000Y-89281000D03*
X111633000Y-91821000D03*
D16*
X111633000Y-94361000D03*
%TD*%
D15*
%TO.C,J205*%
X135890000Y-86233000D03*
X135890000Y-88773000D03*
D16*
X135890000Y-91313000D03*
%TD*%
D15*
%TO.C,J204*%
X131826000Y-86233000D03*
X131826000Y-88773000D03*
D16*
X131826000Y-91313000D03*
%TD*%
D15*
%TO.C,J203*%
X139954000Y-86233000D03*
X139954000Y-88773000D03*
D16*
X139954000Y-91313000D03*
%TD*%
D15*
%TO.C,J202*%
X127762000Y-89281000D03*
X127762000Y-91821000D03*
D16*
X127762000Y-94361000D03*
%TD*%
D15*
%TO.C,J201*%
X123698000Y-89281000D03*
X123698000Y-91821000D03*
D16*
X123698000Y-94361000D03*
%TD*%
D15*
%TO.C,J103*%
X117094000Y-109601000D03*
X117094000Y-107061000D03*
X117094000Y-104521000D03*
X117094000Y-101981000D03*
X117094000Y-99441000D03*
X117094000Y-96901000D03*
D16*
X117094000Y-94361000D03*
%TD*%
D15*
%TO.C,J101*%
X117094000Y-85725000D03*
D16*
X117094000Y-88265000D03*
%TD*%
%TO.C,IC401*%
G36*
G01*
X103350000Y-98886000D02*
X103350000Y-99036000D01*
G75*
G02*
X103275000Y-99111000I-75000J0D01*
G01*
X101975000Y-99111000D01*
G75*
G02*
X101900000Y-99036000I0J75000D01*
G01*
X101900000Y-98886000D01*
G75*
G02*
X101975000Y-98811000I75000J0D01*
G01*
X103275000Y-98811000D01*
G75*
G02*
X103350000Y-98886000I0J-75000D01*
G01*
G37*
G36*
G01*
X103350000Y-99386000D02*
X103350000Y-99536000D01*
G75*
G02*
X103275000Y-99611000I-75000J0D01*
G01*
X101975000Y-99611000D01*
G75*
G02*
X101900000Y-99536000I0J75000D01*
G01*
X101900000Y-99386000D01*
G75*
G02*
X101975000Y-99311000I75000J0D01*
G01*
X103275000Y-99311000D01*
G75*
G02*
X103350000Y-99386000I0J-75000D01*
G01*
G37*
G36*
G01*
X103350000Y-99886000D02*
X103350000Y-100036000D01*
G75*
G02*
X103275000Y-100111000I-75000J0D01*
G01*
X101975000Y-100111000D01*
G75*
G02*
X101900000Y-100036000I0J75000D01*
G01*
X101900000Y-99886000D01*
G75*
G02*
X101975000Y-99811000I75000J0D01*
G01*
X103275000Y-99811000D01*
G75*
G02*
X103350000Y-99886000I0J-75000D01*
G01*
G37*
G36*
G01*
X103350000Y-100386000D02*
X103350000Y-100536000D01*
G75*
G02*
X103275000Y-100611000I-75000J0D01*
G01*
X101975000Y-100611000D01*
G75*
G02*
X101900000Y-100536000I0J75000D01*
G01*
X101900000Y-100386000D01*
G75*
G02*
X101975000Y-100311000I75000J0D01*
G01*
X103275000Y-100311000D01*
G75*
G02*
X103350000Y-100386000I0J-75000D01*
G01*
G37*
G36*
G01*
X103350000Y-100886000D02*
X103350000Y-101036000D01*
G75*
G02*
X103275000Y-101111000I-75000J0D01*
G01*
X101975000Y-101111000D01*
G75*
G02*
X101900000Y-101036000I0J75000D01*
G01*
X101900000Y-100886000D01*
G75*
G02*
X101975000Y-100811000I75000J0D01*
G01*
X103275000Y-100811000D01*
G75*
G02*
X103350000Y-100886000I0J-75000D01*
G01*
G37*
G36*
G01*
X103350000Y-101386000D02*
X103350000Y-101536000D01*
G75*
G02*
X103275000Y-101611000I-75000J0D01*
G01*
X101975000Y-101611000D01*
G75*
G02*
X101900000Y-101536000I0J75000D01*
G01*
X101900000Y-101386000D01*
G75*
G02*
X101975000Y-101311000I75000J0D01*
G01*
X103275000Y-101311000D01*
G75*
G02*
X103350000Y-101386000I0J-75000D01*
G01*
G37*
G36*
G01*
X103350000Y-101886000D02*
X103350000Y-102036000D01*
G75*
G02*
X103275000Y-102111000I-75000J0D01*
G01*
X101975000Y-102111000D01*
G75*
G02*
X101900000Y-102036000I0J75000D01*
G01*
X101900000Y-101886000D01*
G75*
G02*
X101975000Y-101811000I75000J0D01*
G01*
X103275000Y-101811000D01*
G75*
G02*
X103350000Y-101886000I0J-75000D01*
G01*
G37*
G36*
G01*
X103350000Y-102386000D02*
X103350000Y-102536000D01*
G75*
G02*
X103275000Y-102611000I-75000J0D01*
G01*
X101975000Y-102611000D01*
G75*
G02*
X101900000Y-102536000I0J75000D01*
G01*
X101900000Y-102386000D01*
G75*
G02*
X101975000Y-102311000I75000J0D01*
G01*
X103275000Y-102311000D01*
G75*
G02*
X103350000Y-102386000I0J-75000D01*
G01*
G37*
G36*
G01*
X107650000Y-102386000D02*
X107650000Y-102536000D01*
G75*
G02*
X107575000Y-102611000I-75000J0D01*
G01*
X106275000Y-102611000D01*
G75*
G02*
X106200000Y-102536000I0J75000D01*
G01*
X106200000Y-102386000D01*
G75*
G02*
X106275000Y-102311000I75000J0D01*
G01*
X107575000Y-102311000D01*
G75*
G02*
X107650000Y-102386000I0J-75000D01*
G01*
G37*
G36*
G01*
X107650000Y-101886000D02*
X107650000Y-102036000D01*
G75*
G02*
X107575000Y-102111000I-75000J0D01*
G01*
X106275000Y-102111000D01*
G75*
G02*
X106200000Y-102036000I0J75000D01*
G01*
X106200000Y-101886000D01*
G75*
G02*
X106275000Y-101811000I75000J0D01*
G01*
X107575000Y-101811000D01*
G75*
G02*
X107650000Y-101886000I0J-75000D01*
G01*
G37*
G36*
G01*
X107650000Y-101386000D02*
X107650000Y-101536000D01*
G75*
G02*
X107575000Y-101611000I-75000J0D01*
G01*
X106275000Y-101611000D01*
G75*
G02*
X106200000Y-101536000I0J75000D01*
G01*
X106200000Y-101386000D01*
G75*
G02*
X106275000Y-101311000I75000J0D01*
G01*
X107575000Y-101311000D01*
G75*
G02*
X107650000Y-101386000I0J-75000D01*
G01*
G37*
G36*
G01*
X107650000Y-100886000D02*
X107650000Y-101036000D01*
G75*
G02*
X107575000Y-101111000I-75000J0D01*
G01*
X106275000Y-101111000D01*
G75*
G02*
X106200000Y-101036000I0J75000D01*
G01*
X106200000Y-100886000D01*
G75*
G02*
X106275000Y-100811000I75000J0D01*
G01*
X107575000Y-100811000D01*
G75*
G02*
X107650000Y-100886000I0J-75000D01*
G01*
G37*
G36*
G01*
X107650000Y-100386000D02*
X107650000Y-100536000D01*
G75*
G02*
X107575000Y-100611000I-75000J0D01*
G01*
X106275000Y-100611000D01*
G75*
G02*
X106200000Y-100536000I0J75000D01*
G01*
X106200000Y-100386000D01*
G75*
G02*
X106275000Y-100311000I75000J0D01*
G01*
X107575000Y-100311000D01*
G75*
G02*
X107650000Y-100386000I0J-75000D01*
G01*
G37*
G36*
G01*
X107650000Y-99886000D02*
X107650000Y-100036000D01*
G75*
G02*
X107575000Y-100111000I-75000J0D01*
G01*
X106275000Y-100111000D01*
G75*
G02*
X106200000Y-100036000I0J75000D01*
G01*
X106200000Y-99886000D01*
G75*
G02*
X106275000Y-99811000I75000J0D01*
G01*
X107575000Y-99811000D01*
G75*
G02*
X107650000Y-99886000I0J-75000D01*
G01*
G37*
G36*
G01*
X107650000Y-99386000D02*
X107650000Y-99536000D01*
G75*
G02*
X107575000Y-99611000I-75000J0D01*
G01*
X106275000Y-99611000D01*
G75*
G02*
X106200000Y-99536000I0J75000D01*
G01*
X106200000Y-99386000D01*
G75*
G02*
X106275000Y-99311000I75000J0D01*
G01*
X107575000Y-99311000D01*
G75*
G02*
X107650000Y-99386000I0J-75000D01*
G01*
G37*
G36*
G01*
X107650000Y-98886000D02*
X107650000Y-99036000D01*
G75*
G02*
X107575000Y-99111000I-75000J0D01*
G01*
X106275000Y-99111000D01*
G75*
G02*
X106200000Y-99036000I0J75000D01*
G01*
X106200000Y-98886000D01*
G75*
G02*
X106275000Y-98811000I75000J0D01*
G01*
X107575000Y-98811000D01*
G75*
G02*
X107650000Y-98886000I0J-75000D01*
G01*
G37*
%TD*%
D17*
%TO.C,D104*%
X105410000Y-104791000D03*
X104460000Y-106791000D03*
X106360000Y-106791000D03*
%TD*%
D18*
%TO.C,D103*%
X112522000Y-111125000D03*
D19*
X112522000Y-113665000D03*
%TD*%
D18*
%TO.C,D101*%
X122682000Y-111125000D03*
D19*
X122682000Y-113665000D03*
%TD*%
%TO.C,C402*%
G36*
G01*
X110076000Y-103330500D02*
X109126000Y-103330500D01*
G75*
G02*
X108876000Y-103080500I0J250000D01*
G01*
X108876000Y-102405500D01*
G75*
G02*
X109126000Y-102155500I250000J0D01*
G01*
X110076000Y-102155500D01*
G75*
G02*
X110326000Y-102405500I0J-250000D01*
G01*
X110326000Y-103080500D01*
G75*
G02*
X110076000Y-103330500I-250000J0D01*
G01*
G37*
G36*
G01*
X110076000Y-105405500D02*
X109126000Y-105405500D01*
G75*
G02*
X108876000Y-105155500I0J250000D01*
G01*
X108876000Y-104480500D01*
G75*
G02*
X109126000Y-104230500I250000J0D01*
G01*
X110076000Y-104230500D01*
G75*
G02*
X110326000Y-104480500I0J-250000D01*
G01*
X110326000Y-105155500D01*
G75*
G02*
X110076000Y-105405500I-250000J0D01*
G01*
G37*
%TD*%
%TO.C,C401*%
G36*
G01*
X99535000Y-103055000D02*
X98585000Y-103055000D01*
G75*
G02*
X98335000Y-102805000I0J250000D01*
G01*
X98335000Y-102130000D01*
G75*
G02*
X98585000Y-101880000I250000J0D01*
G01*
X99535000Y-101880000D01*
G75*
G02*
X99785000Y-102130000I0J-250000D01*
G01*
X99785000Y-102805000D01*
G75*
G02*
X99535000Y-103055000I-250000J0D01*
G01*
G37*
G36*
G01*
X99535000Y-105130000D02*
X98585000Y-105130000D01*
G75*
G02*
X98335000Y-104880000I0J250000D01*
G01*
X98335000Y-104205000D01*
G75*
G02*
X98585000Y-103955000I250000J0D01*
G01*
X99535000Y-103955000D01*
G75*
G02*
X99785000Y-104205000I0J-250000D01*
G01*
X99785000Y-104880000D01*
G75*
G02*
X99535000Y-105130000I-250000J0D01*
G01*
G37*
%TD*%
M02*
